G04 #@! TF.GenerationSoftware,KiCad,Pcbnew,5.0.1-33cea8e~68~ubuntu18.04.1*
G04 #@! TF.CreationDate,2019-04-25T19:51:38-04:00*
G04 #@! TF.ProjectId,IMU,494D552E6B696361645F706362000000,rev?*
G04 #@! TF.SameCoordinates,Original*
G04 #@! TF.FileFunction,Copper,L2,Bot,Signal*
G04 #@! TF.FilePolarity,Positive*
%FSLAX46Y46*%
G04 Gerber Fmt 4.6, Leading zero omitted, Abs format (unit mm)*
G04 Created by KiCad (PCBNEW 5.0.1-33cea8e~68~ubuntu18.04.1) date Thu 25 Apr 2019 07:51:38 PM EDT*
%MOMM*%
%LPD*%
G01*
G04 APERTURE LIST*
G04 #@! TA.AperFunction,ComponentPad*
%ADD10C,4.648200*%
G04 #@! TD*
G04 #@! TA.AperFunction,ComponentPad*
%ADD11R,1.400000X1.400000*%
G04 #@! TD*
G04 #@! TA.AperFunction,ComponentPad*
%ADD12C,1.400000*%
G04 #@! TD*
G04 #@! TA.AperFunction,ComponentPad*
%ADD13C,1.420000*%
G04 #@! TD*
G04 #@! TA.AperFunction,ComponentPad*
%ADD14C,3.450000*%
G04 #@! TD*
G04 #@! TA.AperFunction,ViaPad*
%ADD15C,0.609600*%
G04 #@! TD*
G04 #@! TA.AperFunction,Conductor*
%ADD16C,0.152400*%
G04 #@! TD*
G04 #@! TA.AperFunction,Conductor*
%ADD17C,0.508000*%
G04 #@! TD*
G04 #@! TA.AperFunction,Conductor*
%ADD18C,0.254000*%
G04 #@! TD*
G04 APERTURE END LIST*
D10*
G04 #@! TO.P,REF\002A\002A,*
G04 #@! TO.N,*
X162000000Y-75000000D03*
G04 #@! TD*
G04 #@! TO.P,REF\002A\002A,*
G04 #@! TO.N,*
X162000000Y-123000000D03*
G04 #@! TD*
G04 #@! TO.P,REF\002A\002A,*
G04 #@! TO.N,*
X120000000Y-123000000D03*
G04 #@! TD*
D11*
G04 #@! TO.P,J4,1*
G04 #@! TO.N,/MISO*
X127106680Y-91287600D03*
D12*
G04 #@! TO.P,J4,2*
G04 #@! TO.N,VCC*
X124566680Y-91287600D03*
G04 #@! TO.P,J4,3*
G04 #@! TO.N,/SCK*
X127106680Y-88747600D03*
G04 #@! TO.P,J4,4*
G04 #@! TO.N,/MOSI*
X124566680Y-88747600D03*
G04 #@! TO.P,J4,5*
G04 #@! TO.N,/RESET*
X127106680Y-86207600D03*
G04 #@! TO.P,J4,6*
G04 #@! TO.N,GND*
X124566680Y-86207600D03*
G04 #@! TD*
D13*
G04 #@! TO.P,J1,6*
G04 #@! TO.N,/CANH*
X133476320Y-112188000D03*
G04 #@! TO.P,J1,5*
G04 #@! TO.N,/CANL*
X129976320Y-112188000D03*
G04 #@! TO.P,J1,4*
G04 #@! TO.N,GND*
X126476320Y-112188000D03*
G04 #@! TO.P,J1,3*
G04 #@! TO.N,/12V*
X133476320Y-109188000D03*
G04 #@! TO.P,J1,2*
G04 #@! TO.N,/CANH*
X129976320Y-109188000D03*
G04 #@! TO.P,J1,1*
G04 #@! TO.N,/CANL*
X126476320Y-109188000D03*
D14*
G04 #@! TO.P,J1,*
G04 #@! TO.N,*
X128386320Y-120098000D03*
X135386320Y-120098000D03*
D13*
G04 #@! TO.P,J1,7*
G04 #@! TO.N,/12V*
X136976320Y-109188000D03*
G04 #@! TO.P,J1,8*
G04 #@! TO.N,GND*
X136976320Y-112188000D03*
G04 #@! TD*
D10*
G04 #@! TO.P,REF\002A\002A,*
G04 #@! TO.N,*
X120000000Y-75000000D03*
G04 #@! TD*
D15*
G04 #@! TO.N,GND*
X156342080Y-100812600D03*
X143387880Y-117557840D03*
X143387880Y-119335840D03*
X145673880Y-119335840D03*
X145673880Y-117557840D03*
X161599880Y-108574840D03*
X160583880Y-111368840D03*
X161599880Y-110352840D03*
X160583880Y-109590840D03*
X160329880Y-108574840D03*
X160583880Y-113400840D03*
X161599880Y-112384840D03*
X140139420Y-86321900D03*
X140870940Y-107629960D03*
X132882640Y-94071440D03*
X121462800Y-102316280D03*
X140817600Y-101234240D03*
X146710400Y-90180160D03*
X146461480Y-95656400D03*
X131251960Y-100589080D03*
X154280000Y-74830000D03*
X154770000Y-75640000D03*
X154220000Y-76370000D03*
X154670000Y-77090000D03*
X162143440Y-82590640D03*
X162163760Y-88295480D03*
X117038120Y-79237840D03*
X117094000Y-87177880D03*
X117170200Y-95707200D03*
X116982240Y-104439720D03*
X117043200Y-113045240D03*
X116982240Y-119354600D03*
X122636280Y-120360440D03*
X123169680Y-126100840D03*
X128971040Y-126166880D03*
X135244840Y-126131320D03*
X141279880Y-126029720D03*
X146786600Y-125963680D03*
X152527000Y-125989080D03*
X157891480Y-125907800D03*
X160172400Y-120345200D03*
X165216840Y-120385840D03*
X165196520Y-112989360D03*
X165196520Y-106172000D03*
X165364160Y-99268280D03*
X165364160Y-93040200D03*
X165364160Y-87233760D03*
X165511480Y-79085440D03*
X159903160Y-78861920D03*
X158658560Y-71917560D03*
X123052840Y-78237080D03*
X123809760Y-71821040D03*
X134228840Y-73649840D03*
X152781000Y-71968360D03*
X146248120Y-71876920D03*
X139573000Y-71922640D03*
X131439920Y-71876920D03*
X130190240Y-73822560D03*
X132181600Y-73837800D03*
G04 #@! TO.N,VCC*
X131070000Y-99180000D03*
X127630000Y-99160000D03*
X148300440Y-97774760D03*
X148300440Y-99019521D03*
X145796000Y-73807320D03*
X145816320Y-78983840D03*
G04 #@! TO.N,Net-(C5-Pad2)*
X155922780Y-117003940D03*
X155871980Y-114413140D03*
G04 #@! TO.N,Net-(C11-Pad1)*
X156849880Y-114255840D03*
X158907480Y-117632480D03*
G04 #@! TO.N,Net-(R3-Pad2)*
X150753880Y-122383840D03*
X151769880Y-120605840D03*
G04 #@! TO.N,/MISO2*
X149188271Y-85004809D03*
X153009600Y-83997800D03*
X139760000Y-90790000D03*
X140516832Y-90013168D03*
G04 #@! TO.N,Net-(D8-Pad2)*
X153911357Y-80038525D03*
X149743160Y-80035400D03*
G04 #@! TD*
D16*
G04 #@! TO.N,GND*
X154280000Y-75150000D02*
X154770000Y-75640000D01*
X154280000Y-74830000D02*
X154280000Y-75150000D01*
X154220000Y-76640000D02*
X154670000Y-77090000D01*
X154220000Y-76370000D02*
X154220000Y-76640000D01*
X157810200Y-125989080D02*
X157891480Y-125907800D01*
X152527000Y-125989080D02*
X157810200Y-125989080D01*
X165176200Y-120345200D02*
X165216840Y-120385840D01*
X160172400Y-120345200D02*
X165176200Y-120345200D01*
X165196520Y-112558308D02*
X165227000Y-112527828D01*
X165196520Y-112989360D02*
X165196520Y-112558308D01*
X165196520Y-112497348D02*
X165196520Y-106172000D01*
X165227000Y-112527828D02*
X165196520Y-112497348D01*
X165364160Y-79232760D02*
X165511480Y-79085440D01*
X165364160Y-87233760D02*
X165364160Y-79232760D01*
X158658560Y-77617320D02*
X158658560Y-71917560D01*
X159903160Y-78861920D02*
X158658560Y-77617320D01*
X146339560Y-71968360D02*
X146248120Y-71876920D01*
X152781000Y-71968360D02*
X146339560Y-71968360D01*
X131485640Y-71922640D02*
X131439920Y-71876920D01*
X139573000Y-71922640D02*
X131485640Y-71922640D01*
X123809760Y-77480160D02*
X123052840Y-78237080D01*
X123809760Y-71821040D02*
X123809760Y-77480160D01*
X117038120Y-87122000D02*
X117094000Y-87177880D01*
X117038120Y-79237840D02*
X117038120Y-87122000D01*
X117170200Y-104251760D02*
X116982240Y-104439720D01*
X117170200Y-95707200D02*
X117170200Y-104251760D01*
X117043200Y-119293640D02*
X116982240Y-119354600D01*
X117043200Y-113045240D02*
X117043200Y-119293640D01*
X122636280Y-125567440D02*
X123169680Y-126100840D01*
X122636280Y-120360440D02*
X122636280Y-125567440D01*
X135209280Y-126166880D02*
X135244840Y-126131320D01*
X128971040Y-126166880D02*
X135209280Y-126166880D01*
D17*
G04 #@! TO.N,VCC*
X127650000Y-99180000D02*
X127630000Y-99160000D01*
X131070000Y-99180000D02*
X127650000Y-99180000D01*
D16*
X148300440Y-97774760D02*
X148300440Y-99019521D01*
X148300440Y-99019521D02*
X148300440Y-99090480D01*
X145816320Y-73827640D02*
X145796000Y-73807320D01*
X145816320Y-78983840D02*
X145816320Y-73827640D01*
D18*
G04 #@! TO.N,Net-(C5-Pad2)*
X155871980Y-116953140D02*
X155922780Y-117003940D01*
X155871980Y-114413140D02*
X155871980Y-116953140D01*
G04 #@! TO.N,Net-(C11-Pad1)*
X158907480Y-117632480D02*
X156849880Y-115574880D01*
X156849880Y-115574880D02*
X156849880Y-114255840D01*
G04 #@! TO.N,Net-(R3-Pad2)*
X150753880Y-121621840D02*
X151769880Y-120605840D01*
X150753880Y-122383840D02*
X150753880Y-121621840D01*
D16*
G04 #@! TO.N,/MISO2*
X152002591Y-85004809D02*
X149188271Y-85004809D01*
X153009600Y-83997800D02*
X152002591Y-85004809D01*
X139760000Y-90770000D02*
X140516832Y-90013168D01*
X139760000Y-90790000D02*
X139760000Y-90770000D01*
G04 #@! TO.N,Net-(D8-Pad2)*
X153908232Y-80035400D02*
X153911357Y-80038525D01*
X149743160Y-80035400D02*
X153908232Y-80035400D01*
G04 #@! TD*
D18*
G04 #@! TO.N,GND*
G36*
X162122138Y-71575174D02*
X162927971Y-71795625D01*
X163682032Y-72155295D01*
X164360486Y-72642812D01*
X164941877Y-73242762D01*
X165407847Y-73936197D01*
X165743651Y-74701180D01*
X165939382Y-75516460D01*
X165990601Y-76213924D01*
X165990600Y-121957362D01*
X165991077Y-121959760D01*
X165919906Y-122757218D01*
X165699456Y-123563050D01*
X165339785Y-124317112D01*
X164852268Y-124995566D01*
X164252315Y-125576960D01*
X163558881Y-126042928D01*
X162793900Y-126378731D01*
X161978620Y-126574462D01*
X161333560Y-126621833D01*
X161327363Y-126620600D01*
X120666897Y-126620600D01*
X119817862Y-126544826D01*
X119012030Y-126324376D01*
X118257968Y-125964705D01*
X117579514Y-125477188D01*
X116998120Y-124877235D01*
X116532152Y-124183801D01*
X116196349Y-123418820D01*
X116000618Y-122603540D01*
X115991703Y-122482132D01*
X117396500Y-122482132D01*
X117396500Y-123517868D01*
X117792859Y-124474765D01*
X118525235Y-125207141D01*
X119482132Y-125603500D01*
X120517868Y-125603500D01*
X121474765Y-125207141D01*
X122207141Y-124474765D01*
X122603500Y-123517868D01*
X122603500Y-122482132D01*
X122514653Y-122267635D01*
X150169680Y-122267635D01*
X150169680Y-122500045D01*
X150258619Y-122714763D01*
X150422957Y-122879101D01*
X150637675Y-122968040D01*
X150870085Y-122968040D01*
X151084803Y-122879101D01*
X151249141Y-122714763D01*
X151338080Y-122500045D01*
X151338080Y-122482132D01*
X159396500Y-122482132D01*
X159396500Y-123517868D01*
X159792859Y-124474765D01*
X160525235Y-125207141D01*
X161482132Y-125603500D01*
X162517868Y-125603500D01*
X163474765Y-125207141D01*
X164207141Y-124474765D01*
X164603500Y-123517868D01*
X164603500Y-122482132D01*
X164207141Y-121525235D01*
X163474765Y-120792859D01*
X162517868Y-120396500D01*
X161482132Y-120396500D01*
X160525235Y-120792859D01*
X159792859Y-121525235D01*
X159396500Y-122482132D01*
X151338080Y-122482132D01*
X151338080Y-122267635D01*
X151249141Y-122052917D01*
X151160280Y-121964056D01*
X151160280Y-121790175D01*
X151760416Y-121190040D01*
X151886085Y-121190040D01*
X152100803Y-121101101D01*
X152265141Y-120936763D01*
X152354080Y-120722045D01*
X152354080Y-120489635D01*
X152265141Y-120274917D01*
X152100803Y-120110579D01*
X151886085Y-120021640D01*
X151653675Y-120021640D01*
X151438957Y-120110579D01*
X151274619Y-120274917D01*
X151185680Y-120489635D01*
X151185680Y-120615304D01*
X150494813Y-121306172D01*
X150460884Y-121328843D01*
X150438213Y-121362772D01*
X150438212Y-121362773D01*
X150371061Y-121463271D01*
X150339520Y-121621840D01*
X150347481Y-121661863D01*
X150347481Y-121964055D01*
X150258619Y-122052917D01*
X150169680Y-122267635D01*
X122514653Y-122267635D01*
X122207141Y-121525235D01*
X121474765Y-120792859D01*
X120517868Y-120396500D01*
X119482132Y-120396500D01*
X118525235Y-120792859D01*
X117792859Y-121525235D01*
X117396500Y-122482132D01*
X115991703Y-122482132D01*
X115949400Y-121906089D01*
X115949400Y-119699300D01*
X126381920Y-119699300D01*
X126381920Y-120496700D01*
X126687071Y-121233402D01*
X127250918Y-121797249D01*
X127987620Y-122102400D01*
X128785020Y-122102400D01*
X129521722Y-121797249D01*
X130085569Y-121233402D01*
X130390720Y-120496700D01*
X130390720Y-119699300D01*
X133381920Y-119699300D01*
X133381920Y-120496700D01*
X133687071Y-121233402D01*
X134250918Y-121797249D01*
X134987620Y-122102400D01*
X135785020Y-122102400D01*
X136521722Y-121797249D01*
X137085569Y-121233402D01*
X137390720Y-120496700D01*
X137390720Y-119699300D01*
X137085569Y-118962598D01*
X136521722Y-118398751D01*
X135785020Y-118093600D01*
X134987620Y-118093600D01*
X134250918Y-118398751D01*
X133687071Y-118962598D01*
X133381920Y-119699300D01*
X130390720Y-119699300D01*
X130085569Y-118962598D01*
X129521722Y-118398751D01*
X128785020Y-118093600D01*
X127987620Y-118093600D01*
X127250918Y-118398751D01*
X126687071Y-118962598D01*
X126381920Y-119699300D01*
X115949400Y-119699300D01*
X115949400Y-114296935D01*
X155287780Y-114296935D01*
X155287780Y-114529345D01*
X155376719Y-114744063D01*
X155465580Y-114832924D01*
X155465581Y-116634955D01*
X155427519Y-116673017D01*
X155338580Y-116887735D01*
X155338580Y-117120145D01*
X155427519Y-117334863D01*
X155591857Y-117499201D01*
X155806575Y-117588140D01*
X156038985Y-117588140D01*
X156253703Y-117499201D01*
X156418041Y-117334863D01*
X156506980Y-117120145D01*
X156506980Y-116887735D01*
X156418041Y-116673017D01*
X156278380Y-116533356D01*
X156278380Y-114832924D01*
X156367241Y-114744063D01*
X156409616Y-114641760D01*
X156443481Y-114675625D01*
X156443480Y-115534862D01*
X156435520Y-115574880D01*
X156443480Y-115614898D01*
X156443480Y-115614902D01*
X156467060Y-115733448D01*
X156556883Y-115867877D01*
X156590815Y-115890550D01*
X158323280Y-117623016D01*
X158323280Y-117748685D01*
X158412219Y-117963403D01*
X158576557Y-118127741D01*
X158791275Y-118216680D01*
X159023685Y-118216680D01*
X159238403Y-118127741D01*
X159402741Y-117963403D01*
X159491680Y-117748685D01*
X159491680Y-117516275D01*
X159402741Y-117301557D01*
X159238403Y-117137219D01*
X159023685Y-117048280D01*
X158898016Y-117048280D01*
X157256280Y-115406545D01*
X157256280Y-114675624D01*
X157345141Y-114586763D01*
X157434080Y-114372045D01*
X157434080Y-114139635D01*
X157345141Y-113924917D01*
X157180803Y-113760579D01*
X156966085Y-113671640D01*
X156733675Y-113671640D01*
X156518957Y-113760579D01*
X156354619Y-113924917D01*
X156312244Y-114027220D01*
X156202903Y-113917879D01*
X155988185Y-113828940D01*
X155755775Y-113828940D01*
X155541057Y-113917879D01*
X155376719Y-114082217D01*
X155287780Y-114296935D01*
X115949400Y-114296935D01*
X115949400Y-113130525D01*
X125713401Y-113130525D01*
X125776470Y-113367327D01*
X126281052Y-113545377D01*
X126815361Y-113516779D01*
X127176170Y-113367327D01*
X127239239Y-113130525D01*
X126476320Y-112367605D01*
X125713401Y-113130525D01*
X115949400Y-113130525D01*
X115949400Y-111992732D01*
X125118943Y-111992732D01*
X125147541Y-112527041D01*
X125296993Y-112887850D01*
X125533795Y-112950919D01*
X126296715Y-112188000D01*
X126655925Y-112188000D01*
X127418845Y-112950919D01*
X127655647Y-112887850D01*
X127833697Y-112383268D01*
X127812712Y-111991196D01*
X128986920Y-111991196D01*
X128986920Y-112384804D01*
X129137548Y-112748450D01*
X129415870Y-113026772D01*
X129779516Y-113177400D01*
X130173124Y-113177400D01*
X130536770Y-113026772D01*
X130815092Y-112748450D01*
X130965720Y-112384804D01*
X130965720Y-111991196D01*
X132486920Y-111991196D01*
X132486920Y-112384804D01*
X132637548Y-112748450D01*
X132915870Y-113026772D01*
X133279516Y-113177400D01*
X133673124Y-113177400D01*
X133786289Y-113130525D01*
X136213401Y-113130525D01*
X136276470Y-113367327D01*
X136781052Y-113545377D01*
X137315361Y-113516779D01*
X137676170Y-113367327D01*
X137739239Y-113130525D01*
X136976320Y-112367605D01*
X136213401Y-113130525D01*
X133786289Y-113130525D01*
X134036770Y-113026772D01*
X134315092Y-112748450D01*
X134465720Y-112384804D01*
X134465720Y-111992732D01*
X135618943Y-111992732D01*
X135647541Y-112527041D01*
X135796993Y-112887850D01*
X136033795Y-112950919D01*
X136796715Y-112188000D01*
X137155925Y-112188000D01*
X137918845Y-112950919D01*
X138155647Y-112887850D01*
X138333697Y-112383268D01*
X138305099Y-111848959D01*
X138155647Y-111488150D01*
X137918845Y-111425081D01*
X137155925Y-112188000D01*
X136796715Y-112188000D01*
X136033795Y-111425081D01*
X135796993Y-111488150D01*
X135618943Y-111992732D01*
X134465720Y-111992732D01*
X134465720Y-111991196D01*
X134315092Y-111627550D01*
X134036770Y-111349228D01*
X133786290Y-111245475D01*
X136213401Y-111245475D01*
X136976320Y-112008395D01*
X137739239Y-111245475D01*
X137676170Y-111008673D01*
X137171588Y-110830623D01*
X136637279Y-110859221D01*
X136276470Y-111008673D01*
X136213401Y-111245475D01*
X133786290Y-111245475D01*
X133673124Y-111198600D01*
X133279516Y-111198600D01*
X132915870Y-111349228D01*
X132637548Y-111627550D01*
X132486920Y-111991196D01*
X130965720Y-111991196D01*
X130815092Y-111627550D01*
X130536770Y-111349228D01*
X130173124Y-111198600D01*
X129779516Y-111198600D01*
X129415870Y-111349228D01*
X129137548Y-111627550D01*
X128986920Y-111991196D01*
X127812712Y-111991196D01*
X127805099Y-111848959D01*
X127655647Y-111488150D01*
X127418845Y-111425081D01*
X126655925Y-112188000D01*
X126296715Y-112188000D01*
X125533795Y-111425081D01*
X125296993Y-111488150D01*
X125118943Y-111992732D01*
X115949400Y-111992732D01*
X115949400Y-111245475D01*
X125713401Y-111245475D01*
X126476320Y-112008395D01*
X127239239Y-111245475D01*
X127176170Y-111008673D01*
X126671588Y-110830623D01*
X126137279Y-110859221D01*
X125776470Y-111008673D01*
X125713401Y-111245475D01*
X115949400Y-111245475D01*
X115949400Y-108991196D01*
X125486920Y-108991196D01*
X125486920Y-109384804D01*
X125637548Y-109748450D01*
X125915870Y-110026772D01*
X126279516Y-110177400D01*
X126673124Y-110177400D01*
X127036770Y-110026772D01*
X127315092Y-109748450D01*
X127465720Y-109384804D01*
X127465720Y-108991196D01*
X128986920Y-108991196D01*
X128986920Y-109384804D01*
X129137548Y-109748450D01*
X129415870Y-110026772D01*
X129779516Y-110177400D01*
X130173124Y-110177400D01*
X130536770Y-110026772D01*
X130815092Y-109748450D01*
X130965720Y-109384804D01*
X130965720Y-108991196D01*
X132486920Y-108991196D01*
X132486920Y-109384804D01*
X132637548Y-109748450D01*
X132915870Y-110026772D01*
X133279516Y-110177400D01*
X133673124Y-110177400D01*
X134036770Y-110026772D01*
X134315092Y-109748450D01*
X134465720Y-109384804D01*
X134465720Y-108991196D01*
X135986920Y-108991196D01*
X135986920Y-109384804D01*
X136137548Y-109748450D01*
X136415870Y-110026772D01*
X136779516Y-110177400D01*
X137173124Y-110177400D01*
X137536770Y-110026772D01*
X137815092Y-109748450D01*
X137965720Y-109384804D01*
X137965720Y-108991196D01*
X137815092Y-108627550D01*
X137536770Y-108349228D01*
X137173124Y-108198600D01*
X136779516Y-108198600D01*
X136415870Y-108349228D01*
X136137548Y-108627550D01*
X135986920Y-108991196D01*
X134465720Y-108991196D01*
X134315092Y-108627550D01*
X134036770Y-108349228D01*
X133673124Y-108198600D01*
X133279516Y-108198600D01*
X132915870Y-108349228D01*
X132637548Y-108627550D01*
X132486920Y-108991196D01*
X130965720Y-108991196D01*
X130815092Y-108627550D01*
X130536770Y-108349228D01*
X130173124Y-108198600D01*
X129779516Y-108198600D01*
X129415870Y-108349228D01*
X129137548Y-108627550D01*
X128986920Y-108991196D01*
X127465720Y-108991196D01*
X127315092Y-108627550D01*
X127036770Y-108349228D01*
X126673124Y-108198600D01*
X126279516Y-108198600D01*
X125915870Y-108349228D01*
X125637548Y-108627550D01*
X125486920Y-108991196D01*
X115949400Y-108991196D01*
X115949400Y-99043795D01*
X127045800Y-99043795D01*
X127045800Y-99276205D01*
X127134739Y-99490923D01*
X127299077Y-99655261D01*
X127513795Y-99744200D01*
X127746205Y-99744200D01*
X127820563Y-99713400D01*
X130831153Y-99713400D01*
X130953795Y-99764200D01*
X131186205Y-99764200D01*
X131400923Y-99675261D01*
X131565261Y-99510923D01*
X131654200Y-99296205D01*
X131654200Y-99063795D01*
X131565261Y-98849077D01*
X131400923Y-98684739D01*
X131186205Y-98595800D01*
X130953795Y-98595800D01*
X130831153Y-98646600D01*
X127917132Y-98646600D01*
X127746205Y-98575800D01*
X127513795Y-98575800D01*
X127299077Y-98664739D01*
X127134739Y-98829077D01*
X127045800Y-99043795D01*
X115949400Y-99043795D01*
X115949400Y-97658555D01*
X147716240Y-97658555D01*
X147716240Y-97890965D01*
X147805179Y-98105683D01*
X147944840Y-98245344D01*
X147944841Y-98548936D01*
X147805179Y-98688598D01*
X147716240Y-98903316D01*
X147716240Y-99135726D01*
X147805179Y-99350444D01*
X147969517Y-99514782D01*
X148184235Y-99603721D01*
X148416645Y-99603721D01*
X148631363Y-99514782D01*
X148795701Y-99350444D01*
X148884640Y-99135726D01*
X148884640Y-98903316D01*
X148795701Y-98688598D01*
X148656040Y-98548937D01*
X148656040Y-98245344D01*
X148795701Y-98105683D01*
X148884640Y-97890965D01*
X148884640Y-97658555D01*
X148795701Y-97443837D01*
X148631363Y-97279499D01*
X148416645Y-97190560D01*
X148184235Y-97190560D01*
X147969517Y-97279499D01*
X147805179Y-97443837D01*
X147716240Y-97658555D01*
X115949400Y-97658555D01*
X115949400Y-91092785D01*
X123587280Y-91092785D01*
X123587280Y-91482415D01*
X123736384Y-91842386D01*
X124011894Y-92117896D01*
X124371865Y-92267000D01*
X124761495Y-92267000D01*
X125121466Y-92117896D01*
X125396976Y-91842386D01*
X125546080Y-91482415D01*
X125546080Y-91092785D01*
X125396976Y-90732814D01*
X125251762Y-90587600D01*
X126121807Y-90587600D01*
X126121807Y-91987600D01*
X126143492Y-92096616D01*
X126205244Y-92189036D01*
X126297664Y-92250788D01*
X126406680Y-92272473D01*
X127806680Y-92272473D01*
X127915696Y-92250788D01*
X128008116Y-92189036D01*
X128069868Y-92096616D01*
X128091553Y-91987600D01*
X128091553Y-90673795D01*
X139175800Y-90673795D01*
X139175800Y-90906205D01*
X139264739Y-91120923D01*
X139429077Y-91285261D01*
X139643795Y-91374200D01*
X139876205Y-91374200D01*
X140090923Y-91285261D01*
X140255261Y-91120923D01*
X140344200Y-90906205D01*
X140344200Y-90688694D01*
X140435526Y-90597368D01*
X140633037Y-90597368D01*
X140847755Y-90508429D01*
X141012093Y-90344091D01*
X141101032Y-90129373D01*
X141101032Y-89896963D01*
X141012093Y-89682245D01*
X140847755Y-89517907D01*
X140633037Y-89428968D01*
X140400627Y-89428968D01*
X140185909Y-89517907D01*
X140021571Y-89682245D01*
X139932632Y-89896963D01*
X139932632Y-90094474D01*
X139821306Y-90205800D01*
X139643795Y-90205800D01*
X139429077Y-90294739D01*
X139264739Y-90459077D01*
X139175800Y-90673795D01*
X128091553Y-90673795D01*
X128091553Y-90587600D01*
X128069868Y-90478584D01*
X128008116Y-90386164D01*
X127915696Y-90324412D01*
X127806680Y-90302727D01*
X126406680Y-90302727D01*
X126297664Y-90324412D01*
X126205244Y-90386164D01*
X126143492Y-90478584D01*
X126121807Y-90587600D01*
X125251762Y-90587600D01*
X125121466Y-90457304D01*
X124761495Y-90308200D01*
X124371865Y-90308200D01*
X124011894Y-90457304D01*
X123736384Y-90732814D01*
X123587280Y-91092785D01*
X115949400Y-91092785D01*
X115949400Y-88552785D01*
X123587280Y-88552785D01*
X123587280Y-88942415D01*
X123736384Y-89302386D01*
X124011894Y-89577896D01*
X124371865Y-89727000D01*
X124761495Y-89727000D01*
X125121466Y-89577896D01*
X125396976Y-89302386D01*
X125546080Y-88942415D01*
X125546080Y-88552785D01*
X126127280Y-88552785D01*
X126127280Y-88942415D01*
X126276384Y-89302386D01*
X126551894Y-89577896D01*
X126911865Y-89727000D01*
X127301495Y-89727000D01*
X127661466Y-89577896D01*
X127936976Y-89302386D01*
X128086080Y-88942415D01*
X128086080Y-88552785D01*
X127936976Y-88192814D01*
X127661466Y-87917304D01*
X127301495Y-87768200D01*
X126911865Y-87768200D01*
X126551894Y-87917304D01*
X126276384Y-88192814D01*
X126127280Y-88552785D01*
X125546080Y-88552785D01*
X125396976Y-88192814D01*
X125121466Y-87917304D01*
X124761495Y-87768200D01*
X124371865Y-87768200D01*
X124011894Y-87917304D01*
X123736384Y-88192814D01*
X123587280Y-88552785D01*
X115949400Y-88552785D01*
X115949400Y-87142875D01*
X123811011Y-87142875D01*
X123872849Y-87378642D01*
X124373802Y-87555019D01*
X124904120Y-87526264D01*
X125260511Y-87378642D01*
X125322349Y-87142875D01*
X124566680Y-86387205D01*
X123811011Y-87142875D01*
X115949400Y-87142875D01*
X115949400Y-86014722D01*
X123219261Y-86014722D01*
X123248016Y-86545040D01*
X123395638Y-86901431D01*
X123631405Y-86963269D01*
X124387075Y-86207600D01*
X124746285Y-86207600D01*
X125501955Y-86963269D01*
X125737722Y-86901431D01*
X125914099Y-86400478D01*
X125893078Y-86012785D01*
X126127280Y-86012785D01*
X126127280Y-86402415D01*
X126276384Y-86762386D01*
X126551894Y-87037896D01*
X126911865Y-87187000D01*
X127301495Y-87187000D01*
X127661466Y-87037896D01*
X127936976Y-86762386D01*
X128086080Y-86402415D01*
X128086080Y-86012785D01*
X127936976Y-85652814D01*
X127661466Y-85377304D01*
X127301495Y-85228200D01*
X126911865Y-85228200D01*
X126551894Y-85377304D01*
X126276384Y-85652814D01*
X126127280Y-86012785D01*
X125893078Y-86012785D01*
X125885344Y-85870160D01*
X125737722Y-85513769D01*
X125501955Y-85451931D01*
X124746285Y-86207600D01*
X124387075Y-86207600D01*
X123631405Y-85451931D01*
X123395638Y-85513769D01*
X123219261Y-86014722D01*
X115949400Y-86014722D01*
X115949400Y-85272325D01*
X123811011Y-85272325D01*
X124566680Y-86027995D01*
X125322349Y-85272325D01*
X125260511Y-85036558D01*
X124840287Y-84888604D01*
X148604071Y-84888604D01*
X148604071Y-85121014D01*
X148693010Y-85335732D01*
X148857348Y-85500070D01*
X149072066Y-85589009D01*
X149304476Y-85589009D01*
X149519194Y-85500070D01*
X149658855Y-85360409D01*
X151967571Y-85360409D01*
X152002591Y-85367375D01*
X152037611Y-85360409D01*
X152141339Y-85339776D01*
X152258964Y-85261182D01*
X152278802Y-85231492D01*
X152928295Y-84582000D01*
X153125805Y-84582000D01*
X153340523Y-84493061D01*
X153504861Y-84328723D01*
X153593800Y-84114005D01*
X153593800Y-83881595D01*
X153504861Y-83666877D01*
X153340523Y-83502539D01*
X153125805Y-83413600D01*
X152893395Y-83413600D01*
X152678677Y-83502539D01*
X152514339Y-83666877D01*
X152425400Y-83881595D01*
X152425400Y-84079105D01*
X151855297Y-84649209D01*
X149658855Y-84649209D01*
X149519194Y-84509548D01*
X149304476Y-84420609D01*
X149072066Y-84420609D01*
X148857348Y-84509548D01*
X148693010Y-84673886D01*
X148604071Y-84888604D01*
X124840287Y-84888604D01*
X124759558Y-84860181D01*
X124229240Y-84888936D01*
X123872849Y-85036558D01*
X123811011Y-85272325D01*
X115949400Y-85272325D01*
X115949400Y-79919195D01*
X149158960Y-79919195D01*
X149158960Y-80151605D01*
X149247899Y-80366323D01*
X149412237Y-80530661D01*
X149626955Y-80619600D01*
X149859365Y-80619600D01*
X150074083Y-80530661D01*
X150213744Y-80391000D01*
X153437648Y-80391000D01*
X153580434Y-80533786D01*
X153795152Y-80622725D01*
X154027562Y-80622725D01*
X154242280Y-80533786D01*
X154406618Y-80369448D01*
X154495557Y-80154730D01*
X154495557Y-79922320D01*
X154406618Y-79707602D01*
X154242280Y-79543264D01*
X154027562Y-79454325D01*
X153795152Y-79454325D01*
X153580434Y-79543264D01*
X153443898Y-79679800D01*
X150213744Y-79679800D01*
X150074083Y-79540139D01*
X149859365Y-79451200D01*
X149626955Y-79451200D01*
X149412237Y-79540139D01*
X149247899Y-79704477D01*
X149158960Y-79919195D01*
X115949400Y-79919195D01*
X115949400Y-76216896D01*
X116025174Y-75367862D01*
X116245625Y-74562029D01*
X116283734Y-74482132D01*
X117396500Y-74482132D01*
X117396500Y-75517868D01*
X117792859Y-76474765D01*
X118525235Y-77207141D01*
X119482132Y-77603500D01*
X120517868Y-77603500D01*
X121474765Y-77207141D01*
X122207141Y-76474765D01*
X122603500Y-75517868D01*
X122603500Y-74482132D01*
X122275851Y-73691115D01*
X145211800Y-73691115D01*
X145211800Y-73923525D01*
X145300739Y-74138243D01*
X145460721Y-74298225D01*
X145460720Y-78513256D01*
X145321059Y-78652917D01*
X145232120Y-78867635D01*
X145232120Y-79100045D01*
X145321059Y-79314763D01*
X145485397Y-79479101D01*
X145700115Y-79568040D01*
X145932525Y-79568040D01*
X146147243Y-79479101D01*
X146311581Y-79314763D01*
X146400520Y-79100045D01*
X146400520Y-78867635D01*
X146311581Y-78652917D01*
X146171920Y-78513256D01*
X146171920Y-74482132D01*
X159396500Y-74482132D01*
X159396500Y-75517868D01*
X159792859Y-76474765D01*
X160525235Y-77207141D01*
X161482132Y-77603500D01*
X162517868Y-77603500D01*
X163474765Y-77207141D01*
X164207141Y-76474765D01*
X164603500Y-75517868D01*
X164603500Y-74482132D01*
X164207141Y-73525235D01*
X163474765Y-72792859D01*
X162517868Y-72396500D01*
X161482132Y-72396500D01*
X160525235Y-72792859D01*
X159792859Y-73525235D01*
X159396500Y-74482132D01*
X146171920Y-74482132D01*
X146171920Y-74257584D01*
X146291261Y-74138243D01*
X146380200Y-73923525D01*
X146380200Y-73691115D01*
X146291261Y-73476397D01*
X146126923Y-73312059D01*
X145912205Y-73223120D01*
X145679795Y-73223120D01*
X145465077Y-73312059D01*
X145300739Y-73476397D01*
X145211800Y-73691115D01*
X122275851Y-73691115D01*
X122207141Y-73525235D01*
X121474765Y-72792859D01*
X120517868Y-72396500D01*
X119482132Y-72396500D01*
X118525235Y-72792859D01*
X117792859Y-73525235D01*
X117396500Y-74482132D01*
X116283734Y-74482132D01*
X116605295Y-73807968D01*
X117092812Y-73129514D01*
X117692762Y-72548123D01*
X118386197Y-72082153D01*
X119151180Y-71746349D01*
X119966460Y-71550618D01*
X120663910Y-71499400D01*
X161273104Y-71499400D01*
X162122138Y-71575174D01*
X162122138Y-71575174D01*
G37*
X162122138Y-71575174D02*
X162927971Y-71795625D01*
X163682032Y-72155295D01*
X164360486Y-72642812D01*
X164941877Y-73242762D01*
X165407847Y-73936197D01*
X165743651Y-74701180D01*
X165939382Y-75516460D01*
X165990601Y-76213924D01*
X165990600Y-121957362D01*
X165991077Y-121959760D01*
X165919906Y-122757218D01*
X165699456Y-123563050D01*
X165339785Y-124317112D01*
X164852268Y-124995566D01*
X164252315Y-125576960D01*
X163558881Y-126042928D01*
X162793900Y-126378731D01*
X161978620Y-126574462D01*
X161333560Y-126621833D01*
X161327363Y-126620600D01*
X120666897Y-126620600D01*
X119817862Y-126544826D01*
X119012030Y-126324376D01*
X118257968Y-125964705D01*
X117579514Y-125477188D01*
X116998120Y-124877235D01*
X116532152Y-124183801D01*
X116196349Y-123418820D01*
X116000618Y-122603540D01*
X115991703Y-122482132D01*
X117396500Y-122482132D01*
X117396500Y-123517868D01*
X117792859Y-124474765D01*
X118525235Y-125207141D01*
X119482132Y-125603500D01*
X120517868Y-125603500D01*
X121474765Y-125207141D01*
X122207141Y-124474765D01*
X122603500Y-123517868D01*
X122603500Y-122482132D01*
X122514653Y-122267635D01*
X150169680Y-122267635D01*
X150169680Y-122500045D01*
X150258619Y-122714763D01*
X150422957Y-122879101D01*
X150637675Y-122968040D01*
X150870085Y-122968040D01*
X151084803Y-122879101D01*
X151249141Y-122714763D01*
X151338080Y-122500045D01*
X151338080Y-122482132D01*
X159396500Y-122482132D01*
X159396500Y-123517868D01*
X159792859Y-124474765D01*
X160525235Y-125207141D01*
X161482132Y-125603500D01*
X162517868Y-125603500D01*
X163474765Y-125207141D01*
X164207141Y-124474765D01*
X164603500Y-123517868D01*
X164603500Y-122482132D01*
X164207141Y-121525235D01*
X163474765Y-120792859D01*
X162517868Y-120396500D01*
X161482132Y-120396500D01*
X160525235Y-120792859D01*
X159792859Y-121525235D01*
X159396500Y-122482132D01*
X151338080Y-122482132D01*
X151338080Y-122267635D01*
X151249141Y-122052917D01*
X151160280Y-121964056D01*
X151160280Y-121790175D01*
X151760416Y-121190040D01*
X151886085Y-121190040D01*
X152100803Y-121101101D01*
X152265141Y-120936763D01*
X152354080Y-120722045D01*
X152354080Y-120489635D01*
X152265141Y-120274917D01*
X152100803Y-120110579D01*
X151886085Y-120021640D01*
X151653675Y-120021640D01*
X151438957Y-120110579D01*
X151274619Y-120274917D01*
X151185680Y-120489635D01*
X151185680Y-120615304D01*
X150494813Y-121306172D01*
X150460884Y-121328843D01*
X150438213Y-121362772D01*
X150438212Y-121362773D01*
X150371061Y-121463271D01*
X150339520Y-121621840D01*
X150347481Y-121661863D01*
X150347481Y-121964055D01*
X150258619Y-122052917D01*
X150169680Y-122267635D01*
X122514653Y-122267635D01*
X122207141Y-121525235D01*
X121474765Y-120792859D01*
X120517868Y-120396500D01*
X119482132Y-120396500D01*
X118525235Y-120792859D01*
X117792859Y-121525235D01*
X117396500Y-122482132D01*
X115991703Y-122482132D01*
X115949400Y-121906089D01*
X115949400Y-119699300D01*
X126381920Y-119699300D01*
X126381920Y-120496700D01*
X126687071Y-121233402D01*
X127250918Y-121797249D01*
X127987620Y-122102400D01*
X128785020Y-122102400D01*
X129521722Y-121797249D01*
X130085569Y-121233402D01*
X130390720Y-120496700D01*
X130390720Y-119699300D01*
X133381920Y-119699300D01*
X133381920Y-120496700D01*
X133687071Y-121233402D01*
X134250918Y-121797249D01*
X134987620Y-122102400D01*
X135785020Y-122102400D01*
X136521722Y-121797249D01*
X137085569Y-121233402D01*
X137390720Y-120496700D01*
X137390720Y-119699300D01*
X137085569Y-118962598D01*
X136521722Y-118398751D01*
X135785020Y-118093600D01*
X134987620Y-118093600D01*
X134250918Y-118398751D01*
X133687071Y-118962598D01*
X133381920Y-119699300D01*
X130390720Y-119699300D01*
X130085569Y-118962598D01*
X129521722Y-118398751D01*
X128785020Y-118093600D01*
X127987620Y-118093600D01*
X127250918Y-118398751D01*
X126687071Y-118962598D01*
X126381920Y-119699300D01*
X115949400Y-119699300D01*
X115949400Y-114296935D01*
X155287780Y-114296935D01*
X155287780Y-114529345D01*
X155376719Y-114744063D01*
X155465580Y-114832924D01*
X155465581Y-116634955D01*
X155427519Y-116673017D01*
X155338580Y-116887735D01*
X155338580Y-117120145D01*
X155427519Y-117334863D01*
X155591857Y-117499201D01*
X155806575Y-117588140D01*
X156038985Y-117588140D01*
X156253703Y-117499201D01*
X156418041Y-117334863D01*
X156506980Y-117120145D01*
X156506980Y-116887735D01*
X156418041Y-116673017D01*
X156278380Y-116533356D01*
X156278380Y-114832924D01*
X156367241Y-114744063D01*
X156409616Y-114641760D01*
X156443481Y-114675625D01*
X156443480Y-115534862D01*
X156435520Y-115574880D01*
X156443480Y-115614898D01*
X156443480Y-115614902D01*
X156467060Y-115733448D01*
X156556883Y-115867877D01*
X156590815Y-115890550D01*
X158323280Y-117623016D01*
X158323280Y-117748685D01*
X158412219Y-117963403D01*
X158576557Y-118127741D01*
X158791275Y-118216680D01*
X159023685Y-118216680D01*
X159238403Y-118127741D01*
X159402741Y-117963403D01*
X159491680Y-117748685D01*
X159491680Y-117516275D01*
X159402741Y-117301557D01*
X159238403Y-117137219D01*
X159023685Y-117048280D01*
X158898016Y-117048280D01*
X157256280Y-115406545D01*
X157256280Y-114675624D01*
X157345141Y-114586763D01*
X157434080Y-114372045D01*
X157434080Y-114139635D01*
X157345141Y-113924917D01*
X157180803Y-113760579D01*
X156966085Y-113671640D01*
X156733675Y-113671640D01*
X156518957Y-113760579D01*
X156354619Y-113924917D01*
X156312244Y-114027220D01*
X156202903Y-113917879D01*
X155988185Y-113828940D01*
X155755775Y-113828940D01*
X155541057Y-113917879D01*
X155376719Y-114082217D01*
X155287780Y-114296935D01*
X115949400Y-114296935D01*
X115949400Y-113130525D01*
X125713401Y-113130525D01*
X125776470Y-113367327D01*
X126281052Y-113545377D01*
X126815361Y-113516779D01*
X127176170Y-113367327D01*
X127239239Y-113130525D01*
X126476320Y-112367605D01*
X125713401Y-113130525D01*
X115949400Y-113130525D01*
X115949400Y-111992732D01*
X125118943Y-111992732D01*
X125147541Y-112527041D01*
X125296993Y-112887850D01*
X125533795Y-112950919D01*
X126296715Y-112188000D01*
X126655925Y-112188000D01*
X127418845Y-112950919D01*
X127655647Y-112887850D01*
X127833697Y-112383268D01*
X127812712Y-111991196D01*
X128986920Y-111991196D01*
X128986920Y-112384804D01*
X129137548Y-112748450D01*
X129415870Y-113026772D01*
X129779516Y-113177400D01*
X130173124Y-113177400D01*
X130536770Y-113026772D01*
X130815092Y-112748450D01*
X130965720Y-112384804D01*
X130965720Y-111991196D01*
X132486920Y-111991196D01*
X132486920Y-112384804D01*
X132637548Y-112748450D01*
X132915870Y-113026772D01*
X133279516Y-113177400D01*
X133673124Y-113177400D01*
X133786289Y-113130525D01*
X136213401Y-113130525D01*
X136276470Y-113367327D01*
X136781052Y-113545377D01*
X137315361Y-113516779D01*
X137676170Y-113367327D01*
X137739239Y-113130525D01*
X136976320Y-112367605D01*
X136213401Y-113130525D01*
X133786289Y-113130525D01*
X134036770Y-113026772D01*
X134315092Y-112748450D01*
X134465720Y-112384804D01*
X134465720Y-111992732D01*
X135618943Y-111992732D01*
X135647541Y-112527041D01*
X135796993Y-112887850D01*
X136033795Y-112950919D01*
X136796715Y-112188000D01*
X137155925Y-112188000D01*
X137918845Y-112950919D01*
X138155647Y-112887850D01*
X138333697Y-112383268D01*
X138305099Y-111848959D01*
X138155647Y-111488150D01*
X137918845Y-111425081D01*
X137155925Y-112188000D01*
X136796715Y-112188000D01*
X136033795Y-111425081D01*
X135796993Y-111488150D01*
X135618943Y-111992732D01*
X134465720Y-111992732D01*
X134465720Y-111991196D01*
X134315092Y-111627550D01*
X134036770Y-111349228D01*
X133786290Y-111245475D01*
X136213401Y-111245475D01*
X136976320Y-112008395D01*
X137739239Y-111245475D01*
X137676170Y-111008673D01*
X137171588Y-110830623D01*
X136637279Y-110859221D01*
X136276470Y-111008673D01*
X136213401Y-111245475D01*
X133786290Y-111245475D01*
X133673124Y-111198600D01*
X133279516Y-111198600D01*
X132915870Y-111349228D01*
X132637548Y-111627550D01*
X132486920Y-111991196D01*
X130965720Y-111991196D01*
X130815092Y-111627550D01*
X130536770Y-111349228D01*
X130173124Y-111198600D01*
X129779516Y-111198600D01*
X129415870Y-111349228D01*
X129137548Y-111627550D01*
X128986920Y-111991196D01*
X127812712Y-111991196D01*
X127805099Y-111848959D01*
X127655647Y-111488150D01*
X127418845Y-111425081D01*
X126655925Y-112188000D01*
X126296715Y-112188000D01*
X125533795Y-111425081D01*
X125296993Y-111488150D01*
X125118943Y-111992732D01*
X115949400Y-111992732D01*
X115949400Y-111245475D01*
X125713401Y-111245475D01*
X126476320Y-112008395D01*
X127239239Y-111245475D01*
X127176170Y-111008673D01*
X126671588Y-110830623D01*
X126137279Y-110859221D01*
X125776470Y-111008673D01*
X125713401Y-111245475D01*
X115949400Y-111245475D01*
X115949400Y-108991196D01*
X125486920Y-108991196D01*
X125486920Y-109384804D01*
X125637548Y-109748450D01*
X125915870Y-110026772D01*
X126279516Y-110177400D01*
X126673124Y-110177400D01*
X127036770Y-110026772D01*
X127315092Y-109748450D01*
X127465720Y-109384804D01*
X127465720Y-108991196D01*
X128986920Y-108991196D01*
X128986920Y-109384804D01*
X129137548Y-109748450D01*
X129415870Y-110026772D01*
X129779516Y-110177400D01*
X130173124Y-110177400D01*
X130536770Y-110026772D01*
X130815092Y-109748450D01*
X130965720Y-109384804D01*
X130965720Y-108991196D01*
X132486920Y-108991196D01*
X132486920Y-109384804D01*
X132637548Y-109748450D01*
X132915870Y-110026772D01*
X133279516Y-110177400D01*
X133673124Y-110177400D01*
X134036770Y-110026772D01*
X134315092Y-109748450D01*
X134465720Y-109384804D01*
X134465720Y-108991196D01*
X135986920Y-108991196D01*
X135986920Y-109384804D01*
X136137548Y-109748450D01*
X136415870Y-110026772D01*
X136779516Y-110177400D01*
X137173124Y-110177400D01*
X137536770Y-110026772D01*
X137815092Y-109748450D01*
X137965720Y-109384804D01*
X137965720Y-108991196D01*
X137815092Y-108627550D01*
X137536770Y-108349228D01*
X137173124Y-108198600D01*
X136779516Y-108198600D01*
X136415870Y-108349228D01*
X136137548Y-108627550D01*
X135986920Y-108991196D01*
X134465720Y-108991196D01*
X134315092Y-108627550D01*
X134036770Y-108349228D01*
X133673124Y-108198600D01*
X133279516Y-108198600D01*
X132915870Y-108349228D01*
X132637548Y-108627550D01*
X132486920Y-108991196D01*
X130965720Y-108991196D01*
X130815092Y-108627550D01*
X130536770Y-108349228D01*
X130173124Y-108198600D01*
X129779516Y-108198600D01*
X129415870Y-108349228D01*
X129137548Y-108627550D01*
X128986920Y-108991196D01*
X127465720Y-108991196D01*
X127315092Y-108627550D01*
X127036770Y-108349228D01*
X126673124Y-108198600D01*
X126279516Y-108198600D01*
X125915870Y-108349228D01*
X125637548Y-108627550D01*
X125486920Y-108991196D01*
X115949400Y-108991196D01*
X115949400Y-99043795D01*
X127045800Y-99043795D01*
X127045800Y-99276205D01*
X127134739Y-99490923D01*
X127299077Y-99655261D01*
X127513795Y-99744200D01*
X127746205Y-99744200D01*
X127820563Y-99713400D01*
X130831153Y-99713400D01*
X130953795Y-99764200D01*
X131186205Y-99764200D01*
X131400923Y-99675261D01*
X131565261Y-99510923D01*
X131654200Y-99296205D01*
X131654200Y-99063795D01*
X131565261Y-98849077D01*
X131400923Y-98684739D01*
X131186205Y-98595800D01*
X130953795Y-98595800D01*
X130831153Y-98646600D01*
X127917132Y-98646600D01*
X127746205Y-98575800D01*
X127513795Y-98575800D01*
X127299077Y-98664739D01*
X127134739Y-98829077D01*
X127045800Y-99043795D01*
X115949400Y-99043795D01*
X115949400Y-97658555D01*
X147716240Y-97658555D01*
X147716240Y-97890965D01*
X147805179Y-98105683D01*
X147944840Y-98245344D01*
X147944841Y-98548936D01*
X147805179Y-98688598D01*
X147716240Y-98903316D01*
X147716240Y-99135726D01*
X147805179Y-99350444D01*
X147969517Y-99514782D01*
X148184235Y-99603721D01*
X148416645Y-99603721D01*
X148631363Y-99514782D01*
X148795701Y-99350444D01*
X148884640Y-99135726D01*
X148884640Y-98903316D01*
X148795701Y-98688598D01*
X148656040Y-98548937D01*
X148656040Y-98245344D01*
X148795701Y-98105683D01*
X148884640Y-97890965D01*
X148884640Y-97658555D01*
X148795701Y-97443837D01*
X148631363Y-97279499D01*
X148416645Y-97190560D01*
X148184235Y-97190560D01*
X147969517Y-97279499D01*
X147805179Y-97443837D01*
X147716240Y-97658555D01*
X115949400Y-97658555D01*
X115949400Y-91092785D01*
X123587280Y-91092785D01*
X123587280Y-91482415D01*
X123736384Y-91842386D01*
X124011894Y-92117896D01*
X124371865Y-92267000D01*
X124761495Y-92267000D01*
X125121466Y-92117896D01*
X125396976Y-91842386D01*
X125546080Y-91482415D01*
X125546080Y-91092785D01*
X125396976Y-90732814D01*
X125251762Y-90587600D01*
X126121807Y-90587600D01*
X126121807Y-91987600D01*
X126143492Y-92096616D01*
X126205244Y-92189036D01*
X126297664Y-92250788D01*
X126406680Y-92272473D01*
X127806680Y-92272473D01*
X127915696Y-92250788D01*
X128008116Y-92189036D01*
X128069868Y-92096616D01*
X128091553Y-91987600D01*
X128091553Y-90673795D01*
X139175800Y-90673795D01*
X139175800Y-90906205D01*
X139264739Y-91120923D01*
X139429077Y-91285261D01*
X139643795Y-91374200D01*
X139876205Y-91374200D01*
X140090923Y-91285261D01*
X140255261Y-91120923D01*
X140344200Y-90906205D01*
X140344200Y-90688694D01*
X140435526Y-90597368D01*
X140633037Y-90597368D01*
X140847755Y-90508429D01*
X141012093Y-90344091D01*
X141101032Y-90129373D01*
X141101032Y-89896963D01*
X141012093Y-89682245D01*
X140847755Y-89517907D01*
X140633037Y-89428968D01*
X140400627Y-89428968D01*
X140185909Y-89517907D01*
X140021571Y-89682245D01*
X139932632Y-89896963D01*
X139932632Y-90094474D01*
X139821306Y-90205800D01*
X139643795Y-90205800D01*
X139429077Y-90294739D01*
X139264739Y-90459077D01*
X139175800Y-90673795D01*
X128091553Y-90673795D01*
X128091553Y-90587600D01*
X128069868Y-90478584D01*
X128008116Y-90386164D01*
X127915696Y-90324412D01*
X127806680Y-90302727D01*
X126406680Y-90302727D01*
X126297664Y-90324412D01*
X126205244Y-90386164D01*
X126143492Y-90478584D01*
X126121807Y-90587600D01*
X125251762Y-90587600D01*
X125121466Y-90457304D01*
X124761495Y-90308200D01*
X124371865Y-90308200D01*
X124011894Y-90457304D01*
X123736384Y-90732814D01*
X123587280Y-91092785D01*
X115949400Y-91092785D01*
X115949400Y-88552785D01*
X123587280Y-88552785D01*
X123587280Y-88942415D01*
X123736384Y-89302386D01*
X124011894Y-89577896D01*
X124371865Y-89727000D01*
X124761495Y-89727000D01*
X125121466Y-89577896D01*
X125396976Y-89302386D01*
X125546080Y-88942415D01*
X125546080Y-88552785D01*
X126127280Y-88552785D01*
X126127280Y-88942415D01*
X126276384Y-89302386D01*
X126551894Y-89577896D01*
X126911865Y-89727000D01*
X127301495Y-89727000D01*
X127661466Y-89577896D01*
X127936976Y-89302386D01*
X128086080Y-88942415D01*
X128086080Y-88552785D01*
X127936976Y-88192814D01*
X127661466Y-87917304D01*
X127301495Y-87768200D01*
X126911865Y-87768200D01*
X126551894Y-87917304D01*
X126276384Y-88192814D01*
X126127280Y-88552785D01*
X125546080Y-88552785D01*
X125396976Y-88192814D01*
X125121466Y-87917304D01*
X124761495Y-87768200D01*
X124371865Y-87768200D01*
X124011894Y-87917304D01*
X123736384Y-88192814D01*
X123587280Y-88552785D01*
X115949400Y-88552785D01*
X115949400Y-87142875D01*
X123811011Y-87142875D01*
X123872849Y-87378642D01*
X124373802Y-87555019D01*
X124904120Y-87526264D01*
X125260511Y-87378642D01*
X125322349Y-87142875D01*
X124566680Y-86387205D01*
X123811011Y-87142875D01*
X115949400Y-87142875D01*
X115949400Y-86014722D01*
X123219261Y-86014722D01*
X123248016Y-86545040D01*
X123395638Y-86901431D01*
X123631405Y-86963269D01*
X124387075Y-86207600D01*
X124746285Y-86207600D01*
X125501955Y-86963269D01*
X125737722Y-86901431D01*
X125914099Y-86400478D01*
X125893078Y-86012785D01*
X126127280Y-86012785D01*
X126127280Y-86402415D01*
X126276384Y-86762386D01*
X126551894Y-87037896D01*
X126911865Y-87187000D01*
X127301495Y-87187000D01*
X127661466Y-87037896D01*
X127936976Y-86762386D01*
X128086080Y-86402415D01*
X128086080Y-86012785D01*
X127936976Y-85652814D01*
X127661466Y-85377304D01*
X127301495Y-85228200D01*
X126911865Y-85228200D01*
X126551894Y-85377304D01*
X126276384Y-85652814D01*
X126127280Y-86012785D01*
X125893078Y-86012785D01*
X125885344Y-85870160D01*
X125737722Y-85513769D01*
X125501955Y-85451931D01*
X124746285Y-86207600D01*
X124387075Y-86207600D01*
X123631405Y-85451931D01*
X123395638Y-85513769D01*
X123219261Y-86014722D01*
X115949400Y-86014722D01*
X115949400Y-85272325D01*
X123811011Y-85272325D01*
X124566680Y-86027995D01*
X125322349Y-85272325D01*
X125260511Y-85036558D01*
X124840287Y-84888604D01*
X148604071Y-84888604D01*
X148604071Y-85121014D01*
X148693010Y-85335732D01*
X148857348Y-85500070D01*
X149072066Y-85589009D01*
X149304476Y-85589009D01*
X149519194Y-85500070D01*
X149658855Y-85360409D01*
X151967571Y-85360409D01*
X152002591Y-85367375D01*
X152037611Y-85360409D01*
X152141339Y-85339776D01*
X152258964Y-85261182D01*
X152278802Y-85231492D01*
X152928295Y-84582000D01*
X153125805Y-84582000D01*
X153340523Y-84493061D01*
X153504861Y-84328723D01*
X153593800Y-84114005D01*
X153593800Y-83881595D01*
X153504861Y-83666877D01*
X153340523Y-83502539D01*
X153125805Y-83413600D01*
X152893395Y-83413600D01*
X152678677Y-83502539D01*
X152514339Y-83666877D01*
X152425400Y-83881595D01*
X152425400Y-84079105D01*
X151855297Y-84649209D01*
X149658855Y-84649209D01*
X149519194Y-84509548D01*
X149304476Y-84420609D01*
X149072066Y-84420609D01*
X148857348Y-84509548D01*
X148693010Y-84673886D01*
X148604071Y-84888604D01*
X124840287Y-84888604D01*
X124759558Y-84860181D01*
X124229240Y-84888936D01*
X123872849Y-85036558D01*
X123811011Y-85272325D01*
X115949400Y-85272325D01*
X115949400Y-79919195D01*
X149158960Y-79919195D01*
X149158960Y-80151605D01*
X149247899Y-80366323D01*
X149412237Y-80530661D01*
X149626955Y-80619600D01*
X149859365Y-80619600D01*
X150074083Y-80530661D01*
X150213744Y-80391000D01*
X153437648Y-80391000D01*
X153580434Y-80533786D01*
X153795152Y-80622725D01*
X154027562Y-80622725D01*
X154242280Y-80533786D01*
X154406618Y-80369448D01*
X154495557Y-80154730D01*
X154495557Y-79922320D01*
X154406618Y-79707602D01*
X154242280Y-79543264D01*
X154027562Y-79454325D01*
X153795152Y-79454325D01*
X153580434Y-79543264D01*
X153443898Y-79679800D01*
X150213744Y-79679800D01*
X150074083Y-79540139D01*
X149859365Y-79451200D01*
X149626955Y-79451200D01*
X149412237Y-79540139D01*
X149247899Y-79704477D01*
X149158960Y-79919195D01*
X115949400Y-79919195D01*
X115949400Y-76216896D01*
X116025174Y-75367862D01*
X116245625Y-74562029D01*
X116283734Y-74482132D01*
X117396500Y-74482132D01*
X117396500Y-75517868D01*
X117792859Y-76474765D01*
X118525235Y-77207141D01*
X119482132Y-77603500D01*
X120517868Y-77603500D01*
X121474765Y-77207141D01*
X122207141Y-76474765D01*
X122603500Y-75517868D01*
X122603500Y-74482132D01*
X122275851Y-73691115D01*
X145211800Y-73691115D01*
X145211800Y-73923525D01*
X145300739Y-74138243D01*
X145460721Y-74298225D01*
X145460720Y-78513256D01*
X145321059Y-78652917D01*
X145232120Y-78867635D01*
X145232120Y-79100045D01*
X145321059Y-79314763D01*
X145485397Y-79479101D01*
X145700115Y-79568040D01*
X145932525Y-79568040D01*
X146147243Y-79479101D01*
X146311581Y-79314763D01*
X146400520Y-79100045D01*
X146400520Y-78867635D01*
X146311581Y-78652917D01*
X146171920Y-78513256D01*
X146171920Y-74482132D01*
X159396500Y-74482132D01*
X159396500Y-75517868D01*
X159792859Y-76474765D01*
X160525235Y-77207141D01*
X161482132Y-77603500D01*
X162517868Y-77603500D01*
X163474765Y-77207141D01*
X164207141Y-76474765D01*
X164603500Y-75517868D01*
X164603500Y-74482132D01*
X164207141Y-73525235D01*
X163474765Y-72792859D01*
X162517868Y-72396500D01*
X161482132Y-72396500D01*
X160525235Y-72792859D01*
X159792859Y-73525235D01*
X159396500Y-74482132D01*
X146171920Y-74482132D01*
X146171920Y-74257584D01*
X146291261Y-74138243D01*
X146380200Y-73923525D01*
X146380200Y-73691115D01*
X146291261Y-73476397D01*
X146126923Y-73312059D01*
X145912205Y-73223120D01*
X145679795Y-73223120D01*
X145465077Y-73312059D01*
X145300739Y-73476397D01*
X145211800Y-73691115D01*
X122275851Y-73691115D01*
X122207141Y-73525235D01*
X121474765Y-72792859D01*
X120517868Y-72396500D01*
X119482132Y-72396500D01*
X118525235Y-72792859D01*
X117792859Y-73525235D01*
X117396500Y-74482132D01*
X116283734Y-74482132D01*
X116605295Y-73807968D01*
X117092812Y-73129514D01*
X117692762Y-72548123D01*
X118386197Y-72082153D01*
X119151180Y-71746349D01*
X119966460Y-71550618D01*
X120663910Y-71499400D01*
X161273104Y-71499400D01*
X162122138Y-71575174D01*
G04 #@! TD*
M02*
