G04 #@! TF.GenerationSoftware,KiCad,Pcbnew,5.0.1-33cea8e~68~ubuntu18.04.1*
G04 #@! TF.CreationDate,2019-04-25T19:51:38-04:00*
G04 #@! TF.ProjectId,IMU,494D552E6B696361645F706362000000,rev?*
G04 #@! TF.SameCoordinates,Original*
G04 #@! TF.FileFunction,Soldermask,Top*
G04 #@! TF.FilePolarity,Negative*
%FSLAX46Y46*%
G04 Gerber Fmt 4.6, Leading zero omitted, Abs format (unit mm)*
G04 Created by KiCad (PCBNEW 5.0.1-33cea8e~68~ubuntu18.04.1) date Thu 25 Apr 2019 07:51:38 PM EDT*
%MOMM*%
%LPD*%
G01*
G04 APERTURE LIST*
%ADD10C,2.000000*%
G04 APERTURE END LIST*
D10*
G36*
X162736250Y-120572899D02*
X162736252Y-120572900D01*
X162736253Y-120572900D01*
X163195610Y-120763172D01*
X163609023Y-121039406D01*
X163960594Y-121390977D01*
X164236828Y-121804390D01*
X164427101Y-122263750D01*
X164524100Y-122751396D01*
X164524100Y-123248604D01*
X164427101Y-123736250D01*
X164236828Y-124195610D01*
X163960594Y-124609023D01*
X163609023Y-124960594D01*
X163609020Y-124960596D01*
X163195610Y-125236828D01*
X162736253Y-125427100D01*
X162736252Y-125427100D01*
X162736250Y-125427101D01*
X162248604Y-125524100D01*
X161751396Y-125524100D01*
X161263750Y-125427101D01*
X161263748Y-125427100D01*
X161263747Y-125427100D01*
X160804390Y-125236828D01*
X160390980Y-124960596D01*
X160390977Y-124960594D01*
X160039406Y-124609023D01*
X159763172Y-124195610D01*
X159572899Y-123736250D01*
X159475900Y-123248604D01*
X159475900Y-122751396D01*
X159572899Y-122263750D01*
X159763172Y-121804390D01*
X160039406Y-121390977D01*
X160390977Y-121039406D01*
X160804390Y-120763172D01*
X161263747Y-120572900D01*
X161263748Y-120572900D01*
X161263750Y-120572899D01*
X161751396Y-120475900D01*
X162248604Y-120475900D01*
X162736250Y-120572899D01*
X162736250Y-120572899D01*
G37*
G36*
X120736250Y-120572899D02*
X120736252Y-120572900D01*
X120736253Y-120572900D01*
X121195610Y-120763172D01*
X121609023Y-121039406D01*
X121960594Y-121390977D01*
X122236828Y-121804390D01*
X122427101Y-122263750D01*
X122524100Y-122751396D01*
X122524100Y-123248604D01*
X122427101Y-123736250D01*
X122236828Y-124195610D01*
X121960594Y-124609023D01*
X121609023Y-124960594D01*
X121609020Y-124960596D01*
X121195610Y-125236828D01*
X120736253Y-125427100D01*
X120736252Y-125427100D01*
X120736250Y-125427101D01*
X120248604Y-125524100D01*
X119751396Y-125524100D01*
X119263750Y-125427101D01*
X119263748Y-125427100D01*
X119263747Y-125427100D01*
X118804390Y-125236828D01*
X118390980Y-124960596D01*
X118390977Y-124960594D01*
X118039406Y-124609023D01*
X117763172Y-124195610D01*
X117572899Y-123736250D01*
X117475900Y-123248604D01*
X117475900Y-122751396D01*
X117572899Y-122263750D01*
X117763172Y-121804390D01*
X118039406Y-121390977D01*
X118390977Y-121039406D01*
X118804390Y-120763172D01*
X119263747Y-120572900D01*
X119263748Y-120572900D01*
X119263750Y-120572899D01*
X119751396Y-120475900D01*
X120248604Y-120475900D01*
X120736250Y-120572899D01*
X120736250Y-120572899D01*
G37*
G36*
X128947819Y-118246976D02*
X128947821Y-118246977D01*
X128947822Y-118246977D01*
X129298149Y-118392087D01*
X129298150Y-118392088D01*
X129613439Y-118602757D01*
X129881563Y-118870881D01*
X129881565Y-118870884D01*
X130092233Y-119186171D01*
X130237343Y-119536498D01*
X130237344Y-119536501D01*
X130311320Y-119908403D01*
X130311320Y-120287597D01*
X130254570Y-120572900D01*
X130237343Y-120659502D01*
X130092233Y-121009829D01*
X130072470Y-121039406D01*
X129881563Y-121325119D01*
X129613439Y-121593243D01*
X129613436Y-121593245D01*
X129298149Y-121803913D01*
X128947822Y-121949023D01*
X128947821Y-121949023D01*
X128947819Y-121949024D01*
X128575917Y-122023000D01*
X128196723Y-122023000D01*
X127824821Y-121949024D01*
X127824819Y-121949023D01*
X127824818Y-121949023D01*
X127474491Y-121803913D01*
X127159204Y-121593245D01*
X127159201Y-121593243D01*
X126891077Y-121325119D01*
X126700170Y-121039406D01*
X126680407Y-121009829D01*
X126535297Y-120659502D01*
X126518071Y-120572900D01*
X126461320Y-120287597D01*
X126461320Y-119908403D01*
X126535296Y-119536501D01*
X126535297Y-119536498D01*
X126680407Y-119186171D01*
X126891075Y-118870884D01*
X126891077Y-118870881D01*
X127159201Y-118602757D01*
X127474490Y-118392088D01*
X127474491Y-118392087D01*
X127824818Y-118246977D01*
X127824819Y-118246977D01*
X127824821Y-118246976D01*
X128196723Y-118173000D01*
X128575917Y-118173000D01*
X128947819Y-118246976D01*
X128947819Y-118246976D01*
G37*
G36*
X135947819Y-118246976D02*
X135947821Y-118246977D01*
X135947822Y-118246977D01*
X136298149Y-118392087D01*
X136298150Y-118392088D01*
X136613439Y-118602757D01*
X136881563Y-118870881D01*
X136881565Y-118870884D01*
X137092233Y-119186171D01*
X137237343Y-119536498D01*
X137237344Y-119536501D01*
X137311320Y-119908403D01*
X137311320Y-120287597D01*
X137254570Y-120572900D01*
X137237343Y-120659502D01*
X137092233Y-121009829D01*
X137072470Y-121039406D01*
X136881563Y-121325119D01*
X136613439Y-121593243D01*
X136613436Y-121593245D01*
X136298149Y-121803913D01*
X135947822Y-121949023D01*
X135947821Y-121949023D01*
X135947819Y-121949024D01*
X135575917Y-122023000D01*
X135196723Y-122023000D01*
X134824821Y-121949024D01*
X134824819Y-121949023D01*
X134824818Y-121949023D01*
X134474491Y-121803913D01*
X134159204Y-121593245D01*
X134159201Y-121593243D01*
X133891077Y-121325119D01*
X133700170Y-121039406D01*
X133680407Y-121009829D01*
X133535297Y-120659502D01*
X133518071Y-120572900D01*
X133461320Y-120287597D01*
X133461320Y-119908403D01*
X133535296Y-119536501D01*
X133535297Y-119536498D01*
X133680407Y-119186171D01*
X133891075Y-118870884D01*
X133891077Y-118870881D01*
X134159201Y-118602757D01*
X134474490Y-118392088D01*
X134474491Y-118392087D01*
X134824818Y-118246977D01*
X134824819Y-118246977D01*
X134824821Y-118246976D01*
X135196723Y-118173000D01*
X135575917Y-118173000D01*
X135947819Y-118246976D01*
X135947819Y-118246976D01*
G37*
G36*
X150729880Y-121455840D02*
X149629880Y-121455840D01*
X149629880Y-119755840D01*
X150729880Y-119755840D01*
X150729880Y-121455840D01*
X150729880Y-121455840D01*
G37*
G36*
X148829880Y-121455840D02*
X147729880Y-121455840D01*
X147729880Y-119755840D01*
X148829880Y-119755840D01*
X148829880Y-121455840D01*
X148829880Y-121455840D01*
G37*
G36*
X158207880Y-120073840D02*
X156507880Y-120073840D01*
X156507880Y-118973840D01*
X158207880Y-118973840D01*
X158207880Y-120073840D01*
X158207880Y-120073840D01*
G37*
G36*
X154880880Y-120019840D02*
X153230880Y-120019840D01*
X153230880Y-118619840D01*
X154880880Y-118619840D01*
X154880880Y-120019840D01*
X154880880Y-120019840D01*
G37*
G36*
X148705880Y-119503840D02*
X146705880Y-119503840D01*
X146705880Y-118103840D01*
X148705880Y-118103840D01*
X148705880Y-119503840D01*
X148705880Y-119503840D01*
G37*
G36*
X152520980Y-118816340D02*
X149570980Y-118816340D01*
X149570980Y-117356340D01*
X152520980Y-117356340D01*
X152520980Y-118816340D01*
X152520980Y-118816340D01*
G37*
G36*
X158207880Y-118173840D02*
X156507880Y-118173840D01*
X156507880Y-117073840D01*
X158207880Y-117073840D01*
X158207880Y-118173840D01*
X158207880Y-118173840D01*
G37*
G36*
X154880880Y-118019840D02*
X153230880Y-118019840D01*
X153230880Y-116619840D01*
X154880880Y-116619840D01*
X154880880Y-118019840D01*
X154880880Y-118019840D01*
G37*
G36*
X152520980Y-116616340D02*
X149570980Y-116616340D01*
X149570980Y-115156340D01*
X152520980Y-115156340D01*
X152520980Y-116616340D01*
X152520980Y-116616340D01*
G37*
G36*
X148705880Y-116503840D02*
X146705880Y-116503840D01*
X146705880Y-115103840D01*
X148705880Y-115103840D01*
X148705880Y-116503840D01*
X148705880Y-116503840D01*
G37*
G36*
X141209880Y-116375840D02*
X140109880Y-116375840D01*
X140109880Y-114675840D01*
X141209880Y-114675840D01*
X141209880Y-116375840D01*
X141209880Y-116375840D01*
G37*
G36*
X143109880Y-116375840D02*
X142009880Y-116375840D01*
X142009880Y-114675840D01*
X143109880Y-114675840D01*
X143109880Y-116375840D01*
X143109880Y-116375840D01*
G37*
G36*
X155371380Y-114582340D02*
X146771380Y-114582340D01*
X146771380Y-110882340D01*
X155371380Y-110882340D01*
X155371380Y-114582340D01*
X155371380Y-114582340D01*
G37*
G36*
X146215380Y-113186340D02*
X143234880Y-113186340D01*
X143210494Y-113188742D01*
X143187045Y-113195855D01*
X143165434Y-113207406D01*
X143146492Y-113222952D01*
X143130946Y-113241894D01*
X143119395Y-113263505D01*
X143112282Y-113286954D01*
X143109880Y-113311340D01*
X143109880Y-114343840D01*
X142009880Y-114343840D01*
X142009880Y-112643840D01*
X143190380Y-112643840D01*
X143214766Y-112641438D01*
X143238215Y-112634325D01*
X143259826Y-112622774D01*
X143278768Y-112607228D01*
X143294314Y-112588286D01*
X143305865Y-112566675D01*
X143312978Y-112543226D01*
X143315380Y-112518840D01*
X143315380Y-111886340D01*
X146215380Y-111886340D01*
X146215380Y-113186340D01*
X146215380Y-113186340D01*
G37*
G36*
X141709040Y-112423200D02*
X141334880Y-112423200D01*
X141310494Y-112425602D01*
X141287045Y-112432715D01*
X141265434Y-112444266D01*
X141246492Y-112459812D01*
X141230946Y-112478754D01*
X141219395Y-112500365D01*
X141212282Y-112523814D01*
X141209880Y-112548200D01*
X141209880Y-114343840D01*
X140109880Y-114343840D01*
X140109880Y-112548200D01*
X140109040Y-112539672D01*
X140109040Y-110823200D01*
X141709040Y-110823200D01*
X141709040Y-112423200D01*
X141709040Y-112423200D01*
G37*
G36*
X126741754Y-111312970D02*
X126741756Y-111312971D01*
X126741757Y-111312971D01*
X126907367Y-111381569D01*
X127056414Y-111481159D01*
X127183161Y-111607906D01*
X127282751Y-111756953D01*
X127351350Y-111922566D01*
X127386320Y-112098371D01*
X127386320Y-112277629D01*
X127351350Y-112453434D01*
X127282751Y-112619047D01*
X127183161Y-112768094D01*
X127056414Y-112894841D01*
X127056411Y-112894843D01*
X126907367Y-112994431D01*
X126741757Y-113063029D01*
X126741756Y-113063029D01*
X126741754Y-113063030D01*
X126565949Y-113098000D01*
X126386691Y-113098000D01*
X126210886Y-113063030D01*
X126210884Y-113063029D01*
X126210883Y-113063029D01*
X126045273Y-112994431D01*
X125896229Y-112894843D01*
X125896226Y-112894841D01*
X125769479Y-112768094D01*
X125669889Y-112619047D01*
X125601290Y-112453434D01*
X125566320Y-112277629D01*
X125566320Y-112098371D01*
X125601290Y-111922566D01*
X125669889Y-111756953D01*
X125769479Y-111607906D01*
X125896226Y-111481159D01*
X126045273Y-111381569D01*
X126210883Y-111312971D01*
X126210884Y-111312971D01*
X126210886Y-111312970D01*
X126386691Y-111278000D01*
X126565949Y-111278000D01*
X126741754Y-111312970D01*
X126741754Y-111312970D01*
G37*
G36*
X137241754Y-111312970D02*
X137241756Y-111312971D01*
X137241757Y-111312971D01*
X137407367Y-111381569D01*
X137556414Y-111481159D01*
X137683161Y-111607906D01*
X137782751Y-111756953D01*
X137851350Y-111922566D01*
X137886320Y-112098371D01*
X137886320Y-112277629D01*
X137851350Y-112453434D01*
X137782751Y-112619047D01*
X137683161Y-112768094D01*
X137556414Y-112894841D01*
X137556411Y-112894843D01*
X137407367Y-112994431D01*
X137241757Y-113063029D01*
X137241756Y-113063029D01*
X137241754Y-113063030D01*
X137065949Y-113098000D01*
X136886691Y-113098000D01*
X136710886Y-113063030D01*
X136710884Y-113063029D01*
X136710883Y-113063029D01*
X136545273Y-112994431D01*
X136396229Y-112894843D01*
X136396226Y-112894841D01*
X136269479Y-112768094D01*
X136169889Y-112619047D01*
X136101290Y-112453434D01*
X136066320Y-112277629D01*
X136066320Y-112098371D01*
X136101290Y-111922566D01*
X136169889Y-111756953D01*
X136269479Y-111607906D01*
X136396226Y-111481159D01*
X136545273Y-111381569D01*
X136710883Y-111312971D01*
X136710884Y-111312971D01*
X136710886Y-111312970D01*
X136886691Y-111278000D01*
X137065949Y-111278000D01*
X137241754Y-111312970D01*
X137241754Y-111312970D01*
G37*
G36*
X130241754Y-111312970D02*
X130241756Y-111312971D01*
X130241757Y-111312971D01*
X130407367Y-111381569D01*
X130556414Y-111481159D01*
X130683161Y-111607906D01*
X130782751Y-111756953D01*
X130851350Y-111922566D01*
X130886320Y-112098371D01*
X130886320Y-112277629D01*
X130851350Y-112453434D01*
X130782751Y-112619047D01*
X130683161Y-112768094D01*
X130556414Y-112894841D01*
X130556411Y-112894843D01*
X130407367Y-112994431D01*
X130241757Y-113063029D01*
X130241756Y-113063029D01*
X130241754Y-113063030D01*
X130065949Y-113098000D01*
X129886691Y-113098000D01*
X129710886Y-113063030D01*
X129710884Y-113063029D01*
X129710883Y-113063029D01*
X129545273Y-112994431D01*
X129396229Y-112894843D01*
X129396226Y-112894841D01*
X129269479Y-112768094D01*
X129169889Y-112619047D01*
X129101290Y-112453434D01*
X129066320Y-112277629D01*
X129066320Y-112098371D01*
X129101290Y-111922566D01*
X129169889Y-111756953D01*
X129269479Y-111607906D01*
X129396226Y-111481159D01*
X129545273Y-111381569D01*
X129710883Y-111312971D01*
X129710884Y-111312971D01*
X129710886Y-111312970D01*
X129886691Y-111278000D01*
X130065949Y-111278000D01*
X130241754Y-111312970D01*
X130241754Y-111312970D01*
G37*
G36*
X133741754Y-111312970D02*
X133741756Y-111312971D01*
X133741757Y-111312971D01*
X133907367Y-111381569D01*
X134056414Y-111481159D01*
X134183161Y-111607906D01*
X134282751Y-111756953D01*
X134351350Y-111922566D01*
X134386320Y-112098371D01*
X134386320Y-112277629D01*
X134351350Y-112453434D01*
X134282751Y-112619047D01*
X134183161Y-112768094D01*
X134056414Y-112894841D01*
X134056411Y-112894843D01*
X133907367Y-112994431D01*
X133741757Y-113063029D01*
X133741756Y-113063029D01*
X133741754Y-113063030D01*
X133565949Y-113098000D01*
X133386691Y-113098000D01*
X133210886Y-113063030D01*
X133210884Y-113063029D01*
X133210883Y-113063029D01*
X133045273Y-112994431D01*
X132896229Y-112894843D01*
X132896226Y-112894841D01*
X132769479Y-112768094D01*
X132669889Y-112619047D01*
X132601290Y-112453434D01*
X132566320Y-112277629D01*
X132566320Y-112098371D01*
X132601290Y-111922566D01*
X132669889Y-111756953D01*
X132769479Y-111607906D01*
X132896226Y-111481159D01*
X133045273Y-111381569D01*
X133210883Y-111312971D01*
X133210884Y-111312971D01*
X133210886Y-111312970D01*
X133386691Y-111278000D01*
X133565949Y-111278000D01*
X133741754Y-111312970D01*
X133741754Y-111312970D01*
G37*
G36*
X159565880Y-112794840D02*
X158165880Y-112794840D01*
X158165880Y-111144840D01*
X159565880Y-111144840D01*
X159565880Y-112794840D01*
X159565880Y-112794840D01*
G37*
G36*
X157565880Y-112794840D02*
X156165880Y-112794840D01*
X156165880Y-111144840D01*
X157565880Y-111144840D01*
X157565880Y-112794840D01*
X157565880Y-112794840D01*
G37*
G36*
X159565880Y-110508840D02*
X158165880Y-110508840D01*
X158165880Y-108858840D01*
X159565880Y-108858840D01*
X159565880Y-110508840D01*
X159565880Y-110508840D01*
G37*
G36*
X157565880Y-110508840D02*
X156165880Y-110508840D01*
X156165880Y-108858840D01*
X157565880Y-108858840D01*
X157565880Y-110508840D01*
X157565880Y-110508840D01*
G37*
G36*
X146215380Y-110286340D02*
X143315380Y-110286340D01*
X143315380Y-108986340D01*
X146215380Y-108986340D01*
X146215380Y-110286340D01*
X146215380Y-110286340D01*
G37*
G36*
X141709040Y-110223200D02*
X140109040Y-110223200D01*
X140109040Y-108623200D01*
X141709040Y-108623200D01*
X141709040Y-110223200D01*
X141709040Y-110223200D01*
G37*
G36*
X137241754Y-108312970D02*
X137241756Y-108312971D01*
X137241757Y-108312971D01*
X137407367Y-108381569D01*
X137556414Y-108481159D01*
X137683161Y-108607906D01*
X137782751Y-108756953D01*
X137851350Y-108922566D01*
X137886320Y-109098371D01*
X137886320Y-109277629D01*
X137851350Y-109453434D01*
X137782751Y-109619047D01*
X137683161Y-109768094D01*
X137556414Y-109894841D01*
X137556411Y-109894843D01*
X137407367Y-109994431D01*
X137241757Y-110063029D01*
X137241756Y-110063029D01*
X137241754Y-110063030D01*
X137065949Y-110098000D01*
X136886691Y-110098000D01*
X136710886Y-110063030D01*
X136710884Y-110063029D01*
X136710883Y-110063029D01*
X136545273Y-109994431D01*
X136396229Y-109894843D01*
X136396226Y-109894841D01*
X136269479Y-109768094D01*
X136169889Y-109619047D01*
X136101290Y-109453434D01*
X136066320Y-109277629D01*
X136066320Y-109098371D01*
X136101290Y-108922566D01*
X136169889Y-108756953D01*
X136269479Y-108607906D01*
X136396226Y-108481159D01*
X136545273Y-108381569D01*
X136710883Y-108312971D01*
X136710884Y-108312971D01*
X136710886Y-108312970D01*
X136886691Y-108278000D01*
X137065949Y-108278000D01*
X137241754Y-108312970D01*
X137241754Y-108312970D01*
G37*
G36*
X126741754Y-108312970D02*
X126741756Y-108312971D01*
X126741757Y-108312971D01*
X126907367Y-108381569D01*
X127056414Y-108481159D01*
X127183161Y-108607906D01*
X127282751Y-108756953D01*
X127351350Y-108922566D01*
X127386320Y-109098371D01*
X127386320Y-109277629D01*
X127351350Y-109453434D01*
X127282751Y-109619047D01*
X127183161Y-109768094D01*
X127056414Y-109894841D01*
X127056411Y-109894843D01*
X126907367Y-109994431D01*
X126741757Y-110063029D01*
X126741756Y-110063029D01*
X126741754Y-110063030D01*
X126565949Y-110098000D01*
X126386691Y-110098000D01*
X126210886Y-110063030D01*
X126210884Y-110063029D01*
X126210883Y-110063029D01*
X126045273Y-109994431D01*
X125896229Y-109894843D01*
X125896226Y-109894841D01*
X125769479Y-109768094D01*
X125669889Y-109619047D01*
X125601290Y-109453434D01*
X125566320Y-109277629D01*
X125566320Y-109098371D01*
X125601290Y-108922566D01*
X125669889Y-108756953D01*
X125769479Y-108607906D01*
X125896226Y-108481159D01*
X126045273Y-108381569D01*
X126210883Y-108312971D01*
X126210884Y-108312971D01*
X126210886Y-108312970D01*
X126386691Y-108278000D01*
X126565949Y-108278000D01*
X126741754Y-108312970D01*
X126741754Y-108312970D01*
G37*
G36*
X130241754Y-108312970D02*
X130241756Y-108312971D01*
X130241757Y-108312971D01*
X130407367Y-108381569D01*
X130556414Y-108481159D01*
X130683161Y-108607906D01*
X130782751Y-108756953D01*
X130851350Y-108922566D01*
X130886320Y-109098371D01*
X130886320Y-109277629D01*
X130851350Y-109453434D01*
X130782751Y-109619047D01*
X130683161Y-109768094D01*
X130556414Y-109894841D01*
X130556411Y-109894843D01*
X130407367Y-109994431D01*
X130241757Y-110063029D01*
X130241756Y-110063029D01*
X130241754Y-110063030D01*
X130065949Y-110098000D01*
X129886691Y-110098000D01*
X129710886Y-110063030D01*
X129710884Y-110063029D01*
X129710883Y-110063029D01*
X129545273Y-109994431D01*
X129396229Y-109894843D01*
X129396226Y-109894841D01*
X129269479Y-109768094D01*
X129169889Y-109619047D01*
X129101290Y-109453434D01*
X129066320Y-109277629D01*
X129066320Y-109098371D01*
X129101290Y-108922566D01*
X129169889Y-108756953D01*
X129269479Y-108607906D01*
X129396226Y-108481159D01*
X129545273Y-108381569D01*
X129710883Y-108312971D01*
X129710884Y-108312971D01*
X129710886Y-108312970D01*
X129886691Y-108278000D01*
X130065949Y-108278000D01*
X130241754Y-108312970D01*
X130241754Y-108312970D01*
G37*
G36*
X133741754Y-108312970D02*
X133741756Y-108312971D01*
X133741757Y-108312971D01*
X133907367Y-108381569D01*
X134056414Y-108481159D01*
X134183161Y-108607906D01*
X134282751Y-108756953D01*
X134351350Y-108922566D01*
X134386320Y-109098371D01*
X134386320Y-109277629D01*
X134351350Y-109453434D01*
X134282751Y-109619047D01*
X134183161Y-109768094D01*
X134056414Y-109894841D01*
X134056411Y-109894843D01*
X133907367Y-109994431D01*
X133741757Y-110063029D01*
X133741756Y-110063029D01*
X133741754Y-110063030D01*
X133565949Y-110098000D01*
X133386691Y-110098000D01*
X133210886Y-110063030D01*
X133210884Y-110063029D01*
X133210883Y-110063029D01*
X133045273Y-109994431D01*
X132896229Y-109894843D01*
X132896226Y-109894841D01*
X132769479Y-109768094D01*
X132669889Y-109619047D01*
X132601290Y-109453434D01*
X132566320Y-109277629D01*
X132566320Y-109098371D01*
X132601290Y-108922566D01*
X132669889Y-108756953D01*
X132769479Y-108607906D01*
X132896226Y-108481159D01*
X133045273Y-108381569D01*
X133210883Y-108312971D01*
X133210884Y-108312971D01*
X133210886Y-108312970D01*
X133386691Y-108278000D01*
X133565949Y-108278000D01*
X133741754Y-108312970D01*
X133741754Y-108312970D01*
G37*
G36*
X155371380Y-109882340D02*
X146771380Y-109882340D01*
X146771380Y-106182340D01*
X155371380Y-106182340D01*
X155371380Y-109882340D01*
X155371380Y-109882340D01*
G37*
G36*
X159565880Y-108476840D02*
X158165880Y-108476840D01*
X158165880Y-106826840D01*
X159565880Y-106826840D01*
X159565880Y-108476840D01*
X159565880Y-108476840D01*
G37*
G36*
X157565880Y-108476840D02*
X156165880Y-108476840D01*
X156165880Y-106826840D01*
X157565880Y-106826840D01*
X157565880Y-108476840D01*
X157565880Y-108476840D01*
G37*
G36*
X122313200Y-106469920D02*
X120663200Y-106469920D01*
X120663200Y-105069920D01*
X122313200Y-105069920D01*
X122313200Y-106469920D01*
X122313200Y-106469920D01*
G37*
G36*
X144667380Y-106454840D02*
X142108380Y-106454840D01*
X142108380Y-104276840D01*
X144667380Y-104276840D01*
X144667380Y-106454840D01*
X144667380Y-106454840D01*
G37*
G36*
X130080640Y-105991280D02*
X128130640Y-105991280D01*
X128130640Y-104991280D01*
X130080640Y-104991280D01*
X130080640Y-105991280D01*
X130080640Y-105991280D01*
G37*
G36*
X124680640Y-105991280D02*
X122730640Y-105991280D01*
X122730640Y-104991280D01*
X124680640Y-104991280D01*
X124680640Y-105991280D01*
X124680640Y-105991280D01*
G37*
G36*
X154680880Y-105768840D02*
X153280880Y-105768840D01*
X153280880Y-102168840D01*
X154680880Y-102168840D01*
X154680880Y-105768840D01*
X154680880Y-105768840D01*
G37*
G36*
X148480880Y-105768840D02*
X147080880Y-105768840D01*
X147080880Y-102168840D01*
X148480880Y-102168840D01*
X148480880Y-105768840D01*
X148480880Y-105768840D01*
G37*
G36*
X132264520Y-105010080D02*
X130564520Y-105010080D01*
X130564520Y-103910080D01*
X132264520Y-103910080D01*
X132264520Y-105010080D01*
X132264520Y-105010080D01*
G37*
G36*
X130080640Y-104721280D02*
X128130640Y-104721280D01*
X128130640Y-103721280D01*
X130080640Y-103721280D01*
X130080640Y-104721280D01*
X130080640Y-104721280D01*
G37*
G36*
X124680640Y-104721280D02*
X122730640Y-104721280D01*
X122730640Y-103721280D01*
X124680640Y-103721280D01*
X124680640Y-104721280D01*
X124680640Y-104721280D01*
G37*
G36*
X122313200Y-104469920D02*
X120663200Y-104469920D01*
X120663200Y-103069920D01*
X122313200Y-103069920D01*
X122313200Y-104469920D01*
X122313200Y-104469920D01*
G37*
G36*
X130080640Y-103451280D02*
X128130640Y-103451280D01*
X128130640Y-102451280D01*
X130080640Y-102451280D01*
X130080640Y-103451280D01*
X130080640Y-103451280D01*
G37*
G36*
X124680640Y-103451280D02*
X122730640Y-103451280D01*
X122730640Y-102451280D01*
X124680640Y-102451280D01*
X124680640Y-103451280D01*
X124680640Y-103451280D01*
G37*
G36*
X132264520Y-103110080D02*
X130564520Y-103110080D01*
X130564520Y-102010080D01*
X132264520Y-102010080D01*
X132264520Y-103110080D01*
X132264520Y-103110080D01*
G37*
G36*
X144667380Y-102390840D02*
X142108380Y-102390840D01*
X142108380Y-100212840D01*
X144667380Y-100212840D01*
X144667380Y-102390840D01*
X144667380Y-102390840D01*
G37*
G36*
X124680640Y-102181280D02*
X122730640Y-102181280D01*
X122730640Y-101181280D01*
X124680640Y-101181280D01*
X124680640Y-102181280D01*
X124680640Y-102181280D01*
G37*
G36*
X130080640Y-102181280D02*
X128130640Y-102181280D01*
X128130640Y-101181280D01*
X130080640Y-101181280D01*
X130080640Y-102181280D01*
X130080640Y-102181280D01*
G37*
G36*
X149083880Y-101643840D02*
X147983880Y-101643840D01*
X147983880Y-99943840D01*
X149083880Y-99943840D01*
X149083880Y-101643840D01*
X149083880Y-101643840D01*
G37*
G36*
X150983880Y-101643840D02*
X149883880Y-101643840D01*
X149883880Y-99943840D01*
X150983880Y-99943840D01*
X150983880Y-101643840D01*
X150983880Y-101643840D01*
G37*
G36*
X155785880Y-101593840D02*
X154185880Y-101593840D01*
X154185880Y-99993840D01*
X155785880Y-99993840D01*
X155785880Y-101593840D01*
X155785880Y-101593840D01*
G37*
G36*
X153585880Y-101593840D02*
X151985880Y-101593840D01*
X151985880Y-99993840D01*
X153585880Y-99993840D01*
X153585880Y-101593840D01*
X153585880Y-101593840D01*
G37*
G36*
X143128720Y-98457520D02*
X141728720Y-98457520D01*
X141728720Y-96807520D01*
X143128720Y-96807520D01*
X143128720Y-98457520D01*
X143128720Y-98457520D01*
G37*
G36*
X145128720Y-98457520D02*
X143728720Y-98457520D01*
X143728720Y-96807520D01*
X145128720Y-96807520D01*
X145128720Y-98457520D01*
X145128720Y-98457520D01*
G37*
G36*
X153582277Y-98173018D02*
X152382277Y-98173018D01*
X152382277Y-96873018D01*
X153582277Y-96873018D01*
X153582277Y-98173018D01*
X153582277Y-98173018D01*
G37*
G36*
X158492320Y-98147240D02*
X157392320Y-98147240D01*
X157392320Y-96447240D01*
X158492320Y-96447240D01*
X158492320Y-98147240D01*
X158492320Y-98147240D01*
G37*
G36*
X156592320Y-98147240D02*
X155492320Y-98147240D01*
X155492320Y-96447240D01*
X156592320Y-96447240D01*
X156592320Y-98147240D01*
X156592320Y-98147240D01*
G37*
G36*
X150806520Y-97837160D02*
X149106520Y-97837160D01*
X149106520Y-96737160D01*
X150806520Y-96737160D01*
X150806520Y-97837160D01*
X150806520Y-97837160D01*
G37*
G36*
X145581120Y-96504560D02*
X143781120Y-96504560D01*
X143781120Y-93304560D01*
X145581120Y-93304560D01*
X145581120Y-96504560D01*
X145581120Y-96504560D01*
G37*
G36*
X143381120Y-96504560D02*
X141581120Y-96504560D01*
X141581120Y-93304560D01*
X143381120Y-93304560D01*
X143381120Y-96504560D01*
X143381120Y-96504560D01*
G37*
G36*
X154532277Y-96073018D02*
X153332277Y-96073018D01*
X153332277Y-94773018D01*
X154532277Y-94773018D01*
X154532277Y-96073018D01*
X154532277Y-96073018D01*
G37*
G36*
X152632277Y-96073018D02*
X151432277Y-96073018D01*
X151432277Y-94773018D01*
X152632277Y-94773018D01*
X152632277Y-96073018D01*
X152632277Y-96073018D01*
G37*
G36*
X150806520Y-95937160D02*
X149106520Y-95937160D01*
X149106520Y-94837160D01*
X150806520Y-94837160D01*
X150806520Y-95937160D01*
X150806520Y-95937160D01*
G37*
G36*
X147510000Y-94638600D02*
X145860000Y-94638600D01*
X145860000Y-93238600D01*
X147510000Y-93238600D01*
X147510000Y-94638600D01*
X147510000Y-94638600D01*
G37*
G36*
X140734528Y-82994899D02*
X140734533Y-82994905D01*
X141017376Y-83277748D01*
X141017382Y-83277753D01*
X143562955Y-85823326D01*
X143562960Y-85823332D01*
X143845803Y-86106175D01*
X143845809Y-86106180D01*
X144605943Y-86866314D01*
X143297795Y-88174462D01*
X143282249Y-88193404D01*
X143270698Y-88215015D01*
X143263585Y-88238464D01*
X143261183Y-88262850D01*
X143263585Y-88287236D01*
X143270698Y-88310685D01*
X143282249Y-88332296D01*
X143297795Y-88351238D01*
X144605943Y-89659386D01*
X139974393Y-94290936D01*
X138666245Y-92982788D01*
X138647303Y-92967242D01*
X138625692Y-92955691D01*
X138602243Y-92948578D01*
X138577857Y-92946176D01*
X138553471Y-92948578D01*
X138530022Y-92955691D01*
X138508411Y-92967242D01*
X138489469Y-92982788D01*
X137181321Y-94290936D01*
X136421187Y-93530802D01*
X136421182Y-93530796D01*
X136138339Y-93247953D01*
X136138333Y-93247948D01*
X133592760Y-90702375D01*
X133592755Y-90702369D01*
X133309912Y-90419526D01*
X133309906Y-90419521D01*
X132549771Y-89659386D01*
X133857919Y-88351238D01*
X133873465Y-88332296D01*
X133885016Y-88310685D01*
X133892129Y-88287236D01*
X133894531Y-88262850D01*
X134033439Y-88262850D01*
X134035841Y-88287236D01*
X134042954Y-88310685D01*
X134054505Y-88332296D01*
X134070051Y-88351238D01*
X134441283Y-88722470D01*
X134441289Y-88722475D01*
X135289806Y-89570992D01*
X135289811Y-89570998D01*
X137269710Y-91550897D01*
X137269716Y-91550902D01*
X138118233Y-92399419D01*
X138118238Y-92399425D01*
X138489469Y-92770656D01*
X138508411Y-92786202D01*
X138530022Y-92797753D01*
X138553471Y-92804866D01*
X138577857Y-92807268D01*
X138602243Y-92804866D01*
X138625692Y-92797753D01*
X138647303Y-92786202D01*
X138666245Y-92770656D01*
X139037482Y-92399419D01*
X139037486Y-92399414D01*
X139885994Y-91550906D01*
X139886000Y-91550902D01*
X140363302Y-91073599D01*
X141865909Y-89570992D01*
X141865913Y-89570987D01*
X142714421Y-88722479D01*
X142714427Y-88722474D01*
X143085663Y-88351238D01*
X143101209Y-88332296D01*
X143112760Y-88310685D01*
X143119873Y-88287236D01*
X143122275Y-88262850D01*
X143119873Y-88238464D01*
X143112760Y-88215014D01*
X143101209Y-88193404D01*
X143085663Y-88174462D01*
X142714432Y-87803231D01*
X142714426Y-87803226D01*
X141865909Y-86954709D01*
X141865904Y-86954703D01*
X139886005Y-84974804D01*
X139885999Y-84974799D01*
X139037482Y-84126282D01*
X139037477Y-84126276D01*
X138666245Y-83755044D01*
X138647303Y-83739498D01*
X138625692Y-83727947D01*
X138602243Y-83720834D01*
X138577857Y-83718432D01*
X138553471Y-83720834D01*
X138530022Y-83727947D01*
X138508411Y-83739498D01*
X138489469Y-83755044D01*
X138118238Y-84126276D01*
X137269710Y-84974804D01*
X136898479Y-85346034D01*
X135572653Y-86671860D01*
X135289811Y-86954703D01*
X134441283Y-87803231D01*
X134070051Y-88174462D01*
X134054505Y-88193404D01*
X134042954Y-88215015D01*
X134035841Y-88238464D01*
X134033439Y-88262850D01*
X133894531Y-88262850D01*
X133892129Y-88238464D01*
X133885016Y-88215015D01*
X133873465Y-88193404D01*
X133857919Y-88174462D01*
X132549771Y-86866314D01*
X133309901Y-86106184D01*
X133309906Y-86106180D01*
X133592760Y-85823326D01*
X133592764Y-85823321D01*
X136138328Y-83277757D01*
X136138334Y-83277752D01*
X136421187Y-82994899D01*
X136421191Y-82994894D01*
X137181321Y-82234764D01*
X138489469Y-83542912D01*
X138508411Y-83558458D01*
X138530022Y-83570009D01*
X138553471Y-83577122D01*
X138577857Y-83579524D01*
X138602243Y-83577122D01*
X138625692Y-83570009D01*
X138647303Y-83558458D01*
X138666245Y-83542912D01*
X139974393Y-82234764D01*
X140734528Y-82994899D01*
X140734528Y-82994899D01*
G37*
G36*
X135059246Y-92805479D02*
X133892519Y-93972206D01*
X132902568Y-92982255D01*
X134069295Y-91815528D01*
X135059246Y-92805479D01*
X135059246Y-92805479D01*
G37*
G36*
X147510000Y-92638600D02*
X145860000Y-92638600D01*
X145860000Y-91238600D01*
X147510000Y-91238600D01*
X147510000Y-92638600D01*
X147510000Y-92638600D01*
G37*
G36*
X133645032Y-91391265D02*
X132478305Y-92557992D01*
X131488354Y-91568041D01*
X132655081Y-90401314D01*
X133645032Y-91391265D01*
X133645032Y-91391265D01*
G37*
G36*
X128006680Y-92187600D02*
X126206680Y-92187600D01*
X126206680Y-90387600D01*
X128006680Y-90387600D01*
X128006680Y-92187600D01*
X128006680Y-92187600D01*
G37*
G36*
X124829201Y-90422186D02*
X124992989Y-90490029D01*
X125140400Y-90588526D01*
X125265754Y-90713880D01*
X125364251Y-90861291D01*
X125432094Y-91025079D01*
X125466680Y-91198956D01*
X125466680Y-91376244D01*
X125432094Y-91550121D01*
X125364251Y-91713909D01*
X125265754Y-91861320D01*
X125140400Y-91986674D01*
X124992989Y-92085171D01*
X124829201Y-92153014D01*
X124655324Y-92187600D01*
X124478036Y-92187600D01*
X124304159Y-92153014D01*
X124140371Y-92085171D01*
X123992960Y-91986674D01*
X123867606Y-91861320D01*
X123769109Y-91713909D01*
X123701266Y-91550121D01*
X123666680Y-91376244D01*
X123666680Y-91198956D01*
X123701266Y-91025079D01*
X123769109Y-90861291D01*
X123867606Y-90713880D01*
X123992960Y-90588526D01*
X124140371Y-90490029D01*
X124304159Y-90422186D01*
X124478036Y-90387600D01*
X124655324Y-90387600D01*
X124829201Y-90422186D01*
X124829201Y-90422186D01*
G37*
G36*
X149407320Y-89842240D02*
X147807320Y-89842240D01*
X147807320Y-88242240D01*
X149407320Y-88242240D01*
X149407320Y-89842240D01*
X149407320Y-89842240D01*
G37*
G36*
X152207320Y-89842240D02*
X150607320Y-89842240D01*
X150607320Y-88242240D01*
X152207320Y-88242240D01*
X152207320Y-89842240D01*
X152207320Y-89842240D01*
G37*
G36*
X127369201Y-87882186D02*
X127532989Y-87950029D01*
X127680400Y-88048526D01*
X127805754Y-88173880D01*
X127904251Y-88321291D01*
X127972094Y-88485079D01*
X128006680Y-88658956D01*
X128006680Y-88836244D01*
X127972094Y-89010121D01*
X127904251Y-89173909D01*
X127805754Y-89321320D01*
X127680400Y-89446674D01*
X127532989Y-89545171D01*
X127369201Y-89613014D01*
X127195324Y-89647600D01*
X127018036Y-89647600D01*
X126844159Y-89613014D01*
X126680371Y-89545171D01*
X126532960Y-89446674D01*
X126407606Y-89321320D01*
X126309109Y-89173909D01*
X126241266Y-89010121D01*
X126206680Y-88836244D01*
X126206680Y-88658956D01*
X126241266Y-88485079D01*
X126309109Y-88321291D01*
X126407606Y-88173880D01*
X126532960Y-88048526D01*
X126680371Y-87950029D01*
X126844159Y-87882186D01*
X127018036Y-87847600D01*
X127195324Y-87847600D01*
X127369201Y-87882186D01*
X127369201Y-87882186D01*
G37*
G36*
X124829201Y-87882186D02*
X124992989Y-87950029D01*
X125140400Y-88048526D01*
X125265754Y-88173880D01*
X125364251Y-88321291D01*
X125432094Y-88485079D01*
X125466680Y-88658956D01*
X125466680Y-88836244D01*
X125432094Y-89010121D01*
X125364251Y-89173909D01*
X125265754Y-89321320D01*
X125140400Y-89446674D01*
X124992989Y-89545171D01*
X124829201Y-89613014D01*
X124655324Y-89647600D01*
X124478036Y-89647600D01*
X124304159Y-89613014D01*
X124140371Y-89545171D01*
X123992960Y-89446674D01*
X123867606Y-89321320D01*
X123769109Y-89173909D01*
X123701266Y-89010121D01*
X123666680Y-88836244D01*
X123666680Y-88658956D01*
X123701266Y-88485079D01*
X123769109Y-88321291D01*
X123867606Y-88173880D01*
X123992960Y-88048526D01*
X124140371Y-87950029D01*
X124304159Y-87882186D01*
X124478036Y-87847600D01*
X124655324Y-87847600D01*
X124829201Y-87882186D01*
X124829201Y-87882186D01*
G37*
G36*
X161373940Y-87206301D02*
X161359585Y-87210655D01*
X161337974Y-87222206D01*
X161319032Y-87237752D01*
X161303486Y-87256694D01*
X161291935Y-87278305D01*
X161284822Y-87301754D01*
X161282420Y-87326140D01*
X161282420Y-89091260D01*
X159882420Y-89091260D01*
X159882420Y-87326140D01*
X159880018Y-87301754D01*
X159872905Y-87278305D01*
X159861354Y-87256694D01*
X159845808Y-87237752D01*
X159826866Y-87222206D01*
X159805255Y-87210655D01*
X159781806Y-87203542D01*
X159757420Y-87201140D01*
X159407420Y-87201140D01*
X159383034Y-87203542D01*
X159359585Y-87210655D01*
X159337974Y-87222206D01*
X159319032Y-87237752D01*
X159303486Y-87256694D01*
X159291935Y-87278305D01*
X159284822Y-87301754D01*
X159282420Y-87326140D01*
X159282420Y-89091260D01*
X157882420Y-89091260D01*
X157882420Y-87441260D01*
X158398940Y-87441260D01*
X158423326Y-87438858D01*
X158446775Y-87431745D01*
X158468386Y-87420194D01*
X158487328Y-87404648D01*
X158502874Y-87385706D01*
X158514425Y-87364095D01*
X158521538Y-87340646D01*
X158523940Y-87316260D01*
X158523940Y-86001140D01*
X161373940Y-86001140D01*
X161373940Y-87206301D01*
X161373940Y-87206301D01*
G37*
G36*
X154032080Y-87377640D02*
X152932080Y-87377640D01*
X152932080Y-85677640D01*
X154032080Y-85677640D01*
X154032080Y-87377640D01*
X154032080Y-87377640D01*
G37*
G36*
X152132080Y-87377640D02*
X151032080Y-87377640D01*
X151032080Y-85677640D01*
X152132080Y-85677640D01*
X152132080Y-87377640D01*
X152132080Y-87377640D01*
G37*
G36*
X127369201Y-85342186D02*
X127532989Y-85410029D01*
X127680400Y-85508526D01*
X127805754Y-85633880D01*
X127904251Y-85781291D01*
X127972094Y-85945079D01*
X128006680Y-86118956D01*
X128006680Y-86296244D01*
X127972094Y-86470121D01*
X127904251Y-86633909D01*
X127805754Y-86781320D01*
X127680400Y-86906674D01*
X127532989Y-87005171D01*
X127369201Y-87073014D01*
X127195324Y-87107600D01*
X127018036Y-87107600D01*
X126844159Y-87073014D01*
X126680371Y-87005171D01*
X126532960Y-86906674D01*
X126407606Y-86781320D01*
X126309109Y-86633909D01*
X126241266Y-86470121D01*
X126206680Y-86296244D01*
X126206680Y-86118956D01*
X126241266Y-85945079D01*
X126309109Y-85781291D01*
X126407606Y-85633880D01*
X126532960Y-85508526D01*
X126680371Y-85410029D01*
X126844159Y-85342186D01*
X127018036Y-85307600D01*
X127195324Y-85307600D01*
X127369201Y-85342186D01*
X127369201Y-85342186D01*
G37*
G36*
X124829201Y-85342186D02*
X124992989Y-85410029D01*
X125140400Y-85508526D01*
X125265754Y-85633880D01*
X125364251Y-85781291D01*
X125432094Y-85945079D01*
X125466680Y-86118956D01*
X125466680Y-86296244D01*
X125432094Y-86470121D01*
X125364251Y-86633909D01*
X125265754Y-86781320D01*
X125140400Y-86906674D01*
X124992989Y-87005171D01*
X124829201Y-87073014D01*
X124655324Y-87107600D01*
X124478036Y-87107600D01*
X124304159Y-87073014D01*
X124140371Y-87005171D01*
X123992960Y-86906674D01*
X123867606Y-86781320D01*
X123769109Y-86633909D01*
X123701266Y-86470121D01*
X123666680Y-86296244D01*
X123666680Y-86118956D01*
X123701266Y-85945079D01*
X123769109Y-85781291D01*
X123867606Y-85633880D01*
X123992960Y-85508526D01*
X124140371Y-85410029D01*
X124304159Y-85342186D01*
X124478036Y-85307600D01*
X124655324Y-85307600D01*
X124829201Y-85342186D01*
X124829201Y-85342186D01*
G37*
G36*
X145145446Y-84358719D02*
X143978719Y-85525446D01*
X142988768Y-84535495D01*
X144155495Y-83368768D01*
X145145446Y-84358719D01*
X145145446Y-84358719D01*
G37*
G36*
X159257020Y-83476140D02*
X159259422Y-83500526D01*
X159266535Y-83523975D01*
X159278086Y-83545586D01*
X159293632Y-83564528D01*
X159312574Y-83580074D01*
X159334185Y-83591625D01*
X159357634Y-83598738D01*
X159382020Y-83601140D01*
X159473940Y-83601140D01*
X159473940Y-84801140D01*
X158523940Y-84801140D01*
X158523940Y-83491100D01*
X158521538Y-83466714D01*
X158514425Y-83443265D01*
X158502874Y-83421654D01*
X158487328Y-83402712D01*
X158468386Y-83387166D01*
X158446775Y-83375615D01*
X158423326Y-83368502D01*
X158398940Y-83366100D01*
X157857020Y-83366100D01*
X157857020Y-81716100D01*
X159257020Y-81716100D01*
X159257020Y-83476140D01*
X159257020Y-83476140D01*
G37*
G36*
X161257020Y-83476140D02*
X161259422Y-83500526D01*
X161266535Y-83523975D01*
X161278086Y-83545586D01*
X161293632Y-83564528D01*
X161312574Y-83580074D01*
X161334185Y-83591625D01*
X161357634Y-83598738D01*
X161373940Y-83600344D01*
X161373940Y-84801140D01*
X160423940Y-84801140D01*
X160423940Y-83491100D01*
X160421538Y-83466714D01*
X160414425Y-83443265D01*
X160402874Y-83421654D01*
X160387328Y-83402712D01*
X160368386Y-83387166D01*
X160346775Y-83375615D01*
X160323326Y-83368502D01*
X160298940Y-83366100D01*
X159857020Y-83366100D01*
X159857020Y-81716100D01*
X161257020Y-81716100D01*
X161257020Y-83476140D01*
X161257020Y-83476140D01*
G37*
G36*
X128642239Y-84126440D02*
X127542239Y-84126440D01*
X127542239Y-82426440D01*
X128642239Y-82426440D01*
X128642239Y-84126440D01*
X128642239Y-84126440D01*
G37*
G36*
X126742241Y-84126440D02*
X125642241Y-84126440D01*
X125642241Y-82426440D01*
X126742241Y-82426440D01*
X126742241Y-84126440D01*
X126742241Y-84126440D01*
G37*
G36*
X143731232Y-82944505D02*
X142564505Y-84111232D01*
X141574554Y-83121281D01*
X142741281Y-81954554D01*
X143731232Y-82944505D01*
X143731232Y-82944505D01*
G37*
G36*
X146561701Y-82859619D02*
X145359619Y-84061701D01*
X144581801Y-83283883D01*
X145783883Y-82081801D01*
X146561701Y-82859619D01*
X146561701Y-82859619D01*
G37*
G36*
X145218199Y-81516117D02*
X144016117Y-82718199D01*
X143238299Y-81940381D01*
X144440381Y-80738299D01*
X145218199Y-81516117D01*
X145218199Y-81516117D01*
G37*
G36*
X155225760Y-82375880D02*
X151575760Y-82375880D01*
X151575760Y-80775880D01*
X155225760Y-80775880D01*
X155225760Y-82375880D01*
X155225760Y-82375880D01*
G37*
G36*
X142581423Y-80849949D02*
X141450051Y-81981321D01*
X140318679Y-80849949D01*
X141450051Y-79718577D01*
X142581423Y-80849949D01*
X142581423Y-80849949D01*
G37*
G36*
X134916103Y-81826791D02*
X133316103Y-81826791D01*
X133316103Y-80226791D01*
X134916103Y-80226791D01*
X134916103Y-81826791D01*
X134916103Y-81826791D01*
G37*
G36*
X132944038Y-81780910D02*
X131344038Y-81780910D01*
X131344038Y-80180910D01*
X132944038Y-80180910D01*
X132944038Y-81780910D01*
X132944038Y-81780910D01*
G37*
G36*
X131002507Y-81745153D02*
X129402507Y-81745153D01*
X129402507Y-80145153D01*
X131002507Y-80145153D01*
X131002507Y-81745153D01*
X131002507Y-81745153D01*
G37*
G36*
X148327480Y-80692160D02*
X146627480Y-80692160D01*
X146627480Y-79592160D01*
X148327480Y-79592160D01*
X148327480Y-80692160D01*
X148327480Y-80692160D01*
G37*
G36*
X151985759Y-80390880D02*
X150385759Y-80390880D01*
X150385759Y-79740880D01*
X151985759Y-79740880D01*
X151985759Y-80390880D01*
X151985759Y-80390880D01*
G37*
G36*
X156415761Y-80390880D02*
X154815761Y-80390880D01*
X154815761Y-79740880D01*
X156415761Y-79740880D01*
X156415761Y-80390880D01*
X156415761Y-80390880D01*
G37*
G36*
X144561321Y-78870051D02*
X143429949Y-80001423D01*
X142298577Y-78870051D01*
X143429949Y-77738679D01*
X144561321Y-78870051D01*
X144561321Y-78870051D01*
G37*
G36*
X134916103Y-79626793D02*
X133316103Y-79626793D01*
X133316103Y-78026793D01*
X134916103Y-78026793D01*
X134916103Y-79626793D01*
X134916103Y-79626793D01*
G37*
G36*
X132944038Y-79580912D02*
X131344038Y-79580912D01*
X131344038Y-77980912D01*
X132944038Y-77980912D01*
X132944038Y-79580912D01*
X132944038Y-79580912D01*
G37*
G36*
X131002507Y-79545155D02*
X129402507Y-79545155D01*
X129402507Y-77945155D01*
X131002507Y-77945155D01*
X131002507Y-79545155D01*
X131002507Y-79545155D01*
G37*
G36*
X155225760Y-79355880D02*
X151575760Y-79355880D01*
X151575760Y-77755880D01*
X155225760Y-77755880D01*
X155225760Y-79355880D01*
X155225760Y-79355880D01*
G37*
G36*
X148327480Y-78792160D02*
X146627480Y-78792160D01*
X146627480Y-77692160D01*
X148327480Y-77692160D01*
X148327480Y-78792160D01*
X148327480Y-78792160D01*
G37*
G36*
X140675920Y-77884760D02*
X139475920Y-77884760D01*
X139475920Y-76584760D01*
X140675920Y-76584760D01*
X140675920Y-77884760D01*
X140675920Y-77884760D01*
G37*
G36*
X133051512Y-77547321D02*
X131351512Y-77547321D01*
X131351512Y-76447321D01*
X133051512Y-76447321D01*
X133051512Y-77547321D01*
X133051512Y-77547321D01*
G37*
G36*
X135109787Y-77531044D02*
X133409787Y-77531044D01*
X133409787Y-76431044D01*
X135109787Y-76431044D01*
X135109787Y-77531044D01*
X135109787Y-77531044D01*
G37*
G36*
X131036342Y-77529360D02*
X129336342Y-77529360D01*
X129336342Y-76429360D01*
X131036342Y-76429360D01*
X131036342Y-77529360D01*
X131036342Y-77529360D01*
G37*
G36*
X137720440Y-77527280D02*
X136020440Y-77527280D01*
X136020440Y-76427280D01*
X137720440Y-76427280D01*
X137720440Y-77527280D01*
X137720440Y-77527280D01*
G37*
G36*
X120736250Y-72572899D02*
X120736252Y-72572900D01*
X120736253Y-72572900D01*
X121195610Y-72763172D01*
X121609023Y-73039406D01*
X121960594Y-73390977D01*
X122236828Y-73804390D01*
X122427101Y-74263750D01*
X122524100Y-74751396D01*
X122524100Y-75248604D01*
X122431247Y-75715408D01*
X122427100Y-75736253D01*
X122292266Y-76061770D01*
X122236828Y-76195610D01*
X121960594Y-76609023D01*
X121609023Y-76960594D01*
X121609020Y-76960596D01*
X121195610Y-77236828D01*
X120736253Y-77427100D01*
X120736252Y-77427100D01*
X120736250Y-77427101D01*
X120248604Y-77524100D01*
X119751396Y-77524100D01*
X119263750Y-77427101D01*
X119263748Y-77427100D01*
X119263747Y-77427100D01*
X118804390Y-77236828D01*
X118390980Y-76960596D01*
X118390977Y-76960594D01*
X118039406Y-76609023D01*
X117763172Y-76195610D01*
X117707734Y-76061770D01*
X117572900Y-75736253D01*
X117568754Y-75715408D01*
X117475900Y-75248604D01*
X117475900Y-74751396D01*
X117572899Y-74263750D01*
X117763172Y-73804390D01*
X118039406Y-73390977D01*
X118390977Y-73039406D01*
X118804390Y-72763172D01*
X119263747Y-72572900D01*
X119263748Y-72572900D01*
X119263750Y-72572899D01*
X119751396Y-72475900D01*
X120248604Y-72475900D01*
X120736250Y-72572899D01*
X120736250Y-72572899D01*
G37*
G36*
X162736250Y-72572899D02*
X162736252Y-72572900D01*
X162736253Y-72572900D01*
X163195610Y-72763172D01*
X163609023Y-73039406D01*
X163960594Y-73390977D01*
X164236828Y-73804390D01*
X164427101Y-74263750D01*
X164524100Y-74751396D01*
X164524100Y-75248604D01*
X164431247Y-75715408D01*
X164427100Y-75736253D01*
X164292266Y-76061770D01*
X164236828Y-76195610D01*
X163960594Y-76609023D01*
X163609023Y-76960594D01*
X163609020Y-76960596D01*
X163195610Y-77236828D01*
X162736253Y-77427100D01*
X162736252Y-77427100D01*
X162736250Y-77427101D01*
X162248604Y-77524100D01*
X161751396Y-77524100D01*
X161263750Y-77427101D01*
X161263748Y-77427100D01*
X161263747Y-77427100D01*
X160804390Y-77236828D01*
X160390980Y-76960596D01*
X160390977Y-76960594D01*
X160039406Y-76609023D01*
X159763172Y-76195610D01*
X159707734Y-76061770D01*
X159572900Y-75736253D01*
X159568754Y-75715408D01*
X159475900Y-75248604D01*
X159475900Y-74751396D01*
X159572899Y-74263750D01*
X159763172Y-73804390D01*
X160039406Y-73390977D01*
X160390977Y-73039406D01*
X160804390Y-72763172D01*
X161263747Y-72572900D01*
X161263748Y-72572900D01*
X161263750Y-72572899D01*
X161751396Y-72475900D01*
X162248604Y-72475900D01*
X162736250Y-72572899D01*
X162736250Y-72572899D01*
G37*
G36*
X153481122Y-74340517D02*
X153529085Y-74355066D01*
X153573275Y-74378686D01*
X153612018Y-74410482D01*
X153643814Y-74449225D01*
X153667434Y-74493415D01*
X153681983Y-74541378D01*
X153687500Y-74597391D01*
X153687500Y-75422609D01*
X153681983Y-75478622D01*
X153667434Y-75526585D01*
X153643814Y-75570775D01*
X153612018Y-75609518D01*
X153573275Y-75641314D01*
X153528160Y-75665428D01*
X153507785Y-75679041D01*
X153490458Y-75696368D01*
X153476844Y-75716743D01*
X153467467Y-75739382D01*
X153462686Y-75763415D01*
X153462686Y-75787920D01*
X153467466Y-75811953D01*
X153476844Y-75834592D01*
X153490457Y-75854967D01*
X153507784Y-75872294D01*
X153528160Y-75885909D01*
X153570780Y-75908689D01*
X153609519Y-75940482D01*
X153641315Y-75979225D01*
X153664935Y-76023415D01*
X153679484Y-76071378D01*
X153685001Y-76127391D01*
X153685001Y-76952609D01*
X153679484Y-77008622D01*
X153664935Y-77056585D01*
X153641315Y-77100775D01*
X153609519Y-77139518D01*
X153570776Y-77171314D01*
X153526586Y-77194934D01*
X153478623Y-77209483D01*
X153422610Y-77215000D01*
X152672392Y-77215000D01*
X152616379Y-77209483D01*
X152568416Y-77194934D01*
X152524226Y-77171314D01*
X152485483Y-77139518D01*
X152453687Y-77100775D01*
X152430067Y-77056585D01*
X152415518Y-77008622D01*
X152410001Y-76952609D01*
X152410001Y-76127391D01*
X152415518Y-76071378D01*
X152430067Y-76023415D01*
X152453687Y-75979225D01*
X152485483Y-75940482D01*
X152524226Y-75908686D01*
X152569341Y-75884572D01*
X152589716Y-75870959D01*
X152607043Y-75853632D01*
X152620657Y-75833257D01*
X152630034Y-75810618D01*
X152634815Y-75786585D01*
X152634815Y-75762080D01*
X152630035Y-75738047D01*
X152620657Y-75715408D01*
X152607044Y-75695033D01*
X152589717Y-75677706D01*
X152569341Y-75664091D01*
X152526721Y-75641311D01*
X152487982Y-75609518D01*
X152456186Y-75570775D01*
X152432566Y-75526585D01*
X152418017Y-75478622D01*
X152412500Y-75422609D01*
X152412500Y-74597391D01*
X152418017Y-74541378D01*
X152432566Y-74493415D01*
X152456186Y-74449225D01*
X152487982Y-74410482D01*
X152526725Y-74378686D01*
X152570915Y-74355066D01*
X152618878Y-74340517D01*
X152674891Y-74335000D01*
X153425109Y-74335000D01*
X153481122Y-74340517D01*
X153481122Y-74340517D01*
G37*
G36*
X151906120Y-74340517D02*
X151954083Y-74355066D01*
X151998273Y-74378686D01*
X152037016Y-74410482D01*
X152068812Y-74449225D01*
X152092432Y-74493415D01*
X152106981Y-74541378D01*
X152112498Y-74597391D01*
X152112498Y-75422609D01*
X152106981Y-75478622D01*
X152092432Y-75526585D01*
X152068812Y-75570775D01*
X152037016Y-75609518D01*
X151998273Y-75641314D01*
X151953158Y-75665428D01*
X151932783Y-75679041D01*
X151915456Y-75696368D01*
X151901842Y-75716743D01*
X151892465Y-75739382D01*
X151887684Y-75763415D01*
X151887684Y-75787920D01*
X151892464Y-75811953D01*
X151901842Y-75834592D01*
X151915455Y-75854967D01*
X151932782Y-75872294D01*
X151953158Y-75885909D01*
X151995778Y-75908689D01*
X152034517Y-75940482D01*
X152066313Y-75979225D01*
X152089933Y-76023415D01*
X152104482Y-76071378D01*
X152109999Y-76127391D01*
X152109999Y-76952609D01*
X152104482Y-77008622D01*
X152089933Y-77056585D01*
X152066313Y-77100775D01*
X152034517Y-77139518D01*
X151995774Y-77171314D01*
X151951584Y-77194934D01*
X151903621Y-77209483D01*
X151847608Y-77215000D01*
X151097390Y-77215000D01*
X151041377Y-77209483D01*
X150993414Y-77194934D01*
X150949224Y-77171314D01*
X150910481Y-77139518D01*
X150878685Y-77100775D01*
X150855065Y-77056585D01*
X150840516Y-77008622D01*
X150834999Y-76952609D01*
X150834999Y-76127391D01*
X150840516Y-76071378D01*
X150855065Y-76023415D01*
X150878685Y-75979225D01*
X150910481Y-75940482D01*
X150949224Y-75908686D01*
X150994339Y-75884572D01*
X151014714Y-75870959D01*
X151032041Y-75853632D01*
X151045655Y-75833257D01*
X151055032Y-75810618D01*
X151059813Y-75786585D01*
X151059813Y-75762080D01*
X151055033Y-75738047D01*
X151045655Y-75715408D01*
X151032042Y-75695033D01*
X151014715Y-75677706D01*
X150994339Y-75664091D01*
X150951719Y-75641311D01*
X150912980Y-75609518D01*
X150881184Y-75570775D01*
X150857564Y-75526585D01*
X150843015Y-75478622D01*
X150837498Y-75422609D01*
X150837498Y-74597391D01*
X150843015Y-74541378D01*
X150857564Y-74493415D01*
X150881184Y-74449225D01*
X150912980Y-74410482D01*
X150951723Y-74378686D01*
X150995913Y-74355066D01*
X151043876Y-74340517D01*
X151099889Y-74335000D01*
X151850107Y-74335000D01*
X151906120Y-74340517D01*
X151906120Y-74340517D01*
G37*
G36*
X144065360Y-76338560D02*
X142365360Y-76338560D01*
X142365360Y-75238560D01*
X144065360Y-75238560D01*
X144065360Y-76338560D01*
X144065360Y-76338560D01*
G37*
G36*
X141625920Y-75784760D02*
X140425920Y-75784760D01*
X140425920Y-74484760D01*
X141625920Y-74484760D01*
X141625920Y-75784760D01*
X141625920Y-75784760D01*
G37*
G36*
X139725920Y-75784760D02*
X138525920Y-75784760D01*
X138525920Y-74484760D01*
X139725920Y-74484760D01*
X139725920Y-75784760D01*
X139725920Y-75784760D01*
G37*
G36*
X133051512Y-75647323D02*
X131351512Y-75647323D01*
X131351512Y-74547323D01*
X133051512Y-74547323D01*
X133051512Y-75647323D01*
X133051512Y-75647323D01*
G37*
G36*
X135109787Y-75631046D02*
X133409787Y-75631046D01*
X133409787Y-74531046D01*
X135109787Y-74531046D01*
X135109787Y-75631046D01*
X135109787Y-75631046D01*
G37*
G36*
X131036342Y-75629362D02*
X129336342Y-75629362D01*
X129336342Y-74529362D01*
X131036342Y-74529362D01*
X131036342Y-75629362D01*
X131036342Y-75629362D01*
G37*
G36*
X137720440Y-75627280D02*
X136020440Y-75627280D01*
X136020440Y-74527280D01*
X137720440Y-74527280D01*
X137720440Y-75627280D01*
X137720440Y-75627280D01*
G37*
G36*
X144065360Y-74438560D02*
X142365360Y-74438560D01*
X142365360Y-73338560D01*
X144065360Y-73338560D01*
X144065360Y-74438560D01*
X144065360Y-74438560D01*
G37*
M02*
