G04 #@! TF.GenerationSoftware,KiCad,Pcbnew,5.0.1-33cea8e~68~ubuntu18.04.1*
G04 #@! TF.CreationDate,2019-04-25T19:51:38-04:00*
G04 #@! TF.ProjectId,IMU,494D552E6B696361645F706362000000,rev?*
G04 #@! TF.SameCoordinates,Original*
G04 #@! TF.FileFunction,Legend,Bot*
G04 #@! TF.FilePolarity,Positive*
%FSLAX46Y46*%
G04 Gerber Fmt 4.6, Leading zero omitted, Abs format (unit mm)*
G04 Created by KiCad (PCBNEW 5.0.1-33cea8e~68~ubuntu18.04.1) date Thu 25 Apr 2019 07:51:38 PM EDT*
%MOMM*%
%LPD*%
G01*
G04 APERTURE LIST*
%ADD10C,0.300000*%
%ADD11C,0.010000*%
G04 APERTURE END LIST*
D10*
X119517681Y-90470769D02*
X117517681Y-90470769D01*
X118946253Y-91137436D01*
X117517681Y-91804102D01*
X119517681Y-91804102D01*
X117517681Y-93137436D02*
X117517681Y-93518388D01*
X117612920Y-93708864D01*
X117803396Y-93899340D01*
X118184348Y-93994579D01*
X118851015Y-93994579D01*
X119231967Y-93899340D01*
X119422443Y-93708864D01*
X119517681Y-93518388D01*
X119517681Y-93137436D01*
X119422443Y-92946960D01*
X119231967Y-92756483D01*
X118851015Y-92661245D01*
X118184348Y-92661245D01*
X117803396Y-92756483D01*
X117612920Y-92946960D01*
X117517681Y-93137436D01*
X117517681Y-94851721D02*
X119136729Y-94851721D01*
X119327205Y-94946960D01*
X119422443Y-95042198D01*
X119517681Y-95232674D01*
X119517681Y-95613626D01*
X119422443Y-95804102D01*
X119327205Y-95899340D01*
X119136729Y-95994579D01*
X117517681Y-95994579D01*
X119517681Y-96946960D02*
X117517681Y-96946960D01*
X119517681Y-98089817D01*
X117517681Y-98089817D01*
X117517681Y-98756483D02*
X117517681Y-99899340D01*
X119517681Y-99327912D02*
X117517681Y-99327912D01*
X119327205Y-103232674D02*
X119422443Y-103137436D01*
X119517681Y-102851721D01*
X119517681Y-102661245D01*
X119422443Y-102375531D01*
X119231967Y-102185055D01*
X119041491Y-102089817D01*
X118660539Y-101994579D01*
X118374824Y-101994579D01*
X117993872Y-102089817D01*
X117803396Y-102185055D01*
X117612920Y-102375531D01*
X117517681Y-102661245D01*
X117517681Y-102851721D01*
X117612920Y-103137436D01*
X117708158Y-103232674D01*
X118946253Y-103994579D02*
X118946253Y-104946960D01*
X119517681Y-103804102D02*
X117517681Y-104470769D01*
X119517681Y-105137436D01*
X119517681Y-106946960D02*
X118565300Y-106280293D01*
X119517681Y-105804102D02*
X117517681Y-105804102D01*
X117517681Y-106566007D01*
X117612920Y-106756483D01*
X117708158Y-106851721D01*
X117898634Y-106946960D01*
X118184348Y-106946960D01*
X118374824Y-106851721D01*
X118470062Y-106756483D01*
X118565300Y-106566007D01*
X118565300Y-105804102D01*
X118470062Y-107804102D02*
X118470062Y-108470769D01*
X119517681Y-108756483D02*
X119517681Y-107804102D01*
X117517681Y-107804102D01*
X117517681Y-108756483D01*
X118470062Y-110280293D02*
X118470062Y-109613626D01*
X119517681Y-109613626D02*
X117517681Y-109613626D01*
X117517681Y-110566007D01*
X117517681Y-111327912D02*
X119136729Y-111327912D01*
X119327205Y-111423150D01*
X119422443Y-111518388D01*
X119517681Y-111708864D01*
X119517681Y-112089817D01*
X119422443Y-112280293D01*
X119327205Y-112375531D01*
X119136729Y-112470769D01*
X117517681Y-112470769D01*
X119517681Y-114375531D02*
X119517681Y-113423150D01*
X117517681Y-113423150D01*
X119517681Y-115994579D02*
X119517681Y-115042198D01*
X117517681Y-115042198D01*
X118565300Y-117042198D02*
X119517681Y-117042198D01*
X117517681Y-116375531D02*
X118565300Y-117042198D01*
X117517681Y-117708864D01*
X132745137Y-75307691D02*
X133030851Y-75307691D01*
X133173708Y-75379120D01*
X133316565Y-75521977D01*
X133387994Y-75807691D01*
X133387994Y-76307691D01*
X133316565Y-76593405D01*
X133173708Y-76736262D01*
X133030851Y-76807691D01*
X132745137Y-76807691D01*
X132602280Y-76736262D01*
X132459422Y-76593405D01*
X132387994Y-76307691D01*
X132387994Y-75807691D01*
X132459422Y-75521977D01*
X132602280Y-75379120D01*
X132745137Y-75307691D01*
X134030851Y-76021977D02*
X134530851Y-76021977D01*
X134745137Y-76807691D02*
X134030851Y-76807691D01*
X134030851Y-75307691D01*
X134745137Y-75307691D01*
X135387994Y-76807691D02*
X135387994Y-75307691D01*
X135887994Y-76379120D01*
X136387994Y-75307691D01*
X136387994Y-76807691D01*
X133316565Y-79214834D02*
X133245137Y-79286262D01*
X133030851Y-79357691D01*
X132887994Y-79357691D01*
X132673708Y-79286262D01*
X132530851Y-79143405D01*
X132459422Y-79000548D01*
X132387994Y-78714834D01*
X132387994Y-78500548D01*
X132459422Y-78214834D01*
X132530851Y-78071977D01*
X132673708Y-77929120D01*
X132887994Y-77857691D01*
X133030851Y-77857691D01*
X133245137Y-77929120D01*
X133316565Y-78000548D01*
X134245137Y-77857691D02*
X134530851Y-77857691D01*
X134673708Y-77929120D01*
X134816565Y-78071977D01*
X134887994Y-78357691D01*
X134887994Y-78857691D01*
X134816565Y-79143405D01*
X134673708Y-79286262D01*
X134530851Y-79357691D01*
X134245137Y-79357691D01*
X134102280Y-79286262D01*
X133959422Y-79143405D01*
X133887994Y-78857691D01*
X133887994Y-78357691D01*
X133959422Y-78071977D01*
X134102280Y-77929120D01*
X134245137Y-77857691D01*
X135530851Y-79357691D02*
X135530851Y-77857691D01*
X136030851Y-78929120D01*
X136530851Y-77857691D01*
X136530851Y-79357691D01*
X138887994Y-78571977D02*
X139102280Y-78643405D01*
X139173708Y-78714834D01*
X139245137Y-78857691D01*
X139245137Y-79071977D01*
X139173708Y-79214834D01*
X139102280Y-79286262D01*
X138959422Y-79357691D01*
X138387994Y-79357691D01*
X138387994Y-77857691D01*
X138887994Y-77857691D01*
X139030851Y-77929120D01*
X139102280Y-78000548D01*
X139173708Y-78143405D01*
X139173708Y-78286262D01*
X139102280Y-78429120D01*
X139030851Y-78500548D01*
X138887994Y-78571977D01*
X138387994Y-78571977D01*
X140102280Y-79357691D02*
X139959422Y-79286262D01*
X139887994Y-79214834D01*
X139816565Y-79071977D01*
X139816565Y-78643405D01*
X139887994Y-78500548D01*
X139959422Y-78429120D01*
X140102280Y-78357691D01*
X140316565Y-78357691D01*
X140459422Y-78429120D01*
X140530851Y-78500548D01*
X140602280Y-78643405D01*
X140602280Y-79071977D01*
X140530851Y-79214834D01*
X140459422Y-79286262D01*
X140316565Y-79357691D01*
X140102280Y-79357691D01*
X141887994Y-79357691D02*
X141887994Y-78571977D01*
X141816565Y-78429120D01*
X141673708Y-78357691D01*
X141387994Y-78357691D01*
X141245137Y-78429120D01*
X141887994Y-79286262D02*
X141745137Y-79357691D01*
X141387994Y-79357691D01*
X141245137Y-79286262D01*
X141173708Y-79143405D01*
X141173708Y-79000548D01*
X141245137Y-78857691D01*
X141387994Y-78786262D01*
X141745137Y-78786262D01*
X141887994Y-78714834D01*
X142602280Y-79357691D02*
X142602280Y-78357691D01*
X142602280Y-78643405D02*
X142673708Y-78500548D01*
X142745137Y-78429120D01*
X142887994Y-78357691D01*
X143030851Y-78357691D01*
X144173708Y-79357691D02*
X144173708Y-77857691D01*
X144173708Y-79286262D02*
X144030851Y-79357691D01*
X143745137Y-79357691D01*
X143602280Y-79286262D01*
X143530851Y-79214834D01*
X143459422Y-79071977D01*
X143459422Y-78643405D01*
X143530851Y-78500548D01*
X143602280Y-78429120D01*
X143745137Y-78357691D01*
X144030851Y-78357691D01*
X144173708Y-78429120D01*
X132459422Y-81907691D02*
X132459422Y-80407691D01*
X132816565Y-80407691D01*
X133030851Y-80479120D01*
X133173708Y-80621977D01*
X133245137Y-80764834D01*
X133316565Y-81050548D01*
X133316565Y-81264834D01*
X133245137Y-81550548D01*
X133173708Y-81693405D01*
X133030851Y-81836262D01*
X132816565Y-81907691D01*
X132459422Y-81907691D01*
X133959422Y-81907691D02*
X133959422Y-80407691D01*
X134602280Y-81907691D02*
X134602280Y-81121977D01*
X134530851Y-80979120D01*
X134387994Y-80907691D01*
X134173708Y-80907691D01*
X134030851Y-80979120D01*
X133959422Y-81050548D01*
X135959422Y-81907691D02*
X135959422Y-81121977D01*
X135887994Y-80979120D01*
X135745137Y-80907691D01*
X135459422Y-80907691D01*
X135316565Y-80979120D01*
X135959422Y-81836262D02*
X135816565Y-81907691D01*
X135459422Y-81907691D01*
X135316565Y-81836262D01*
X135245137Y-81693405D01*
X135245137Y-81550548D01*
X135316565Y-81407691D01*
X135459422Y-81336262D01*
X135816565Y-81336262D01*
X135959422Y-81264834D01*
X136673708Y-81907691D02*
X136673708Y-80907691D01*
X136673708Y-81193405D02*
X136745137Y-81050548D01*
X136816565Y-80979120D01*
X136959422Y-80907691D01*
X137102280Y-80907691D01*
X138245137Y-81907691D02*
X138245137Y-81121977D01*
X138173708Y-80979120D01*
X138030851Y-80907691D01*
X137745137Y-80907691D01*
X137602280Y-80979120D01*
X138245137Y-81836262D02*
X138102280Y-81907691D01*
X137745137Y-81907691D01*
X137602280Y-81836262D01*
X137530851Y-81693405D01*
X137530851Y-81550548D01*
X137602280Y-81407691D01*
X137745137Y-81336262D01*
X138102280Y-81336262D01*
X138245137Y-81264834D01*
X140102280Y-81907691D02*
X140102280Y-80407691D01*
X140673708Y-80407691D01*
X140816565Y-80479120D01*
X140887994Y-80550548D01*
X140959422Y-80693405D01*
X140959422Y-80907691D01*
X140887994Y-81050548D01*
X140816565Y-81121977D01*
X140673708Y-81193405D01*
X140102280Y-81193405D01*
X142245137Y-81907691D02*
X142245137Y-81121977D01*
X142173708Y-80979120D01*
X142030851Y-80907691D01*
X141745137Y-80907691D01*
X141602280Y-80979120D01*
X142245137Y-81836262D02*
X142102280Y-81907691D01*
X141745137Y-81907691D01*
X141602280Y-81836262D01*
X141530851Y-81693405D01*
X141530851Y-81550548D01*
X141602280Y-81407691D01*
X141745137Y-81336262D01*
X142102280Y-81336262D01*
X142245137Y-81264834D01*
X142745137Y-80907691D02*
X143316565Y-80907691D01*
X142959422Y-80407691D02*
X142959422Y-81693405D01*
X143030851Y-81836262D01*
X143173708Y-81907691D01*
X143316565Y-81907691D01*
X144387994Y-81836262D02*
X144245137Y-81907691D01*
X143959422Y-81907691D01*
X143816565Y-81836262D01*
X143745137Y-81693405D01*
X143745137Y-81121977D01*
X143816565Y-80979120D01*
X143959422Y-80907691D01*
X144245137Y-80907691D01*
X144387994Y-80979120D01*
X144459422Y-81121977D01*
X144459422Y-81264834D01*
X143745137Y-81407691D01*
X145316565Y-81907691D02*
X145173708Y-81836262D01*
X145102280Y-81693405D01*
X145102280Y-80407691D01*
X132459422Y-84457691D02*
X132459422Y-83457691D01*
X132459422Y-83743405D02*
X132530851Y-83600548D01*
X132602280Y-83529120D01*
X132745137Y-83457691D01*
X132887994Y-83457691D01*
X133959422Y-84386262D02*
X133816565Y-84457691D01*
X133530851Y-84457691D01*
X133387994Y-84386262D01*
X133316565Y-84243405D01*
X133316565Y-83671977D01*
X133387994Y-83529120D01*
X133530851Y-83457691D01*
X133816565Y-83457691D01*
X133959422Y-83529120D01*
X134030851Y-83671977D01*
X134030851Y-83814834D01*
X133316565Y-83957691D01*
X134530851Y-83457691D02*
X134887994Y-84457691D01*
X135245137Y-83457691D01*
X135816565Y-84314834D02*
X135887994Y-84386262D01*
X135816565Y-84457691D01*
X135745137Y-84386262D01*
X135816565Y-84314834D01*
X135816565Y-84457691D01*
X137530851Y-82957691D02*
X138459422Y-82957691D01*
X137959422Y-83529120D01*
X138173708Y-83529120D01*
X138316565Y-83600548D01*
X138387994Y-83671977D01*
X138459422Y-83814834D01*
X138459422Y-84171977D01*
X138387994Y-84314834D01*
X138316565Y-84386262D01*
X138173708Y-84457691D01*
X137745137Y-84457691D01*
X137602280Y-84386262D01*
X137530851Y-84314834D01*
D11*
G04 #@! TO.C,G\002A\002A\002A*
G36*
X144940397Y-82941461D02*
X144781103Y-82945892D01*
X144651475Y-82952913D01*
X144637310Y-82954014D01*
X144042143Y-83019185D01*
X143455205Y-83117862D01*
X142873288Y-83250906D01*
X142293186Y-83419179D01*
X141711692Y-83623543D01*
X141125597Y-83864859D01*
X140945528Y-83945902D01*
X140725400Y-84050512D01*
X140486215Y-84170547D01*
X140237028Y-84301072D01*
X139986895Y-84437150D01*
X139744870Y-84573846D01*
X139520010Y-84706225D01*
X139321370Y-84829350D01*
X139302762Y-84841308D01*
X139137292Y-84948054D01*
X139137292Y-85064839D01*
X139137250Y-85113307D01*
X139140906Y-85147966D01*
X139153934Y-85171598D01*
X139182008Y-85186981D01*
X139230803Y-85196897D01*
X139305993Y-85204126D01*
X139413251Y-85211449D01*
X139440138Y-85213243D01*
X139488889Y-85216957D01*
X139572947Y-85223868D01*
X139688698Y-85233661D01*
X139832532Y-85246022D01*
X140000834Y-85260637D01*
X140189995Y-85277190D01*
X140396400Y-85295368D01*
X140616437Y-85314854D01*
X140846495Y-85335336D01*
X141012985Y-85350224D01*
X141414632Y-85385964D01*
X141780769Y-85418011D01*
X142114759Y-85446631D01*
X142419969Y-85472089D01*
X142699763Y-85494651D01*
X142957506Y-85514583D01*
X143196564Y-85532149D01*
X143420300Y-85547615D01*
X143632081Y-85561246D01*
X143835272Y-85573309D01*
X143855831Y-85574472D01*
X143989717Y-85580821D01*
X144150952Y-85586512D01*
X144333858Y-85591495D01*
X144532757Y-85595723D01*
X144741971Y-85599147D01*
X144955823Y-85601720D01*
X145168636Y-85603393D01*
X145374730Y-85604117D01*
X145568429Y-85603845D01*
X145744055Y-85602528D01*
X145895930Y-85600118D01*
X146018376Y-85596567D01*
X146083215Y-85593396D01*
X146828912Y-85527509D01*
X147568882Y-85423060D01*
X148302344Y-85280248D01*
X149028517Y-85099274D01*
X149746622Y-84880339D01*
X150455879Y-84623642D01*
X151155505Y-84329384D01*
X151339061Y-84245196D01*
X151418588Y-84207067D01*
X151466527Y-84180895D01*
X151487305Y-84163471D01*
X151485348Y-84151589D01*
X151475831Y-84146098D01*
X151445084Y-84136179D01*
X151383058Y-84118828D01*
X151296449Y-84095823D01*
X151191951Y-84068944D01*
X151076263Y-84039967D01*
X151075292Y-84039727D01*
X150979353Y-84015770D01*
X150851524Y-83983476D01*
X150697729Y-83944362D01*
X150523891Y-83899943D01*
X150335936Y-83851735D01*
X150139787Y-83801254D01*
X149941369Y-83750015D01*
X149815061Y-83717300D01*
X149377214Y-83604816D01*
X148973645Y-83503450D01*
X148601364Y-83412565D01*
X148257383Y-83331526D01*
X147938711Y-83259695D01*
X147642360Y-83196437D01*
X147365340Y-83141116D01*
X147104662Y-83093096D01*
X146857335Y-83051740D01*
X146620372Y-83016414D01*
X146390782Y-82986480D01*
X146366523Y-82983570D01*
X146244766Y-82971983D01*
X146091592Y-82961943D01*
X145914638Y-82953578D01*
X145721539Y-82947019D01*
X145519930Y-82942398D01*
X145317446Y-82939844D01*
X145121724Y-82939488D01*
X144940397Y-82941461D01*
X144940397Y-82941461D01*
G37*
X144940397Y-82941461D02*
X144781103Y-82945892D01*
X144651475Y-82952913D01*
X144637310Y-82954014D01*
X144042143Y-83019185D01*
X143455205Y-83117862D01*
X142873288Y-83250906D01*
X142293186Y-83419179D01*
X141711692Y-83623543D01*
X141125597Y-83864859D01*
X140945528Y-83945902D01*
X140725400Y-84050512D01*
X140486215Y-84170547D01*
X140237028Y-84301072D01*
X139986895Y-84437150D01*
X139744870Y-84573846D01*
X139520010Y-84706225D01*
X139321370Y-84829350D01*
X139302762Y-84841308D01*
X139137292Y-84948054D01*
X139137292Y-85064839D01*
X139137250Y-85113307D01*
X139140906Y-85147966D01*
X139153934Y-85171598D01*
X139182008Y-85186981D01*
X139230803Y-85196897D01*
X139305993Y-85204126D01*
X139413251Y-85211449D01*
X139440138Y-85213243D01*
X139488889Y-85216957D01*
X139572947Y-85223868D01*
X139688698Y-85233661D01*
X139832532Y-85246022D01*
X140000834Y-85260637D01*
X140189995Y-85277190D01*
X140396400Y-85295368D01*
X140616437Y-85314854D01*
X140846495Y-85335336D01*
X141012985Y-85350224D01*
X141414632Y-85385964D01*
X141780769Y-85418011D01*
X142114759Y-85446631D01*
X142419969Y-85472089D01*
X142699763Y-85494651D01*
X142957506Y-85514583D01*
X143196564Y-85532149D01*
X143420300Y-85547615D01*
X143632081Y-85561246D01*
X143835272Y-85573309D01*
X143855831Y-85574472D01*
X143989717Y-85580821D01*
X144150952Y-85586512D01*
X144333858Y-85591495D01*
X144532757Y-85595723D01*
X144741971Y-85599147D01*
X144955823Y-85601720D01*
X145168636Y-85603393D01*
X145374730Y-85604117D01*
X145568429Y-85603845D01*
X145744055Y-85602528D01*
X145895930Y-85600118D01*
X146018376Y-85596567D01*
X146083215Y-85593396D01*
X146828912Y-85527509D01*
X147568882Y-85423060D01*
X148302344Y-85280248D01*
X149028517Y-85099274D01*
X149746622Y-84880339D01*
X150455879Y-84623642D01*
X151155505Y-84329384D01*
X151339061Y-84245196D01*
X151418588Y-84207067D01*
X151466527Y-84180895D01*
X151487305Y-84163471D01*
X151485348Y-84151589D01*
X151475831Y-84146098D01*
X151445084Y-84136179D01*
X151383058Y-84118828D01*
X151296449Y-84095823D01*
X151191951Y-84068944D01*
X151076263Y-84039967D01*
X151075292Y-84039727D01*
X150979353Y-84015770D01*
X150851524Y-83983476D01*
X150697729Y-83944362D01*
X150523891Y-83899943D01*
X150335936Y-83851735D01*
X150139787Y-83801254D01*
X149941369Y-83750015D01*
X149815061Y-83717300D01*
X149377214Y-83604816D01*
X148973645Y-83503450D01*
X148601364Y-83412565D01*
X148257383Y-83331526D01*
X147938711Y-83259695D01*
X147642360Y-83196437D01*
X147365340Y-83141116D01*
X147104662Y-83093096D01*
X146857335Y-83051740D01*
X146620372Y-83016414D01*
X146390782Y-82986480D01*
X146366523Y-82983570D01*
X146244766Y-82971983D01*
X146091592Y-82961943D01*
X145914638Y-82953578D01*
X145721539Y-82947019D01*
X145519930Y-82942398D01*
X145317446Y-82939844D01*
X145121724Y-82939488D01*
X144940397Y-82941461D01*
G36*
X152674211Y-85711535D02*
X152342571Y-85731839D01*
X152009059Y-85761930D01*
X151681667Y-85800733D01*
X151368388Y-85847174D01*
X151077216Y-85900178D01*
X150816141Y-85958670D01*
X150793558Y-85964381D01*
X150714461Y-85986193D01*
X150620605Y-86014570D01*
X150518347Y-86047293D01*
X150414046Y-86082143D01*
X150314060Y-86116902D01*
X150224748Y-86149350D01*
X150152468Y-86177268D01*
X150103578Y-86198438D01*
X150084436Y-86210641D01*
X150084686Y-86211761D01*
X150105592Y-86213010D01*
X150159535Y-86212104D01*
X150240546Y-86209259D01*
X150342658Y-86204693D01*
X150459903Y-86198623D01*
X150485058Y-86197224D01*
X151015280Y-86186878D01*
X151544702Y-86215272D01*
X152071716Y-86282079D01*
X152594713Y-86386969D01*
X153112086Y-86529614D01*
X153622226Y-86709686D01*
X154123526Y-86926856D01*
X154172138Y-86950132D01*
X154337914Y-87031396D01*
X154492816Y-87110219D01*
X154640286Y-87188878D01*
X154783765Y-87269650D01*
X154926696Y-87354811D01*
X155072518Y-87446637D01*
X155224675Y-87547404D01*
X155386608Y-87659389D01*
X155561758Y-87784868D01*
X155753567Y-87926118D01*
X155965476Y-88085414D01*
X156200927Y-88265032D01*
X156448369Y-88455658D01*
X156773658Y-88705912D01*
X157109381Y-88961868D01*
X157453235Y-89221871D01*
X157802917Y-89484262D01*
X158156126Y-89747385D01*
X158510558Y-90009583D01*
X158863912Y-90269200D01*
X159213884Y-90524579D01*
X159558174Y-90774063D01*
X159894478Y-91015995D01*
X160220493Y-91248719D01*
X160533918Y-91470577D01*
X160832450Y-91679914D01*
X161113787Y-91875071D01*
X161375626Y-92054393D01*
X161615664Y-92216223D01*
X161831601Y-92358903D01*
X162021132Y-92480778D01*
X162171152Y-92573677D01*
X162658350Y-92847565D01*
X163149254Y-93082838D01*
X163643661Y-93279429D01*
X164141368Y-93437269D01*
X164642172Y-93556289D01*
X165145870Y-93636422D01*
X165404707Y-93662366D01*
X165535369Y-93671580D01*
X165659312Y-93677936D01*
X165771235Y-93681409D01*
X165865834Y-93681973D01*
X165937808Y-93679605D01*
X165981852Y-93674277D01*
X165992666Y-93665966D01*
X165991931Y-93665166D01*
X165971088Y-93651748D01*
X165920225Y-93621486D01*
X165843372Y-93576707D01*
X165744561Y-93519737D01*
X165627823Y-93452901D01*
X165497189Y-93378526D01*
X165382005Y-93313249D01*
X165165091Y-93190202D01*
X164977090Y-93082628D01*
X164812619Y-92987268D01*
X164666296Y-92900859D01*
X164532741Y-92820141D01*
X164406570Y-92741854D01*
X164282404Y-92662737D01*
X164154859Y-92579530D01*
X164018554Y-92488971D01*
X163990215Y-92469990D01*
X163367615Y-92031099D01*
X162759585Y-91559667D01*
X162225362Y-91107340D01*
X162098048Y-90992010D01*
X161949853Y-90852843D01*
X161785995Y-90695088D01*
X161611689Y-90523995D01*
X161432150Y-90344812D01*
X161252594Y-90162789D01*
X161078237Y-89983177D01*
X160914295Y-89811223D01*
X160765982Y-89652178D01*
X160638516Y-89511292D01*
X160629756Y-89501394D01*
X160477730Y-89332866D01*
X160309173Y-89152262D01*
X160129861Y-88965367D01*
X159945569Y-88777965D01*
X159762070Y-88595842D01*
X159585140Y-88424783D01*
X159420554Y-88270572D01*
X159274086Y-88138995D01*
X159242369Y-88111512D01*
X158948301Y-87867617D01*
X158639031Y-87627442D01*
X158323185Y-87397180D01*
X158009388Y-87183029D01*
X157706266Y-86991184D01*
X157571831Y-86911577D01*
X157047731Y-86630822D01*
X156510276Y-86386389D01*
X155960887Y-86178627D01*
X155400985Y-86007884D01*
X154831991Y-85874508D01*
X154255327Y-85778847D01*
X153672413Y-85721250D01*
X153084672Y-85702064D01*
X152674211Y-85711535D01*
X152674211Y-85711535D01*
G37*
X152674211Y-85711535D02*
X152342571Y-85731839D01*
X152009059Y-85761930D01*
X151681667Y-85800733D01*
X151368388Y-85847174D01*
X151077216Y-85900178D01*
X150816141Y-85958670D01*
X150793558Y-85964381D01*
X150714461Y-85986193D01*
X150620605Y-86014570D01*
X150518347Y-86047293D01*
X150414046Y-86082143D01*
X150314060Y-86116902D01*
X150224748Y-86149350D01*
X150152468Y-86177268D01*
X150103578Y-86198438D01*
X150084436Y-86210641D01*
X150084686Y-86211761D01*
X150105592Y-86213010D01*
X150159535Y-86212104D01*
X150240546Y-86209259D01*
X150342658Y-86204693D01*
X150459903Y-86198623D01*
X150485058Y-86197224D01*
X151015280Y-86186878D01*
X151544702Y-86215272D01*
X152071716Y-86282079D01*
X152594713Y-86386969D01*
X153112086Y-86529614D01*
X153622226Y-86709686D01*
X154123526Y-86926856D01*
X154172138Y-86950132D01*
X154337914Y-87031396D01*
X154492816Y-87110219D01*
X154640286Y-87188878D01*
X154783765Y-87269650D01*
X154926696Y-87354811D01*
X155072518Y-87446637D01*
X155224675Y-87547404D01*
X155386608Y-87659389D01*
X155561758Y-87784868D01*
X155753567Y-87926118D01*
X155965476Y-88085414D01*
X156200927Y-88265032D01*
X156448369Y-88455658D01*
X156773658Y-88705912D01*
X157109381Y-88961868D01*
X157453235Y-89221871D01*
X157802917Y-89484262D01*
X158156126Y-89747385D01*
X158510558Y-90009583D01*
X158863912Y-90269200D01*
X159213884Y-90524579D01*
X159558174Y-90774063D01*
X159894478Y-91015995D01*
X160220493Y-91248719D01*
X160533918Y-91470577D01*
X160832450Y-91679914D01*
X161113787Y-91875071D01*
X161375626Y-92054393D01*
X161615664Y-92216223D01*
X161831601Y-92358903D01*
X162021132Y-92480778D01*
X162171152Y-92573677D01*
X162658350Y-92847565D01*
X163149254Y-93082838D01*
X163643661Y-93279429D01*
X164141368Y-93437269D01*
X164642172Y-93556289D01*
X165145870Y-93636422D01*
X165404707Y-93662366D01*
X165535369Y-93671580D01*
X165659312Y-93677936D01*
X165771235Y-93681409D01*
X165865834Y-93681973D01*
X165937808Y-93679605D01*
X165981852Y-93674277D01*
X165992666Y-93665966D01*
X165991931Y-93665166D01*
X165971088Y-93651748D01*
X165920225Y-93621486D01*
X165843372Y-93576707D01*
X165744561Y-93519737D01*
X165627823Y-93452901D01*
X165497189Y-93378526D01*
X165382005Y-93313249D01*
X165165091Y-93190202D01*
X164977090Y-93082628D01*
X164812619Y-92987268D01*
X164666296Y-92900859D01*
X164532741Y-92820141D01*
X164406570Y-92741854D01*
X164282404Y-92662737D01*
X164154859Y-92579530D01*
X164018554Y-92488971D01*
X163990215Y-92469990D01*
X163367615Y-92031099D01*
X162759585Y-91559667D01*
X162225362Y-91107340D01*
X162098048Y-90992010D01*
X161949853Y-90852843D01*
X161785995Y-90695088D01*
X161611689Y-90523995D01*
X161432150Y-90344812D01*
X161252594Y-90162789D01*
X161078237Y-89983177D01*
X160914295Y-89811223D01*
X160765982Y-89652178D01*
X160638516Y-89511292D01*
X160629756Y-89501394D01*
X160477730Y-89332866D01*
X160309173Y-89152262D01*
X160129861Y-88965367D01*
X159945569Y-88777965D01*
X159762070Y-88595842D01*
X159585140Y-88424783D01*
X159420554Y-88270572D01*
X159274086Y-88138995D01*
X159242369Y-88111512D01*
X158948301Y-87867617D01*
X158639031Y-87627442D01*
X158323185Y-87397180D01*
X158009388Y-87183029D01*
X157706266Y-86991184D01*
X157571831Y-86911577D01*
X157047731Y-86630822D01*
X156510276Y-86386389D01*
X155960887Y-86178627D01*
X155400985Y-86007884D01*
X154831991Y-85874508D01*
X154255327Y-85778847D01*
X153672413Y-85721250D01*
X153084672Y-85702064D01*
X152674211Y-85711535D01*
G36*
X120675531Y-104630497D02*
X120666704Y-104646092D01*
X120661382Y-104678685D01*
X120656839Y-104745831D01*
X120653069Y-104843015D01*
X120650066Y-104965721D01*
X120647824Y-105109434D01*
X120646336Y-105269638D01*
X120645596Y-105441818D01*
X120645598Y-105621458D01*
X120646336Y-105804041D01*
X120647803Y-105985054D01*
X120649993Y-106159980D01*
X120652900Y-106324303D01*
X120656518Y-106473508D01*
X120660840Y-106603080D01*
X120665860Y-106708502D01*
X120669631Y-106763625D01*
X120696420Y-107071704D01*
X120726139Y-107372138D01*
X120759383Y-107668088D01*
X120796745Y-107962713D01*
X120838820Y-108259173D01*
X120886202Y-108560629D01*
X120939484Y-108870241D01*
X120999261Y-109191169D01*
X121066126Y-109526573D01*
X121140673Y-109879613D01*
X121223497Y-110253449D01*
X121315191Y-110651242D01*
X121416349Y-111076151D01*
X121527565Y-111531336D01*
X121649433Y-112019958D01*
X121681321Y-112146471D01*
X121747173Y-112407222D01*
X121804133Y-112632537D01*
X121852894Y-112824863D01*
X121894151Y-112986648D01*
X121928595Y-113120338D01*
X121956922Y-113228381D01*
X121979823Y-113313224D01*
X121997993Y-113377314D01*
X122012124Y-113423098D01*
X122022911Y-113453024D01*
X122031046Y-113469538D01*
X122037224Y-113475088D01*
X122042137Y-113472121D01*
X122046478Y-113463083D01*
X122050859Y-113450663D01*
X122057397Y-113429125D01*
X122074248Y-113372713D01*
X122100643Y-113284025D01*
X122135812Y-113165660D01*
X122178986Y-113020214D01*
X122229395Y-112850287D01*
X122286271Y-112658477D01*
X122348843Y-112447382D01*
X122416341Y-112219601D01*
X122487998Y-111977730D01*
X122563042Y-111724370D01*
X122640706Y-111462117D01*
X122720218Y-111193570D01*
X122800810Y-110921327D01*
X122881713Y-110647987D01*
X122962156Y-110376147D01*
X123041371Y-110108406D01*
X123118587Y-109847362D01*
X123193036Y-109595614D01*
X123263949Y-109355758D01*
X123330554Y-109130395D01*
X123392084Y-108922121D01*
X123429439Y-108795625D01*
X123493133Y-108578160D01*
X123545634Y-108394092D01*
X123587611Y-108239585D01*
X123619734Y-108110803D01*
X123642673Y-108003910D01*
X123657097Y-107915070D01*
X123663677Y-107840447D01*
X123663082Y-107776205D01*
X123655981Y-107718508D01*
X123643044Y-107663521D01*
X123632844Y-107630489D01*
X123586038Y-107538031D01*
X123503697Y-107434453D01*
X123387285Y-107321210D01*
X123238266Y-107199756D01*
X123096215Y-107097422D01*
X122980361Y-107016567D01*
X122871287Y-106937326D01*
X122765898Y-106856882D01*
X122661096Y-106772420D01*
X122553787Y-106681125D01*
X122440872Y-106580181D01*
X122319258Y-106466773D01*
X122185846Y-106338085D01*
X122037541Y-106191302D01*
X121871247Y-106023608D01*
X121683868Y-105832188D01*
X121525271Y-105668922D01*
X121385770Y-105524854D01*
X121270468Y-105405263D01*
X121176342Y-105306590D01*
X121100366Y-105225279D01*
X121039518Y-105157771D01*
X120990771Y-105100510D01*
X120951103Y-105049939D01*
X120917489Y-105002499D01*
X120886904Y-104954634D01*
X120856324Y-104902786D01*
X120822725Y-104843398D01*
X120821339Y-104840927D01*
X120767885Y-104746525D01*
X120729825Y-104682373D01*
X120703912Y-104644380D01*
X120686897Y-104628452D01*
X120675531Y-104630497D01*
X120675531Y-104630497D01*
G37*
X120675531Y-104630497D02*
X120666704Y-104646092D01*
X120661382Y-104678685D01*
X120656839Y-104745831D01*
X120653069Y-104843015D01*
X120650066Y-104965721D01*
X120647824Y-105109434D01*
X120646336Y-105269638D01*
X120645596Y-105441818D01*
X120645598Y-105621458D01*
X120646336Y-105804041D01*
X120647803Y-105985054D01*
X120649993Y-106159980D01*
X120652900Y-106324303D01*
X120656518Y-106473508D01*
X120660840Y-106603080D01*
X120665860Y-106708502D01*
X120669631Y-106763625D01*
X120696420Y-107071704D01*
X120726139Y-107372138D01*
X120759383Y-107668088D01*
X120796745Y-107962713D01*
X120838820Y-108259173D01*
X120886202Y-108560629D01*
X120939484Y-108870241D01*
X120999261Y-109191169D01*
X121066126Y-109526573D01*
X121140673Y-109879613D01*
X121223497Y-110253449D01*
X121315191Y-110651242D01*
X121416349Y-111076151D01*
X121527565Y-111531336D01*
X121649433Y-112019958D01*
X121681321Y-112146471D01*
X121747173Y-112407222D01*
X121804133Y-112632537D01*
X121852894Y-112824863D01*
X121894151Y-112986648D01*
X121928595Y-113120338D01*
X121956922Y-113228381D01*
X121979823Y-113313224D01*
X121997993Y-113377314D01*
X122012124Y-113423098D01*
X122022911Y-113453024D01*
X122031046Y-113469538D01*
X122037224Y-113475088D01*
X122042137Y-113472121D01*
X122046478Y-113463083D01*
X122050859Y-113450663D01*
X122057397Y-113429125D01*
X122074248Y-113372713D01*
X122100643Y-113284025D01*
X122135812Y-113165660D01*
X122178986Y-113020214D01*
X122229395Y-112850287D01*
X122286271Y-112658477D01*
X122348843Y-112447382D01*
X122416341Y-112219601D01*
X122487998Y-111977730D01*
X122563042Y-111724370D01*
X122640706Y-111462117D01*
X122720218Y-111193570D01*
X122800810Y-110921327D01*
X122881713Y-110647987D01*
X122962156Y-110376147D01*
X123041371Y-110108406D01*
X123118587Y-109847362D01*
X123193036Y-109595614D01*
X123263949Y-109355758D01*
X123330554Y-109130395D01*
X123392084Y-108922121D01*
X123429439Y-108795625D01*
X123493133Y-108578160D01*
X123545634Y-108394092D01*
X123587611Y-108239585D01*
X123619734Y-108110803D01*
X123642673Y-108003910D01*
X123657097Y-107915070D01*
X123663677Y-107840447D01*
X123663082Y-107776205D01*
X123655981Y-107718508D01*
X123643044Y-107663521D01*
X123632844Y-107630489D01*
X123586038Y-107538031D01*
X123503697Y-107434453D01*
X123387285Y-107321210D01*
X123238266Y-107199756D01*
X123096215Y-107097422D01*
X122980361Y-107016567D01*
X122871287Y-106937326D01*
X122765898Y-106856882D01*
X122661096Y-106772420D01*
X122553787Y-106681125D01*
X122440872Y-106580181D01*
X122319258Y-106466773D01*
X122185846Y-106338085D01*
X122037541Y-106191302D01*
X121871247Y-106023608D01*
X121683868Y-105832188D01*
X121525271Y-105668922D01*
X121385770Y-105524854D01*
X121270468Y-105405263D01*
X121176342Y-105306590D01*
X121100366Y-105225279D01*
X121039518Y-105157771D01*
X120990771Y-105100510D01*
X120951103Y-105049939D01*
X120917489Y-105002499D01*
X120886904Y-104954634D01*
X120856324Y-104902786D01*
X120822725Y-104843398D01*
X120821339Y-104840927D01*
X120767885Y-104746525D01*
X120729825Y-104682373D01*
X120703912Y-104644380D01*
X120686897Y-104628452D01*
X120675531Y-104630497D01*
G36*
X122299248Y-80732854D02*
X122092090Y-80736271D01*
X121909601Y-80741968D01*
X121811314Y-80746723D01*
X121192974Y-80792755D01*
X120561855Y-80860311D01*
X119930579Y-80947668D01*
X119311767Y-81053103D01*
X118789676Y-81159006D01*
X118466300Y-81238115D01*
X118177641Y-81326563D01*
X117920091Y-81426064D01*
X117690042Y-81538331D01*
X117483885Y-81665080D01*
X117298013Y-81808023D01*
X117166635Y-81930012D01*
X116994715Y-82124119D01*
X116847385Y-82337382D01*
X116723879Y-82572003D01*
X116623432Y-82830184D01*
X116545279Y-83114130D01*
X116488652Y-83426042D01*
X116452788Y-83768123D01*
X116439811Y-84020855D01*
X116427883Y-84392086D01*
X116591934Y-84235268D01*
X116748267Y-84094508D01*
X116897613Y-83979728D01*
X117051714Y-83882613D01*
X117196690Y-83807029D01*
X117369883Y-83731892D01*
X117535144Y-83679250D01*
X117706617Y-83645655D01*
X117898443Y-83627661D01*
X117941051Y-83625607D01*
X118140763Y-83624591D01*
X118337626Y-83639398D01*
X118536450Y-83671372D01*
X118742048Y-83721855D01*
X118959231Y-83792193D01*
X119192810Y-83883728D01*
X119447599Y-83997803D01*
X119679590Y-84111052D01*
X120158150Y-84369738D01*
X120603220Y-84647370D01*
X121016016Y-84944941D01*
X121397756Y-85263444D01*
X121749658Y-85603872D01*
X122072939Y-85967219D01*
X122280408Y-86232426D01*
X122538616Y-86612082D01*
X122770545Y-87018572D01*
X122974622Y-87448450D01*
X123149273Y-87898273D01*
X123292922Y-88364597D01*
X123340643Y-88552029D01*
X123405857Y-88845124D01*
X123458775Y-89131904D01*
X123500049Y-89419304D01*
X123530334Y-89714260D01*
X123550284Y-90023708D01*
X123560553Y-90354583D01*
X123561796Y-90713821D01*
X123559767Y-90875791D01*
X123540274Y-91426194D01*
X123499715Y-91964996D01*
X123436975Y-92500258D01*
X123350942Y-93040041D01*
X123240503Y-93592407D01*
X123106357Y-94158277D01*
X123084754Y-94242886D01*
X123063709Y-94324068D01*
X123042588Y-94403805D01*
X123020756Y-94484079D01*
X122997578Y-94566870D01*
X122972419Y-94654161D01*
X122944644Y-94747933D01*
X122913618Y-94850168D01*
X122878706Y-94962847D01*
X122839273Y-95087953D01*
X122794684Y-95227465D01*
X122744305Y-95383367D01*
X122687500Y-95557640D01*
X122623634Y-95752265D01*
X122552073Y-95969224D01*
X122472181Y-96210499D01*
X122383323Y-96478071D01*
X122284865Y-96773921D01*
X122176171Y-97100032D01*
X122056607Y-97458385D01*
X121925538Y-97850961D01*
X121865767Y-98029932D01*
X121732903Y-98427751D01*
X121611839Y-98790295D01*
X121501995Y-99119354D01*
X121402791Y-99416718D01*
X121313648Y-99684176D01*
X121233984Y-99923517D01*
X121163222Y-100136531D01*
X121100779Y-100325007D01*
X121046078Y-100490735D01*
X120998537Y-100635505D01*
X120957578Y-100761106D01*
X120922619Y-100869328D01*
X120893081Y-100961960D01*
X120868385Y-101040791D01*
X120847950Y-101107611D01*
X120831197Y-101164210D01*
X120817545Y-101212376D01*
X120806415Y-101253901D01*
X120797227Y-101290572D01*
X120789401Y-101324181D01*
X120782357Y-101356515D01*
X120775515Y-101389365D01*
X120772678Y-101403179D01*
X120726266Y-101688194D01*
X120700524Y-101983356D01*
X120695611Y-102278054D01*
X120711689Y-102561675D01*
X120748920Y-102823607D01*
X120750958Y-102834021D01*
X120840258Y-103184883D01*
X120967505Y-103528881D01*
X121131931Y-103864462D01*
X121332769Y-104190073D01*
X121569251Y-104504163D01*
X121587782Y-104526471D01*
X121776445Y-104737675D01*
X121998992Y-104961163D01*
X122252950Y-105194902D01*
X122535842Y-105436861D01*
X122845196Y-105685007D01*
X123178534Y-105937308D01*
X123533383Y-106191731D01*
X123907268Y-106446245D01*
X124000998Y-106508060D01*
X124161010Y-106618363D01*
X124287794Y-106719195D01*
X124384669Y-106814911D01*
X124454957Y-106909864D01*
X124501978Y-107008411D01*
X124529053Y-107114905D01*
X124538796Y-107213347D01*
X124540029Y-107274572D01*
X124537304Y-107334815D01*
X124529468Y-107401467D01*
X124515370Y-107481920D01*
X124493856Y-107583566D01*
X124463775Y-107713797D01*
X124455027Y-107750655D01*
X124431272Y-107851410D01*
X124400353Y-107984152D01*
X124363679Y-108142747D01*
X124322660Y-108321056D01*
X124278706Y-108512944D01*
X124233226Y-108712274D01*
X124187630Y-108912910D01*
X124161093Y-109030086D01*
X124079622Y-109389424D01*
X124005564Y-109714007D01*
X123938087Y-110007277D01*
X123876356Y-110272676D01*
X123819538Y-110513645D01*
X123766799Y-110733626D01*
X123717306Y-110936060D01*
X123670225Y-111124390D01*
X123624723Y-111302058D01*
X123579965Y-111472504D01*
X123535118Y-111639171D01*
X123489349Y-111805501D01*
X123485463Y-111819467D01*
X123377514Y-112232441D01*
X123291041Y-112621646D01*
X123224964Y-112995220D01*
X123178207Y-113361304D01*
X123149689Y-113728039D01*
X123138334Y-114103564D01*
X123140974Y-114419711D01*
X123149634Y-114678634D01*
X123163247Y-114912181D01*
X123183066Y-115133878D01*
X123210340Y-115357248D01*
X123246323Y-115595819D01*
X123254226Y-115643855D01*
X123336951Y-116068052D01*
X123446890Y-116514136D01*
X123582283Y-116977774D01*
X123741373Y-117454634D01*
X123922398Y-117940381D01*
X124123601Y-118430681D01*
X124343222Y-118921202D01*
X124579502Y-119407609D01*
X124830682Y-119885569D01*
X125095002Y-120350749D01*
X125304519Y-120694548D01*
X125369779Y-120796873D01*
X125446939Y-120915404D01*
X125532861Y-121045538D01*
X125624405Y-121182671D01*
X125718433Y-121322201D01*
X125811806Y-121459523D01*
X125901385Y-121590034D01*
X125984032Y-121709132D01*
X126056607Y-121812213D01*
X126115972Y-121894674D01*
X126158987Y-121951912D01*
X126176048Y-121972689D01*
X126187953Y-121976927D01*
X126192854Y-121953102D01*
X126190715Y-121898310D01*
X126181499Y-121809645D01*
X126173146Y-121743455D01*
X126127073Y-121318172D01*
X126096235Y-120864383D01*
X126080673Y-120389586D01*
X126080428Y-119901276D01*
X126095544Y-119406952D01*
X126126061Y-118914110D01*
X126155555Y-118584394D01*
X126183964Y-118319613D01*
X126215663Y-118056459D01*
X126251193Y-117792400D01*
X126291092Y-117524907D01*
X126335899Y-117251450D01*
X126386154Y-116969497D01*
X126442395Y-116676519D01*
X126505161Y-116369985D01*
X126574992Y-116047364D01*
X126652426Y-115706127D01*
X126738002Y-115343743D01*
X126832260Y-114957682D01*
X126935738Y-114545413D01*
X127048975Y-114104407D01*
X127172511Y-113632131D01*
X127306884Y-113126057D01*
X127362542Y-112918240D01*
X127439715Y-112630715D01*
X127507361Y-112378747D01*
X127566091Y-112160155D01*
X127616518Y-111972757D01*
X127659253Y-111814371D01*
X127694910Y-111682817D01*
X127724100Y-111575913D01*
X127747436Y-111491477D01*
X127765530Y-111427328D01*
X127778994Y-111381285D01*
X127788441Y-111351166D01*
X127794482Y-111334790D01*
X127797730Y-111329975D01*
X127798798Y-111334541D01*
X127798296Y-111346304D01*
X127796839Y-111363085D01*
X127795756Y-111374701D01*
X127789978Y-111442254D01*
X127782941Y-111531272D01*
X127776023Y-111624234D01*
X127775007Y-111638471D01*
X127766757Y-111745385D01*
X127754642Y-111888489D01*
X127738931Y-112065112D01*
X127719892Y-112272587D01*
X127697794Y-112508244D01*
X127672905Y-112769414D01*
X127645495Y-113053428D01*
X127615830Y-113357618D01*
X127584181Y-113679315D01*
X127550816Y-114015850D01*
X127516002Y-114364553D01*
X127480010Y-114722757D01*
X127443107Y-115087791D01*
X127405561Y-115456988D01*
X127367642Y-115827678D01*
X127329618Y-116197193D01*
X127291758Y-116562864D01*
X127254329Y-116922021D01*
X127217602Y-117271996D01*
X127181843Y-117610121D01*
X127147322Y-117933725D01*
X127114308Y-118240140D01*
X127083069Y-118526698D01*
X127069184Y-118652778D01*
X126957981Y-119659009D01*
X126956671Y-120284240D01*
X126956800Y-120484160D01*
X126958261Y-120651350D01*
X126961290Y-120792142D01*
X126966123Y-120912867D01*
X126972998Y-121019857D01*
X126982150Y-121119443D01*
X126990613Y-121192778D01*
X127071137Y-121717685D01*
X127180710Y-122226782D01*
X127320661Y-122723525D01*
X127492318Y-123211366D01*
X127697010Y-123693758D01*
X127936067Y-124174155D01*
X128210816Y-124656009D01*
X128494177Y-125100471D01*
X128822258Y-125579343D01*
X129162946Y-126052895D01*
X129522727Y-126529915D01*
X129908086Y-127019189D01*
X129936374Y-127054357D01*
X130052473Y-127197704D01*
X130146096Y-127311439D01*
X130218519Y-127396980D01*
X130271020Y-127455745D01*
X130304875Y-127489150D01*
X130321361Y-127498614D01*
X130321755Y-127485553D01*
X130319944Y-127480167D01*
X130310193Y-127451329D01*
X130290679Y-127392027D01*
X130263601Y-127308996D01*
X130231156Y-127208973D01*
X130201455Y-127117036D01*
X130039148Y-126558739D01*
X129909715Y-125991069D01*
X129812188Y-125408994D01*
X129745596Y-124807485D01*
X129737838Y-124710300D01*
X129729242Y-124557307D01*
X129723775Y-124372931D01*
X129721292Y-124164725D01*
X129721651Y-123940246D01*
X129724707Y-123707050D01*
X129730315Y-123472690D01*
X129738332Y-123244724D01*
X129748612Y-123030705D01*
X129761013Y-122838190D01*
X129775390Y-122674734D01*
X129776959Y-122660026D01*
X129872445Y-121931416D01*
X130002494Y-121184787D01*
X130167117Y-120420077D01*
X130265059Y-120020471D01*
X130311476Y-119838885D01*
X130349194Y-119692675D01*
X130378989Y-119579307D01*
X130401639Y-119496246D01*
X130417919Y-119440957D01*
X130428607Y-119410906D01*
X130434480Y-119403558D01*
X130436313Y-119416378D01*
X130434884Y-119446833D01*
X130432706Y-119473394D01*
X130402128Y-119851423D01*
X130376393Y-120238040D01*
X130355658Y-120627376D01*
X130340082Y-121013565D01*
X130329822Y-121390738D01*
X130325037Y-121753029D01*
X130325884Y-122094570D01*
X130332522Y-122409494D01*
X130345108Y-122691933D01*
X130345762Y-122702880D01*
X130395891Y-123309352D01*
X130471741Y-123887986D01*
X130574080Y-124441015D01*
X130703673Y-124970673D01*
X130861289Y-125479192D01*
X131047693Y-125968807D01*
X131263653Y-126441750D01*
X131509936Y-126900254D01*
X131787308Y-127346554D01*
X132084955Y-127767471D01*
X132219924Y-127940689D01*
X132380539Y-128135333D01*
X132562880Y-128347275D01*
X132763028Y-128572390D01*
X132977062Y-128806552D01*
X133201063Y-129045634D01*
X133431111Y-129285509D01*
X133663287Y-129522053D01*
X133893670Y-129751139D01*
X134118340Y-129968639D01*
X134333378Y-130170430D01*
X134534865Y-130352383D01*
X134569321Y-130382649D01*
X135080122Y-130811399D01*
X135588859Y-131202220D01*
X136097417Y-131556056D01*
X136607681Y-131873854D01*
X137121536Y-132156561D01*
X137640869Y-132405123D01*
X138167565Y-132620486D01*
X138703510Y-132803597D01*
X139250588Y-132955402D01*
X139810685Y-133076846D01*
X140007027Y-133111830D01*
X140167681Y-133138015D01*
X140291677Y-133156152D01*
X140380565Y-133166384D01*
X140435894Y-133168857D01*
X140459214Y-133163714D01*
X140455161Y-133153581D01*
X140432620Y-133138225D01*
X140382883Y-133106758D01*
X140312294Y-133063121D01*
X140227199Y-133011253D01*
X140182600Y-132984312D01*
X139662177Y-132657722D01*
X139148467Y-132309637D01*
X138650545Y-131946569D01*
X138177486Y-131575031D01*
X137925908Y-131364921D01*
X137832716Y-131282290D01*
X137719437Y-131177079D01*
X137591137Y-131054394D01*
X137452883Y-130919338D01*
X137309739Y-130777015D01*
X137166772Y-130632531D01*
X137029048Y-130490988D01*
X136901633Y-130357491D01*
X136789593Y-130237144D01*
X136697993Y-130135052D01*
X136653370Y-130082778D01*
X136270501Y-129594615D01*
X135925425Y-129098369D01*
X135617374Y-128592277D01*
X135345578Y-128074578D01*
X135109270Y-127543510D01*
X134907680Y-126997310D01*
X134740039Y-126434218D01*
X134605580Y-125852471D01*
X134503532Y-125250307D01*
X134485217Y-125113842D01*
X134472136Y-125007565D01*
X134461688Y-124914635D01*
X134454585Y-124842084D01*
X134451540Y-124796945D01*
X134451978Y-124785875D01*
X134461856Y-124792982D01*
X134482258Y-124829007D01*
X134509133Y-124886610D01*
X134514685Y-124899503D01*
X134539936Y-124956222D01*
X134579070Y-125040817D01*
X134628697Y-125146113D01*
X134685424Y-125264935D01*
X134745861Y-125390109D01*
X134771312Y-125442394D01*
X135088527Y-126050339D01*
X135433166Y-126630467D01*
X135805098Y-127182664D01*
X136204190Y-127706818D01*
X136630310Y-128202817D01*
X137083324Y-128670549D01*
X137563101Y-129109901D01*
X138069508Y-129520760D01*
X138602412Y-129903015D01*
X139161682Y-130256552D01*
X139747184Y-130581260D01*
X140358786Y-130877025D01*
X140996355Y-131143737D01*
X141659760Y-131381281D01*
X141839039Y-131439064D01*
X142585980Y-131656016D01*
X143334212Y-131836217D01*
X144088888Y-131980673D01*
X144855163Y-132090390D01*
X145516600Y-132156854D01*
X145638738Y-132164570D01*
X145793045Y-132170773D01*
X145972645Y-132175463D01*
X146170659Y-132178642D01*
X146380210Y-132180308D01*
X146594419Y-132180463D01*
X146806410Y-132179106D01*
X147009304Y-132176239D01*
X147196224Y-132171861D01*
X147360291Y-132165972D01*
X147494629Y-132158574D01*
X147519292Y-132156760D01*
X147681844Y-132142935D01*
X147856640Y-132125974D01*
X148039111Y-132106498D01*
X148224691Y-132085126D01*
X148408810Y-132062480D01*
X148586902Y-132039179D01*
X148754399Y-132015844D01*
X148906732Y-131993094D01*
X149039334Y-131971550D01*
X149147638Y-131951833D01*
X149227075Y-131934561D01*
X149273077Y-131920356D01*
X149277754Y-131918002D01*
X149292550Y-131903767D01*
X149283731Y-131900449D01*
X149248289Y-131896579D01*
X149180059Y-131886503D01*
X149084662Y-131871209D01*
X148967718Y-131851687D01*
X148834847Y-131828924D01*
X148691671Y-131803909D01*
X148543810Y-131777632D01*
X148396885Y-131751080D01*
X148256516Y-131725243D01*
X148128325Y-131701109D01*
X148017931Y-131679667D01*
X147948217Y-131665534D01*
X147210273Y-131496991D01*
X146498063Y-131304300D01*
X145812128Y-131087851D01*
X145153010Y-130848030D01*
X144521249Y-130585227D01*
X143917386Y-130299832D01*
X143341963Y-129992232D01*
X142795521Y-129662815D01*
X142278600Y-129311972D01*
X141791743Y-128940090D01*
X141335490Y-128547558D01*
X140910383Y-128134765D01*
X140516961Y-127702100D01*
X140155768Y-127249951D01*
X139827343Y-126778706D01*
X139532228Y-126288755D01*
X139270963Y-125780486D01*
X139052752Y-125276317D01*
X138865208Y-124751905D01*
X138712004Y-124215059D01*
X138592618Y-123663366D01*
X138506528Y-123094413D01*
X138453574Y-122511625D01*
X138446489Y-122386267D01*
X138440829Y-122262413D01*
X138436726Y-122146110D01*
X138434314Y-122043410D01*
X138433727Y-121960359D01*
X138435099Y-121903007D01*
X138438564Y-121877403D01*
X138439525Y-121876625D01*
X138458990Y-121882504D01*
X138509076Y-121898735D01*
X138583364Y-121923209D01*
X138675439Y-121953817D01*
X138736083Y-121974092D01*
X138835756Y-122006916D01*
X138921627Y-122034118D01*
X138987256Y-122053743D01*
X139026200Y-122063837D01*
X139034071Y-122064513D01*
X139030725Y-122044509D01*
X139016756Y-121994270D01*
X138994185Y-121920535D01*
X138965032Y-121830044D01*
X138951801Y-121790126D01*
X138842308Y-121428976D01*
X138745285Y-121040960D01*
X138663035Y-120636939D01*
X138597858Y-120227777D01*
X138566531Y-119971625D01*
X138557649Y-119861532D01*
X138550648Y-119718693D01*
X138545497Y-119549393D01*
X138542162Y-119359913D01*
X138540614Y-119156540D01*
X138540819Y-118945556D01*
X138542747Y-118733245D01*
X138546364Y-118525891D01*
X138551641Y-118329779D01*
X138558544Y-118151192D01*
X138567042Y-117996414D01*
X138577103Y-117871728D01*
X138577153Y-117871240D01*
X138596650Y-117684715D01*
X138617218Y-117502175D01*
X138639432Y-117319971D01*
X138663864Y-117134458D01*
X138691090Y-116941988D01*
X138721682Y-116738914D01*
X138756213Y-116521589D01*
X138795259Y-116286366D01*
X138839393Y-116029598D01*
X138889188Y-115747638D01*
X138945217Y-115436839D01*
X139008056Y-115093554D01*
X139048967Y-114872086D01*
X139106363Y-114563639D01*
X139162162Y-114266814D01*
X139217108Y-113977938D01*
X139271947Y-113693336D01*
X139327424Y-113409335D01*
X139384284Y-113122262D01*
X139443271Y-112828442D01*
X139505130Y-112524201D01*
X139570607Y-112205867D01*
X139640445Y-111869764D01*
X139715391Y-111512220D01*
X139796188Y-111129561D01*
X139883582Y-110718112D01*
X139978318Y-110274200D01*
X140033415Y-110016778D01*
X140111253Y-109653332D01*
X140181307Y-109325956D01*
X140244016Y-109032516D01*
X140299817Y-108770881D01*
X140349148Y-108538917D01*
X140392448Y-108334491D01*
X140430154Y-108155472D01*
X140462704Y-107999726D01*
X140490535Y-107865121D01*
X140514087Y-107749523D01*
X140533796Y-107650801D01*
X140543841Y-107599061D01*
X139285802Y-107599061D01*
X139285509Y-107965430D01*
X139275891Y-108346420D01*
X139256999Y-108737378D01*
X139228881Y-109133650D01*
X139191588Y-109530583D01*
X139155752Y-109840932D01*
X139078042Y-110385237D01*
X138979003Y-110952037D01*
X138860381Y-111532292D01*
X138723923Y-112116961D01*
X138689479Y-112253932D01*
X138652389Y-112398857D01*
X138617692Y-112532846D01*
X138584458Y-112658845D01*
X138551760Y-112779803D01*
X138518670Y-112898665D01*
X138484260Y-113018380D01*
X138447602Y-113141894D01*
X138407768Y-113272154D01*
X138363830Y-113412107D01*
X138314860Y-113564700D01*
X138259930Y-113732881D01*
X138198112Y-113919595D01*
X138128478Y-114127791D01*
X138050100Y-114360415D01*
X137962050Y-114620415D01*
X137863399Y-114910737D01*
X137753221Y-115234328D01*
X137723527Y-115321471D01*
X137612166Y-115657077D01*
X137516901Y-115964167D01*
X137436127Y-116249062D01*
X137368239Y-116518084D01*
X137311629Y-116777553D01*
X137264693Y-117033791D01*
X137229574Y-117265548D01*
X137219670Y-117358609D01*
X137211144Y-117479592D01*
X137204109Y-117621306D01*
X137198677Y-117776560D01*
X137194962Y-117938161D01*
X137193075Y-118098919D01*
X137193129Y-118251641D01*
X137195237Y-118389138D01*
X137199511Y-118504216D01*
X137206064Y-118589685D01*
X137208542Y-118608817D01*
X137215449Y-118665798D01*
X137216882Y-118703043D01*
X137214396Y-118711394D01*
X137200136Y-118696552D01*
X137166693Y-118655481D01*
X137118129Y-118593357D01*
X137058511Y-118515360D01*
X137011195Y-118452509D01*
X136774157Y-118114982D01*
X136568498Y-117776157D01*
X136391518Y-117429886D01*
X136240517Y-117070020D01*
X136112794Y-116690408D01*
X136005649Y-116284903D01*
X135953665Y-116044394D01*
X135915980Y-115839821D01*
X135880372Y-115615087D01*
X135848783Y-115384440D01*
X135823154Y-115162129D01*
X135805428Y-114962403D01*
X135804574Y-114950240D01*
X135797893Y-114865802D01*
X135790732Y-114795841D01*
X135784134Y-114749653D01*
X135780688Y-114736865D01*
X135773737Y-114751401D01*
X135757936Y-114800113D01*
X135734314Y-114879368D01*
X135703899Y-114985532D01*
X135667719Y-115114974D01*
X135626801Y-115264061D01*
X135582175Y-115429161D01*
X135540127Y-115586788D01*
X135489431Y-115777959D01*
X135438798Y-115968824D01*
X135389744Y-116153672D01*
X135343787Y-116326793D01*
X135302442Y-116482474D01*
X135267226Y-116615004D01*
X135239655Y-116718672D01*
X135228115Y-116762005D01*
X135146222Y-117069309D01*
X135065796Y-117006897D01*
X135027107Y-116973778D01*
X134966681Y-116918260D01*
X134890225Y-116845763D01*
X134803446Y-116761705D01*
X134712050Y-116671506D01*
X134701033Y-116660516D01*
X134428387Y-116368560D01*
X134192305Y-116072849D01*
X133990272Y-115769462D01*
X133819774Y-115454474D01*
X133678298Y-115123962D01*
X133630212Y-114989317D01*
X133556186Y-114748506D01*
X133498937Y-114509975D01*
X133457450Y-114266020D01*
X133430714Y-114008936D01*
X133417713Y-113731019D01*
X133417436Y-113424564D01*
X133418360Y-113378712D01*
X133429248Y-113092459D01*
X133449476Y-112819135D01*
X133480339Y-112549604D01*
X133523130Y-112274730D01*
X133579143Y-111985376D01*
X133649671Y-111672405D01*
X133674432Y-111570187D01*
X133697943Y-111472743D01*
X133717113Y-111389872D01*
X133730423Y-111328425D01*
X133736351Y-111295256D01*
X133736306Y-111291433D01*
X133719748Y-111301265D01*
X133674012Y-111331459D01*
X133601985Y-111380039D01*
X133506553Y-111445031D01*
X133390601Y-111524459D01*
X133257015Y-111616347D01*
X133108681Y-111718720D01*
X132948486Y-111829603D01*
X132830185Y-111911678D01*
X132663157Y-112027543D01*
X132505802Y-112136449D01*
X132361031Y-112236399D01*
X132231753Y-112325396D01*
X132120878Y-112401445D01*
X132031315Y-112462547D01*
X131965973Y-112506706D01*
X131927762Y-112531925D01*
X131918721Y-112537240D01*
X131911858Y-112518835D01*
X131908404Y-112467818D01*
X131908164Y-112390488D01*
X131910942Y-112293143D01*
X131916542Y-112182083D01*
X131924768Y-112063606D01*
X131935424Y-111944010D01*
X131937946Y-111919400D01*
X132001553Y-111461375D01*
X132093433Y-111030101D01*
X132213731Y-110625208D01*
X132362591Y-110246322D01*
X132540154Y-109893072D01*
X132746565Y-109565087D01*
X132946691Y-109303625D01*
X133206295Y-109020781D01*
X133495905Y-108756229D01*
X133808448Y-108515921D01*
X134121053Y-108314990D01*
X134225902Y-108253753D01*
X134336051Y-108189376D01*
X134438609Y-108129395D01*
X134520684Y-108081349D01*
X134522658Y-108080192D01*
X134799150Y-107898799D01*
X135042097Y-107698548D01*
X135251101Y-107480095D01*
X135425768Y-107244096D01*
X135565701Y-106991208D01*
X135670503Y-106722086D01*
X135739779Y-106437387D01*
X135773132Y-106137766D01*
X135776330Y-106003950D01*
X135775979Y-105931624D01*
X135774849Y-105866261D01*
X135772485Y-105802375D01*
X135768429Y-105734484D01*
X135762226Y-105657102D01*
X135753419Y-105564744D01*
X135741552Y-105451925D01*
X135726170Y-105313162D01*
X135706814Y-105142970D01*
X135699130Y-105075942D01*
X135692570Y-105016307D01*
X133051061Y-105016307D01*
X132867298Y-105004919D01*
X132627517Y-104980700D01*
X132366363Y-104937643D01*
X132095188Y-104878264D01*
X131825347Y-104805078D01*
X131568193Y-104720600D01*
X131543866Y-104711721D01*
X131413494Y-104659690D01*
X131260158Y-104592077D01*
X131094084Y-104513926D01*
X130925496Y-104430280D01*
X130764623Y-104346183D01*
X130621688Y-104266679D01*
X130530600Y-104211960D01*
X130165946Y-103966985D01*
X129815823Y-103699064D01*
X129522568Y-103448107D01*
X129459479Y-103392513D01*
X129407256Y-103348324D01*
X129372581Y-103321090D01*
X129362370Y-103315086D01*
X129344378Y-103329207D01*
X129313069Y-103364746D01*
X129298784Y-103382905D01*
X129247056Y-103450723D01*
X129861122Y-104315866D01*
X129977271Y-104479592D01*
X130086826Y-104634190D01*
X130187658Y-104776644D01*
X130277638Y-104903937D01*
X130354635Y-105013052D01*
X130416520Y-105100974D01*
X130461164Y-105164684D01*
X130486436Y-105201168D01*
X130491259Y-105208451D01*
X130498160Y-105222239D01*
X130494448Y-105225783D01*
X130475181Y-105216450D01*
X130435416Y-105191606D01*
X130370211Y-105148616D01*
X130335215Y-105125294D01*
X130016903Y-104895952D01*
X129698159Y-104633579D01*
X129384667Y-104343741D01*
X129082112Y-104032002D01*
X128796180Y-103703927D01*
X128532554Y-103365081D01*
X128521360Y-103349743D01*
X128272229Y-102984593D01*
X128047773Y-102606188D01*
X127873150Y-102269778D01*
X127777027Y-102068775D01*
X127697837Y-101892199D01*
X127632152Y-101731130D01*
X127576539Y-101576646D01*
X127527567Y-101419825D01*
X127482140Y-101253051D01*
X127436651Y-101062160D01*
X127405149Y-100893514D01*
X127386081Y-100733502D01*
X127377896Y-100568514D01*
X127379041Y-100384941D01*
X127379872Y-100356511D01*
X127384719Y-100232456D01*
X127391222Y-100137273D01*
X127400768Y-100060755D01*
X127414745Y-99992698D01*
X127434541Y-99922897D01*
X127442007Y-99899523D01*
X127467289Y-99827731D01*
X127490034Y-99773662D01*
X127506667Y-99745401D01*
X127511108Y-99743215D01*
X127529532Y-99755120D01*
X127577566Y-99787632D01*
X127652922Y-99839166D01*
X127753312Y-99908132D01*
X127876447Y-99992944D01*
X128020039Y-100092014D01*
X128181799Y-100203755D01*
X128359440Y-100326578D01*
X128550673Y-100458896D01*
X128753210Y-100599122D01*
X128964762Y-100745667D01*
X129183042Y-100896945D01*
X129405760Y-101051368D01*
X129630629Y-101207348D01*
X129855360Y-101363297D01*
X130077665Y-101517628D01*
X130295256Y-101668753D01*
X130505844Y-101815086D01*
X130707142Y-101955037D01*
X130896860Y-102087020D01*
X131072710Y-102209447D01*
X131232405Y-102320730D01*
X131373655Y-102419282D01*
X131494173Y-102503514D01*
X131591671Y-102571841D01*
X131663859Y-102622673D01*
X131708450Y-102654424D01*
X131723167Y-102665499D01*
X131704594Y-102659863D01*
X131652333Y-102641951D01*
X131569418Y-102612847D01*
X131458882Y-102573635D01*
X131323759Y-102525399D01*
X131167083Y-102469224D01*
X130991888Y-102406192D01*
X130801207Y-102337390D01*
X130598074Y-102263901D01*
X130502671Y-102229322D01*
X130294762Y-102154105D01*
X130097797Y-102083201D01*
X129914825Y-102017684D01*
X129748897Y-101958630D01*
X129603059Y-101907113D01*
X129480361Y-101864209D01*
X129383851Y-101830992D01*
X129316579Y-101808536D01*
X129281593Y-101797917D01*
X129277193Y-101797288D01*
X129285868Y-101814867D01*
X129316203Y-101858240D01*
X129364844Y-101923177D01*
X129428437Y-102005450D01*
X129503630Y-102100829D01*
X129587067Y-102205088D01*
X129675396Y-102313995D01*
X129765263Y-102423324D01*
X129853314Y-102528844D01*
X129916024Y-102602803D01*
X130008287Y-102707432D01*
X130121851Y-102830997D01*
X130250591Y-102967259D01*
X130388379Y-103109976D01*
X130529090Y-103252908D01*
X130666596Y-103389815D01*
X130794770Y-103514455D01*
X130907486Y-103620588D01*
X130975153Y-103681622D01*
X131409523Y-104038876D01*
X131860276Y-104361960D01*
X132325919Y-104649896D01*
X132804962Y-104901705D01*
X132914292Y-104953216D01*
X133051061Y-105016307D01*
X135692570Y-105016307D01*
X135686588Y-104961943D01*
X135676610Y-104861835D01*
X135669734Y-104781868D01*
X135666498Y-104728292D01*
X135667390Y-104707398D01*
X135686778Y-104713864D01*
X135727304Y-104743862D01*
X135783510Y-104792297D01*
X135849938Y-104854071D01*
X135921129Y-104924087D01*
X135991624Y-104997250D01*
X136055967Y-105068463D01*
X136063791Y-105077540D01*
X136286396Y-105366275D01*
X136475622Y-105674203D01*
X136633263Y-106004298D01*
X136656020Y-106060240D01*
X136700782Y-106183889D01*
X136747541Y-106331847D01*
X136792532Y-106490519D01*
X136831991Y-106646309D01*
X136862155Y-106785621D01*
X136871685Y-106839259D01*
X136884511Y-106910726D01*
X136896118Y-106951585D01*
X136907955Y-106960344D01*
X136921470Y-106935510D01*
X136938109Y-106875593D01*
X136959322Y-106779101D01*
X136967185Y-106740882D01*
X137014566Y-106440222D01*
X137038944Y-106123933D01*
X137039315Y-105808685D01*
X137031592Y-105674342D01*
X137015387Y-105495741D01*
X136994104Y-105320969D01*
X136966751Y-105146578D01*
X136932335Y-104969120D01*
X136889863Y-104785150D01*
X136838343Y-104591219D01*
X136776781Y-104383882D01*
X136704187Y-104159692D01*
X136619566Y-103915200D01*
X136521926Y-103646962D01*
X136410274Y-103351529D01*
X136283618Y-103025454D01*
X136228360Y-102885240D01*
X136186341Y-102777820D01*
X136150331Y-102683513D01*
X136122449Y-102608055D01*
X136104815Y-102557187D01*
X136099548Y-102536646D01*
X136099612Y-102536548D01*
X136116826Y-102545519D01*
X136159725Y-102576564D01*
X136224264Y-102626393D01*
X136306401Y-102691717D01*
X136402091Y-102769248D01*
X136507290Y-102855696D01*
X136617954Y-102947774D01*
X136730041Y-103042191D01*
X136839505Y-103135660D01*
X136891419Y-103180516D01*
X137087054Y-103353194D01*
X137287168Y-103535224D01*
X137487663Y-103722550D01*
X137684438Y-103911120D01*
X137873393Y-104096879D01*
X138050431Y-104275774D01*
X138211450Y-104443751D01*
X138352352Y-104596756D01*
X138469037Y-104730735D01*
X138511972Y-104783015D01*
X138700518Y-105048127D01*
X138863887Y-105341165D01*
X139000797Y-105659134D01*
X139109965Y-105999040D01*
X139190111Y-106357890D01*
X139192740Y-106372855D01*
X139230240Y-106634210D01*
X139258217Y-106928798D01*
X139276721Y-107251966D01*
X139285802Y-107599061D01*
X140543841Y-107599061D01*
X140550101Y-107566821D01*
X140563440Y-107495451D01*
X140574250Y-107434557D01*
X140582970Y-107382008D01*
X140590036Y-107335671D01*
X140595888Y-107293413D01*
X140600964Y-107253101D01*
X140601086Y-107252086D01*
X140608452Y-107183229D01*
X140617219Y-107089409D01*
X140626703Y-106979400D01*
X140636218Y-106861975D01*
X140645079Y-106745909D01*
X140652602Y-106639977D01*
X140658103Y-106552951D01*
X140660896Y-106493605D01*
X140661099Y-106483142D01*
X140674124Y-106483949D01*
X140711373Y-106510853D01*
X140770398Y-106561395D01*
X140848749Y-106633117D01*
X140943975Y-106723560D01*
X141053627Y-106830264D01*
X141175255Y-106950771D01*
X141306409Y-107082622D01*
X141444640Y-107223359D01*
X141587497Y-107370522D01*
X141732530Y-107521652D01*
X141877290Y-107674291D01*
X142019327Y-107825979D01*
X142156190Y-107974259D01*
X142255076Y-108082976D01*
X142930510Y-108859684D01*
X143580440Y-109665580D01*
X144204283Y-110499754D01*
X144801454Y-111361294D01*
X145371368Y-112249288D01*
X145913442Y-113162825D01*
X146427090Y-114100993D01*
X146911729Y-115062881D01*
X147366775Y-116047577D01*
X147380461Y-116078591D01*
X147443353Y-116221994D01*
X147511893Y-116379428D01*
X147580616Y-116538266D01*
X147644058Y-116685881D01*
X147693946Y-116803005D01*
X147767877Y-116974635D01*
X147841103Y-117137642D01*
X147915630Y-117295517D01*
X147993463Y-117451752D01*
X148076607Y-117609838D01*
X148167068Y-117773267D01*
X148266851Y-117945528D01*
X148377962Y-118130114D01*
X148502405Y-118330516D01*
X148642186Y-118550224D01*
X148799311Y-118792731D01*
X148975784Y-119061527D01*
X149093154Y-119238932D01*
X149238095Y-119456013D01*
X149364186Y-119641585D01*
X149472798Y-119797576D01*
X149565305Y-119925914D01*
X149643081Y-120028527D01*
X149707498Y-120107343D01*
X149729640Y-120132426D01*
X149780509Y-120186860D01*
X149846923Y-120255501D01*
X149924557Y-120334128D01*
X150009086Y-120418519D01*
X150096183Y-120504453D01*
X150181523Y-120587710D01*
X150260782Y-120664068D01*
X150329632Y-120729305D01*
X150383750Y-120779202D01*
X150418809Y-120809536D01*
X150430523Y-120816404D01*
X150426560Y-120796351D01*
X150415106Y-120741164D01*
X150396812Y-120653930D01*
X150372332Y-120537733D01*
X150342318Y-120395660D01*
X150307422Y-120230795D01*
X150268296Y-120046225D01*
X150225593Y-119845034D01*
X150179965Y-119630309D01*
X150146170Y-119471417D01*
X150091980Y-119215950D01*
X150035120Y-118946455D01*
X149976956Y-118669499D01*
X149918856Y-118391649D01*
X149862187Y-118119472D01*
X149808317Y-117859534D01*
X149758613Y-117618403D01*
X149714443Y-117402645D01*
X149678713Y-117226471D01*
X149617433Y-116924490D01*
X149561948Y-116656201D01*
X149511072Y-116416846D01*
X149463619Y-116201667D01*
X149418401Y-116005909D01*
X149374230Y-115824814D01*
X149329920Y-115653626D01*
X149284285Y-115487586D01*
X149236135Y-115321939D01*
X149184286Y-115151928D01*
X149127549Y-114972794D01*
X149078994Y-114823240D01*
X148954574Y-114455742D01*
X148822171Y-114089763D01*
X148680449Y-113722499D01*
X148528070Y-113351146D01*
X148363698Y-112972900D01*
X148185996Y-112584956D01*
X147993628Y-112184510D01*
X147785257Y-111768757D01*
X147559546Y-111334895D01*
X147315159Y-110880118D01*
X147050759Y-110401623D01*
X146765009Y-109896604D01*
X146564761Y-109548595D01*
X146486325Y-109412708D01*
X146414757Y-109287959D01*
X146352268Y-109178267D01*
X146301074Y-109087549D01*
X146263388Y-109019725D01*
X146241423Y-108978710D01*
X146236625Y-108967855D01*
X146256719Y-108969323D01*
X146300812Y-108979159D01*
X146318776Y-108983913D01*
X146372844Y-109008113D01*
X146440853Y-109056146D01*
X146526962Y-109131092D01*
X146562001Y-109164115D01*
X147109624Y-109670356D01*
X147688686Y-110171717D01*
X148291568Y-110662177D01*
X148910650Y-111135711D01*
X149538312Y-111586297D01*
X150127677Y-111982469D01*
X150581738Y-112269570D01*
X151037408Y-112541410D01*
X151504735Y-112803683D01*
X151993767Y-113062082D01*
X152347347Y-113240224D01*
X153064193Y-113579296D01*
X153782350Y-113887247D01*
X154507088Y-114165861D01*
X155243676Y-114416925D01*
X155997383Y-114642222D01*
X156773478Y-114843540D01*
X157577232Y-115022662D01*
X157655056Y-115038557D01*
X157828597Y-115073859D01*
X157980538Y-115105301D01*
X158115647Y-115134235D01*
X158238689Y-115162013D01*
X158354432Y-115189986D01*
X158467643Y-115219506D01*
X158583088Y-115251926D01*
X158705533Y-115288596D01*
X158839746Y-115330868D01*
X158990494Y-115380095D01*
X159162542Y-115437627D01*
X159360658Y-115504817D01*
X159589608Y-115583017D01*
X159660194Y-115607174D01*
X159815202Y-115659893D01*
X159958362Y-115707926D01*
X160085528Y-115749931D01*
X160192556Y-115784569D01*
X160275299Y-115810498D01*
X160329612Y-115826377D01*
X160351351Y-115830866D01*
X160351505Y-115830770D01*
X160340924Y-115814898D01*
X160306245Y-115774929D01*
X160250947Y-115714451D01*
X160178511Y-115637053D01*
X160092417Y-115546322D01*
X159996145Y-115445846D01*
X159893175Y-115339213D01*
X159786988Y-115230010D01*
X159681065Y-115121826D01*
X159578884Y-115018248D01*
X159483927Y-114922864D01*
X159399673Y-114839262D01*
X159329604Y-114771029D01*
X159277198Y-114721754D01*
X159265934Y-114711639D01*
X159155150Y-114617412D01*
X159029708Y-114517839D01*
X158887591Y-114411590D01*
X158726777Y-114297333D01*
X158545249Y-114173738D01*
X158340987Y-114039473D01*
X158111972Y-113893207D01*
X157856185Y-113733609D01*
X157571606Y-113559347D01*
X157256217Y-113369090D01*
X156975908Y-113201825D01*
X156804487Y-113099920D01*
X156618883Y-112989509D01*
X156427796Y-112875775D01*
X156239932Y-112763899D01*
X156063993Y-112659065D01*
X155908683Y-112566454D01*
X155842677Y-112527064D01*
X155737707Y-112464898D01*
X155603202Y-112386039D01*
X155443623Y-112293064D01*
X155263430Y-112188550D01*
X155067085Y-112075072D01*
X154859048Y-111955209D01*
X154643778Y-111831537D01*
X154425738Y-111706633D01*
X154209387Y-111583074D01*
X154152600Y-111550711D01*
X153845775Y-111375767D01*
X153570059Y-111218187D01*
X153322472Y-111076225D01*
X153100035Y-110948138D01*
X152899771Y-110832182D01*
X152718700Y-110726611D01*
X152553844Y-110629681D01*
X152402223Y-110539649D01*
X152260860Y-110454770D01*
X152126775Y-110373299D01*
X151996991Y-110293492D01*
X151868527Y-110213605D01*
X151856831Y-110206291D01*
X151342504Y-109874077D01*
X150830550Y-109523004D01*
X150324295Y-109155934D01*
X149827069Y-108775727D01*
X149342199Y-108385245D01*
X148873012Y-107987350D01*
X148422838Y-107584903D01*
X147995003Y-107180767D01*
X147592835Y-106777801D01*
X147219664Y-106378869D01*
X146878815Y-105986831D01*
X146712368Y-105782773D01*
X146350539Y-105306785D01*
X146022902Y-104829723D01*
X145725015Y-104344664D01*
X145452432Y-103844683D01*
X145392125Y-103725394D01*
X145325849Y-103590617D01*
X145264699Y-103461940D01*
X145206394Y-103333886D01*
X145197299Y-103312949D01*
X143237281Y-103312949D01*
X143236213Y-103598394D01*
X143230600Y-104673009D01*
X143152446Y-104684890D01*
X143079584Y-104695114D01*
X143036242Y-104697019D01*
X143013405Y-104688789D01*
X143002062Y-104668606D01*
X142997952Y-104653742D01*
X142987450Y-104609341D01*
X142969840Y-104531779D01*
X142945769Y-104424048D01*
X142915886Y-104289139D01*
X142880839Y-104130045D01*
X142841276Y-103949755D01*
X142797844Y-103751262D01*
X142751192Y-103537556D01*
X142701966Y-103311630D01*
X142650817Y-103076475D01*
X142598390Y-102835082D01*
X142545334Y-102590442D01*
X142492298Y-102345547D01*
X142439928Y-102103389D01*
X142388873Y-101866958D01*
X142355601Y-101712624D01*
X139641958Y-101712624D01*
X139635612Y-101719231D01*
X139615990Y-101717362D01*
X139578442Y-101705594D01*
X139518321Y-101682508D01*
X139430979Y-101646681D01*
X139329188Y-101604025D01*
X139006089Y-101451563D01*
X138717317Y-101280466D01*
X138462830Y-101090692D01*
X138242586Y-100882200D01*
X138056541Y-100654949D01*
X137904653Y-100408897D01*
X137786881Y-100144003D01*
X137763402Y-100076761D01*
X137736736Y-99986540D01*
X137706168Y-99866845D01*
X137673811Y-99726813D01*
X137641780Y-99575583D01*
X137613040Y-99426932D01*
X137595850Y-99331749D01*
X137574221Y-99209526D01*
X137548739Y-99063735D01*
X137519990Y-98897851D01*
X137488560Y-98715347D01*
X137455033Y-98519697D01*
X137419996Y-98314373D01*
X137384035Y-98102851D01*
X137347736Y-97888603D01*
X137311683Y-97675102D01*
X137276463Y-97465823D01*
X137242661Y-97264239D01*
X137211564Y-97078013D01*
X133221602Y-97078013D01*
X133048409Y-97118633D01*
X132935203Y-97142926D01*
X132802927Y-97167794D01*
X132665087Y-97190993D01*
X132535187Y-97210279D01*
X132426730Y-97223408D01*
X132406292Y-97225317D01*
X132314506Y-97230633D01*
X132194163Y-97233867D01*
X132055723Y-97235099D01*
X131909646Y-97234405D01*
X131766392Y-97231864D01*
X131636421Y-97227554D01*
X131530194Y-97221552D01*
X131494939Y-97218522D01*
X131041451Y-97154447D01*
X130585241Y-97052609D01*
X130128304Y-96914039D01*
X129672635Y-96739766D01*
X129220229Y-96530819D01*
X128773083Y-96288228D01*
X128333191Y-96013021D01*
X127902548Y-95706229D01*
X127483151Y-95368881D01*
X127076993Y-95002005D01*
X126940565Y-94869030D01*
X126521184Y-94426461D01*
X126132959Y-93963594D01*
X125777346Y-93482411D01*
X125455799Y-92984896D01*
X125169774Y-92473034D01*
X125138862Y-92412625D01*
X124909179Y-91926102D01*
X124715958Y-91443512D01*
X124557618Y-90959859D01*
X124432579Y-90470144D01*
X124339259Y-89969371D01*
X124316913Y-89814009D01*
X124309328Y-89744615D01*
X124301757Y-89652241D01*
X124294422Y-89542602D01*
X124287543Y-89421411D01*
X124281342Y-89294381D01*
X124276040Y-89167225D01*
X124271857Y-89045656D01*
X124269015Y-88935388D01*
X124267734Y-88842135D01*
X124268236Y-88771609D01*
X124270742Y-88729523D01*
X124274604Y-88720373D01*
X124284508Y-88740712D01*
X124306404Y-88792447D01*
X124338240Y-88870505D01*
X124377966Y-88969816D01*
X124423531Y-89085308D01*
X124460314Y-89179526D01*
X124549138Y-89407029D01*
X124627162Y-89604063D01*
X124697168Y-89776802D01*
X124761939Y-89931419D01*
X124824258Y-90074087D01*
X124886908Y-90210977D01*
X124952670Y-90348263D01*
X125024327Y-90492118D01*
X125104662Y-90648714D01*
X125196458Y-90824223D01*
X125232653Y-90892861D01*
X125298844Y-91017812D01*
X125358896Y-91130456D01*
X125410469Y-91226464D01*
X125451224Y-91301503D01*
X125478820Y-91351244D01*
X125490918Y-91371355D01*
X125491248Y-91371554D01*
X125486782Y-91352505D01*
X125472595Y-91299659D01*
X125449742Y-91216783D01*
X125419276Y-91107640D01*
X125382253Y-90975997D01*
X125339728Y-90825619D01*
X125292753Y-90660271D01*
X125252356Y-90518608D01*
X125157707Y-90185772D01*
X125073608Y-89886668D01*
X124999126Y-89617676D01*
X124933333Y-89375174D01*
X124875298Y-89155542D01*
X124824090Y-88955159D01*
X124778779Y-88770404D01*
X124738434Y-88597657D01*
X124702125Y-88433297D01*
X124668923Y-88273703D01*
X124647054Y-88163009D01*
X124625785Y-88046392D01*
X124610829Y-87944592D01*
X124601097Y-87845296D01*
X124595498Y-87736193D01*
X124592942Y-87604972D01*
X124592546Y-87547548D01*
X124593362Y-87393967D01*
X124598301Y-87270539D01*
X124608712Y-87168440D01*
X124625943Y-87078845D01*
X124651342Y-86992929D01*
X124686259Y-86901867D01*
X124694056Y-86883312D01*
X124728584Y-86802013D01*
X124970541Y-87326203D01*
X125139732Y-87691734D01*
X125294839Y-88024607D01*
X125437401Y-88327983D01*
X125568957Y-88605023D01*
X125691045Y-88858886D01*
X125805203Y-89092735D01*
X125912971Y-89309729D01*
X126015887Y-89513029D01*
X126115490Y-89705796D01*
X126213318Y-89891190D01*
X126276767Y-90009394D01*
X126581414Y-90553676D01*
X126887693Y-91061397D01*
X127197321Y-91535072D01*
X127512016Y-91977217D01*
X127833496Y-92390348D01*
X128163478Y-92776980D01*
X128176436Y-92791437D01*
X128259670Y-92882835D01*
X128346145Y-92975529D01*
X128432007Y-93065636D01*
X128513401Y-93149277D01*
X128586470Y-93222569D01*
X128647362Y-93281634D01*
X128692221Y-93322588D01*
X128717191Y-93341552D01*
X128720670Y-93339348D01*
X128710431Y-93318495D01*
X128683686Y-93266387D01*
X128642163Y-93186329D01*
X128587588Y-93081627D01*
X128521690Y-92955589D01*
X128446194Y-92811520D01*
X128362829Y-92652726D01*
X128273321Y-92482515D01*
X128239715Y-92418677D01*
X128148671Y-92245600D01*
X128063374Y-92083099D01*
X127985519Y-91934426D01*
X127916801Y-91802834D01*
X127858913Y-91691575D01*
X127813549Y-91603901D01*
X127782404Y-91543063D01*
X127767171Y-91512313D01*
X127765908Y-91509204D01*
X127781095Y-91491680D01*
X127818231Y-91464588D01*
X127864675Y-91435677D01*
X127907789Y-91412696D01*
X127934933Y-91403393D01*
X127937554Y-91403980D01*
X127951246Y-91420271D01*
X127987382Y-91465340D01*
X128044365Y-91537159D01*
X128120602Y-91633696D01*
X128214498Y-91752923D01*
X128324458Y-91892809D01*
X128448887Y-92051323D01*
X128586191Y-92226437D01*
X128734775Y-92416119D01*
X128893044Y-92618340D01*
X129059404Y-92831070D01*
X129211754Y-93026029D01*
X129414068Y-93284937D01*
X129593782Y-93514710D01*
X129752292Y-93717057D01*
X129890993Y-93893684D01*
X130011280Y-94046299D01*
X130114547Y-94176610D01*
X130202191Y-94286326D01*
X130275607Y-94377153D01*
X130336189Y-94450799D01*
X130385333Y-94508972D01*
X130424434Y-94553380D01*
X130454887Y-94585730D01*
X130478088Y-94607730D01*
X130495432Y-94621088D01*
X130508313Y-94627511D01*
X130518127Y-94628707D01*
X130520791Y-94628278D01*
X130559202Y-94618357D01*
X130574383Y-94612508D01*
X130569007Y-94593714D01*
X130551939Y-94540871D01*
X130524162Y-94456892D01*
X130486657Y-94344693D01*
X130440408Y-94207188D01*
X130386397Y-94047292D01*
X130325606Y-93867920D01*
X130259017Y-93671986D01*
X130187614Y-93462404D01*
X130119516Y-93262972D01*
X130044546Y-93043209D01*
X129973525Y-92834184D01*
X129907438Y-92638845D01*
X129847267Y-92460137D01*
X129793995Y-92301006D01*
X129748607Y-92164399D01*
X129712084Y-92053261D01*
X129685410Y-91970538D01*
X129669569Y-91919177D01*
X129665385Y-91902204D01*
X129682024Y-91907619D01*
X129724659Y-91934314D01*
X129788913Y-91978983D01*
X129870406Y-92038322D01*
X129964760Y-92109026D01*
X130067597Y-92187791D01*
X130174538Y-92271312D01*
X130281206Y-92356284D01*
X130383220Y-92439403D01*
X130441702Y-92488127D01*
X130662639Y-92681546D01*
X130891032Y-92895274D01*
X131119054Y-93121299D01*
X131338879Y-93351612D01*
X131542677Y-93578200D01*
X131722624Y-93793053D01*
X131748730Y-93825870D01*
X132033013Y-94212803D01*
X132296480Y-94625170D01*
X132535254Y-95055701D01*
X132745454Y-95497127D01*
X132923200Y-95942179D01*
X133001881Y-96173778D01*
X133038189Y-96292615D01*
X133075887Y-96424517D01*
X133112796Y-96560984D01*
X133146735Y-96693518D01*
X133175522Y-96813619D01*
X133196977Y-96912788D01*
X133208437Y-96978772D01*
X133221602Y-97078013D01*
X137211564Y-97078013D01*
X137210864Y-97073823D01*
X137181656Y-96898050D01*
X137155623Y-96740392D01*
X137133352Y-96604323D01*
X137115428Y-96493317D01*
X137102437Y-96410847D01*
X137094963Y-96360387D01*
X137093409Y-96345226D01*
X137105226Y-96359369D01*
X137135785Y-96402419D01*
X137182537Y-96470513D01*
X137242934Y-96559790D01*
X137314426Y-96666388D01*
X137394466Y-96786446D01*
X137480504Y-96916102D01*
X137569992Y-97051494D01*
X137660382Y-97188761D01*
X137749124Y-97324040D01*
X137833671Y-97453472D01*
X137911473Y-97573193D01*
X137979982Y-97679342D01*
X138036650Y-97768058D01*
X138078927Y-97835478D01*
X138100401Y-97871016D01*
X138214784Y-98076114D01*
X138329724Y-98300603D01*
X138446760Y-98547907D01*
X138567431Y-98821451D01*
X138693277Y-99124661D01*
X138825836Y-99460962D01*
X138887449Y-99622317D01*
X138915636Y-99697594D01*
X138953476Y-99799857D01*
X138999437Y-99924877D01*
X139051989Y-100068428D01*
X139109601Y-100226284D01*
X139170740Y-100394216D01*
X139233876Y-100567997D01*
X139297478Y-100743402D01*
X139360015Y-100916202D01*
X139419955Y-101082170D01*
X139475767Y-101237080D01*
X139525920Y-101376704D01*
X139568883Y-101496815D01*
X139603125Y-101593186D01*
X139627114Y-101661591D01*
X139639319Y-101697801D01*
X139639675Y-101698962D01*
X139641958Y-101712624D01*
X142355601Y-101712624D01*
X142339781Y-101639246D01*
X142293300Y-101423244D01*
X142250077Y-101221945D01*
X142210760Y-101038338D01*
X142175998Y-100875417D01*
X142146439Y-100736171D01*
X142122729Y-100623593D01*
X142105518Y-100540673D01*
X142095452Y-100490404D01*
X142092998Y-100475585D01*
X142108306Y-100480949D01*
X142145927Y-100510882D01*
X142201725Y-100561186D01*
X142271565Y-100627665D01*
X142351311Y-100706121D01*
X142436827Y-100792358D01*
X142523976Y-100882178D01*
X142608625Y-100971384D01*
X142686636Y-101055780D01*
X142753875Y-101131168D01*
X142806205Y-101193350D01*
X142827746Y-101221235D01*
X142925414Y-101367484D01*
X143016305Y-101528178D01*
X143093917Y-101690565D01*
X143151751Y-101841895D01*
X143163077Y-101879009D01*
X143179366Y-101943982D01*
X143193348Y-102018486D01*
X143205150Y-102105482D01*
X143214897Y-102207932D01*
X143222715Y-102328795D01*
X143228730Y-102471034D01*
X143233069Y-102637607D01*
X143235856Y-102831477D01*
X143237218Y-103055604D01*
X143237281Y-103312949D01*
X145197299Y-103312949D01*
X145148653Y-103200978D01*
X145089196Y-103057738D01*
X145025741Y-102898688D01*
X144956008Y-102718350D01*
X144877717Y-102511249D01*
X144802282Y-102308855D01*
X144749699Y-102167180D01*
X144701128Y-102036461D01*
X144658332Y-101921435D01*
X144623076Y-101826839D01*
X144597124Y-101757411D01*
X144582242Y-101717887D01*
X144579709Y-101711325D01*
X144579813Y-101693642D01*
X144600978Y-101679653D01*
X144649817Y-101666403D01*
X144703062Y-101656153D01*
X144838804Y-101631894D01*
X145168641Y-101739151D01*
X145864066Y-101950150D01*
X146573542Y-102135172D01*
X147299217Y-102294524D01*
X148043237Y-102428514D01*
X148807750Y-102537446D01*
X149594902Y-102621628D01*
X150406841Y-102681366D01*
X151245714Y-102716967D01*
X152101927Y-102728735D01*
X152292787Y-102727935D01*
X152502875Y-102725577D01*
X152720545Y-102721892D01*
X152934151Y-102717107D01*
X153132047Y-102711453D01*
X153302586Y-102705157D01*
X153303542Y-102705116D01*
X153560559Y-102695432D01*
X153813690Y-102688428D01*
X154058213Y-102684099D01*
X154289405Y-102682438D01*
X154502544Y-102683442D01*
X154692908Y-102687103D01*
X154855775Y-102693418D01*
X154986422Y-102702380D01*
X155031831Y-102707083D01*
X155503274Y-102778989D01*
X155953413Y-102881134D01*
X156384814Y-103014712D01*
X156800044Y-103180915D01*
X157201669Y-103380937D01*
X157592255Y-103615973D01*
X157974370Y-103887214D01*
X158350579Y-104195856D01*
X158477534Y-104309465D01*
X158725356Y-104549700D01*
X158979840Y-104823771D01*
X159241819Y-105132661D01*
X159512123Y-105477350D01*
X159791584Y-105858819D01*
X159795615Y-105864496D01*
X159915368Y-106031109D01*
X160032392Y-106189977D01*
X160144421Y-106338308D01*
X160249190Y-106473309D01*
X160344433Y-106592188D01*
X160427885Y-106692154D01*
X160497279Y-106770414D01*
X160550350Y-106824177D01*
X160584832Y-106850650D01*
X160596600Y-106851548D01*
X160595531Y-106830811D01*
X160588418Y-106775660D01*
X160575898Y-106690179D01*
X160558610Y-106578456D01*
X160537191Y-106444578D01*
X160512278Y-106292629D01*
X160484511Y-106126697D01*
X160471580Y-106050471D01*
X160442459Y-105878907D01*
X160415493Y-105718898D01*
X160391375Y-105574642D01*
X160370798Y-105450338D01*
X160354456Y-105350184D01*
X160343043Y-105278380D01*
X160337250Y-105239123D01*
X160336661Y-105233346D01*
X160351351Y-105232452D01*
X160393284Y-105253319D01*
X160459047Y-105293473D01*
X160545229Y-105350439D01*
X160648418Y-105421741D01*
X160765202Y-105504906D01*
X160892171Y-105597458D01*
X161025912Y-105696923D01*
X161163014Y-105800826D01*
X161300066Y-105906693D01*
X161433655Y-106012047D01*
X161560371Y-106114416D01*
X161626061Y-106168684D01*
X162199563Y-106670912D01*
X162742928Y-107196097D01*
X163255183Y-107743158D01*
X163735352Y-108311010D01*
X164182461Y-108898571D01*
X164509050Y-109372009D01*
X164651292Y-109590623D01*
X164777746Y-109792133D01*
X164893678Y-109985757D01*
X165004350Y-110180715D01*
X165115027Y-110386224D01*
X165230973Y-110611503D01*
X165329051Y-110808086D01*
X165598404Y-111386786D01*
X165832154Y-111960919D01*
X166031925Y-112536127D01*
X166199341Y-113118058D01*
X166336026Y-113712355D01*
X166443605Y-114324664D01*
X166523637Y-114960009D01*
X166534327Y-115090875D01*
X166543162Y-115253421D01*
X166550106Y-115440538D01*
X166555123Y-115645116D01*
X166558177Y-115860045D01*
X166559231Y-116078218D01*
X166558250Y-116292523D01*
X166555197Y-116495853D01*
X166550036Y-116681097D01*
X166542730Y-116841147D01*
X166533835Y-116962701D01*
X166452172Y-117649517D01*
X166336712Y-118327658D01*
X166186872Y-118998823D01*
X166002069Y-119664715D01*
X165781719Y-120327034D01*
X165525238Y-120987480D01*
X165232045Y-121647755D01*
X164901554Y-122309558D01*
X164533184Y-122974591D01*
X164387034Y-123222038D01*
X164325821Y-123324967D01*
X164272745Y-123416107D01*
X164230688Y-123490345D01*
X164202535Y-123542572D01*
X164191170Y-123567677D01*
X164191219Y-123569064D01*
X164206640Y-123558320D01*
X164244646Y-123523676D01*
X164300776Y-123469435D01*
X164370569Y-123399901D01*
X164441598Y-123327574D01*
X164778096Y-122955966D01*
X165098688Y-122549960D01*
X165402705Y-122111140D01*
X165689479Y-121641092D01*
X165958341Y-121141400D01*
X166208624Y-120613649D01*
X166439659Y-120059425D01*
X166650777Y-119480311D01*
X166841311Y-118877893D01*
X167010593Y-118253756D01*
X167157953Y-117609485D01*
X167282724Y-116946665D01*
X167368275Y-116386317D01*
X167444176Y-115733263D01*
X167496891Y-115056914D01*
X167526334Y-114365492D01*
X167532418Y-113667222D01*
X167515055Y-112970328D01*
X167474158Y-112283033D01*
X167418034Y-111687317D01*
X167320497Y-110948665D01*
X167194388Y-110222154D01*
X167040434Y-109509664D01*
X166859361Y-108813075D01*
X166651892Y-108134265D01*
X166418755Y-107475114D01*
X166160673Y-106837503D01*
X165878372Y-106223310D01*
X165572577Y-105634416D01*
X165244014Y-105072700D01*
X164893407Y-104540041D01*
X164521483Y-104038320D01*
X164415648Y-103906125D01*
X164367143Y-103845069D01*
X164331424Y-103797226D01*
X164313252Y-103769136D01*
X164312566Y-103764471D01*
X164336056Y-103776354D01*
X164384282Y-103809268D01*
X164452061Y-103859109D01*
X164534207Y-103921774D01*
X164625535Y-103993160D01*
X164720862Y-104069163D01*
X164815001Y-104145679D01*
X164902769Y-104218607D01*
X164978981Y-104283841D01*
X165038453Y-104337279D01*
X165049332Y-104347580D01*
X165110908Y-104410638D01*
X165180060Y-104489306D01*
X165258391Y-104585778D01*
X165347504Y-104702244D01*
X165449001Y-104840897D01*
X165564486Y-105003929D01*
X165695562Y-105193531D01*
X165843831Y-105411896D01*
X166010896Y-105661217D01*
X166021136Y-105676583D01*
X166208105Y-105959732D01*
X166378162Y-106223078D01*
X166535341Y-106473524D01*
X166683676Y-106717974D01*
X166827200Y-106963330D01*
X166969946Y-107216495D01*
X167115948Y-107484373D01*
X167269239Y-107773865D01*
X167433853Y-108091875D01*
X167444058Y-108111778D01*
X167532042Y-108283130D01*
X167620791Y-108455353D01*
X167707341Y-108622738D01*
X167788727Y-108779575D01*
X167861985Y-108920152D01*
X167924150Y-109038760D01*
X167972257Y-109129688D01*
X167981681Y-109147317D01*
X168216089Y-109573425D01*
X168444229Y-109964944D01*
X168668562Y-110325376D01*
X168891553Y-110658218D01*
X169115664Y-110966973D01*
X169343358Y-111255140D01*
X169577098Y-111526220D01*
X169819348Y-111783712D01*
X169879605Y-111844453D01*
X170108516Y-112064627D01*
X170323728Y-112253875D01*
X170529940Y-112415750D01*
X170731848Y-112553803D01*
X170934150Y-112671587D01*
X171053369Y-112731942D01*
X171265975Y-112825500D01*
X171463706Y-112893047D01*
X171658161Y-112937315D01*
X171860937Y-112961036D01*
X172051549Y-112967086D01*
X172152480Y-112966729D01*
X172220707Y-112964972D01*
X172262603Y-112960783D01*
X172284538Y-112953132D01*
X172292885Y-112940988D01*
X172294061Y-112927851D01*
X172280066Y-112895154D01*
X172234429Y-112865784D01*
X172211023Y-112855826D01*
X171969451Y-112747956D01*
X171722448Y-112614615D01*
X171478754Y-112461703D01*
X171247112Y-112295122D01*
X171036263Y-112120772D01*
X170854950Y-111944556D01*
X170844720Y-111933530D01*
X170667554Y-111729625D01*
X170503510Y-111515570D01*
X170350971Y-111288033D01*
X170208322Y-111043681D01*
X170073945Y-110779180D01*
X169946225Y-110491198D01*
X169823544Y-110176402D01*
X169704287Y-109831457D01*
X169586836Y-109453033D01*
X169507662Y-109176625D01*
X169393982Y-108770782D01*
X169287842Y-108398367D01*
X169187797Y-108054779D01*
X169092402Y-107735415D01*
X169000214Y-107435674D01*
X168909787Y-107150954D01*
X168819678Y-106876653D01*
X168728441Y-106608169D01*
X168634632Y-106340900D01*
X168536807Y-106070244D01*
X168507994Y-105991855D01*
X168265291Y-105365022D01*
X168001309Y-104741439D01*
X167719330Y-104127910D01*
X167422639Y-103531242D01*
X167114519Y-102958238D01*
X166798254Y-102415702D01*
X166745061Y-102329099D01*
X157735224Y-102329099D01*
X157728694Y-102336868D01*
X157713485Y-102332983D01*
X157688267Y-102324350D01*
X157631770Y-102305582D01*
X157549881Y-102278615D01*
X157448486Y-102245386D01*
X157333473Y-102207832D01*
X157298292Y-102196370D01*
X157202587Y-102165227D01*
X157119505Y-102138496D01*
X157044779Y-102115168D01*
X156974142Y-102094236D01*
X156903327Y-102074691D01*
X156828066Y-102055526D01*
X156744094Y-102035732D01*
X156647143Y-102014302D01*
X156532945Y-101990228D01*
X156397234Y-101962501D01*
X156235743Y-101930114D01*
X156044205Y-101892058D01*
X155832908Y-101850209D01*
X155524055Y-101789407D01*
X155248525Y-101736203D01*
X155001421Y-101690049D01*
X154777848Y-101650398D01*
X154572908Y-101616702D01*
X154381705Y-101588414D01*
X154199344Y-101564987D01*
X154020928Y-101545873D01*
X153841562Y-101530524D01*
X153656348Y-101518394D01*
X153460390Y-101508934D01*
X153248793Y-101501598D01*
X153016661Y-101495837D01*
X152759096Y-101491105D01*
X152599292Y-101488662D01*
X152272452Y-101483021D01*
X151980896Y-101476035D01*
X151720850Y-101467531D01*
X151488540Y-101457337D01*
X151280189Y-101445279D01*
X151092024Y-101431184D01*
X150920270Y-101414879D01*
X150870138Y-101409390D01*
X150467780Y-101355311D01*
X150094967Y-101286606D01*
X149744266Y-101201283D01*
X149408244Y-101097352D01*
X149079468Y-100972822D01*
X148828369Y-100862479D01*
X148694842Y-100801901D01*
X148579030Y-100753533D01*
X148470952Y-100714257D01*
X148360626Y-100680952D01*
X148238067Y-100650502D01*
X148093295Y-100619786D01*
X147982279Y-100598150D01*
X147821825Y-100567100D01*
X147692251Y-100540730D01*
X147585915Y-100517157D01*
X147495175Y-100494497D01*
X147412388Y-100470869D01*
X147329913Y-100444388D01*
X147259457Y-100420037D01*
X147087544Y-100359301D01*
X147100547Y-100298540D01*
X147111852Y-100253767D01*
X147121209Y-100229502D01*
X147121436Y-100229237D01*
X147141990Y-100226518D01*
X147197548Y-100222219D01*
X147284078Y-100216573D01*
X147397550Y-100209815D01*
X147533934Y-100202182D01*
X147689197Y-100193907D01*
X147859310Y-100185227D01*
X147970181Y-100179758D01*
X148178800Y-100169574D01*
X148351696Y-100160821D01*
X148492174Y-100152958D01*
X148603536Y-100145442D01*
X148689087Y-100137733D01*
X148752132Y-100129289D01*
X148795973Y-100119567D01*
X148823916Y-100108027D01*
X148839264Y-100094126D01*
X148845321Y-100077323D01*
X148845392Y-100057077D01*
X148843200Y-100036642D01*
X148838839Y-100026806D01*
X148826269Y-100014107D01*
X148803288Y-99997442D01*
X148767694Y-99975711D01*
X148717283Y-99947814D01*
X148649856Y-99912651D01*
X148563208Y-99869120D01*
X148455138Y-99816121D01*
X148323445Y-99752553D01*
X148165924Y-99677316D01*
X147980376Y-99589309D01*
X147764597Y-99487431D01*
X147516385Y-99370583D01*
X147417663Y-99324169D01*
X147197049Y-99220403D01*
X146987030Y-99121473D01*
X146790237Y-99028628D01*
X146609303Y-98943118D01*
X146446859Y-98866191D01*
X146305539Y-98799095D01*
X146187975Y-98743081D01*
X146096799Y-98699395D01*
X146034644Y-98669287D01*
X146004141Y-98654006D01*
X146001398Y-98652313D01*
X146020555Y-98646276D01*
X146072787Y-98631193D01*
X146153483Y-98608358D01*
X146258035Y-98579068D01*
X146381832Y-98544615D01*
X146520266Y-98506295D01*
X146580987Y-98489545D01*
X146724323Y-98449885D01*
X146855080Y-98413399D01*
X146968618Y-98381405D01*
X147060296Y-98355222D01*
X147125472Y-98336170D01*
X147159507Y-98325569D01*
X147163384Y-98323969D01*
X147162246Y-98320960D01*
X147154908Y-98313998D01*
X147139715Y-98301951D01*
X147115008Y-98283686D01*
X147079132Y-98258071D01*
X147030429Y-98223975D01*
X146967243Y-98180264D01*
X146887917Y-98125808D01*
X146790793Y-98059474D01*
X146674215Y-97980130D01*
X146536527Y-97886644D01*
X146376071Y-97777884D01*
X146191190Y-97652718D01*
X145980228Y-97510014D01*
X145741527Y-97348639D01*
X145473431Y-97167462D01*
X145233292Y-97005215D01*
X145037065Y-96872583D01*
X144850145Y-96746118D01*
X144675076Y-96627549D01*
X144514402Y-96518605D01*
X144370669Y-96421015D01*
X144246421Y-96336509D01*
X144144202Y-96266815D01*
X144066558Y-96213664D01*
X144016032Y-96178783D01*
X143995170Y-96163903D01*
X143994878Y-96163647D01*
X144008627Y-96153925D01*
X144055678Y-96133807D01*
X144132085Y-96104716D01*
X144233903Y-96068079D01*
X144357189Y-96025320D01*
X144497998Y-95977864D01*
X144624994Y-95936045D01*
X144775979Y-95886507D01*
X144914479Y-95840448D01*
X145036273Y-95799320D01*
X145137140Y-95764575D01*
X145212859Y-95737662D01*
X145259212Y-95720035D01*
X145272369Y-95713421D01*
X145254812Y-95703983D01*
X145204666Y-95681825D01*
X145125716Y-95648506D01*
X145021750Y-95605583D01*
X144896553Y-95554613D01*
X144753912Y-95497153D01*
X144597613Y-95434762D01*
X144520138Y-95404029D01*
X144358700Y-95339806D01*
X144209141Y-95279706D01*
X144075247Y-95225296D01*
X143960805Y-95178141D01*
X143869600Y-95139809D01*
X143805420Y-95111864D01*
X143772049Y-95095874D01*
X143768085Y-95092928D01*
X143784188Y-95075003D01*
X143828125Y-95041829D01*
X143893697Y-94997362D01*
X143974706Y-94945556D01*
X144064953Y-94890366D01*
X144158240Y-94835748D01*
X144248368Y-94785657D01*
X144256369Y-94781369D01*
X144622132Y-94605520D01*
X145015208Y-94452646D01*
X145431041Y-94323107D01*
X145865076Y-94217264D01*
X146312758Y-94135475D01*
X146769532Y-94078103D01*
X147230842Y-94045505D01*
X147692133Y-94038042D01*
X148148851Y-94056074D01*
X148596439Y-94099962D01*
X149030344Y-94170064D01*
X149446009Y-94266741D01*
X149721108Y-94349564D01*
X149821517Y-94385966D01*
X149938922Y-94433471D01*
X150066304Y-94488737D01*
X150196648Y-94548420D01*
X150322936Y-94609179D01*
X150438151Y-94667670D01*
X150535277Y-94720551D01*
X150607296Y-94764477D01*
X150635677Y-94785261D01*
X150694292Y-94833988D01*
X149298920Y-94834691D01*
X149069641Y-94834955D01*
X148852398Y-94835494D01*
X148650256Y-94836283D01*
X148466276Y-94837295D01*
X148303523Y-94838505D01*
X148165060Y-94839888D01*
X148053949Y-94841417D01*
X147973254Y-94843067D01*
X147926039Y-94844812D01*
X147914465Y-94846310D01*
X147942482Y-94859944D01*
X148005712Y-94881467D01*
X148101254Y-94910141D01*
X148226207Y-94945228D01*
X148377670Y-94985990D01*
X148552744Y-95031690D01*
X148748527Y-95081590D01*
X148962118Y-95134952D01*
X149190618Y-95191039D01*
X149431126Y-95249113D01*
X149680740Y-95308436D01*
X149936561Y-95368271D01*
X150195688Y-95427881D01*
X150248976Y-95440011D01*
X150438723Y-95483202D01*
X150627253Y-95526264D01*
X150808888Y-95567889D01*
X150977947Y-95606770D01*
X151128752Y-95641598D01*
X151255623Y-95671068D01*
X151352881Y-95693871D01*
X151388430Y-95702316D01*
X151860239Y-95823023D01*
X152296387Y-95951126D01*
X152699781Y-96087725D01*
X153073328Y-96233924D01*
X153419933Y-96390825D01*
X153742503Y-96559530D01*
X153916558Y-96661294D01*
X154030569Y-96733993D01*
X154159684Y-96821780D01*
X154294331Y-96917680D01*
X154424936Y-97014721D01*
X154541925Y-97105929D01*
X154635727Y-97184331D01*
X154641061Y-97189056D01*
X154683654Y-97228276D01*
X154698617Y-97247327D01*
X154688361Y-97251033D01*
X154670369Y-97247735D01*
X154642245Y-97241412D01*
X154579791Y-97227331D01*
X154486791Y-97206344D01*
X154367030Y-97179309D01*
X154224295Y-97147078D01*
X154062370Y-97110507D01*
X153885039Y-97070450D01*
X153696090Y-97027762D01*
X153635449Y-97014061D01*
X153445401Y-96971254D01*
X153267178Y-96931371D01*
X153104355Y-96895194D01*
X152960503Y-96863502D01*
X152839198Y-96837080D01*
X152744011Y-96816707D01*
X152678517Y-96803165D01*
X152646289Y-96797237D01*
X152643525Y-96797109D01*
X152657976Y-96808258D01*
X152701695Y-96836649D01*
X152770338Y-96879592D01*
X152859563Y-96934396D01*
X152965027Y-96998370D01*
X153072753Y-97063066D01*
X153406776Y-97263585D01*
X153709395Y-97447109D01*
X153983424Y-97615513D01*
X154231677Y-97770672D01*
X154456968Y-97914462D01*
X154662113Y-98048756D01*
X154849925Y-98175431D01*
X155023219Y-98296360D01*
X155184810Y-98413420D01*
X155337511Y-98528484D01*
X155484138Y-98643428D01*
X155627504Y-98760126D01*
X155657061Y-98784699D01*
X155834780Y-98940174D01*
X156020370Y-99115603D01*
X156206950Y-99303667D01*
X156387637Y-99497048D01*
X156555552Y-99688426D01*
X156703812Y-99870482D01*
X156802809Y-100003317D01*
X156853994Y-100076657D01*
X156883821Y-100122424D01*
X156894412Y-100144281D01*
X156887891Y-100145890D01*
X156884287Y-100143839D01*
X156863118Y-100133870D01*
X156809570Y-100109720D01*
X156727052Y-100072901D01*
X156618976Y-100024921D01*
X156488749Y-99967292D01*
X156339782Y-99901523D01*
X156175484Y-99829125D01*
X155999266Y-99751607D01*
X155931145Y-99721675D01*
X154997508Y-99311566D01*
X154962080Y-99354595D01*
X154925354Y-99404880D01*
X154902101Y-99442650D01*
X154889011Y-99476609D01*
X154899705Y-99503434D01*
X154928721Y-99530573D01*
X154959840Y-99556711D01*
X155015032Y-99603121D01*
X155088479Y-99664906D01*
X155174361Y-99737172D01*
X155259861Y-99809132D01*
X155357268Y-99890965D01*
X155476203Y-99990632D01*
X155608137Y-100101001D01*
X155744539Y-100214938D01*
X155876877Y-100325310D01*
X155940369Y-100378189D01*
X156261127Y-100651547D01*
X156549297Y-100910918D01*
X156807567Y-101159130D01*
X157038623Y-101399012D01*
X157245150Y-101633393D01*
X157429835Y-101865102D01*
X157595365Y-102096969D01*
X157647641Y-102176159D01*
X157696587Y-102253246D01*
X157725151Y-102302725D01*
X157735224Y-102329099D01*
X166745061Y-102329099D01*
X166723625Y-102294201D01*
X166663872Y-102197349D01*
X166612500Y-102113004D01*
X166572589Y-102046313D01*
X166547216Y-102002420D01*
X166539461Y-101986472D01*
X166539478Y-101986471D01*
X166562604Y-101994376D01*
X166618063Y-102017151D01*
X166702662Y-102053385D01*
X166813210Y-102101668D01*
X166946515Y-102160589D01*
X167099384Y-102228739D01*
X167268627Y-102304706D01*
X167451051Y-102387080D01*
X167634138Y-102470204D01*
X167954938Y-102615008D01*
X168244705Y-102743018D01*
X168507041Y-102855541D01*
X168745548Y-102953883D01*
X168963825Y-103039349D01*
X169165473Y-103113244D01*
X169354094Y-103176875D01*
X169533289Y-103231547D01*
X169706658Y-103278567D01*
X169877802Y-103319239D01*
X170050323Y-103354870D01*
X170099248Y-103364099D01*
X170286259Y-103394066D01*
X170484560Y-103417580D01*
X170686802Y-103434372D01*
X170885632Y-103444172D01*
X171073699Y-103446711D01*
X171243652Y-103441719D01*
X171388140Y-103428927D01*
X171473446Y-103414479D01*
X171541831Y-103399421D01*
X171453908Y-103376611D01*
X171219205Y-103313518D01*
X171014103Y-103253191D01*
X170829570Y-103192523D01*
X170656573Y-103128412D01*
X170486079Y-103057752D01*
X170355561Y-102999122D01*
X170188866Y-102919897D01*
X170027066Y-102838135D01*
X169867317Y-102751879D01*
X169706774Y-102659175D01*
X169542593Y-102558068D01*
X169371932Y-102446602D01*
X169191944Y-102322821D01*
X168999788Y-102184772D01*
X168792618Y-102030497D01*
X168567590Y-101858043D01*
X168321861Y-101665454D01*
X168052586Y-101450774D01*
X167761138Y-101215470D01*
X167638213Y-101116679D01*
X167490135Y-100999240D01*
X167323036Y-100867926D01*
X167143045Y-100727510D01*
X166956291Y-100582765D01*
X166768904Y-100438462D01*
X166587014Y-100299375D01*
X166484708Y-100221653D01*
X166308942Y-100088496D01*
X166123761Y-99948215D01*
X165935314Y-99805467D01*
X165749749Y-99664909D01*
X165573213Y-99531198D01*
X165411856Y-99408989D01*
X165271825Y-99302941D01*
X165200891Y-99249227D01*
X164801895Y-98950170D01*
X164427521Y-98676136D01*
X164074362Y-98424917D01*
X163739015Y-98194305D01*
X163418074Y-97982093D01*
X163108133Y-97786072D01*
X162805788Y-97604034D01*
X162507634Y-97433771D01*
X162210265Y-97273075D01*
X161938677Y-97133898D01*
X161762546Y-97046952D01*
X161596430Y-96967528D01*
X161435411Y-96893674D01*
X161274569Y-96823441D01*
X161108984Y-96754877D01*
X160933738Y-96686034D01*
X160743910Y-96614959D01*
X160534581Y-96539702D01*
X160300832Y-96458314D01*
X160037743Y-96368844D01*
X159851394Y-96306339D01*
X159677376Y-96248190D01*
X159515117Y-96193921D01*
X159368295Y-96144766D01*
X159240589Y-96101959D01*
X159135679Y-96066733D01*
X159057243Y-96040324D01*
X159008959Y-96023963D01*
X158994333Y-96018860D01*
X158995219Y-96000068D01*
X159003397Y-95959203D01*
X159015132Y-95911681D01*
X159026692Y-95872920D01*
X159033113Y-95858753D01*
X159053580Y-95860763D01*
X159107961Y-95870421D01*
X159192035Y-95886863D01*
X159301575Y-95909224D01*
X159432360Y-95936641D01*
X159580164Y-95968249D01*
X159740765Y-96003185D01*
X159762629Y-96007985D01*
X160038073Y-96068233D01*
X160296959Y-96124208D01*
X160543543Y-96176732D01*
X160782084Y-96226632D01*
X161016840Y-96274731D01*
X161252067Y-96321855D01*
X161492025Y-96368827D01*
X161740970Y-96416472D01*
X162003160Y-96465614D01*
X162282853Y-96517079D01*
X162584307Y-96571690D01*
X162911779Y-96630272D01*
X163269528Y-96693650D01*
X163638523Y-96758564D01*
X163924637Y-96808275D01*
X164213429Y-96857527D01*
X164501228Y-96905747D01*
X164784361Y-96952359D01*
X165059158Y-96996788D01*
X165321945Y-97038459D01*
X165569052Y-97076798D01*
X165796806Y-97111229D01*
X166001535Y-97141178D01*
X166179568Y-97166070D01*
X166327233Y-97185329D01*
X166440857Y-97198382D01*
X166459570Y-97200235D01*
X166577541Y-97207594D01*
X166706826Y-97207633D01*
X166852681Y-97199952D01*
X167020363Y-97184150D01*
X167215131Y-97159825D01*
X167442240Y-97126578D01*
X167458292Y-97124092D01*
X167582241Y-97104694D01*
X167671894Y-97089951D01*
X167731580Y-97078603D01*
X167765630Y-97069388D01*
X167778375Y-97061046D01*
X167774143Y-97052318D01*
X167757266Y-97041941D01*
X167751304Y-97038799D01*
X167719530Y-97024007D01*
X167656423Y-96996167D01*
X167566700Y-96957306D01*
X167455080Y-96909449D01*
X167326283Y-96854622D01*
X167185026Y-96794851D01*
X167086996Y-96753567D01*
X166830117Y-96645192D01*
X166604179Y-96548822D01*
X166403860Y-96461904D01*
X166223838Y-96381883D01*
X166058792Y-96306205D01*
X165903399Y-96232315D01*
X165752338Y-96157660D01*
X165600285Y-96079684D01*
X165441921Y-95995835D01*
X165271921Y-95903558D01*
X165084966Y-95800298D01*
X164986677Y-95745544D01*
X164786743Y-95635944D01*
X164563468Y-95517053D01*
X164324180Y-95392543D01*
X164076206Y-95266087D01*
X163826873Y-95141356D01*
X163583509Y-95022023D01*
X163353442Y-94911760D01*
X163143999Y-94814239D01*
X162993754Y-94746781D01*
X162236729Y-94430669D01*
X161486772Y-94151038D01*
X160741831Y-93907670D01*
X159999851Y-93700344D01*
X159258780Y-93528841D01*
X158516563Y-93392941D01*
X157771147Y-93292426D01*
X157020478Y-93227074D01*
X156262502Y-93196666D01*
X155495167Y-93200984D01*
X154716418Y-93239807D01*
X153924201Y-93312916D01*
X153116464Y-93420091D01*
X152291153Y-93561112D01*
X152153262Y-93587596D01*
X152017208Y-93613902D01*
X151910593Y-93633431D01*
X151824526Y-93647029D01*
X151750121Y-93655542D01*
X151678487Y-93659815D01*
X151600738Y-93660696D01*
X151507983Y-93659030D01*
X151426985Y-93656730D01*
X151307705Y-93651787D01*
X151189808Y-93643722D01*
X151069904Y-93631840D01*
X150944603Y-93615446D01*
X150810515Y-93593845D01*
X150664250Y-93566341D01*
X150502418Y-93532240D01*
X150321628Y-93490847D01*
X150118490Y-93441466D01*
X149889616Y-93383402D01*
X149631613Y-93315960D01*
X149341093Y-93238446D01*
X149195270Y-93199126D01*
X148995190Y-93144713D01*
X148830444Y-93099153D01*
X148698498Y-93061660D01*
X148596817Y-93031452D01*
X148522866Y-93007742D01*
X148474109Y-92989748D01*
X148448011Y-92976684D01*
X148442038Y-92967767D01*
X148443039Y-92966407D01*
X148472871Y-92945149D01*
X148530963Y-92909691D01*
X148610779Y-92863615D01*
X148705781Y-92810500D01*
X148809432Y-92753926D01*
X148915196Y-92697474D01*
X149016534Y-92644723D01*
X149106909Y-92599252D01*
X149160523Y-92573498D01*
X149581450Y-92390291D01*
X150009090Y-92231059D01*
X150446562Y-92095258D01*
X150896986Y-91982347D01*
X151363483Y-91891783D01*
X151849173Y-91823022D01*
X152357177Y-91775523D01*
X152890615Y-91748743D01*
X153452606Y-91742140D01*
X153895811Y-91750134D01*
X154100053Y-91756689D01*
X154300731Y-91764182D01*
X154501031Y-91772839D01*
X154704140Y-91782886D01*
X154913244Y-91794548D01*
X155131530Y-91808052D01*
X155362184Y-91823624D01*
X155608394Y-91841489D01*
X155873345Y-91861874D01*
X156160224Y-91885005D01*
X156472218Y-91911107D01*
X156812514Y-91940407D01*
X157184298Y-91973130D01*
X157590756Y-92009503D01*
X157728138Y-92021902D01*
X157970695Y-92043828D01*
X158204886Y-92064989D01*
X158427359Y-92085081D01*
X158634757Y-92103802D01*
X158823725Y-92120850D01*
X158990909Y-92135922D01*
X159132953Y-92148715D01*
X159246501Y-92158928D01*
X159328199Y-92166256D01*
X159374692Y-92170399D01*
X159377431Y-92170640D01*
X159522262Y-92183349D01*
X159481705Y-92126393D01*
X159451960Y-92091119D01*
X159397371Y-92032868D01*
X159321694Y-91955289D01*
X159228687Y-91862031D01*
X159122107Y-91756741D01*
X159005711Y-91643070D01*
X158883256Y-91524667D01*
X158758498Y-91405179D01*
X158635196Y-91288257D01*
X158517106Y-91177548D01*
X158407985Y-91076703D01*
X158311590Y-90989369D01*
X158304046Y-90982635D01*
X157708305Y-90473447D01*
X157104719Y-90001033D01*
X156493723Y-89565632D01*
X155875749Y-89167484D01*
X155251230Y-88806829D01*
X154620599Y-88483906D01*
X153984288Y-88198954D01*
X153342731Y-87952214D01*
X152696361Y-87743926D01*
X152224129Y-87616887D01*
X151894440Y-87539302D01*
X151581664Y-87474063D01*
X151273709Y-87419129D01*
X150958478Y-87372458D01*
X150623878Y-87332008D01*
X150401215Y-87309140D01*
X150278497Y-87300106D01*
X150123746Y-87293177D01*
X149943948Y-87288316D01*
X149746089Y-87285485D01*
X149537155Y-87284647D01*
X149324130Y-87285762D01*
X149114001Y-87288794D01*
X148913753Y-87293704D01*
X148730372Y-87300455D01*
X148570844Y-87309008D01*
X148442153Y-87319326D01*
X148437600Y-87319790D01*
X147862935Y-87391048D01*
X147302403Y-87485650D01*
X146751890Y-87604913D01*
X146207282Y-87750157D01*
X145664466Y-87922699D01*
X145119328Y-88123859D01*
X144567755Y-88354956D01*
X144005632Y-88617307D01*
X143428847Y-88912233D01*
X143367369Y-88945088D01*
X143201980Y-89034615D01*
X143029605Y-89129552D01*
X142846344Y-89232123D01*
X142648300Y-89344553D01*
X142431573Y-89469064D01*
X142192265Y-89607882D01*
X141926477Y-89763229D01*
X141706600Y-89892404D01*
X141490379Y-90019158D01*
X141302729Y-90127927D01*
X141138958Y-90221235D01*
X140994374Y-90301604D01*
X140864286Y-90371560D01*
X140744002Y-90433626D01*
X140628831Y-90490326D01*
X140514080Y-90544184D01*
X140397523Y-90596635D01*
X139895303Y-90800452D01*
X139393810Y-90966986D01*
X138888167Y-91097624D01*
X138373500Y-91193757D01*
X138228754Y-91214460D01*
X138096105Y-91228211D01*
X137932714Y-91238793D01*
X137746621Y-91246206D01*
X137545865Y-91250450D01*
X137338486Y-91251524D01*
X137132522Y-91249427D01*
X136936013Y-91244160D01*
X136756999Y-91235721D01*
X136603518Y-91224110D01*
X136519138Y-91214578D01*
X136369920Y-91192889D01*
X136212617Y-91167212D01*
X136054722Y-91139014D01*
X135903729Y-91109761D01*
X135767129Y-91080920D01*
X135652416Y-91053958D01*
X135567084Y-91030340D01*
X135551324Y-91025166D01*
X135358803Y-90944056D01*
X135196051Y-90841720D01*
X135057524Y-90713668D01*
X134937679Y-90555413D01*
X134904540Y-90501376D01*
X134697527Y-90170085D01*
X134485320Y-89875211D01*
X134265368Y-89614184D01*
X134035119Y-89384435D01*
X133792020Y-89183393D01*
X133533522Y-89008489D01*
X133286638Y-88871820D01*
X133017614Y-88753065D01*
X132728567Y-88657457D01*
X132414589Y-88583587D01*
X132118449Y-88536049D01*
X132014619Y-88520815D01*
X131938325Y-88504564D01*
X131878094Y-88483986D01*
X131822452Y-88455772D01*
X131805834Y-88445871D01*
X131751323Y-88412445D01*
X131718199Y-88391902D01*
X131661234Y-88391902D01*
X131661191Y-88391973D01*
X131633982Y-88413747D01*
X131578135Y-88444067D01*
X131502132Y-88479276D01*
X131414456Y-88515712D01*
X131323591Y-88549718D01*
X131238019Y-88577633D01*
X131216739Y-88583702D01*
X131062253Y-88619846D01*
X130910330Y-88641278D01*
X130750275Y-88648630D01*
X130571392Y-88642539D01*
X130428023Y-88630494D01*
X130212111Y-88593499D01*
X129985710Y-88526412D01*
X129757933Y-88432949D01*
X129537891Y-88316825D01*
X129343638Y-88188400D01*
X129283561Y-88143319D01*
X129237817Y-88107699D01*
X129213720Y-88087290D01*
X129211754Y-88084779D01*
X129228349Y-88071174D01*
X129273641Y-88044532D01*
X129340886Y-88008279D01*
X129423342Y-87965842D01*
X129514267Y-87920647D01*
X129606916Y-87876122D01*
X129694549Y-87835694D01*
X129748134Y-87812163D01*
X129919575Y-87743339D01*
X130070279Y-87693577D01*
X130211854Y-87660012D01*
X130355909Y-87639783D01*
X130481754Y-87631233D01*
X130680736Y-87633640D01*
X130855300Y-87661014D01*
X131013267Y-87716234D01*
X131162455Y-87802181D01*
X131310686Y-87921736D01*
X131337114Y-87946331D01*
X131403296Y-88013841D01*
X131470504Y-88090588D01*
X131534148Y-88170259D01*
X131589634Y-88246540D01*
X131632371Y-88313117D01*
X131657769Y-88363675D01*
X131661234Y-88391902D01*
X131718199Y-88391902D01*
X131712400Y-88388306D01*
X131698610Y-88379439D01*
X131694161Y-88359736D01*
X131685368Y-88308503D01*
X131673259Y-88232704D01*
X131658860Y-88139306D01*
X131643199Y-88035274D01*
X131627304Y-87927574D01*
X131612201Y-87823170D01*
X131598918Y-87729029D01*
X131588483Y-87652115D01*
X131581923Y-87599395D01*
X131580264Y-87577833D01*
X131580358Y-87577671D01*
X131600806Y-87582303D01*
X131654350Y-87598627D01*
X131737230Y-87625346D01*
X131845690Y-87661163D01*
X131975969Y-87704781D01*
X132124309Y-87754904D01*
X132286950Y-87810234D01*
X132460135Y-87869474D01*
X132640103Y-87931328D01*
X132823097Y-87994499D01*
X133005358Y-88057689D01*
X133183126Y-88119602D01*
X133352642Y-88178941D01*
X133510148Y-88234409D01*
X133651886Y-88284709D01*
X133774095Y-88328545D01*
X133873017Y-88364618D01*
X133944894Y-88391633D01*
X133979138Y-88405316D01*
X134361667Y-88580827D01*
X134714073Y-88770999D01*
X134859420Y-88859001D01*
X135089002Y-88998713D01*
X135298296Y-89116668D01*
X135496134Y-89217168D01*
X135691348Y-89304518D01*
X135892769Y-89383019D01*
X136040446Y-89434429D01*
X136408981Y-89540055D01*
X136781367Y-89611840D01*
X137159287Y-89649648D01*
X137544425Y-89653341D01*
X137938465Y-89622783D01*
X138343089Y-89557835D01*
X138759983Y-89458362D01*
X139190828Y-89324224D01*
X139637310Y-89155286D01*
X139679876Y-89137722D01*
X139749899Y-89107909D01*
X139830762Y-89072061D01*
X139924144Y-89029348D01*
X140031724Y-88978939D01*
X140155182Y-88920004D01*
X140296198Y-88851713D01*
X140456450Y-88773235D01*
X140637619Y-88683739D01*
X140841383Y-88582396D01*
X141069423Y-88468375D01*
X141323417Y-88340846D01*
X141605045Y-88198977D01*
X141915987Y-88041940D01*
X142257922Y-87868903D01*
X142632529Y-87679036D01*
X142727842Y-87630689D01*
X142936520Y-87524529D01*
X143134387Y-87423296D01*
X143318773Y-87328390D01*
X143487007Y-87241214D01*
X143636418Y-87163170D01*
X143741081Y-87107932D01*
X130932126Y-87107932D01*
X130877902Y-87122518D01*
X130846959Y-87128377D01*
X130781421Y-87138959D01*
X130685406Y-87153682D01*
X130563031Y-87171958D01*
X130418415Y-87193204D01*
X130255677Y-87216833D01*
X130078936Y-87242261D01*
X129892309Y-87268902D01*
X129699915Y-87296172D01*
X129505872Y-87323485D01*
X129314300Y-87350255D01*
X129129316Y-87375898D01*
X128955039Y-87399829D01*
X128795587Y-87421462D01*
X128655079Y-87440212D01*
X128537633Y-87455494D01*
X128508369Y-87459207D01*
X128277314Y-87483755D01*
X128065300Y-87497152D01*
X127876657Y-87499377D01*
X127715720Y-87490409D01*
X127586821Y-87470230D01*
X127560754Y-87463611D01*
X127437136Y-87421426D01*
X127332120Y-87366218D01*
X127236832Y-87291486D01*
X127142396Y-87190727D01*
X127079294Y-87110893D01*
X126983900Y-86969362D01*
X126885889Y-86796551D01*
X126788477Y-86599816D01*
X126694879Y-86386517D01*
X126608312Y-86164012D01*
X126531992Y-85939658D01*
X126469135Y-85720813D01*
X126465494Y-85706568D01*
X126413164Y-85484707D01*
X126375577Y-85286479D01*
X126351126Y-85100025D01*
X126338204Y-84913486D01*
X126335089Y-84743778D01*
X126334082Y-84660596D01*
X126332047Y-84586891D01*
X126330788Y-84523709D01*
X126332109Y-84472100D01*
X126337817Y-84433110D01*
X126349714Y-84407789D01*
X126369607Y-84397185D01*
X126399300Y-84402344D01*
X126440597Y-84424316D01*
X126495304Y-84464148D01*
X126565225Y-84522889D01*
X126652165Y-84601586D01*
X126757928Y-84701288D01*
X126884320Y-84823042D01*
X127033144Y-84967896D01*
X127206207Y-85136899D01*
X127405312Y-85331099D01*
X127492434Y-85415858D01*
X127667214Y-85585595D01*
X127833815Y-85747112D01*
X127990130Y-85898382D01*
X128134052Y-86037381D01*
X128263474Y-86162082D01*
X128376291Y-86270460D01*
X128470395Y-86360490D01*
X128543680Y-86430144D01*
X128594040Y-86477399D01*
X128619367Y-86500228D01*
X128622021Y-86502063D01*
X128612576Y-86485212D01*
X128583344Y-86438050D01*
X128535886Y-86363002D01*
X128471758Y-86262490D01*
X128392520Y-86138938D01*
X128299729Y-85994767D01*
X128194944Y-85832402D01*
X128079724Y-85654264D01*
X127955626Y-85462778D01*
X127824210Y-85260366D01*
X127747820Y-85142866D01*
X127612996Y-84935333D01*
X127484672Y-84737303D01*
X127364400Y-84551204D01*
X127253736Y-84379465D01*
X127154234Y-84224515D01*
X127067449Y-84088783D01*
X126994935Y-83974697D01*
X126938247Y-83884686D01*
X126898939Y-83821178D01*
X126878565Y-83786603D01*
X126876006Y-83780782D01*
X126896429Y-83785564D01*
X126946191Y-83806338D01*
X127020243Y-83840545D01*
X127113533Y-83885625D01*
X127221009Y-83939019D01*
X127337620Y-83998166D01*
X127458315Y-84060506D01*
X127578041Y-84123481D01*
X127691748Y-84184530D01*
X127794384Y-84241092D01*
X127873369Y-84286196D01*
X128380584Y-84605295D01*
X128868667Y-84958370D01*
X129337337Y-85345168D01*
X129786315Y-85765435D01*
X130215319Y-86218918D01*
X130624067Y-86705363D01*
X130784429Y-86912548D01*
X130932126Y-87107932D01*
X143741081Y-87107932D01*
X143764336Y-87095659D01*
X143868089Y-87040084D01*
X143945007Y-86997846D01*
X143992419Y-86970347D01*
X144007655Y-86958989D01*
X144007611Y-86958934D01*
X143981869Y-86944683D01*
X143924529Y-86919513D01*
X143840873Y-86885439D01*
X143736179Y-86844473D01*
X143615726Y-86798625D01*
X143484794Y-86749910D01*
X143348662Y-86700339D01*
X143212609Y-86651924D01*
X143096491Y-86611651D01*
X142406271Y-86393137D01*
X141687847Y-86199721D01*
X140943295Y-86031803D01*
X140174692Y-85889781D01*
X139384115Y-85774054D01*
X138573638Y-85685020D01*
X138046429Y-85642299D01*
X137850859Y-85630350D01*
X137629961Y-85619925D01*
X137387896Y-85611024D01*
X137128823Y-85603651D01*
X136856904Y-85597805D01*
X136576299Y-85593491D01*
X136291168Y-85590708D01*
X136005672Y-85589459D01*
X135723972Y-85589746D01*
X135450229Y-85591570D01*
X135188602Y-85594933D01*
X134943253Y-85599836D01*
X134718342Y-85606283D01*
X134518029Y-85614273D01*
X134346476Y-85623810D01*
X134207842Y-85634894D01*
X134154985Y-85640670D01*
X133681914Y-85716457D01*
X133223399Y-85825785D01*
X132781578Y-85967838D01*
X132358589Y-86141804D01*
X131956572Y-86346867D01*
X131577664Y-86582212D01*
X131453377Y-86669784D01*
X131391060Y-86713894D01*
X131340599Y-86747361D01*
X131310332Y-86764736D01*
X131306163Y-86766009D01*
X131288955Y-86751755D01*
X131247395Y-86710219D01*
X131183190Y-86643244D01*
X131098045Y-86552670D01*
X130993663Y-86440340D01*
X130871749Y-86308095D01*
X130734009Y-86157776D01*
X130582147Y-85991224D01*
X130417867Y-85810283D01*
X130266132Y-85642548D01*
X129944182Y-85293222D01*
X129633355Y-84970352D01*
X129335182Y-84675401D01*
X129051189Y-84409830D01*
X128782905Y-84175103D01*
X128531858Y-83972681D01*
X128479061Y-83932606D01*
X128347753Y-83835651D01*
X128217139Y-83742613D01*
X128083722Y-83651385D01*
X127944005Y-83559860D01*
X127794492Y-83465928D01*
X127631687Y-83367485D01*
X127452091Y-83262420D01*
X127252208Y-83148628D01*
X127028542Y-83024000D01*
X126777596Y-82886430D01*
X126495872Y-82733808D01*
X126440478Y-82703959D01*
X126362150Y-82661747D01*
X123024692Y-82661747D01*
X123018744Y-82680854D01*
X122983596Y-82715110D01*
X122924389Y-82761017D01*
X122846263Y-82815078D01*
X122754359Y-82873795D01*
X122653817Y-82933671D01*
X122549779Y-82991207D01*
X122510061Y-83011901D01*
X122338893Y-83094573D01*
X122185203Y-83157354D01*
X122036130Y-83204982D01*
X121892149Y-83239457D01*
X121792491Y-83253157D01*
X121666411Y-83260231D01*
X121525948Y-83260974D01*
X121383140Y-83255678D01*
X121250023Y-83244637D01*
X121138636Y-83228146D01*
X121103292Y-83220200D01*
X120989391Y-83182826D01*
X120856613Y-83126334D01*
X120716177Y-83056532D01*
X120579305Y-82979227D01*
X120457215Y-82900224D01*
X120394184Y-82853194D01*
X120241922Y-82731317D01*
X120292973Y-82690417D01*
X120363705Y-82639841D01*
X120459057Y-82580009D01*
X120567840Y-82517313D01*
X120678865Y-82458143D01*
X120780943Y-82408890D01*
X120802256Y-82399518D01*
X120944702Y-82342352D01*
X121074687Y-82300353D01*
X121203834Y-82271122D01*
X121343766Y-82252262D01*
X121506107Y-82241373D01*
X121581985Y-82238652D01*
X121796417Y-82238503D01*
X121986394Y-82252916D01*
X122164490Y-82283968D01*
X122343279Y-82333737D01*
X122500292Y-82390390D01*
X122586986Y-82426796D01*
X122683661Y-82471389D01*
X122782124Y-82519929D01*
X122874183Y-82568178D01*
X122951647Y-82611896D01*
X123006324Y-82646844D01*
X123024692Y-82661747D01*
X126362150Y-82661747D01*
X126275863Y-82615246D01*
X126116416Y-82529185D01*
X125966624Y-82448204D01*
X125830970Y-82374733D01*
X125713940Y-82311205D01*
X125620019Y-82260048D01*
X125553691Y-82223693D01*
X125531526Y-82211406D01*
X125377990Y-82125625D01*
X125502218Y-82108547D01*
X125574843Y-82101837D01*
X125679516Y-82096617D01*
X125809236Y-82092867D01*
X125957005Y-82090571D01*
X126115821Y-82089709D01*
X126278685Y-82090265D01*
X126438596Y-82092219D01*
X126588556Y-82095554D01*
X126721563Y-82100252D01*
X126830618Y-82106295D01*
X126896446Y-82112146D01*
X127399804Y-82185168D01*
X127907450Y-82289030D01*
X128422386Y-82424571D01*
X128947616Y-82592631D01*
X129486143Y-82794049D01*
X129800417Y-82924197D01*
X129871310Y-82954548D01*
X129907878Y-82862563D01*
X129929918Y-82807503D01*
X129945748Y-82768659D01*
X129950030Y-82758619D01*
X129936608Y-82744793D01*
X129895995Y-82718437D01*
X129835972Y-82684454D01*
X129813261Y-82672417D01*
X129758836Y-82643598D01*
X129676067Y-82599204D01*
X129570880Y-82542441D01*
X129449200Y-82476513D01*
X129316950Y-82404627D01*
X129180057Y-82329986D01*
X129161374Y-82319781D01*
X128906615Y-82181632D01*
X128680117Y-82061290D01*
X128476694Y-81956350D01*
X128291165Y-81864404D01*
X128118347Y-81783046D01*
X127953057Y-81709870D01*
X127790112Y-81642468D01*
X127624328Y-81578435D01*
X127450524Y-81515364D01*
X127363575Y-81485017D01*
X126709331Y-81277897D01*
X126039967Y-81103251D01*
X125353101Y-80960578D01*
X124646349Y-80849376D01*
X123994985Y-80776127D01*
X123845357Y-80764743D01*
X123663758Y-80754875D01*
X123457267Y-80746619D01*
X123232966Y-80740070D01*
X122997933Y-80735324D01*
X122759250Y-80732475D01*
X122523995Y-80731620D01*
X122299248Y-80732854D01*
X122299248Y-80732854D01*
G37*
X122299248Y-80732854D02*
X122092090Y-80736271D01*
X121909601Y-80741968D01*
X121811314Y-80746723D01*
X121192974Y-80792755D01*
X120561855Y-80860311D01*
X119930579Y-80947668D01*
X119311767Y-81053103D01*
X118789676Y-81159006D01*
X118466300Y-81238115D01*
X118177641Y-81326563D01*
X117920091Y-81426064D01*
X117690042Y-81538331D01*
X117483885Y-81665080D01*
X117298013Y-81808023D01*
X117166635Y-81930012D01*
X116994715Y-82124119D01*
X116847385Y-82337382D01*
X116723879Y-82572003D01*
X116623432Y-82830184D01*
X116545279Y-83114130D01*
X116488652Y-83426042D01*
X116452788Y-83768123D01*
X116439811Y-84020855D01*
X116427883Y-84392086D01*
X116591934Y-84235268D01*
X116748267Y-84094508D01*
X116897613Y-83979728D01*
X117051714Y-83882613D01*
X117196690Y-83807029D01*
X117369883Y-83731892D01*
X117535144Y-83679250D01*
X117706617Y-83645655D01*
X117898443Y-83627661D01*
X117941051Y-83625607D01*
X118140763Y-83624591D01*
X118337626Y-83639398D01*
X118536450Y-83671372D01*
X118742048Y-83721855D01*
X118959231Y-83792193D01*
X119192810Y-83883728D01*
X119447599Y-83997803D01*
X119679590Y-84111052D01*
X120158150Y-84369738D01*
X120603220Y-84647370D01*
X121016016Y-84944941D01*
X121397756Y-85263444D01*
X121749658Y-85603872D01*
X122072939Y-85967219D01*
X122280408Y-86232426D01*
X122538616Y-86612082D01*
X122770545Y-87018572D01*
X122974622Y-87448450D01*
X123149273Y-87898273D01*
X123292922Y-88364597D01*
X123340643Y-88552029D01*
X123405857Y-88845124D01*
X123458775Y-89131904D01*
X123500049Y-89419304D01*
X123530334Y-89714260D01*
X123550284Y-90023708D01*
X123560553Y-90354583D01*
X123561796Y-90713821D01*
X123559767Y-90875791D01*
X123540274Y-91426194D01*
X123499715Y-91964996D01*
X123436975Y-92500258D01*
X123350942Y-93040041D01*
X123240503Y-93592407D01*
X123106357Y-94158277D01*
X123084754Y-94242886D01*
X123063709Y-94324068D01*
X123042588Y-94403805D01*
X123020756Y-94484079D01*
X122997578Y-94566870D01*
X122972419Y-94654161D01*
X122944644Y-94747933D01*
X122913618Y-94850168D01*
X122878706Y-94962847D01*
X122839273Y-95087953D01*
X122794684Y-95227465D01*
X122744305Y-95383367D01*
X122687500Y-95557640D01*
X122623634Y-95752265D01*
X122552073Y-95969224D01*
X122472181Y-96210499D01*
X122383323Y-96478071D01*
X122284865Y-96773921D01*
X122176171Y-97100032D01*
X122056607Y-97458385D01*
X121925538Y-97850961D01*
X121865767Y-98029932D01*
X121732903Y-98427751D01*
X121611839Y-98790295D01*
X121501995Y-99119354D01*
X121402791Y-99416718D01*
X121313648Y-99684176D01*
X121233984Y-99923517D01*
X121163222Y-100136531D01*
X121100779Y-100325007D01*
X121046078Y-100490735D01*
X120998537Y-100635505D01*
X120957578Y-100761106D01*
X120922619Y-100869328D01*
X120893081Y-100961960D01*
X120868385Y-101040791D01*
X120847950Y-101107611D01*
X120831197Y-101164210D01*
X120817545Y-101212376D01*
X120806415Y-101253901D01*
X120797227Y-101290572D01*
X120789401Y-101324181D01*
X120782357Y-101356515D01*
X120775515Y-101389365D01*
X120772678Y-101403179D01*
X120726266Y-101688194D01*
X120700524Y-101983356D01*
X120695611Y-102278054D01*
X120711689Y-102561675D01*
X120748920Y-102823607D01*
X120750958Y-102834021D01*
X120840258Y-103184883D01*
X120967505Y-103528881D01*
X121131931Y-103864462D01*
X121332769Y-104190073D01*
X121569251Y-104504163D01*
X121587782Y-104526471D01*
X121776445Y-104737675D01*
X121998992Y-104961163D01*
X122252950Y-105194902D01*
X122535842Y-105436861D01*
X122845196Y-105685007D01*
X123178534Y-105937308D01*
X123533383Y-106191731D01*
X123907268Y-106446245D01*
X124000998Y-106508060D01*
X124161010Y-106618363D01*
X124287794Y-106719195D01*
X124384669Y-106814911D01*
X124454957Y-106909864D01*
X124501978Y-107008411D01*
X124529053Y-107114905D01*
X124538796Y-107213347D01*
X124540029Y-107274572D01*
X124537304Y-107334815D01*
X124529468Y-107401467D01*
X124515370Y-107481920D01*
X124493856Y-107583566D01*
X124463775Y-107713797D01*
X124455027Y-107750655D01*
X124431272Y-107851410D01*
X124400353Y-107984152D01*
X124363679Y-108142747D01*
X124322660Y-108321056D01*
X124278706Y-108512944D01*
X124233226Y-108712274D01*
X124187630Y-108912910D01*
X124161093Y-109030086D01*
X124079622Y-109389424D01*
X124005564Y-109714007D01*
X123938087Y-110007277D01*
X123876356Y-110272676D01*
X123819538Y-110513645D01*
X123766799Y-110733626D01*
X123717306Y-110936060D01*
X123670225Y-111124390D01*
X123624723Y-111302058D01*
X123579965Y-111472504D01*
X123535118Y-111639171D01*
X123489349Y-111805501D01*
X123485463Y-111819467D01*
X123377514Y-112232441D01*
X123291041Y-112621646D01*
X123224964Y-112995220D01*
X123178207Y-113361304D01*
X123149689Y-113728039D01*
X123138334Y-114103564D01*
X123140974Y-114419711D01*
X123149634Y-114678634D01*
X123163247Y-114912181D01*
X123183066Y-115133878D01*
X123210340Y-115357248D01*
X123246323Y-115595819D01*
X123254226Y-115643855D01*
X123336951Y-116068052D01*
X123446890Y-116514136D01*
X123582283Y-116977774D01*
X123741373Y-117454634D01*
X123922398Y-117940381D01*
X124123601Y-118430681D01*
X124343222Y-118921202D01*
X124579502Y-119407609D01*
X124830682Y-119885569D01*
X125095002Y-120350749D01*
X125304519Y-120694548D01*
X125369779Y-120796873D01*
X125446939Y-120915404D01*
X125532861Y-121045538D01*
X125624405Y-121182671D01*
X125718433Y-121322201D01*
X125811806Y-121459523D01*
X125901385Y-121590034D01*
X125984032Y-121709132D01*
X126056607Y-121812213D01*
X126115972Y-121894674D01*
X126158987Y-121951912D01*
X126176048Y-121972689D01*
X126187953Y-121976927D01*
X126192854Y-121953102D01*
X126190715Y-121898310D01*
X126181499Y-121809645D01*
X126173146Y-121743455D01*
X126127073Y-121318172D01*
X126096235Y-120864383D01*
X126080673Y-120389586D01*
X126080428Y-119901276D01*
X126095544Y-119406952D01*
X126126061Y-118914110D01*
X126155555Y-118584394D01*
X126183964Y-118319613D01*
X126215663Y-118056459D01*
X126251193Y-117792400D01*
X126291092Y-117524907D01*
X126335899Y-117251450D01*
X126386154Y-116969497D01*
X126442395Y-116676519D01*
X126505161Y-116369985D01*
X126574992Y-116047364D01*
X126652426Y-115706127D01*
X126738002Y-115343743D01*
X126832260Y-114957682D01*
X126935738Y-114545413D01*
X127048975Y-114104407D01*
X127172511Y-113632131D01*
X127306884Y-113126057D01*
X127362542Y-112918240D01*
X127439715Y-112630715D01*
X127507361Y-112378747D01*
X127566091Y-112160155D01*
X127616518Y-111972757D01*
X127659253Y-111814371D01*
X127694910Y-111682817D01*
X127724100Y-111575913D01*
X127747436Y-111491477D01*
X127765530Y-111427328D01*
X127778994Y-111381285D01*
X127788441Y-111351166D01*
X127794482Y-111334790D01*
X127797730Y-111329975D01*
X127798798Y-111334541D01*
X127798296Y-111346304D01*
X127796839Y-111363085D01*
X127795756Y-111374701D01*
X127789978Y-111442254D01*
X127782941Y-111531272D01*
X127776023Y-111624234D01*
X127775007Y-111638471D01*
X127766757Y-111745385D01*
X127754642Y-111888489D01*
X127738931Y-112065112D01*
X127719892Y-112272587D01*
X127697794Y-112508244D01*
X127672905Y-112769414D01*
X127645495Y-113053428D01*
X127615830Y-113357618D01*
X127584181Y-113679315D01*
X127550816Y-114015850D01*
X127516002Y-114364553D01*
X127480010Y-114722757D01*
X127443107Y-115087791D01*
X127405561Y-115456988D01*
X127367642Y-115827678D01*
X127329618Y-116197193D01*
X127291758Y-116562864D01*
X127254329Y-116922021D01*
X127217602Y-117271996D01*
X127181843Y-117610121D01*
X127147322Y-117933725D01*
X127114308Y-118240140D01*
X127083069Y-118526698D01*
X127069184Y-118652778D01*
X126957981Y-119659009D01*
X126956671Y-120284240D01*
X126956800Y-120484160D01*
X126958261Y-120651350D01*
X126961290Y-120792142D01*
X126966123Y-120912867D01*
X126972998Y-121019857D01*
X126982150Y-121119443D01*
X126990613Y-121192778D01*
X127071137Y-121717685D01*
X127180710Y-122226782D01*
X127320661Y-122723525D01*
X127492318Y-123211366D01*
X127697010Y-123693758D01*
X127936067Y-124174155D01*
X128210816Y-124656009D01*
X128494177Y-125100471D01*
X128822258Y-125579343D01*
X129162946Y-126052895D01*
X129522727Y-126529915D01*
X129908086Y-127019189D01*
X129936374Y-127054357D01*
X130052473Y-127197704D01*
X130146096Y-127311439D01*
X130218519Y-127396980D01*
X130271020Y-127455745D01*
X130304875Y-127489150D01*
X130321361Y-127498614D01*
X130321755Y-127485553D01*
X130319944Y-127480167D01*
X130310193Y-127451329D01*
X130290679Y-127392027D01*
X130263601Y-127308996D01*
X130231156Y-127208973D01*
X130201455Y-127117036D01*
X130039148Y-126558739D01*
X129909715Y-125991069D01*
X129812188Y-125408994D01*
X129745596Y-124807485D01*
X129737838Y-124710300D01*
X129729242Y-124557307D01*
X129723775Y-124372931D01*
X129721292Y-124164725D01*
X129721651Y-123940246D01*
X129724707Y-123707050D01*
X129730315Y-123472690D01*
X129738332Y-123244724D01*
X129748612Y-123030705D01*
X129761013Y-122838190D01*
X129775390Y-122674734D01*
X129776959Y-122660026D01*
X129872445Y-121931416D01*
X130002494Y-121184787D01*
X130167117Y-120420077D01*
X130265059Y-120020471D01*
X130311476Y-119838885D01*
X130349194Y-119692675D01*
X130378989Y-119579307D01*
X130401639Y-119496246D01*
X130417919Y-119440957D01*
X130428607Y-119410906D01*
X130434480Y-119403558D01*
X130436313Y-119416378D01*
X130434884Y-119446833D01*
X130432706Y-119473394D01*
X130402128Y-119851423D01*
X130376393Y-120238040D01*
X130355658Y-120627376D01*
X130340082Y-121013565D01*
X130329822Y-121390738D01*
X130325037Y-121753029D01*
X130325884Y-122094570D01*
X130332522Y-122409494D01*
X130345108Y-122691933D01*
X130345762Y-122702880D01*
X130395891Y-123309352D01*
X130471741Y-123887986D01*
X130574080Y-124441015D01*
X130703673Y-124970673D01*
X130861289Y-125479192D01*
X131047693Y-125968807D01*
X131263653Y-126441750D01*
X131509936Y-126900254D01*
X131787308Y-127346554D01*
X132084955Y-127767471D01*
X132219924Y-127940689D01*
X132380539Y-128135333D01*
X132562880Y-128347275D01*
X132763028Y-128572390D01*
X132977062Y-128806552D01*
X133201063Y-129045634D01*
X133431111Y-129285509D01*
X133663287Y-129522053D01*
X133893670Y-129751139D01*
X134118340Y-129968639D01*
X134333378Y-130170430D01*
X134534865Y-130352383D01*
X134569321Y-130382649D01*
X135080122Y-130811399D01*
X135588859Y-131202220D01*
X136097417Y-131556056D01*
X136607681Y-131873854D01*
X137121536Y-132156561D01*
X137640869Y-132405123D01*
X138167565Y-132620486D01*
X138703510Y-132803597D01*
X139250588Y-132955402D01*
X139810685Y-133076846D01*
X140007027Y-133111830D01*
X140167681Y-133138015D01*
X140291677Y-133156152D01*
X140380565Y-133166384D01*
X140435894Y-133168857D01*
X140459214Y-133163714D01*
X140455161Y-133153581D01*
X140432620Y-133138225D01*
X140382883Y-133106758D01*
X140312294Y-133063121D01*
X140227199Y-133011253D01*
X140182600Y-132984312D01*
X139662177Y-132657722D01*
X139148467Y-132309637D01*
X138650545Y-131946569D01*
X138177486Y-131575031D01*
X137925908Y-131364921D01*
X137832716Y-131282290D01*
X137719437Y-131177079D01*
X137591137Y-131054394D01*
X137452883Y-130919338D01*
X137309739Y-130777015D01*
X137166772Y-130632531D01*
X137029048Y-130490988D01*
X136901633Y-130357491D01*
X136789593Y-130237144D01*
X136697993Y-130135052D01*
X136653370Y-130082778D01*
X136270501Y-129594615D01*
X135925425Y-129098369D01*
X135617374Y-128592277D01*
X135345578Y-128074578D01*
X135109270Y-127543510D01*
X134907680Y-126997310D01*
X134740039Y-126434218D01*
X134605580Y-125852471D01*
X134503532Y-125250307D01*
X134485217Y-125113842D01*
X134472136Y-125007565D01*
X134461688Y-124914635D01*
X134454585Y-124842084D01*
X134451540Y-124796945D01*
X134451978Y-124785875D01*
X134461856Y-124792982D01*
X134482258Y-124829007D01*
X134509133Y-124886610D01*
X134514685Y-124899503D01*
X134539936Y-124956222D01*
X134579070Y-125040817D01*
X134628697Y-125146113D01*
X134685424Y-125264935D01*
X134745861Y-125390109D01*
X134771312Y-125442394D01*
X135088527Y-126050339D01*
X135433166Y-126630467D01*
X135805098Y-127182664D01*
X136204190Y-127706818D01*
X136630310Y-128202817D01*
X137083324Y-128670549D01*
X137563101Y-129109901D01*
X138069508Y-129520760D01*
X138602412Y-129903015D01*
X139161682Y-130256552D01*
X139747184Y-130581260D01*
X140358786Y-130877025D01*
X140996355Y-131143737D01*
X141659760Y-131381281D01*
X141839039Y-131439064D01*
X142585980Y-131656016D01*
X143334212Y-131836217D01*
X144088888Y-131980673D01*
X144855163Y-132090390D01*
X145516600Y-132156854D01*
X145638738Y-132164570D01*
X145793045Y-132170773D01*
X145972645Y-132175463D01*
X146170659Y-132178642D01*
X146380210Y-132180308D01*
X146594419Y-132180463D01*
X146806410Y-132179106D01*
X147009304Y-132176239D01*
X147196224Y-132171861D01*
X147360291Y-132165972D01*
X147494629Y-132158574D01*
X147519292Y-132156760D01*
X147681844Y-132142935D01*
X147856640Y-132125974D01*
X148039111Y-132106498D01*
X148224691Y-132085126D01*
X148408810Y-132062480D01*
X148586902Y-132039179D01*
X148754399Y-132015844D01*
X148906732Y-131993094D01*
X149039334Y-131971550D01*
X149147638Y-131951833D01*
X149227075Y-131934561D01*
X149273077Y-131920356D01*
X149277754Y-131918002D01*
X149292550Y-131903767D01*
X149283731Y-131900449D01*
X149248289Y-131896579D01*
X149180059Y-131886503D01*
X149084662Y-131871209D01*
X148967718Y-131851687D01*
X148834847Y-131828924D01*
X148691671Y-131803909D01*
X148543810Y-131777632D01*
X148396885Y-131751080D01*
X148256516Y-131725243D01*
X148128325Y-131701109D01*
X148017931Y-131679667D01*
X147948217Y-131665534D01*
X147210273Y-131496991D01*
X146498063Y-131304300D01*
X145812128Y-131087851D01*
X145153010Y-130848030D01*
X144521249Y-130585227D01*
X143917386Y-130299832D01*
X143341963Y-129992232D01*
X142795521Y-129662815D01*
X142278600Y-129311972D01*
X141791743Y-128940090D01*
X141335490Y-128547558D01*
X140910383Y-128134765D01*
X140516961Y-127702100D01*
X140155768Y-127249951D01*
X139827343Y-126778706D01*
X139532228Y-126288755D01*
X139270963Y-125780486D01*
X139052752Y-125276317D01*
X138865208Y-124751905D01*
X138712004Y-124215059D01*
X138592618Y-123663366D01*
X138506528Y-123094413D01*
X138453574Y-122511625D01*
X138446489Y-122386267D01*
X138440829Y-122262413D01*
X138436726Y-122146110D01*
X138434314Y-122043410D01*
X138433727Y-121960359D01*
X138435099Y-121903007D01*
X138438564Y-121877403D01*
X138439525Y-121876625D01*
X138458990Y-121882504D01*
X138509076Y-121898735D01*
X138583364Y-121923209D01*
X138675439Y-121953817D01*
X138736083Y-121974092D01*
X138835756Y-122006916D01*
X138921627Y-122034118D01*
X138987256Y-122053743D01*
X139026200Y-122063837D01*
X139034071Y-122064513D01*
X139030725Y-122044509D01*
X139016756Y-121994270D01*
X138994185Y-121920535D01*
X138965032Y-121830044D01*
X138951801Y-121790126D01*
X138842308Y-121428976D01*
X138745285Y-121040960D01*
X138663035Y-120636939D01*
X138597858Y-120227777D01*
X138566531Y-119971625D01*
X138557649Y-119861532D01*
X138550648Y-119718693D01*
X138545497Y-119549393D01*
X138542162Y-119359913D01*
X138540614Y-119156540D01*
X138540819Y-118945556D01*
X138542747Y-118733245D01*
X138546364Y-118525891D01*
X138551641Y-118329779D01*
X138558544Y-118151192D01*
X138567042Y-117996414D01*
X138577103Y-117871728D01*
X138577153Y-117871240D01*
X138596650Y-117684715D01*
X138617218Y-117502175D01*
X138639432Y-117319971D01*
X138663864Y-117134458D01*
X138691090Y-116941988D01*
X138721682Y-116738914D01*
X138756213Y-116521589D01*
X138795259Y-116286366D01*
X138839393Y-116029598D01*
X138889188Y-115747638D01*
X138945217Y-115436839D01*
X139008056Y-115093554D01*
X139048967Y-114872086D01*
X139106363Y-114563639D01*
X139162162Y-114266814D01*
X139217108Y-113977938D01*
X139271947Y-113693336D01*
X139327424Y-113409335D01*
X139384284Y-113122262D01*
X139443271Y-112828442D01*
X139505130Y-112524201D01*
X139570607Y-112205867D01*
X139640445Y-111869764D01*
X139715391Y-111512220D01*
X139796188Y-111129561D01*
X139883582Y-110718112D01*
X139978318Y-110274200D01*
X140033415Y-110016778D01*
X140111253Y-109653332D01*
X140181307Y-109325956D01*
X140244016Y-109032516D01*
X140299817Y-108770881D01*
X140349148Y-108538917D01*
X140392448Y-108334491D01*
X140430154Y-108155472D01*
X140462704Y-107999726D01*
X140490535Y-107865121D01*
X140514087Y-107749523D01*
X140533796Y-107650801D01*
X140543841Y-107599061D01*
X139285802Y-107599061D01*
X139285509Y-107965430D01*
X139275891Y-108346420D01*
X139256999Y-108737378D01*
X139228881Y-109133650D01*
X139191588Y-109530583D01*
X139155752Y-109840932D01*
X139078042Y-110385237D01*
X138979003Y-110952037D01*
X138860381Y-111532292D01*
X138723923Y-112116961D01*
X138689479Y-112253932D01*
X138652389Y-112398857D01*
X138617692Y-112532846D01*
X138584458Y-112658845D01*
X138551760Y-112779803D01*
X138518670Y-112898665D01*
X138484260Y-113018380D01*
X138447602Y-113141894D01*
X138407768Y-113272154D01*
X138363830Y-113412107D01*
X138314860Y-113564700D01*
X138259930Y-113732881D01*
X138198112Y-113919595D01*
X138128478Y-114127791D01*
X138050100Y-114360415D01*
X137962050Y-114620415D01*
X137863399Y-114910737D01*
X137753221Y-115234328D01*
X137723527Y-115321471D01*
X137612166Y-115657077D01*
X137516901Y-115964167D01*
X137436127Y-116249062D01*
X137368239Y-116518084D01*
X137311629Y-116777553D01*
X137264693Y-117033791D01*
X137229574Y-117265548D01*
X137219670Y-117358609D01*
X137211144Y-117479592D01*
X137204109Y-117621306D01*
X137198677Y-117776560D01*
X137194962Y-117938161D01*
X137193075Y-118098919D01*
X137193129Y-118251641D01*
X137195237Y-118389138D01*
X137199511Y-118504216D01*
X137206064Y-118589685D01*
X137208542Y-118608817D01*
X137215449Y-118665798D01*
X137216882Y-118703043D01*
X137214396Y-118711394D01*
X137200136Y-118696552D01*
X137166693Y-118655481D01*
X137118129Y-118593357D01*
X137058511Y-118515360D01*
X137011195Y-118452509D01*
X136774157Y-118114982D01*
X136568498Y-117776157D01*
X136391518Y-117429886D01*
X136240517Y-117070020D01*
X136112794Y-116690408D01*
X136005649Y-116284903D01*
X135953665Y-116044394D01*
X135915980Y-115839821D01*
X135880372Y-115615087D01*
X135848783Y-115384440D01*
X135823154Y-115162129D01*
X135805428Y-114962403D01*
X135804574Y-114950240D01*
X135797893Y-114865802D01*
X135790732Y-114795841D01*
X135784134Y-114749653D01*
X135780688Y-114736865D01*
X135773737Y-114751401D01*
X135757936Y-114800113D01*
X135734314Y-114879368D01*
X135703899Y-114985532D01*
X135667719Y-115114974D01*
X135626801Y-115264061D01*
X135582175Y-115429161D01*
X135540127Y-115586788D01*
X135489431Y-115777959D01*
X135438798Y-115968824D01*
X135389744Y-116153672D01*
X135343787Y-116326793D01*
X135302442Y-116482474D01*
X135267226Y-116615004D01*
X135239655Y-116718672D01*
X135228115Y-116762005D01*
X135146222Y-117069309D01*
X135065796Y-117006897D01*
X135027107Y-116973778D01*
X134966681Y-116918260D01*
X134890225Y-116845763D01*
X134803446Y-116761705D01*
X134712050Y-116671506D01*
X134701033Y-116660516D01*
X134428387Y-116368560D01*
X134192305Y-116072849D01*
X133990272Y-115769462D01*
X133819774Y-115454474D01*
X133678298Y-115123962D01*
X133630212Y-114989317D01*
X133556186Y-114748506D01*
X133498937Y-114509975D01*
X133457450Y-114266020D01*
X133430714Y-114008936D01*
X133417713Y-113731019D01*
X133417436Y-113424564D01*
X133418360Y-113378712D01*
X133429248Y-113092459D01*
X133449476Y-112819135D01*
X133480339Y-112549604D01*
X133523130Y-112274730D01*
X133579143Y-111985376D01*
X133649671Y-111672405D01*
X133674432Y-111570187D01*
X133697943Y-111472743D01*
X133717113Y-111389872D01*
X133730423Y-111328425D01*
X133736351Y-111295256D01*
X133736306Y-111291433D01*
X133719748Y-111301265D01*
X133674012Y-111331459D01*
X133601985Y-111380039D01*
X133506553Y-111445031D01*
X133390601Y-111524459D01*
X133257015Y-111616347D01*
X133108681Y-111718720D01*
X132948486Y-111829603D01*
X132830185Y-111911678D01*
X132663157Y-112027543D01*
X132505802Y-112136449D01*
X132361031Y-112236399D01*
X132231753Y-112325396D01*
X132120878Y-112401445D01*
X132031315Y-112462547D01*
X131965973Y-112506706D01*
X131927762Y-112531925D01*
X131918721Y-112537240D01*
X131911858Y-112518835D01*
X131908404Y-112467818D01*
X131908164Y-112390488D01*
X131910942Y-112293143D01*
X131916542Y-112182083D01*
X131924768Y-112063606D01*
X131935424Y-111944010D01*
X131937946Y-111919400D01*
X132001553Y-111461375D01*
X132093433Y-111030101D01*
X132213731Y-110625208D01*
X132362591Y-110246322D01*
X132540154Y-109893072D01*
X132746565Y-109565087D01*
X132946691Y-109303625D01*
X133206295Y-109020781D01*
X133495905Y-108756229D01*
X133808448Y-108515921D01*
X134121053Y-108314990D01*
X134225902Y-108253753D01*
X134336051Y-108189376D01*
X134438609Y-108129395D01*
X134520684Y-108081349D01*
X134522658Y-108080192D01*
X134799150Y-107898799D01*
X135042097Y-107698548D01*
X135251101Y-107480095D01*
X135425768Y-107244096D01*
X135565701Y-106991208D01*
X135670503Y-106722086D01*
X135739779Y-106437387D01*
X135773132Y-106137766D01*
X135776330Y-106003950D01*
X135775979Y-105931624D01*
X135774849Y-105866261D01*
X135772485Y-105802375D01*
X135768429Y-105734484D01*
X135762226Y-105657102D01*
X135753419Y-105564744D01*
X135741552Y-105451925D01*
X135726170Y-105313162D01*
X135706814Y-105142970D01*
X135699130Y-105075942D01*
X135692570Y-105016307D01*
X133051061Y-105016307D01*
X132867298Y-105004919D01*
X132627517Y-104980700D01*
X132366363Y-104937643D01*
X132095188Y-104878264D01*
X131825347Y-104805078D01*
X131568193Y-104720600D01*
X131543866Y-104711721D01*
X131413494Y-104659690D01*
X131260158Y-104592077D01*
X131094084Y-104513926D01*
X130925496Y-104430280D01*
X130764623Y-104346183D01*
X130621688Y-104266679D01*
X130530600Y-104211960D01*
X130165946Y-103966985D01*
X129815823Y-103699064D01*
X129522568Y-103448107D01*
X129459479Y-103392513D01*
X129407256Y-103348324D01*
X129372581Y-103321090D01*
X129362370Y-103315086D01*
X129344378Y-103329207D01*
X129313069Y-103364746D01*
X129298784Y-103382905D01*
X129247056Y-103450723D01*
X129861122Y-104315866D01*
X129977271Y-104479592D01*
X130086826Y-104634190D01*
X130187658Y-104776644D01*
X130277638Y-104903937D01*
X130354635Y-105013052D01*
X130416520Y-105100974D01*
X130461164Y-105164684D01*
X130486436Y-105201168D01*
X130491259Y-105208451D01*
X130498160Y-105222239D01*
X130494448Y-105225783D01*
X130475181Y-105216450D01*
X130435416Y-105191606D01*
X130370211Y-105148616D01*
X130335215Y-105125294D01*
X130016903Y-104895952D01*
X129698159Y-104633579D01*
X129384667Y-104343741D01*
X129082112Y-104032002D01*
X128796180Y-103703927D01*
X128532554Y-103365081D01*
X128521360Y-103349743D01*
X128272229Y-102984593D01*
X128047773Y-102606188D01*
X127873150Y-102269778D01*
X127777027Y-102068775D01*
X127697837Y-101892199D01*
X127632152Y-101731130D01*
X127576539Y-101576646D01*
X127527567Y-101419825D01*
X127482140Y-101253051D01*
X127436651Y-101062160D01*
X127405149Y-100893514D01*
X127386081Y-100733502D01*
X127377896Y-100568514D01*
X127379041Y-100384941D01*
X127379872Y-100356511D01*
X127384719Y-100232456D01*
X127391222Y-100137273D01*
X127400768Y-100060755D01*
X127414745Y-99992698D01*
X127434541Y-99922897D01*
X127442007Y-99899523D01*
X127467289Y-99827731D01*
X127490034Y-99773662D01*
X127506667Y-99745401D01*
X127511108Y-99743215D01*
X127529532Y-99755120D01*
X127577566Y-99787632D01*
X127652922Y-99839166D01*
X127753312Y-99908132D01*
X127876447Y-99992944D01*
X128020039Y-100092014D01*
X128181799Y-100203755D01*
X128359440Y-100326578D01*
X128550673Y-100458896D01*
X128753210Y-100599122D01*
X128964762Y-100745667D01*
X129183042Y-100896945D01*
X129405760Y-101051368D01*
X129630629Y-101207348D01*
X129855360Y-101363297D01*
X130077665Y-101517628D01*
X130295256Y-101668753D01*
X130505844Y-101815086D01*
X130707142Y-101955037D01*
X130896860Y-102087020D01*
X131072710Y-102209447D01*
X131232405Y-102320730D01*
X131373655Y-102419282D01*
X131494173Y-102503514D01*
X131591671Y-102571841D01*
X131663859Y-102622673D01*
X131708450Y-102654424D01*
X131723167Y-102665499D01*
X131704594Y-102659863D01*
X131652333Y-102641951D01*
X131569418Y-102612847D01*
X131458882Y-102573635D01*
X131323759Y-102525399D01*
X131167083Y-102469224D01*
X130991888Y-102406192D01*
X130801207Y-102337390D01*
X130598074Y-102263901D01*
X130502671Y-102229322D01*
X130294762Y-102154105D01*
X130097797Y-102083201D01*
X129914825Y-102017684D01*
X129748897Y-101958630D01*
X129603059Y-101907113D01*
X129480361Y-101864209D01*
X129383851Y-101830992D01*
X129316579Y-101808536D01*
X129281593Y-101797917D01*
X129277193Y-101797288D01*
X129285868Y-101814867D01*
X129316203Y-101858240D01*
X129364844Y-101923177D01*
X129428437Y-102005450D01*
X129503630Y-102100829D01*
X129587067Y-102205088D01*
X129675396Y-102313995D01*
X129765263Y-102423324D01*
X129853314Y-102528844D01*
X129916024Y-102602803D01*
X130008287Y-102707432D01*
X130121851Y-102830997D01*
X130250591Y-102967259D01*
X130388379Y-103109976D01*
X130529090Y-103252908D01*
X130666596Y-103389815D01*
X130794770Y-103514455D01*
X130907486Y-103620588D01*
X130975153Y-103681622D01*
X131409523Y-104038876D01*
X131860276Y-104361960D01*
X132325919Y-104649896D01*
X132804962Y-104901705D01*
X132914292Y-104953216D01*
X133051061Y-105016307D01*
X135692570Y-105016307D01*
X135686588Y-104961943D01*
X135676610Y-104861835D01*
X135669734Y-104781868D01*
X135666498Y-104728292D01*
X135667390Y-104707398D01*
X135686778Y-104713864D01*
X135727304Y-104743862D01*
X135783510Y-104792297D01*
X135849938Y-104854071D01*
X135921129Y-104924087D01*
X135991624Y-104997250D01*
X136055967Y-105068463D01*
X136063791Y-105077540D01*
X136286396Y-105366275D01*
X136475622Y-105674203D01*
X136633263Y-106004298D01*
X136656020Y-106060240D01*
X136700782Y-106183889D01*
X136747541Y-106331847D01*
X136792532Y-106490519D01*
X136831991Y-106646309D01*
X136862155Y-106785621D01*
X136871685Y-106839259D01*
X136884511Y-106910726D01*
X136896118Y-106951585D01*
X136907955Y-106960344D01*
X136921470Y-106935510D01*
X136938109Y-106875593D01*
X136959322Y-106779101D01*
X136967185Y-106740882D01*
X137014566Y-106440222D01*
X137038944Y-106123933D01*
X137039315Y-105808685D01*
X137031592Y-105674342D01*
X137015387Y-105495741D01*
X136994104Y-105320969D01*
X136966751Y-105146578D01*
X136932335Y-104969120D01*
X136889863Y-104785150D01*
X136838343Y-104591219D01*
X136776781Y-104383882D01*
X136704187Y-104159692D01*
X136619566Y-103915200D01*
X136521926Y-103646962D01*
X136410274Y-103351529D01*
X136283618Y-103025454D01*
X136228360Y-102885240D01*
X136186341Y-102777820D01*
X136150331Y-102683513D01*
X136122449Y-102608055D01*
X136104815Y-102557187D01*
X136099548Y-102536646D01*
X136099612Y-102536548D01*
X136116826Y-102545519D01*
X136159725Y-102576564D01*
X136224264Y-102626393D01*
X136306401Y-102691717D01*
X136402091Y-102769248D01*
X136507290Y-102855696D01*
X136617954Y-102947774D01*
X136730041Y-103042191D01*
X136839505Y-103135660D01*
X136891419Y-103180516D01*
X137087054Y-103353194D01*
X137287168Y-103535224D01*
X137487663Y-103722550D01*
X137684438Y-103911120D01*
X137873393Y-104096879D01*
X138050431Y-104275774D01*
X138211450Y-104443751D01*
X138352352Y-104596756D01*
X138469037Y-104730735D01*
X138511972Y-104783015D01*
X138700518Y-105048127D01*
X138863887Y-105341165D01*
X139000797Y-105659134D01*
X139109965Y-105999040D01*
X139190111Y-106357890D01*
X139192740Y-106372855D01*
X139230240Y-106634210D01*
X139258217Y-106928798D01*
X139276721Y-107251966D01*
X139285802Y-107599061D01*
X140543841Y-107599061D01*
X140550101Y-107566821D01*
X140563440Y-107495451D01*
X140574250Y-107434557D01*
X140582970Y-107382008D01*
X140590036Y-107335671D01*
X140595888Y-107293413D01*
X140600964Y-107253101D01*
X140601086Y-107252086D01*
X140608452Y-107183229D01*
X140617219Y-107089409D01*
X140626703Y-106979400D01*
X140636218Y-106861975D01*
X140645079Y-106745909D01*
X140652602Y-106639977D01*
X140658103Y-106552951D01*
X140660896Y-106493605D01*
X140661099Y-106483142D01*
X140674124Y-106483949D01*
X140711373Y-106510853D01*
X140770398Y-106561395D01*
X140848749Y-106633117D01*
X140943975Y-106723560D01*
X141053627Y-106830264D01*
X141175255Y-106950771D01*
X141306409Y-107082622D01*
X141444640Y-107223359D01*
X141587497Y-107370522D01*
X141732530Y-107521652D01*
X141877290Y-107674291D01*
X142019327Y-107825979D01*
X142156190Y-107974259D01*
X142255076Y-108082976D01*
X142930510Y-108859684D01*
X143580440Y-109665580D01*
X144204283Y-110499754D01*
X144801454Y-111361294D01*
X145371368Y-112249288D01*
X145913442Y-113162825D01*
X146427090Y-114100993D01*
X146911729Y-115062881D01*
X147366775Y-116047577D01*
X147380461Y-116078591D01*
X147443353Y-116221994D01*
X147511893Y-116379428D01*
X147580616Y-116538266D01*
X147644058Y-116685881D01*
X147693946Y-116803005D01*
X147767877Y-116974635D01*
X147841103Y-117137642D01*
X147915630Y-117295517D01*
X147993463Y-117451752D01*
X148076607Y-117609838D01*
X148167068Y-117773267D01*
X148266851Y-117945528D01*
X148377962Y-118130114D01*
X148502405Y-118330516D01*
X148642186Y-118550224D01*
X148799311Y-118792731D01*
X148975784Y-119061527D01*
X149093154Y-119238932D01*
X149238095Y-119456013D01*
X149364186Y-119641585D01*
X149472798Y-119797576D01*
X149565305Y-119925914D01*
X149643081Y-120028527D01*
X149707498Y-120107343D01*
X149729640Y-120132426D01*
X149780509Y-120186860D01*
X149846923Y-120255501D01*
X149924557Y-120334128D01*
X150009086Y-120418519D01*
X150096183Y-120504453D01*
X150181523Y-120587710D01*
X150260782Y-120664068D01*
X150329632Y-120729305D01*
X150383750Y-120779202D01*
X150418809Y-120809536D01*
X150430523Y-120816404D01*
X150426560Y-120796351D01*
X150415106Y-120741164D01*
X150396812Y-120653930D01*
X150372332Y-120537733D01*
X150342318Y-120395660D01*
X150307422Y-120230795D01*
X150268296Y-120046225D01*
X150225593Y-119845034D01*
X150179965Y-119630309D01*
X150146170Y-119471417D01*
X150091980Y-119215950D01*
X150035120Y-118946455D01*
X149976956Y-118669499D01*
X149918856Y-118391649D01*
X149862187Y-118119472D01*
X149808317Y-117859534D01*
X149758613Y-117618403D01*
X149714443Y-117402645D01*
X149678713Y-117226471D01*
X149617433Y-116924490D01*
X149561948Y-116656201D01*
X149511072Y-116416846D01*
X149463619Y-116201667D01*
X149418401Y-116005909D01*
X149374230Y-115824814D01*
X149329920Y-115653626D01*
X149284285Y-115487586D01*
X149236135Y-115321939D01*
X149184286Y-115151928D01*
X149127549Y-114972794D01*
X149078994Y-114823240D01*
X148954574Y-114455742D01*
X148822171Y-114089763D01*
X148680449Y-113722499D01*
X148528070Y-113351146D01*
X148363698Y-112972900D01*
X148185996Y-112584956D01*
X147993628Y-112184510D01*
X147785257Y-111768757D01*
X147559546Y-111334895D01*
X147315159Y-110880118D01*
X147050759Y-110401623D01*
X146765009Y-109896604D01*
X146564761Y-109548595D01*
X146486325Y-109412708D01*
X146414757Y-109287959D01*
X146352268Y-109178267D01*
X146301074Y-109087549D01*
X146263388Y-109019725D01*
X146241423Y-108978710D01*
X146236625Y-108967855D01*
X146256719Y-108969323D01*
X146300812Y-108979159D01*
X146318776Y-108983913D01*
X146372844Y-109008113D01*
X146440853Y-109056146D01*
X146526962Y-109131092D01*
X146562001Y-109164115D01*
X147109624Y-109670356D01*
X147688686Y-110171717D01*
X148291568Y-110662177D01*
X148910650Y-111135711D01*
X149538312Y-111586297D01*
X150127677Y-111982469D01*
X150581738Y-112269570D01*
X151037408Y-112541410D01*
X151504735Y-112803683D01*
X151993767Y-113062082D01*
X152347347Y-113240224D01*
X153064193Y-113579296D01*
X153782350Y-113887247D01*
X154507088Y-114165861D01*
X155243676Y-114416925D01*
X155997383Y-114642222D01*
X156773478Y-114843540D01*
X157577232Y-115022662D01*
X157655056Y-115038557D01*
X157828597Y-115073859D01*
X157980538Y-115105301D01*
X158115647Y-115134235D01*
X158238689Y-115162013D01*
X158354432Y-115189986D01*
X158467643Y-115219506D01*
X158583088Y-115251926D01*
X158705533Y-115288596D01*
X158839746Y-115330868D01*
X158990494Y-115380095D01*
X159162542Y-115437627D01*
X159360658Y-115504817D01*
X159589608Y-115583017D01*
X159660194Y-115607174D01*
X159815202Y-115659893D01*
X159958362Y-115707926D01*
X160085528Y-115749931D01*
X160192556Y-115784569D01*
X160275299Y-115810498D01*
X160329612Y-115826377D01*
X160351351Y-115830866D01*
X160351505Y-115830770D01*
X160340924Y-115814898D01*
X160306245Y-115774929D01*
X160250947Y-115714451D01*
X160178511Y-115637053D01*
X160092417Y-115546322D01*
X159996145Y-115445846D01*
X159893175Y-115339213D01*
X159786988Y-115230010D01*
X159681065Y-115121826D01*
X159578884Y-115018248D01*
X159483927Y-114922864D01*
X159399673Y-114839262D01*
X159329604Y-114771029D01*
X159277198Y-114721754D01*
X159265934Y-114711639D01*
X159155150Y-114617412D01*
X159029708Y-114517839D01*
X158887591Y-114411590D01*
X158726777Y-114297333D01*
X158545249Y-114173738D01*
X158340987Y-114039473D01*
X158111972Y-113893207D01*
X157856185Y-113733609D01*
X157571606Y-113559347D01*
X157256217Y-113369090D01*
X156975908Y-113201825D01*
X156804487Y-113099920D01*
X156618883Y-112989509D01*
X156427796Y-112875775D01*
X156239932Y-112763899D01*
X156063993Y-112659065D01*
X155908683Y-112566454D01*
X155842677Y-112527064D01*
X155737707Y-112464898D01*
X155603202Y-112386039D01*
X155443623Y-112293064D01*
X155263430Y-112188550D01*
X155067085Y-112075072D01*
X154859048Y-111955209D01*
X154643778Y-111831537D01*
X154425738Y-111706633D01*
X154209387Y-111583074D01*
X154152600Y-111550711D01*
X153845775Y-111375767D01*
X153570059Y-111218187D01*
X153322472Y-111076225D01*
X153100035Y-110948138D01*
X152899771Y-110832182D01*
X152718700Y-110726611D01*
X152553844Y-110629681D01*
X152402223Y-110539649D01*
X152260860Y-110454770D01*
X152126775Y-110373299D01*
X151996991Y-110293492D01*
X151868527Y-110213605D01*
X151856831Y-110206291D01*
X151342504Y-109874077D01*
X150830550Y-109523004D01*
X150324295Y-109155934D01*
X149827069Y-108775727D01*
X149342199Y-108385245D01*
X148873012Y-107987350D01*
X148422838Y-107584903D01*
X147995003Y-107180767D01*
X147592835Y-106777801D01*
X147219664Y-106378869D01*
X146878815Y-105986831D01*
X146712368Y-105782773D01*
X146350539Y-105306785D01*
X146022902Y-104829723D01*
X145725015Y-104344664D01*
X145452432Y-103844683D01*
X145392125Y-103725394D01*
X145325849Y-103590617D01*
X145264699Y-103461940D01*
X145206394Y-103333886D01*
X145197299Y-103312949D01*
X143237281Y-103312949D01*
X143236213Y-103598394D01*
X143230600Y-104673009D01*
X143152446Y-104684890D01*
X143079584Y-104695114D01*
X143036242Y-104697019D01*
X143013405Y-104688789D01*
X143002062Y-104668606D01*
X142997952Y-104653742D01*
X142987450Y-104609341D01*
X142969840Y-104531779D01*
X142945769Y-104424048D01*
X142915886Y-104289139D01*
X142880839Y-104130045D01*
X142841276Y-103949755D01*
X142797844Y-103751262D01*
X142751192Y-103537556D01*
X142701966Y-103311630D01*
X142650817Y-103076475D01*
X142598390Y-102835082D01*
X142545334Y-102590442D01*
X142492298Y-102345547D01*
X142439928Y-102103389D01*
X142388873Y-101866958D01*
X142355601Y-101712624D01*
X139641958Y-101712624D01*
X139635612Y-101719231D01*
X139615990Y-101717362D01*
X139578442Y-101705594D01*
X139518321Y-101682508D01*
X139430979Y-101646681D01*
X139329188Y-101604025D01*
X139006089Y-101451563D01*
X138717317Y-101280466D01*
X138462830Y-101090692D01*
X138242586Y-100882200D01*
X138056541Y-100654949D01*
X137904653Y-100408897D01*
X137786881Y-100144003D01*
X137763402Y-100076761D01*
X137736736Y-99986540D01*
X137706168Y-99866845D01*
X137673811Y-99726813D01*
X137641780Y-99575583D01*
X137613040Y-99426932D01*
X137595850Y-99331749D01*
X137574221Y-99209526D01*
X137548739Y-99063735D01*
X137519990Y-98897851D01*
X137488560Y-98715347D01*
X137455033Y-98519697D01*
X137419996Y-98314373D01*
X137384035Y-98102851D01*
X137347736Y-97888603D01*
X137311683Y-97675102D01*
X137276463Y-97465823D01*
X137242661Y-97264239D01*
X137211564Y-97078013D01*
X133221602Y-97078013D01*
X133048409Y-97118633D01*
X132935203Y-97142926D01*
X132802927Y-97167794D01*
X132665087Y-97190993D01*
X132535187Y-97210279D01*
X132426730Y-97223408D01*
X132406292Y-97225317D01*
X132314506Y-97230633D01*
X132194163Y-97233867D01*
X132055723Y-97235099D01*
X131909646Y-97234405D01*
X131766392Y-97231864D01*
X131636421Y-97227554D01*
X131530194Y-97221552D01*
X131494939Y-97218522D01*
X131041451Y-97154447D01*
X130585241Y-97052609D01*
X130128304Y-96914039D01*
X129672635Y-96739766D01*
X129220229Y-96530819D01*
X128773083Y-96288228D01*
X128333191Y-96013021D01*
X127902548Y-95706229D01*
X127483151Y-95368881D01*
X127076993Y-95002005D01*
X126940565Y-94869030D01*
X126521184Y-94426461D01*
X126132959Y-93963594D01*
X125777346Y-93482411D01*
X125455799Y-92984896D01*
X125169774Y-92473034D01*
X125138862Y-92412625D01*
X124909179Y-91926102D01*
X124715958Y-91443512D01*
X124557618Y-90959859D01*
X124432579Y-90470144D01*
X124339259Y-89969371D01*
X124316913Y-89814009D01*
X124309328Y-89744615D01*
X124301757Y-89652241D01*
X124294422Y-89542602D01*
X124287543Y-89421411D01*
X124281342Y-89294381D01*
X124276040Y-89167225D01*
X124271857Y-89045656D01*
X124269015Y-88935388D01*
X124267734Y-88842135D01*
X124268236Y-88771609D01*
X124270742Y-88729523D01*
X124274604Y-88720373D01*
X124284508Y-88740712D01*
X124306404Y-88792447D01*
X124338240Y-88870505D01*
X124377966Y-88969816D01*
X124423531Y-89085308D01*
X124460314Y-89179526D01*
X124549138Y-89407029D01*
X124627162Y-89604063D01*
X124697168Y-89776802D01*
X124761939Y-89931419D01*
X124824258Y-90074087D01*
X124886908Y-90210977D01*
X124952670Y-90348263D01*
X125024327Y-90492118D01*
X125104662Y-90648714D01*
X125196458Y-90824223D01*
X125232653Y-90892861D01*
X125298844Y-91017812D01*
X125358896Y-91130456D01*
X125410469Y-91226464D01*
X125451224Y-91301503D01*
X125478820Y-91351244D01*
X125490918Y-91371355D01*
X125491248Y-91371554D01*
X125486782Y-91352505D01*
X125472595Y-91299659D01*
X125449742Y-91216783D01*
X125419276Y-91107640D01*
X125382253Y-90975997D01*
X125339728Y-90825619D01*
X125292753Y-90660271D01*
X125252356Y-90518608D01*
X125157707Y-90185772D01*
X125073608Y-89886668D01*
X124999126Y-89617676D01*
X124933333Y-89375174D01*
X124875298Y-89155542D01*
X124824090Y-88955159D01*
X124778779Y-88770404D01*
X124738434Y-88597657D01*
X124702125Y-88433297D01*
X124668923Y-88273703D01*
X124647054Y-88163009D01*
X124625785Y-88046392D01*
X124610829Y-87944592D01*
X124601097Y-87845296D01*
X124595498Y-87736193D01*
X124592942Y-87604972D01*
X124592546Y-87547548D01*
X124593362Y-87393967D01*
X124598301Y-87270539D01*
X124608712Y-87168440D01*
X124625943Y-87078845D01*
X124651342Y-86992929D01*
X124686259Y-86901867D01*
X124694056Y-86883312D01*
X124728584Y-86802013D01*
X124970541Y-87326203D01*
X125139732Y-87691734D01*
X125294839Y-88024607D01*
X125437401Y-88327983D01*
X125568957Y-88605023D01*
X125691045Y-88858886D01*
X125805203Y-89092735D01*
X125912971Y-89309729D01*
X126015887Y-89513029D01*
X126115490Y-89705796D01*
X126213318Y-89891190D01*
X126276767Y-90009394D01*
X126581414Y-90553676D01*
X126887693Y-91061397D01*
X127197321Y-91535072D01*
X127512016Y-91977217D01*
X127833496Y-92390348D01*
X128163478Y-92776980D01*
X128176436Y-92791437D01*
X128259670Y-92882835D01*
X128346145Y-92975529D01*
X128432007Y-93065636D01*
X128513401Y-93149277D01*
X128586470Y-93222569D01*
X128647362Y-93281634D01*
X128692221Y-93322588D01*
X128717191Y-93341552D01*
X128720670Y-93339348D01*
X128710431Y-93318495D01*
X128683686Y-93266387D01*
X128642163Y-93186329D01*
X128587588Y-93081627D01*
X128521690Y-92955589D01*
X128446194Y-92811520D01*
X128362829Y-92652726D01*
X128273321Y-92482515D01*
X128239715Y-92418677D01*
X128148671Y-92245600D01*
X128063374Y-92083099D01*
X127985519Y-91934426D01*
X127916801Y-91802834D01*
X127858913Y-91691575D01*
X127813549Y-91603901D01*
X127782404Y-91543063D01*
X127767171Y-91512313D01*
X127765908Y-91509204D01*
X127781095Y-91491680D01*
X127818231Y-91464588D01*
X127864675Y-91435677D01*
X127907789Y-91412696D01*
X127934933Y-91403393D01*
X127937554Y-91403980D01*
X127951246Y-91420271D01*
X127987382Y-91465340D01*
X128044365Y-91537159D01*
X128120602Y-91633696D01*
X128214498Y-91752923D01*
X128324458Y-91892809D01*
X128448887Y-92051323D01*
X128586191Y-92226437D01*
X128734775Y-92416119D01*
X128893044Y-92618340D01*
X129059404Y-92831070D01*
X129211754Y-93026029D01*
X129414068Y-93284937D01*
X129593782Y-93514710D01*
X129752292Y-93717057D01*
X129890993Y-93893684D01*
X130011280Y-94046299D01*
X130114547Y-94176610D01*
X130202191Y-94286326D01*
X130275607Y-94377153D01*
X130336189Y-94450799D01*
X130385333Y-94508972D01*
X130424434Y-94553380D01*
X130454887Y-94585730D01*
X130478088Y-94607730D01*
X130495432Y-94621088D01*
X130508313Y-94627511D01*
X130518127Y-94628707D01*
X130520791Y-94628278D01*
X130559202Y-94618357D01*
X130574383Y-94612508D01*
X130569007Y-94593714D01*
X130551939Y-94540871D01*
X130524162Y-94456892D01*
X130486657Y-94344693D01*
X130440408Y-94207188D01*
X130386397Y-94047292D01*
X130325606Y-93867920D01*
X130259017Y-93671986D01*
X130187614Y-93462404D01*
X130119516Y-93262972D01*
X130044546Y-93043209D01*
X129973525Y-92834184D01*
X129907438Y-92638845D01*
X129847267Y-92460137D01*
X129793995Y-92301006D01*
X129748607Y-92164399D01*
X129712084Y-92053261D01*
X129685410Y-91970538D01*
X129669569Y-91919177D01*
X129665385Y-91902204D01*
X129682024Y-91907619D01*
X129724659Y-91934314D01*
X129788913Y-91978983D01*
X129870406Y-92038322D01*
X129964760Y-92109026D01*
X130067597Y-92187791D01*
X130174538Y-92271312D01*
X130281206Y-92356284D01*
X130383220Y-92439403D01*
X130441702Y-92488127D01*
X130662639Y-92681546D01*
X130891032Y-92895274D01*
X131119054Y-93121299D01*
X131338879Y-93351612D01*
X131542677Y-93578200D01*
X131722624Y-93793053D01*
X131748730Y-93825870D01*
X132033013Y-94212803D01*
X132296480Y-94625170D01*
X132535254Y-95055701D01*
X132745454Y-95497127D01*
X132923200Y-95942179D01*
X133001881Y-96173778D01*
X133038189Y-96292615D01*
X133075887Y-96424517D01*
X133112796Y-96560984D01*
X133146735Y-96693518D01*
X133175522Y-96813619D01*
X133196977Y-96912788D01*
X133208437Y-96978772D01*
X133221602Y-97078013D01*
X137211564Y-97078013D01*
X137210864Y-97073823D01*
X137181656Y-96898050D01*
X137155623Y-96740392D01*
X137133352Y-96604323D01*
X137115428Y-96493317D01*
X137102437Y-96410847D01*
X137094963Y-96360387D01*
X137093409Y-96345226D01*
X137105226Y-96359369D01*
X137135785Y-96402419D01*
X137182537Y-96470513D01*
X137242934Y-96559790D01*
X137314426Y-96666388D01*
X137394466Y-96786446D01*
X137480504Y-96916102D01*
X137569992Y-97051494D01*
X137660382Y-97188761D01*
X137749124Y-97324040D01*
X137833671Y-97453472D01*
X137911473Y-97573193D01*
X137979982Y-97679342D01*
X138036650Y-97768058D01*
X138078927Y-97835478D01*
X138100401Y-97871016D01*
X138214784Y-98076114D01*
X138329724Y-98300603D01*
X138446760Y-98547907D01*
X138567431Y-98821451D01*
X138693277Y-99124661D01*
X138825836Y-99460962D01*
X138887449Y-99622317D01*
X138915636Y-99697594D01*
X138953476Y-99799857D01*
X138999437Y-99924877D01*
X139051989Y-100068428D01*
X139109601Y-100226284D01*
X139170740Y-100394216D01*
X139233876Y-100567997D01*
X139297478Y-100743402D01*
X139360015Y-100916202D01*
X139419955Y-101082170D01*
X139475767Y-101237080D01*
X139525920Y-101376704D01*
X139568883Y-101496815D01*
X139603125Y-101593186D01*
X139627114Y-101661591D01*
X139639319Y-101697801D01*
X139639675Y-101698962D01*
X139641958Y-101712624D01*
X142355601Y-101712624D01*
X142339781Y-101639246D01*
X142293300Y-101423244D01*
X142250077Y-101221945D01*
X142210760Y-101038338D01*
X142175998Y-100875417D01*
X142146439Y-100736171D01*
X142122729Y-100623593D01*
X142105518Y-100540673D01*
X142095452Y-100490404D01*
X142092998Y-100475585D01*
X142108306Y-100480949D01*
X142145927Y-100510882D01*
X142201725Y-100561186D01*
X142271565Y-100627665D01*
X142351311Y-100706121D01*
X142436827Y-100792358D01*
X142523976Y-100882178D01*
X142608625Y-100971384D01*
X142686636Y-101055780D01*
X142753875Y-101131168D01*
X142806205Y-101193350D01*
X142827746Y-101221235D01*
X142925414Y-101367484D01*
X143016305Y-101528178D01*
X143093917Y-101690565D01*
X143151751Y-101841895D01*
X143163077Y-101879009D01*
X143179366Y-101943982D01*
X143193348Y-102018486D01*
X143205150Y-102105482D01*
X143214897Y-102207932D01*
X143222715Y-102328795D01*
X143228730Y-102471034D01*
X143233069Y-102637607D01*
X143235856Y-102831477D01*
X143237218Y-103055604D01*
X143237281Y-103312949D01*
X145197299Y-103312949D01*
X145148653Y-103200978D01*
X145089196Y-103057738D01*
X145025741Y-102898688D01*
X144956008Y-102718350D01*
X144877717Y-102511249D01*
X144802282Y-102308855D01*
X144749699Y-102167180D01*
X144701128Y-102036461D01*
X144658332Y-101921435D01*
X144623076Y-101826839D01*
X144597124Y-101757411D01*
X144582242Y-101717887D01*
X144579709Y-101711325D01*
X144579813Y-101693642D01*
X144600978Y-101679653D01*
X144649817Y-101666403D01*
X144703062Y-101656153D01*
X144838804Y-101631894D01*
X145168641Y-101739151D01*
X145864066Y-101950150D01*
X146573542Y-102135172D01*
X147299217Y-102294524D01*
X148043237Y-102428514D01*
X148807750Y-102537446D01*
X149594902Y-102621628D01*
X150406841Y-102681366D01*
X151245714Y-102716967D01*
X152101927Y-102728735D01*
X152292787Y-102727935D01*
X152502875Y-102725577D01*
X152720545Y-102721892D01*
X152934151Y-102717107D01*
X153132047Y-102711453D01*
X153302586Y-102705157D01*
X153303542Y-102705116D01*
X153560559Y-102695432D01*
X153813690Y-102688428D01*
X154058213Y-102684099D01*
X154289405Y-102682438D01*
X154502544Y-102683442D01*
X154692908Y-102687103D01*
X154855775Y-102693418D01*
X154986422Y-102702380D01*
X155031831Y-102707083D01*
X155503274Y-102778989D01*
X155953413Y-102881134D01*
X156384814Y-103014712D01*
X156800044Y-103180915D01*
X157201669Y-103380937D01*
X157592255Y-103615973D01*
X157974370Y-103887214D01*
X158350579Y-104195856D01*
X158477534Y-104309465D01*
X158725356Y-104549700D01*
X158979840Y-104823771D01*
X159241819Y-105132661D01*
X159512123Y-105477350D01*
X159791584Y-105858819D01*
X159795615Y-105864496D01*
X159915368Y-106031109D01*
X160032392Y-106189977D01*
X160144421Y-106338308D01*
X160249190Y-106473309D01*
X160344433Y-106592188D01*
X160427885Y-106692154D01*
X160497279Y-106770414D01*
X160550350Y-106824177D01*
X160584832Y-106850650D01*
X160596600Y-106851548D01*
X160595531Y-106830811D01*
X160588418Y-106775660D01*
X160575898Y-106690179D01*
X160558610Y-106578456D01*
X160537191Y-106444578D01*
X160512278Y-106292629D01*
X160484511Y-106126697D01*
X160471580Y-106050471D01*
X160442459Y-105878907D01*
X160415493Y-105718898D01*
X160391375Y-105574642D01*
X160370798Y-105450338D01*
X160354456Y-105350184D01*
X160343043Y-105278380D01*
X160337250Y-105239123D01*
X160336661Y-105233346D01*
X160351351Y-105232452D01*
X160393284Y-105253319D01*
X160459047Y-105293473D01*
X160545229Y-105350439D01*
X160648418Y-105421741D01*
X160765202Y-105504906D01*
X160892171Y-105597458D01*
X161025912Y-105696923D01*
X161163014Y-105800826D01*
X161300066Y-105906693D01*
X161433655Y-106012047D01*
X161560371Y-106114416D01*
X161626061Y-106168684D01*
X162199563Y-106670912D01*
X162742928Y-107196097D01*
X163255183Y-107743158D01*
X163735352Y-108311010D01*
X164182461Y-108898571D01*
X164509050Y-109372009D01*
X164651292Y-109590623D01*
X164777746Y-109792133D01*
X164893678Y-109985757D01*
X165004350Y-110180715D01*
X165115027Y-110386224D01*
X165230973Y-110611503D01*
X165329051Y-110808086D01*
X165598404Y-111386786D01*
X165832154Y-111960919D01*
X166031925Y-112536127D01*
X166199341Y-113118058D01*
X166336026Y-113712355D01*
X166443605Y-114324664D01*
X166523637Y-114960009D01*
X166534327Y-115090875D01*
X166543162Y-115253421D01*
X166550106Y-115440538D01*
X166555123Y-115645116D01*
X166558177Y-115860045D01*
X166559231Y-116078218D01*
X166558250Y-116292523D01*
X166555197Y-116495853D01*
X166550036Y-116681097D01*
X166542730Y-116841147D01*
X166533835Y-116962701D01*
X166452172Y-117649517D01*
X166336712Y-118327658D01*
X166186872Y-118998823D01*
X166002069Y-119664715D01*
X165781719Y-120327034D01*
X165525238Y-120987480D01*
X165232045Y-121647755D01*
X164901554Y-122309558D01*
X164533184Y-122974591D01*
X164387034Y-123222038D01*
X164325821Y-123324967D01*
X164272745Y-123416107D01*
X164230688Y-123490345D01*
X164202535Y-123542572D01*
X164191170Y-123567677D01*
X164191219Y-123569064D01*
X164206640Y-123558320D01*
X164244646Y-123523676D01*
X164300776Y-123469435D01*
X164370569Y-123399901D01*
X164441598Y-123327574D01*
X164778096Y-122955966D01*
X165098688Y-122549960D01*
X165402705Y-122111140D01*
X165689479Y-121641092D01*
X165958341Y-121141400D01*
X166208624Y-120613649D01*
X166439659Y-120059425D01*
X166650777Y-119480311D01*
X166841311Y-118877893D01*
X167010593Y-118253756D01*
X167157953Y-117609485D01*
X167282724Y-116946665D01*
X167368275Y-116386317D01*
X167444176Y-115733263D01*
X167496891Y-115056914D01*
X167526334Y-114365492D01*
X167532418Y-113667222D01*
X167515055Y-112970328D01*
X167474158Y-112283033D01*
X167418034Y-111687317D01*
X167320497Y-110948665D01*
X167194388Y-110222154D01*
X167040434Y-109509664D01*
X166859361Y-108813075D01*
X166651892Y-108134265D01*
X166418755Y-107475114D01*
X166160673Y-106837503D01*
X165878372Y-106223310D01*
X165572577Y-105634416D01*
X165244014Y-105072700D01*
X164893407Y-104540041D01*
X164521483Y-104038320D01*
X164415648Y-103906125D01*
X164367143Y-103845069D01*
X164331424Y-103797226D01*
X164313252Y-103769136D01*
X164312566Y-103764471D01*
X164336056Y-103776354D01*
X164384282Y-103809268D01*
X164452061Y-103859109D01*
X164534207Y-103921774D01*
X164625535Y-103993160D01*
X164720862Y-104069163D01*
X164815001Y-104145679D01*
X164902769Y-104218607D01*
X164978981Y-104283841D01*
X165038453Y-104337279D01*
X165049332Y-104347580D01*
X165110908Y-104410638D01*
X165180060Y-104489306D01*
X165258391Y-104585778D01*
X165347504Y-104702244D01*
X165449001Y-104840897D01*
X165564486Y-105003929D01*
X165695562Y-105193531D01*
X165843831Y-105411896D01*
X166010896Y-105661217D01*
X166021136Y-105676583D01*
X166208105Y-105959732D01*
X166378162Y-106223078D01*
X166535341Y-106473524D01*
X166683676Y-106717974D01*
X166827200Y-106963330D01*
X166969946Y-107216495D01*
X167115948Y-107484373D01*
X167269239Y-107773865D01*
X167433853Y-108091875D01*
X167444058Y-108111778D01*
X167532042Y-108283130D01*
X167620791Y-108455353D01*
X167707341Y-108622738D01*
X167788727Y-108779575D01*
X167861985Y-108920152D01*
X167924150Y-109038760D01*
X167972257Y-109129688D01*
X167981681Y-109147317D01*
X168216089Y-109573425D01*
X168444229Y-109964944D01*
X168668562Y-110325376D01*
X168891553Y-110658218D01*
X169115664Y-110966973D01*
X169343358Y-111255140D01*
X169577098Y-111526220D01*
X169819348Y-111783712D01*
X169879605Y-111844453D01*
X170108516Y-112064627D01*
X170323728Y-112253875D01*
X170529940Y-112415750D01*
X170731848Y-112553803D01*
X170934150Y-112671587D01*
X171053369Y-112731942D01*
X171265975Y-112825500D01*
X171463706Y-112893047D01*
X171658161Y-112937315D01*
X171860937Y-112961036D01*
X172051549Y-112967086D01*
X172152480Y-112966729D01*
X172220707Y-112964972D01*
X172262603Y-112960783D01*
X172284538Y-112953132D01*
X172292885Y-112940988D01*
X172294061Y-112927851D01*
X172280066Y-112895154D01*
X172234429Y-112865784D01*
X172211023Y-112855826D01*
X171969451Y-112747956D01*
X171722448Y-112614615D01*
X171478754Y-112461703D01*
X171247112Y-112295122D01*
X171036263Y-112120772D01*
X170854950Y-111944556D01*
X170844720Y-111933530D01*
X170667554Y-111729625D01*
X170503510Y-111515570D01*
X170350971Y-111288033D01*
X170208322Y-111043681D01*
X170073945Y-110779180D01*
X169946225Y-110491198D01*
X169823544Y-110176402D01*
X169704287Y-109831457D01*
X169586836Y-109453033D01*
X169507662Y-109176625D01*
X169393982Y-108770782D01*
X169287842Y-108398367D01*
X169187797Y-108054779D01*
X169092402Y-107735415D01*
X169000214Y-107435674D01*
X168909787Y-107150954D01*
X168819678Y-106876653D01*
X168728441Y-106608169D01*
X168634632Y-106340900D01*
X168536807Y-106070244D01*
X168507994Y-105991855D01*
X168265291Y-105365022D01*
X168001309Y-104741439D01*
X167719330Y-104127910D01*
X167422639Y-103531242D01*
X167114519Y-102958238D01*
X166798254Y-102415702D01*
X166745061Y-102329099D01*
X157735224Y-102329099D01*
X157728694Y-102336868D01*
X157713485Y-102332983D01*
X157688267Y-102324350D01*
X157631770Y-102305582D01*
X157549881Y-102278615D01*
X157448486Y-102245386D01*
X157333473Y-102207832D01*
X157298292Y-102196370D01*
X157202587Y-102165227D01*
X157119505Y-102138496D01*
X157044779Y-102115168D01*
X156974142Y-102094236D01*
X156903327Y-102074691D01*
X156828066Y-102055526D01*
X156744094Y-102035732D01*
X156647143Y-102014302D01*
X156532945Y-101990228D01*
X156397234Y-101962501D01*
X156235743Y-101930114D01*
X156044205Y-101892058D01*
X155832908Y-101850209D01*
X155524055Y-101789407D01*
X155248525Y-101736203D01*
X155001421Y-101690049D01*
X154777848Y-101650398D01*
X154572908Y-101616702D01*
X154381705Y-101588414D01*
X154199344Y-101564987D01*
X154020928Y-101545873D01*
X153841562Y-101530524D01*
X153656348Y-101518394D01*
X153460390Y-101508934D01*
X153248793Y-101501598D01*
X153016661Y-101495837D01*
X152759096Y-101491105D01*
X152599292Y-101488662D01*
X152272452Y-101483021D01*
X151980896Y-101476035D01*
X151720850Y-101467531D01*
X151488540Y-101457337D01*
X151280189Y-101445279D01*
X151092024Y-101431184D01*
X150920270Y-101414879D01*
X150870138Y-101409390D01*
X150467780Y-101355311D01*
X150094967Y-101286606D01*
X149744266Y-101201283D01*
X149408244Y-101097352D01*
X149079468Y-100972822D01*
X148828369Y-100862479D01*
X148694842Y-100801901D01*
X148579030Y-100753533D01*
X148470952Y-100714257D01*
X148360626Y-100680952D01*
X148238067Y-100650502D01*
X148093295Y-100619786D01*
X147982279Y-100598150D01*
X147821825Y-100567100D01*
X147692251Y-100540730D01*
X147585915Y-100517157D01*
X147495175Y-100494497D01*
X147412388Y-100470869D01*
X147329913Y-100444388D01*
X147259457Y-100420037D01*
X147087544Y-100359301D01*
X147100547Y-100298540D01*
X147111852Y-100253767D01*
X147121209Y-100229502D01*
X147121436Y-100229237D01*
X147141990Y-100226518D01*
X147197548Y-100222219D01*
X147284078Y-100216573D01*
X147397550Y-100209815D01*
X147533934Y-100202182D01*
X147689197Y-100193907D01*
X147859310Y-100185227D01*
X147970181Y-100179758D01*
X148178800Y-100169574D01*
X148351696Y-100160821D01*
X148492174Y-100152958D01*
X148603536Y-100145442D01*
X148689087Y-100137733D01*
X148752132Y-100129289D01*
X148795973Y-100119567D01*
X148823916Y-100108027D01*
X148839264Y-100094126D01*
X148845321Y-100077323D01*
X148845392Y-100057077D01*
X148843200Y-100036642D01*
X148838839Y-100026806D01*
X148826269Y-100014107D01*
X148803288Y-99997442D01*
X148767694Y-99975711D01*
X148717283Y-99947814D01*
X148649856Y-99912651D01*
X148563208Y-99869120D01*
X148455138Y-99816121D01*
X148323445Y-99752553D01*
X148165924Y-99677316D01*
X147980376Y-99589309D01*
X147764597Y-99487431D01*
X147516385Y-99370583D01*
X147417663Y-99324169D01*
X147197049Y-99220403D01*
X146987030Y-99121473D01*
X146790237Y-99028628D01*
X146609303Y-98943118D01*
X146446859Y-98866191D01*
X146305539Y-98799095D01*
X146187975Y-98743081D01*
X146096799Y-98699395D01*
X146034644Y-98669287D01*
X146004141Y-98654006D01*
X146001398Y-98652313D01*
X146020555Y-98646276D01*
X146072787Y-98631193D01*
X146153483Y-98608358D01*
X146258035Y-98579068D01*
X146381832Y-98544615D01*
X146520266Y-98506295D01*
X146580987Y-98489545D01*
X146724323Y-98449885D01*
X146855080Y-98413399D01*
X146968618Y-98381405D01*
X147060296Y-98355222D01*
X147125472Y-98336170D01*
X147159507Y-98325569D01*
X147163384Y-98323969D01*
X147162246Y-98320960D01*
X147154908Y-98313998D01*
X147139715Y-98301951D01*
X147115008Y-98283686D01*
X147079132Y-98258071D01*
X147030429Y-98223975D01*
X146967243Y-98180264D01*
X146887917Y-98125808D01*
X146790793Y-98059474D01*
X146674215Y-97980130D01*
X146536527Y-97886644D01*
X146376071Y-97777884D01*
X146191190Y-97652718D01*
X145980228Y-97510014D01*
X145741527Y-97348639D01*
X145473431Y-97167462D01*
X145233292Y-97005215D01*
X145037065Y-96872583D01*
X144850145Y-96746118D01*
X144675076Y-96627549D01*
X144514402Y-96518605D01*
X144370669Y-96421015D01*
X144246421Y-96336509D01*
X144144202Y-96266815D01*
X144066558Y-96213664D01*
X144016032Y-96178783D01*
X143995170Y-96163903D01*
X143994878Y-96163647D01*
X144008627Y-96153925D01*
X144055678Y-96133807D01*
X144132085Y-96104716D01*
X144233903Y-96068079D01*
X144357189Y-96025320D01*
X144497998Y-95977864D01*
X144624994Y-95936045D01*
X144775979Y-95886507D01*
X144914479Y-95840448D01*
X145036273Y-95799320D01*
X145137140Y-95764575D01*
X145212859Y-95737662D01*
X145259212Y-95720035D01*
X145272369Y-95713421D01*
X145254812Y-95703983D01*
X145204666Y-95681825D01*
X145125716Y-95648506D01*
X145021750Y-95605583D01*
X144896553Y-95554613D01*
X144753912Y-95497153D01*
X144597613Y-95434762D01*
X144520138Y-95404029D01*
X144358700Y-95339806D01*
X144209141Y-95279706D01*
X144075247Y-95225296D01*
X143960805Y-95178141D01*
X143869600Y-95139809D01*
X143805420Y-95111864D01*
X143772049Y-95095874D01*
X143768085Y-95092928D01*
X143784188Y-95075003D01*
X143828125Y-95041829D01*
X143893697Y-94997362D01*
X143974706Y-94945556D01*
X144064953Y-94890366D01*
X144158240Y-94835748D01*
X144248368Y-94785657D01*
X144256369Y-94781369D01*
X144622132Y-94605520D01*
X145015208Y-94452646D01*
X145431041Y-94323107D01*
X145865076Y-94217264D01*
X146312758Y-94135475D01*
X146769532Y-94078103D01*
X147230842Y-94045505D01*
X147692133Y-94038042D01*
X148148851Y-94056074D01*
X148596439Y-94099962D01*
X149030344Y-94170064D01*
X149446009Y-94266741D01*
X149721108Y-94349564D01*
X149821517Y-94385966D01*
X149938922Y-94433471D01*
X150066304Y-94488737D01*
X150196648Y-94548420D01*
X150322936Y-94609179D01*
X150438151Y-94667670D01*
X150535277Y-94720551D01*
X150607296Y-94764477D01*
X150635677Y-94785261D01*
X150694292Y-94833988D01*
X149298920Y-94834691D01*
X149069641Y-94834955D01*
X148852398Y-94835494D01*
X148650256Y-94836283D01*
X148466276Y-94837295D01*
X148303523Y-94838505D01*
X148165060Y-94839888D01*
X148053949Y-94841417D01*
X147973254Y-94843067D01*
X147926039Y-94844812D01*
X147914465Y-94846310D01*
X147942482Y-94859944D01*
X148005712Y-94881467D01*
X148101254Y-94910141D01*
X148226207Y-94945228D01*
X148377670Y-94985990D01*
X148552744Y-95031690D01*
X148748527Y-95081590D01*
X148962118Y-95134952D01*
X149190618Y-95191039D01*
X149431126Y-95249113D01*
X149680740Y-95308436D01*
X149936561Y-95368271D01*
X150195688Y-95427881D01*
X150248976Y-95440011D01*
X150438723Y-95483202D01*
X150627253Y-95526264D01*
X150808888Y-95567889D01*
X150977947Y-95606770D01*
X151128752Y-95641598D01*
X151255623Y-95671068D01*
X151352881Y-95693871D01*
X151388430Y-95702316D01*
X151860239Y-95823023D01*
X152296387Y-95951126D01*
X152699781Y-96087725D01*
X153073328Y-96233924D01*
X153419933Y-96390825D01*
X153742503Y-96559530D01*
X153916558Y-96661294D01*
X154030569Y-96733993D01*
X154159684Y-96821780D01*
X154294331Y-96917680D01*
X154424936Y-97014721D01*
X154541925Y-97105929D01*
X154635727Y-97184331D01*
X154641061Y-97189056D01*
X154683654Y-97228276D01*
X154698617Y-97247327D01*
X154688361Y-97251033D01*
X154670369Y-97247735D01*
X154642245Y-97241412D01*
X154579791Y-97227331D01*
X154486791Y-97206344D01*
X154367030Y-97179309D01*
X154224295Y-97147078D01*
X154062370Y-97110507D01*
X153885039Y-97070450D01*
X153696090Y-97027762D01*
X153635449Y-97014061D01*
X153445401Y-96971254D01*
X153267178Y-96931371D01*
X153104355Y-96895194D01*
X152960503Y-96863502D01*
X152839198Y-96837080D01*
X152744011Y-96816707D01*
X152678517Y-96803165D01*
X152646289Y-96797237D01*
X152643525Y-96797109D01*
X152657976Y-96808258D01*
X152701695Y-96836649D01*
X152770338Y-96879592D01*
X152859563Y-96934396D01*
X152965027Y-96998370D01*
X153072753Y-97063066D01*
X153406776Y-97263585D01*
X153709395Y-97447109D01*
X153983424Y-97615513D01*
X154231677Y-97770672D01*
X154456968Y-97914462D01*
X154662113Y-98048756D01*
X154849925Y-98175431D01*
X155023219Y-98296360D01*
X155184810Y-98413420D01*
X155337511Y-98528484D01*
X155484138Y-98643428D01*
X155627504Y-98760126D01*
X155657061Y-98784699D01*
X155834780Y-98940174D01*
X156020370Y-99115603D01*
X156206950Y-99303667D01*
X156387637Y-99497048D01*
X156555552Y-99688426D01*
X156703812Y-99870482D01*
X156802809Y-100003317D01*
X156853994Y-100076657D01*
X156883821Y-100122424D01*
X156894412Y-100144281D01*
X156887891Y-100145890D01*
X156884287Y-100143839D01*
X156863118Y-100133870D01*
X156809570Y-100109720D01*
X156727052Y-100072901D01*
X156618976Y-100024921D01*
X156488749Y-99967292D01*
X156339782Y-99901523D01*
X156175484Y-99829125D01*
X155999266Y-99751607D01*
X155931145Y-99721675D01*
X154997508Y-99311566D01*
X154962080Y-99354595D01*
X154925354Y-99404880D01*
X154902101Y-99442650D01*
X154889011Y-99476609D01*
X154899705Y-99503434D01*
X154928721Y-99530573D01*
X154959840Y-99556711D01*
X155015032Y-99603121D01*
X155088479Y-99664906D01*
X155174361Y-99737172D01*
X155259861Y-99809132D01*
X155357268Y-99890965D01*
X155476203Y-99990632D01*
X155608137Y-100101001D01*
X155744539Y-100214938D01*
X155876877Y-100325310D01*
X155940369Y-100378189D01*
X156261127Y-100651547D01*
X156549297Y-100910918D01*
X156807567Y-101159130D01*
X157038623Y-101399012D01*
X157245150Y-101633393D01*
X157429835Y-101865102D01*
X157595365Y-102096969D01*
X157647641Y-102176159D01*
X157696587Y-102253246D01*
X157725151Y-102302725D01*
X157735224Y-102329099D01*
X166745061Y-102329099D01*
X166723625Y-102294201D01*
X166663872Y-102197349D01*
X166612500Y-102113004D01*
X166572589Y-102046313D01*
X166547216Y-102002420D01*
X166539461Y-101986472D01*
X166539478Y-101986471D01*
X166562604Y-101994376D01*
X166618063Y-102017151D01*
X166702662Y-102053385D01*
X166813210Y-102101668D01*
X166946515Y-102160589D01*
X167099384Y-102228739D01*
X167268627Y-102304706D01*
X167451051Y-102387080D01*
X167634138Y-102470204D01*
X167954938Y-102615008D01*
X168244705Y-102743018D01*
X168507041Y-102855541D01*
X168745548Y-102953883D01*
X168963825Y-103039349D01*
X169165473Y-103113244D01*
X169354094Y-103176875D01*
X169533289Y-103231547D01*
X169706658Y-103278567D01*
X169877802Y-103319239D01*
X170050323Y-103354870D01*
X170099248Y-103364099D01*
X170286259Y-103394066D01*
X170484560Y-103417580D01*
X170686802Y-103434372D01*
X170885632Y-103444172D01*
X171073699Y-103446711D01*
X171243652Y-103441719D01*
X171388140Y-103428927D01*
X171473446Y-103414479D01*
X171541831Y-103399421D01*
X171453908Y-103376611D01*
X171219205Y-103313518D01*
X171014103Y-103253191D01*
X170829570Y-103192523D01*
X170656573Y-103128412D01*
X170486079Y-103057752D01*
X170355561Y-102999122D01*
X170188866Y-102919897D01*
X170027066Y-102838135D01*
X169867317Y-102751879D01*
X169706774Y-102659175D01*
X169542593Y-102558068D01*
X169371932Y-102446602D01*
X169191944Y-102322821D01*
X168999788Y-102184772D01*
X168792618Y-102030497D01*
X168567590Y-101858043D01*
X168321861Y-101665454D01*
X168052586Y-101450774D01*
X167761138Y-101215470D01*
X167638213Y-101116679D01*
X167490135Y-100999240D01*
X167323036Y-100867926D01*
X167143045Y-100727510D01*
X166956291Y-100582765D01*
X166768904Y-100438462D01*
X166587014Y-100299375D01*
X166484708Y-100221653D01*
X166308942Y-100088496D01*
X166123761Y-99948215D01*
X165935314Y-99805467D01*
X165749749Y-99664909D01*
X165573213Y-99531198D01*
X165411856Y-99408989D01*
X165271825Y-99302941D01*
X165200891Y-99249227D01*
X164801895Y-98950170D01*
X164427521Y-98676136D01*
X164074362Y-98424917D01*
X163739015Y-98194305D01*
X163418074Y-97982093D01*
X163108133Y-97786072D01*
X162805788Y-97604034D01*
X162507634Y-97433771D01*
X162210265Y-97273075D01*
X161938677Y-97133898D01*
X161762546Y-97046952D01*
X161596430Y-96967528D01*
X161435411Y-96893674D01*
X161274569Y-96823441D01*
X161108984Y-96754877D01*
X160933738Y-96686034D01*
X160743910Y-96614959D01*
X160534581Y-96539702D01*
X160300832Y-96458314D01*
X160037743Y-96368844D01*
X159851394Y-96306339D01*
X159677376Y-96248190D01*
X159515117Y-96193921D01*
X159368295Y-96144766D01*
X159240589Y-96101959D01*
X159135679Y-96066733D01*
X159057243Y-96040324D01*
X159008959Y-96023963D01*
X158994333Y-96018860D01*
X158995219Y-96000068D01*
X159003397Y-95959203D01*
X159015132Y-95911681D01*
X159026692Y-95872920D01*
X159033113Y-95858753D01*
X159053580Y-95860763D01*
X159107961Y-95870421D01*
X159192035Y-95886863D01*
X159301575Y-95909224D01*
X159432360Y-95936641D01*
X159580164Y-95968249D01*
X159740765Y-96003185D01*
X159762629Y-96007985D01*
X160038073Y-96068233D01*
X160296959Y-96124208D01*
X160543543Y-96176732D01*
X160782084Y-96226632D01*
X161016840Y-96274731D01*
X161252067Y-96321855D01*
X161492025Y-96368827D01*
X161740970Y-96416472D01*
X162003160Y-96465614D01*
X162282853Y-96517079D01*
X162584307Y-96571690D01*
X162911779Y-96630272D01*
X163269528Y-96693650D01*
X163638523Y-96758564D01*
X163924637Y-96808275D01*
X164213429Y-96857527D01*
X164501228Y-96905747D01*
X164784361Y-96952359D01*
X165059158Y-96996788D01*
X165321945Y-97038459D01*
X165569052Y-97076798D01*
X165796806Y-97111229D01*
X166001535Y-97141178D01*
X166179568Y-97166070D01*
X166327233Y-97185329D01*
X166440857Y-97198382D01*
X166459570Y-97200235D01*
X166577541Y-97207594D01*
X166706826Y-97207633D01*
X166852681Y-97199952D01*
X167020363Y-97184150D01*
X167215131Y-97159825D01*
X167442240Y-97126578D01*
X167458292Y-97124092D01*
X167582241Y-97104694D01*
X167671894Y-97089951D01*
X167731580Y-97078603D01*
X167765630Y-97069388D01*
X167778375Y-97061046D01*
X167774143Y-97052318D01*
X167757266Y-97041941D01*
X167751304Y-97038799D01*
X167719530Y-97024007D01*
X167656423Y-96996167D01*
X167566700Y-96957306D01*
X167455080Y-96909449D01*
X167326283Y-96854622D01*
X167185026Y-96794851D01*
X167086996Y-96753567D01*
X166830117Y-96645192D01*
X166604179Y-96548822D01*
X166403860Y-96461904D01*
X166223838Y-96381883D01*
X166058792Y-96306205D01*
X165903399Y-96232315D01*
X165752338Y-96157660D01*
X165600285Y-96079684D01*
X165441921Y-95995835D01*
X165271921Y-95903558D01*
X165084966Y-95800298D01*
X164986677Y-95745544D01*
X164786743Y-95635944D01*
X164563468Y-95517053D01*
X164324180Y-95392543D01*
X164076206Y-95266087D01*
X163826873Y-95141356D01*
X163583509Y-95022023D01*
X163353442Y-94911760D01*
X163143999Y-94814239D01*
X162993754Y-94746781D01*
X162236729Y-94430669D01*
X161486772Y-94151038D01*
X160741831Y-93907670D01*
X159999851Y-93700344D01*
X159258780Y-93528841D01*
X158516563Y-93392941D01*
X157771147Y-93292426D01*
X157020478Y-93227074D01*
X156262502Y-93196666D01*
X155495167Y-93200984D01*
X154716418Y-93239807D01*
X153924201Y-93312916D01*
X153116464Y-93420091D01*
X152291153Y-93561112D01*
X152153262Y-93587596D01*
X152017208Y-93613902D01*
X151910593Y-93633431D01*
X151824526Y-93647029D01*
X151750121Y-93655542D01*
X151678487Y-93659815D01*
X151600738Y-93660696D01*
X151507983Y-93659030D01*
X151426985Y-93656730D01*
X151307705Y-93651787D01*
X151189808Y-93643722D01*
X151069904Y-93631840D01*
X150944603Y-93615446D01*
X150810515Y-93593845D01*
X150664250Y-93566341D01*
X150502418Y-93532240D01*
X150321628Y-93490847D01*
X150118490Y-93441466D01*
X149889616Y-93383402D01*
X149631613Y-93315960D01*
X149341093Y-93238446D01*
X149195270Y-93199126D01*
X148995190Y-93144713D01*
X148830444Y-93099153D01*
X148698498Y-93061660D01*
X148596817Y-93031452D01*
X148522866Y-93007742D01*
X148474109Y-92989748D01*
X148448011Y-92976684D01*
X148442038Y-92967767D01*
X148443039Y-92966407D01*
X148472871Y-92945149D01*
X148530963Y-92909691D01*
X148610779Y-92863615D01*
X148705781Y-92810500D01*
X148809432Y-92753926D01*
X148915196Y-92697474D01*
X149016534Y-92644723D01*
X149106909Y-92599252D01*
X149160523Y-92573498D01*
X149581450Y-92390291D01*
X150009090Y-92231059D01*
X150446562Y-92095258D01*
X150896986Y-91982347D01*
X151363483Y-91891783D01*
X151849173Y-91823022D01*
X152357177Y-91775523D01*
X152890615Y-91748743D01*
X153452606Y-91742140D01*
X153895811Y-91750134D01*
X154100053Y-91756689D01*
X154300731Y-91764182D01*
X154501031Y-91772839D01*
X154704140Y-91782886D01*
X154913244Y-91794548D01*
X155131530Y-91808052D01*
X155362184Y-91823624D01*
X155608394Y-91841489D01*
X155873345Y-91861874D01*
X156160224Y-91885005D01*
X156472218Y-91911107D01*
X156812514Y-91940407D01*
X157184298Y-91973130D01*
X157590756Y-92009503D01*
X157728138Y-92021902D01*
X157970695Y-92043828D01*
X158204886Y-92064989D01*
X158427359Y-92085081D01*
X158634757Y-92103802D01*
X158823725Y-92120850D01*
X158990909Y-92135922D01*
X159132953Y-92148715D01*
X159246501Y-92158928D01*
X159328199Y-92166256D01*
X159374692Y-92170399D01*
X159377431Y-92170640D01*
X159522262Y-92183349D01*
X159481705Y-92126393D01*
X159451960Y-92091119D01*
X159397371Y-92032868D01*
X159321694Y-91955289D01*
X159228687Y-91862031D01*
X159122107Y-91756741D01*
X159005711Y-91643070D01*
X158883256Y-91524667D01*
X158758498Y-91405179D01*
X158635196Y-91288257D01*
X158517106Y-91177548D01*
X158407985Y-91076703D01*
X158311590Y-90989369D01*
X158304046Y-90982635D01*
X157708305Y-90473447D01*
X157104719Y-90001033D01*
X156493723Y-89565632D01*
X155875749Y-89167484D01*
X155251230Y-88806829D01*
X154620599Y-88483906D01*
X153984288Y-88198954D01*
X153342731Y-87952214D01*
X152696361Y-87743926D01*
X152224129Y-87616887D01*
X151894440Y-87539302D01*
X151581664Y-87474063D01*
X151273709Y-87419129D01*
X150958478Y-87372458D01*
X150623878Y-87332008D01*
X150401215Y-87309140D01*
X150278497Y-87300106D01*
X150123746Y-87293177D01*
X149943948Y-87288316D01*
X149746089Y-87285485D01*
X149537155Y-87284647D01*
X149324130Y-87285762D01*
X149114001Y-87288794D01*
X148913753Y-87293704D01*
X148730372Y-87300455D01*
X148570844Y-87309008D01*
X148442153Y-87319326D01*
X148437600Y-87319790D01*
X147862935Y-87391048D01*
X147302403Y-87485650D01*
X146751890Y-87604913D01*
X146207282Y-87750157D01*
X145664466Y-87922699D01*
X145119328Y-88123859D01*
X144567755Y-88354956D01*
X144005632Y-88617307D01*
X143428847Y-88912233D01*
X143367369Y-88945088D01*
X143201980Y-89034615D01*
X143029605Y-89129552D01*
X142846344Y-89232123D01*
X142648300Y-89344553D01*
X142431573Y-89469064D01*
X142192265Y-89607882D01*
X141926477Y-89763229D01*
X141706600Y-89892404D01*
X141490379Y-90019158D01*
X141302729Y-90127927D01*
X141138958Y-90221235D01*
X140994374Y-90301604D01*
X140864286Y-90371560D01*
X140744002Y-90433626D01*
X140628831Y-90490326D01*
X140514080Y-90544184D01*
X140397523Y-90596635D01*
X139895303Y-90800452D01*
X139393810Y-90966986D01*
X138888167Y-91097624D01*
X138373500Y-91193757D01*
X138228754Y-91214460D01*
X138096105Y-91228211D01*
X137932714Y-91238793D01*
X137746621Y-91246206D01*
X137545865Y-91250450D01*
X137338486Y-91251524D01*
X137132522Y-91249427D01*
X136936013Y-91244160D01*
X136756999Y-91235721D01*
X136603518Y-91224110D01*
X136519138Y-91214578D01*
X136369920Y-91192889D01*
X136212617Y-91167212D01*
X136054722Y-91139014D01*
X135903729Y-91109761D01*
X135767129Y-91080920D01*
X135652416Y-91053958D01*
X135567084Y-91030340D01*
X135551324Y-91025166D01*
X135358803Y-90944056D01*
X135196051Y-90841720D01*
X135057524Y-90713668D01*
X134937679Y-90555413D01*
X134904540Y-90501376D01*
X134697527Y-90170085D01*
X134485320Y-89875211D01*
X134265368Y-89614184D01*
X134035119Y-89384435D01*
X133792020Y-89183393D01*
X133533522Y-89008489D01*
X133286638Y-88871820D01*
X133017614Y-88753065D01*
X132728567Y-88657457D01*
X132414589Y-88583587D01*
X132118449Y-88536049D01*
X132014619Y-88520815D01*
X131938325Y-88504564D01*
X131878094Y-88483986D01*
X131822452Y-88455772D01*
X131805834Y-88445871D01*
X131751323Y-88412445D01*
X131718199Y-88391902D01*
X131661234Y-88391902D01*
X131661191Y-88391973D01*
X131633982Y-88413747D01*
X131578135Y-88444067D01*
X131502132Y-88479276D01*
X131414456Y-88515712D01*
X131323591Y-88549718D01*
X131238019Y-88577633D01*
X131216739Y-88583702D01*
X131062253Y-88619846D01*
X130910330Y-88641278D01*
X130750275Y-88648630D01*
X130571392Y-88642539D01*
X130428023Y-88630494D01*
X130212111Y-88593499D01*
X129985710Y-88526412D01*
X129757933Y-88432949D01*
X129537891Y-88316825D01*
X129343638Y-88188400D01*
X129283561Y-88143319D01*
X129237817Y-88107699D01*
X129213720Y-88087290D01*
X129211754Y-88084779D01*
X129228349Y-88071174D01*
X129273641Y-88044532D01*
X129340886Y-88008279D01*
X129423342Y-87965842D01*
X129514267Y-87920647D01*
X129606916Y-87876122D01*
X129694549Y-87835694D01*
X129748134Y-87812163D01*
X129919575Y-87743339D01*
X130070279Y-87693577D01*
X130211854Y-87660012D01*
X130355909Y-87639783D01*
X130481754Y-87631233D01*
X130680736Y-87633640D01*
X130855300Y-87661014D01*
X131013267Y-87716234D01*
X131162455Y-87802181D01*
X131310686Y-87921736D01*
X131337114Y-87946331D01*
X131403296Y-88013841D01*
X131470504Y-88090588D01*
X131534148Y-88170259D01*
X131589634Y-88246540D01*
X131632371Y-88313117D01*
X131657769Y-88363675D01*
X131661234Y-88391902D01*
X131718199Y-88391902D01*
X131712400Y-88388306D01*
X131698610Y-88379439D01*
X131694161Y-88359736D01*
X131685368Y-88308503D01*
X131673259Y-88232704D01*
X131658860Y-88139306D01*
X131643199Y-88035274D01*
X131627304Y-87927574D01*
X131612201Y-87823170D01*
X131598918Y-87729029D01*
X131588483Y-87652115D01*
X131581923Y-87599395D01*
X131580264Y-87577833D01*
X131580358Y-87577671D01*
X131600806Y-87582303D01*
X131654350Y-87598627D01*
X131737230Y-87625346D01*
X131845690Y-87661163D01*
X131975969Y-87704781D01*
X132124309Y-87754904D01*
X132286950Y-87810234D01*
X132460135Y-87869474D01*
X132640103Y-87931328D01*
X132823097Y-87994499D01*
X133005358Y-88057689D01*
X133183126Y-88119602D01*
X133352642Y-88178941D01*
X133510148Y-88234409D01*
X133651886Y-88284709D01*
X133774095Y-88328545D01*
X133873017Y-88364618D01*
X133944894Y-88391633D01*
X133979138Y-88405316D01*
X134361667Y-88580827D01*
X134714073Y-88770999D01*
X134859420Y-88859001D01*
X135089002Y-88998713D01*
X135298296Y-89116668D01*
X135496134Y-89217168D01*
X135691348Y-89304518D01*
X135892769Y-89383019D01*
X136040446Y-89434429D01*
X136408981Y-89540055D01*
X136781367Y-89611840D01*
X137159287Y-89649648D01*
X137544425Y-89653341D01*
X137938465Y-89622783D01*
X138343089Y-89557835D01*
X138759983Y-89458362D01*
X139190828Y-89324224D01*
X139637310Y-89155286D01*
X139679876Y-89137722D01*
X139749899Y-89107909D01*
X139830762Y-89072061D01*
X139924144Y-89029348D01*
X140031724Y-88978939D01*
X140155182Y-88920004D01*
X140296198Y-88851713D01*
X140456450Y-88773235D01*
X140637619Y-88683739D01*
X140841383Y-88582396D01*
X141069423Y-88468375D01*
X141323417Y-88340846D01*
X141605045Y-88198977D01*
X141915987Y-88041940D01*
X142257922Y-87868903D01*
X142632529Y-87679036D01*
X142727842Y-87630689D01*
X142936520Y-87524529D01*
X143134387Y-87423296D01*
X143318773Y-87328390D01*
X143487007Y-87241214D01*
X143636418Y-87163170D01*
X143741081Y-87107932D01*
X130932126Y-87107932D01*
X130877902Y-87122518D01*
X130846959Y-87128377D01*
X130781421Y-87138959D01*
X130685406Y-87153682D01*
X130563031Y-87171958D01*
X130418415Y-87193204D01*
X130255677Y-87216833D01*
X130078936Y-87242261D01*
X129892309Y-87268902D01*
X129699915Y-87296172D01*
X129505872Y-87323485D01*
X129314300Y-87350255D01*
X129129316Y-87375898D01*
X128955039Y-87399829D01*
X128795587Y-87421462D01*
X128655079Y-87440212D01*
X128537633Y-87455494D01*
X128508369Y-87459207D01*
X128277314Y-87483755D01*
X128065300Y-87497152D01*
X127876657Y-87499377D01*
X127715720Y-87490409D01*
X127586821Y-87470230D01*
X127560754Y-87463611D01*
X127437136Y-87421426D01*
X127332120Y-87366218D01*
X127236832Y-87291486D01*
X127142396Y-87190727D01*
X127079294Y-87110893D01*
X126983900Y-86969362D01*
X126885889Y-86796551D01*
X126788477Y-86599816D01*
X126694879Y-86386517D01*
X126608312Y-86164012D01*
X126531992Y-85939658D01*
X126469135Y-85720813D01*
X126465494Y-85706568D01*
X126413164Y-85484707D01*
X126375577Y-85286479D01*
X126351126Y-85100025D01*
X126338204Y-84913486D01*
X126335089Y-84743778D01*
X126334082Y-84660596D01*
X126332047Y-84586891D01*
X126330788Y-84523709D01*
X126332109Y-84472100D01*
X126337817Y-84433110D01*
X126349714Y-84407789D01*
X126369607Y-84397185D01*
X126399300Y-84402344D01*
X126440597Y-84424316D01*
X126495304Y-84464148D01*
X126565225Y-84522889D01*
X126652165Y-84601586D01*
X126757928Y-84701288D01*
X126884320Y-84823042D01*
X127033144Y-84967896D01*
X127206207Y-85136899D01*
X127405312Y-85331099D01*
X127492434Y-85415858D01*
X127667214Y-85585595D01*
X127833815Y-85747112D01*
X127990130Y-85898382D01*
X128134052Y-86037381D01*
X128263474Y-86162082D01*
X128376291Y-86270460D01*
X128470395Y-86360490D01*
X128543680Y-86430144D01*
X128594040Y-86477399D01*
X128619367Y-86500228D01*
X128622021Y-86502063D01*
X128612576Y-86485212D01*
X128583344Y-86438050D01*
X128535886Y-86363002D01*
X128471758Y-86262490D01*
X128392520Y-86138938D01*
X128299729Y-85994767D01*
X128194944Y-85832402D01*
X128079724Y-85654264D01*
X127955626Y-85462778D01*
X127824210Y-85260366D01*
X127747820Y-85142866D01*
X127612996Y-84935333D01*
X127484672Y-84737303D01*
X127364400Y-84551204D01*
X127253736Y-84379465D01*
X127154234Y-84224515D01*
X127067449Y-84088783D01*
X126994935Y-83974697D01*
X126938247Y-83884686D01*
X126898939Y-83821178D01*
X126878565Y-83786603D01*
X126876006Y-83780782D01*
X126896429Y-83785564D01*
X126946191Y-83806338D01*
X127020243Y-83840545D01*
X127113533Y-83885625D01*
X127221009Y-83939019D01*
X127337620Y-83998166D01*
X127458315Y-84060506D01*
X127578041Y-84123481D01*
X127691748Y-84184530D01*
X127794384Y-84241092D01*
X127873369Y-84286196D01*
X128380584Y-84605295D01*
X128868667Y-84958370D01*
X129337337Y-85345168D01*
X129786315Y-85765435D01*
X130215319Y-86218918D01*
X130624067Y-86705363D01*
X130784429Y-86912548D01*
X130932126Y-87107932D01*
X143741081Y-87107932D01*
X143764336Y-87095659D01*
X143868089Y-87040084D01*
X143945007Y-86997846D01*
X143992419Y-86970347D01*
X144007655Y-86958989D01*
X144007611Y-86958934D01*
X143981869Y-86944683D01*
X143924529Y-86919513D01*
X143840873Y-86885439D01*
X143736179Y-86844473D01*
X143615726Y-86798625D01*
X143484794Y-86749910D01*
X143348662Y-86700339D01*
X143212609Y-86651924D01*
X143096491Y-86611651D01*
X142406271Y-86393137D01*
X141687847Y-86199721D01*
X140943295Y-86031803D01*
X140174692Y-85889781D01*
X139384115Y-85774054D01*
X138573638Y-85685020D01*
X138046429Y-85642299D01*
X137850859Y-85630350D01*
X137629961Y-85619925D01*
X137387896Y-85611024D01*
X137128823Y-85603651D01*
X136856904Y-85597805D01*
X136576299Y-85593491D01*
X136291168Y-85590708D01*
X136005672Y-85589459D01*
X135723972Y-85589746D01*
X135450229Y-85591570D01*
X135188602Y-85594933D01*
X134943253Y-85599836D01*
X134718342Y-85606283D01*
X134518029Y-85614273D01*
X134346476Y-85623810D01*
X134207842Y-85634894D01*
X134154985Y-85640670D01*
X133681914Y-85716457D01*
X133223399Y-85825785D01*
X132781578Y-85967838D01*
X132358589Y-86141804D01*
X131956572Y-86346867D01*
X131577664Y-86582212D01*
X131453377Y-86669784D01*
X131391060Y-86713894D01*
X131340599Y-86747361D01*
X131310332Y-86764736D01*
X131306163Y-86766009D01*
X131288955Y-86751755D01*
X131247395Y-86710219D01*
X131183190Y-86643244D01*
X131098045Y-86552670D01*
X130993663Y-86440340D01*
X130871749Y-86308095D01*
X130734009Y-86157776D01*
X130582147Y-85991224D01*
X130417867Y-85810283D01*
X130266132Y-85642548D01*
X129944182Y-85293222D01*
X129633355Y-84970352D01*
X129335182Y-84675401D01*
X129051189Y-84409830D01*
X128782905Y-84175103D01*
X128531858Y-83972681D01*
X128479061Y-83932606D01*
X128347753Y-83835651D01*
X128217139Y-83742613D01*
X128083722Y-83651385D01*
X127944005Y-83559860D01*
X127794492Y-83465928D01*
X127631687Y-83367485D01*
X127452091Y-83262420D01*
X127252208Y-83148628D01*
X127028542Y-83024000D01*
X126777596Y-82886430D01*
X126495872Y-82733808D01*
X126440478Y-82703959D01*
X126362150Y-82661747D01*
X123024692Y-82661747D01*
X123018744Y-82680854D01*
X122983596Y-82715110D01*
X122924389Y-82761017D01*
X122846263Y-82815078D01*
X122754359Y-82873795D01*
X122653817Y-82933671D01*
X122549779Y-82991207D01*
X122510061Y-83011901D01*
X122338893Y-83094573D01*
X122185203Y-83157354D01*
X122036130Y-83204982D01*
X121892149Y-83239457D01*
X121792491Y-83253157D01*
X121666411Y-83260231D01*
X121525948Y-83260974D01*
X121383140Y-83255678D01*
X121250023Y-83244637D01*
X121138636Y-83228146D01*
X121103292Y-83220200D01*
X120989391Y-83182826D01*
X120856613Y-83126334D01*
X120716177Y-83056532D01*
X120579305Y-82979227D01*
X120457215Y-82900224D01*
X120394184Y-82853194D01*
X120241922Y-82731317D01*
X120292973Y-82690417D01*
X120363705Y-82639841D01*
X120459057Y-82580009D01*
X120567840Y-82517313D01*
X120678865Y-82458143D01*
X120780943Y-82408890D01*
X120802256Y-82399518D01*
X120944702Y-82342352D01*
X121074687Y-82300353D01*
X121203834Y-82271122D01*
X121343766Y-82252262D01*
X121506107Y-82241373D01*
X121581985Y-82238652D01*
X121796417Y-82238503D01*
X121986394Y-82252916D01*
X122164490Y-82283968D01*
X122343279Y-82333737D01*
X122500292Y-82390390D01*
X122586986Y-82426796D01*
X122683661Y-82471389D01*
X122782124Y-82519929D01*
X122874183Y-82568178D01*
X122951647Y-82611896D01*
X123006324Y-82646844D01*
X123024692Y-82661747D01*
X126362150Y-82661747D01*
X126275863Y-82615246D01*
X126116416Y-82529185D01*
X125966624Y-82448204D01*
X125830970Y-82374733D01*
X125713940Y-82311205D01*
X125620019Y-82260048D01*
X125553691Y-82223693D01*
X125531526Y-82211406D01*
X125377990Y-82125625D01*
X125502218Y-82108547D01*
X125574843Y-82101837D01*
X125679516Y-82096617D01*
X125809236Y-82092867D01*
X125957005Y-82090571D01*
X126115821Y-82089709D01*
X126278685Y-82090265D01*
X126438596Y-82092219D01*
X126588556Y-82095554D01*
X126721563Y-82100252D01*
X126830618Y-82106295D01*
X126896446Y-82112146D01*
X127399804Y-82185168D01*
X127907450Y-82289030D01*
X128422386Y-82424571D01*
X128947616Y-82592631D01*
X129486143Y-82794049D01*
X129800417Y-82924197D01*
X129871310Y-82954548D01*
X129907878Y-82862563D01*
X129929918Y-82807503D01*
X129945748Y-82768659D01*
X129950030Y-82758619D01*
X129936608Y-82744793D01*
X129895995Y-82718437D01*
X129835972Y-82684454D01*
X129813261Y-82672417D01*
X129758836Y-82643598D01*
X129676067Y-82599204D01*
X129570880Y-82542441D01*
X129449200Y-82476513D01*
X129316950Y-82404627D01*
X129180057Y-82329986D01*
X129161374Y-82319781D01*
X128906615Y-82181632D01*
X128680117Y-82061290D01*
X128476694Y-81956350D01*
X128291165Y-81864404D01*
X128118347Y-81783046D01*
X127953057Y-81709870D01*
X127790112Y-81642468D01*
X127624328Y-81578435D01*
X127450524Y-81515364D01*
X127363575Y-81485017D01*
X126709331Y-81277897D01*
X126039967Y-81103251D01*
X125353101Y-80960578D01*
X124646349Y-80849376D01*
X123994985Y-80776127D01*
X123845357Y-80764743D01*
X123663758Y-80754875D01*
X123457267Y-80746619D01*
X123232966Y-80740070D01*
X122997933Y-80735324D01*
X122759250Y-80732475D01*
X122523995Y-80731620D01*
X122299248Y-80732854D01*
G04 #@! TD*
M02*
