G04 #@! TF.GenerationSoftware,KiCad,Pcbnew,5.0.1-33cea8e~68~ubuntu18.04.1*
G04 #@! TF.CreationDate,2019-04-25T19:51:38-04:00*
G04 #@! TF.ProjectId,IMU,494D552E6B696361645F706362000000,rev?*
G04 #@! TF.SameCoordinates,Original*
G04 #@! TF.FileFunction,Soldermask,Bot*
G04 #@! TF.FilePolarity,Negative*
%FSLAX46Y46*%
G04 Gerber Fmt 4.6, Leading zero omitted, Abs format (unit mm)*
G04 Created by KiCad (PCBNEW 5.0.1-33cea8e~68~ubuntu18.04.1) date Thu 25 Apr 2019 07:51:38 PM EDT*
%MOMM*%
%LPD*%
G01*
G04 APERTURE LIST*
%ADD10C,2.000000*%
G04 APERTURE END LIST*
D10*
G36*
X162736250Y-120572899D02*
X162736252Y-120572900D01*
X162736253Y-120572900D01*
X163195610Y-120763172D01*
X163609023Y-121039406D01*
X163960594Y-121390977D01*
X164236828Y-121804390D01*
X164427101Y-122263750D01*
X164524100Y-122751396D01*
X164524100Y-123248604D01*
X164427101Y-123736250D01*
X164236828Y-124195610D01*
X163960594Y-124609023D01*
X163609023Y-124960594D01*
X163609020Y-124960596D01*
X163195610Y-125236828D01*
X162736253Y-125427100D01*
X162736252Y-125427100D01*
X162736250Y-125427101D01*
X162248604Y-125524100D01*
X161751396Y-125524100D01*
X161263750Y-125427101D01*
X161263748Y-125427100D01*
X161263747Y-125427100D01*
X160804390Y-125236828D01*
X160390980Y-124960596D01*
X160390977Y-124960594D01*
X160039406Y-124609023D01*
X159763172Y-124195610D01*
X159572899Y-123736250D01*
X159475900Y-123248604D01*
X159475900Y-122751396D01*
X159572899Y-122263750D01*
X159763172Y-121804390D01*
X160039406Y-121390977D01*
X160390977Y-121039406D01*
X160804390Y-120763172D01*
X161263747Y-120572900D01*
X161263748Y-120572900D01*
X161263750Y-120572899D01*
X161751396Y-120475900D01*
X162248604Y-120475900D01*
X162736250Y-120572899D01*
X162736250Y-120572899D01*
G37*
G36*
X120736250Y-120572899D02*
X120736252Y-120572900D01*
X120736253Y-120572900D01*
X121195610Y-120763172D01*
X121609023Y-121039406D01*
X121960594Y-121390977D01*
X122236828Y-121804390D01*
X122427101Y-122263750D01*
X122524100Y-122751396D01*
X122524100Y-123248604D01*
X122427101Y-123736250D01*
X122236828Y-124195610D01*
X121960594Y-124609023D01*
X121609023Y-124960594D01*
X121609020Y-124960596D01*
X121195610Y-125236828D01*
X120736253Y-125427100D01*
X120736252Y-125427100D01*
X120736250Y-125427101D01*
X120248604Y-125524100D01*
X119751396Y-125524100D01*
X119263750Y-125427101D01*
X119263748Y-125427100D01*
X119263747Y-125427100D01*
X118804390Y-125236828D01*
X118390980Y-124960596D01*
X118390977Y-124960594D01*
X118039406Y-124609023D01*
X117763172Y-124195610D01*
X117572899Y-123736250D01*
X117475900Y-123248604D01*
X117475900Y-122751396D01*
X117572899Y-122263750D01*
X117763172Y-121804390D01*
X118039406Y-121390977D01*
X118390977Y-121039406D01*
X118804390Y-120763172D01*
X119263747Y-120572900D01*
X119263748Y-120572900D01*
X119263750Y-120572899D01*
X119751396Y-120475900D01*
X120248604Y-120475900D01*
X120736250Y-120572899D01*
X120736250Y-120572899D01*
G37*
G36*
X135947819Y-118246976D02*
X135947821Y-118246977D01*
X135947822Y-118246977D01*
X136298149Y-118392087D01*
X136298150Y-118392088D01*
X136613439Y-118602757D01*
X136881563Y-118870881D01*
X136881565Y-118870884D01*
X137092233Y-119186171D01*
X137237343Y-119536498D01*
X137237344Y-119536501D01*
X137311320Y-119908403D01*
X137311320Y-120287597D01*
X137254570Y-120572900D01*
X137237343Y-120659502D01*
X137092233Y-121009829D01*
X137072470Y-121039406D01*
X136881563Y-121325119D01*
X136613439Y-121593243D01*
X136613436Y-121593245D01*
X136298149Y-121803913D01*
X135947822Y-121949023D01*
X135947821Y-121949023D01*
X135947819Y-121949024D01*
X135575917Y-122023000D01*
X135196723Y-122023000D01*
X134824821Y-121949024D01*
X134824819Y-121949023D01*
X134824818Y-121949023D01*
X134474491Y-121803913D01*
X134159204Y-121593245D01*
X134159201Y-121593243D01*
X133891077Y-121325119D01*
X133700170Y-121039406D01*
X133680407Y-121009829D01*
X133535297Y-120659502D01*
X133518071Y-120572900D01*
X133461320Y-120287597D01*
X133461320Y-119908403D01*
X133535296Y-119536501D01*
X133535297Y-119536498D01*
X133680407Y-119186171D01*
X133891075Y-118870884D01*
X133891077Y-118870881D01*
X134159201Y-118602757D01*
X134474490Y-118392088D01*
X134474491Y-118392087D01*
X134824818Y-118246977D01*
X134824819Y-118246977D01*
X134824821Y-118246976D01*
X135196723Y-118173000D01*
X135575917Y-118173000D01*
X135947819Y-118246976D01*
X135947819Y-118246976D01*
G37*
G36*
X128947819Y-118246976D02*
X128947821Y-118246977D01*
X128947822Y-118246977D01*
X129298149Y-118392087D01*
X129298150Y-118392088D01*
X129613439Y-118602757D01*
X129881563Y-118870881D01*
X129881565Y-118870884D01*
X130092233Y-119186171D01*
X130237343Y-119536498D01*
X130237344Y-119536501D01*
X130311320Y-119908403D01*
X130311320Y-120287597D01*
X130254570Y-120572900D01*
X130237343Y-120659502D01*
X130092233Y-121009829D01*
X130072470Y-121039406D01*
X129881563Y-121325119D01*
X129613439Y-121593243D01*
X129613436Y-121593245D01*
X129298149Y-121803913D01*
X128947822Y-121949023D01*
X128947821Y-121949023D01*
X128947819Y-121949024D01*
X128575917Y-122023000D01*
X128196723Y-122023000D01*
X127824821Y-121949024D01*
X127824819Y-121949023D01*
X127824818Y-121949023D01*
X127474491Y-121803913D01*
X127159204Y-121593245D01*
X127159201Y-121593243D01*
X126891077Y-121325119D01*
X126700170Y-121039406D01*
X126680407Y-121009829D01*
X126535297Y-120659502D01*
X126518071Y-120572900D01*
X126461320Y-120287597D01*
X126461320Y-119908403D01*
X126535296Y-119536501D01*
X126535297Y-119536498D01*
X126680407Y-119186171D01*
X126891075Y-118870884D01*
X126891077Y-118870881D01*
X127159201Y-118602757D01*
X127474490Y-118392088D01*
X127474491Y-118392087D01*
X127824818Y-118246977D01*
X127824819Y-118246977D01*
X127824821Y-118246976D01*
X128196723Y-118173000D01*
X128575917Y-118173000D01*
X128947819Y-118246976D01*
X128947819Y-118246976D01*
G37*
G36*
X133741754Y-111312970D02*
X133741756Y-111312971D01*
X133741757Y-111312971D01*
X133907367Y-111381569D01*
X134056414Y-111481159D01*
X134183161Y-111607906D01*
X134282751Y-111756953D01*
X134351350Y-111922566D01*
X134386320Y-112098371D01*
X134386320Y-112277629D01*
X134351350Y-112453434D01*
X134282751Y-112619047D01*
X134183161Y-112768094D01*
X134056414Y-112894841D01*
X134056411Y-112894843D01*
X133907367Y-112994431D01*
X133741757Y-113063029D01*
X133741756Y-113063029D01*
X133741754Y-113063030D01*
X133565949Y-113098000D01*
X133386691Y-113098000D01*
X133210886Y-113063030D01*
X133210884Y-113063029D01*
X133210883Y-113063029D01*
X133045273Y-112994431D01*
X132896229Y-112894843D01*
X132896226Y-112894841D01*
X132769479Y-112768094D01*
X132669889Y-112619047D01*
X132601290Y-112453434D01*
X132566320Y-112277629D01*
X132566320Y-112098371D01*
X132601290Y-111922566D01*
X132669889Y-111756953D01*
X132769479Y-111607906D01*
X132896226Y-111481159D01*
X133045273Y-111381569D01*
X133210883Y-111312971D01*
X133210884Y-111312971D01*
X133210886Y-111312970D01*
X133386691Y-111278000D01*
X133565949Y-111278000D01*
X133741754Y-111312970D01*
X133741754Y-111312970D01*
G37*
G36*
X126741754Y-111312970D02*
X126741756Y-111312971D01*
X126741757Y-111312971D01*
X126907367Y-111381569D01*
X127056414Y-111481159D01*
X127183161Y-111607906D01*
X127282751Y-111756953D01*
X127351350Y-111922566D01*
X127386320Y-112098371D01*
X127386320Y-112277629D01*
X127351350Y-112453434D01*
X127282751Y-112619047D01*
X127183161Y-112768094D01*
X127056414Y-112894841D01*
X127056411Y-112894843D01*
X126907367Y-112994431D01*
X126741757Y-113063029D01*
X126741756Y-113063029D01*
X126741754Y-113063030D01*
X126565949Y-113098000D01*
X126386691Y-113098000D01*
X126210886Y-113063030D01*
X126210884Y-113063029D01*
X126210883Y-113063029D01*
X126045273Y-112994431D01*
X125896229Y-112894843D01*
X125896226Y-112894841D01*
X125769479Y-112768094D01*
X125669889Y-112619047D01*
X125601290Y-112453434D01*
X125566320Y-112277629D01*
X125566320Y-112098371D01*
X125601290Y-111922566D01*
X125669889Y-111756953D01*
X125769479Y-111607906D01*
X125896226Y-111481159D01*
X126045273Y-111381569D01*
X126210883Y-111312971D01*
X126210884Y-111312971D01*
X126210886Y-111312970D01*
X126386691Y-111278000D01*
X126565949Y-111278000D01*
X126741754Y-111312970D01*
X126741754Y-111312970D01*
G37*
G36*
X130241754Y-111312970D02*
X130241756Y-111312971D01*
X130241757Y-111312971D01*
X130407367Y-111381569D01*
X130556414Y-111481159D01*
X130683161Y-111607906D01*
X130782751Y-111756953D01*
X130851350Y-111922566D01*
X130886320Y-112098371D01*
X130886320Y-112277629D01*
X130851350Y-112453434D01*
X130782751Y-112619047D01*
X130683161Y-112768094D01*
X130556414Y-112894841D01*
X130556411Y-112894843D01*
X130407367Y-112994431D01*
X130241757Y-113063029D01*
X130241756Y-113063029D01*
X130241754Y-113063030D01*
X130065949Y-113098000D01*
X129886691Y-113098000D01*
X129710886Y-113063030D01*
X129710884Y-113063029D01*
X129710883Y-113063029D01*
X129545273Y-112994431D01*
X129396229Y-112894843D01*
X129396226Y-112894841D01*
X129269479Y-112768094D01*
X129169889Y-112619047D01*
X129101290Y-112453434D01*
X129066320Y-112277629D01*
X129066320Y-112098371D01*
X129101290Y-111922566D01*
X129169889Y-111756953D01*
X129269479Y-111607906D01*
X129396226Y-111481159D01*
X129545273Y-111381569D01*
X129710883Y-111312971D01*
X129710884Y-111312971D01*
X129710886Y-111312970D01*
X129886691Y-111278000D01*
X130065949Y-111278000D01*
X130241754Y-111312970D01*
X130241754Y-111312970D01*
G37*
G36*
X137241754Y-111312970D02*
X137241756Y-111312971D01*
X137241757Y-111312971D01*
X137407367Y-111381569D01*
X137556414Y-111481159D01*
X137683161Y-111607906D01*
X137782751Y-111756953D01*
X137851350Y-111922566D01*
X137886320Y-112098371D01*
X137886320Y-112277629D01*
X137851350Y-112453434D01*
X137782751Y-112619047D01*
X137683161Y-112768094D01*
X137556414Y-112894841D01*
X137556411Y-112894843D01*
X137407367Y-112994431D01*
X137241757Y-113063029D01*
X137241756Y-113063029D01*
X137241754Y-113063030D01*
X137065949Y-113098000D01*
X136886691Y-113098000D01*
X136710886Y-113063030D01*
X136710884Y-113063029D01*
X136710883Y-113063029D01*
X136545273Y-112994431D01*
X136396229Y-112894843D01*
X136396226Y-112894841D01*
X136269479Y-112768094D01*
X136169889Y-112619047D01*
X136101290Y-112453434D01*
X136066320Y-112277629D01*
X136066320Y-112098371D01*
X136101290Y-111922566D01*
X136169889Y-111756953D01*
X136269479Y-111607906D01*
X136396226Y-111481159D01*
X136545273Y-111381569D01*
X136710883Y-111312971D01*
X136710884Y-111312971D01*
X136710886Y-111312970D01*
X136886691Y-111278000D01*
X137065949Y-111278000D01*
X137241754Y-111312970D01*
X137241754Y-111312970D01*
G37*
G36*
X137241754Y-108312970D02*
X137241756Y-108312971D01*
X137241757Y-108312971D01*
X137407367Y-108381569D01*
X137556414Y-108481159D01*
X137683161Y-108607906D01*
X137782751Y-108756953D01*
X137851350Y-108922566D01*
X137886320Y-109098371D01*
X137886320Y-109277629D01*
X137851350Y-109453434D01*
X137782751Y-109619047D01*
X137683161Y-109768094D01*
X137556414Y-109894841D01*
X137556411Y-109894843D01*
X137407367Y-109994431D01*
X137241757Y-110063029D01*
X137241756Y-110063029D01*
X137241754Y-110063030D01*
X137065949Y-110098000D01*
X136886691Y-110098000D01*
X136710886Y-110063030D01*
X136710884Y-110063029D01*
X136710883Y-110063029D01*
X136545273Y-109994431D01*
X136396229Y-109894843D01*
X136396226Y-109894841D01*
X136269479Y-109768094D01*
X136169889Y-109619047D01*
X136101290Y-109453434D01*
X136066320Y-109277629D01*
X136066320Y-109098371D01*
X136101290Y-108922566D01*
X136169889Y-108756953D01*
X136269479Y-108607906D01*
X136396226Y-108481159D01*
X136545273Y-108381569D01*
X136710883Y-108312971D01*
X136710884Y-108312971D01*
X136710886Y-108312970D01*
X136886691Y-108278000D01*
X137065949Y-108278000D01*
X137241754Y-108312970D01*
X137241754Y-108312970D01*
G37*
G36*
X133741754Y-108312970D02*
X133741756Y-108312971D01*
X133741757Y-108312971D01*
X133907367Y-108381569D01*
X134056414Y-108481159D01*
X134183161Y-108607906D01*
X134282751Y-108756953D01*
X134351350Y-108922566D01*
X134386320Y-109098371D01*
X134386320Y-109277629D01*
X134351350Y-109453434D01*
X134282751Y-109619047D01*
X134183161Y-109768094D01*
X134056414Y-109894841D01*
X134056411Y-109894843D01*
X133907367Y-109994431D01*
X133741757Y-110063029D01*
X133741756Y-110063029D01*
X133741754Y-110063030D01*
X133565949Y-110098000D01*
X133386691Y-110098000D01*
X133210886Y-110063030D01*
X133210884Y-110063029D01*
X133210883Y-110063029D01*
X133045273Y-109994431D01*
X132896229Y-109894843D01*
X132896226Y-109894841D01*
X132769479Y-109768094D01*
X132669889Y-109619047D01*
X132601290Y-109453434D01*
X132566320Y-109277629D01*
X132566320Y-109098371D01*
X132601290Y-108922566D01*
X132669889Y-108756953D01*
X132769479Y-108607906D01*
X132896226Y-108481159D01*
X133045273Y-108381569D01*
X133210883Y-108312971D01*
X133210884Y-108312971D01*
X133210886Y-108312970D01*
X133386691Y-108278000D01*
X133565949Y-108278000D01*
X133741754Y-108312970D01*
X133741754Y-108312970D01*
G37*
G36*
X130241754Y-108312970D02*
X130241756Y-108312971D01*
X130241757Y-108312971D01*
X130407367Y-108381569D01*
X130556414Y-108481159D01*
X130683161Y-108607906D01*
X130782751Y-108756953D01*
X130851350Y-108922566D01*
X130886320Y-109098371D01*
X130886320Y-109277629D01*
X130851350Y-109453434D01*
X130782751Y-109619047D01*
X130683161Y-109768094D01*
X130556414Y-109894841D01*
X130556411Y-109894843D01*
X130407367Y-109994431D01*
X130241757Y-110063029D01*
X130241756Y-110063029D01*
X130241754Y-110063030D01*
X130065949Y-110098000D01*
X129886691Y-110098000D01*
X129710886Y-110063030D01*
X129710884Y-110063029D01*
X129710883Y-110063029D01*
X129545273Y-109994431D01*
X129396229Y-109894843D01*
X129396226Y-109894841D01*
X129269479Y-109768094D01*
X129169889Y-109619047D01*
X129101290Y-109453434D01*
X129066320Y-109277629D01*
X129066320Y-109098371D01*
X129101290Y-108922566D01*
X129169889Y-108756953D01*
X129269479Y-108607906D01*
X129396226Y-108481159D01*
X129545273Y-108381569D01*
X129710883Y-108312971D01*
X129710884Y-108312971D01*
X129710886Y-108312970D01*
X129886691Y-108278000D01*
X130065949Y-108278000D01*
X130241754Y-108312970D01*
X130241754Y-108312970D01*
G37*
G36*
X126741754Y-108312970D02*
X126741756Y-108312971D01*
X126741757Y-108312971D01*
X126907367Y-108381569D01*
X127056414Y-108481159D01*
X127183161Y-108607906D01*
X127282751Y-108756953D01*
X127351350Y-108922566D01*
X127386320Y-109098371D01*
X127386320Y-109277629D01*
X127351350Y-109453434D01*
X127282751Y-109619047D01*
X127183161Y-109768094D01*
X127056414Y-109894841D01*
X127056411Y-109894843D01*
X126907367Y-109994431D01*
X126741757Y-110063029D01*
X126741756Y-110063029D01*
X126741754Y-110063030D01*
X126565949Y-110098000D01*
X126386691Y-110098000D01*
X126210886Y-110063030D01*
X126210884Y-110063029D01*
X126210883Y-110063029D01*
X126045273Y-109994431D01*
X125896229Y-109894843D01*
X125896226Y-109894841D01*
X125769479Y-109768094D01*
X125669889Y-109619047D01*
X125601290Y-109453434D01*
X125566320Y-109277629D01*
X125566320Y-109098371D01*
X125601290Y-108922566D01*
X125669889Y-108756953D01*
X125769479Y-108607906D01*
X125896226Y-108481159D01*
X126045273Y-108381569D01*
X126210883Y-108312971D01*
X126210884Y-108312971D01*
X126210886Y-108312970D01*
X126386691Y-108278000D01*
X126565949Y-108278000D01*
X126741754Y-108312970D01*
X126741754Y-108312970D01*
G37*
G36*
X128006680Y-92187600D02*
X126206680Y-92187600D01*
X126206680Y-90387600D01*
X128006680Y-90387600D01*
X128006680Y-92187600D01*
X128006680Y-92187600D01*
G37*
G36*
X124829201Y-90422186D02*
X124992989Y-90490029D01*
X125140400Y-90588526D01*
X125265754Y-90713880D01*
X125364251Y-90861291D01*
X125432094Y-91025079D01*
X125466680Y-91198956D01*
X125466680Y-91376244D01*
X125432094Y-91550121D01*
X125364251Y-91713909D01*
X125265754Y-91861320D01*
X125140400Y-91986674D01*
X124992989Y-92085171D01*
X124829201Y-92153014D01*
X124655324Y-92187600D01*
X124478036Y-92187600D01*
X124304159Y-92153014D01*
X124140371Y-92085171D01*
X123992960Y-91986674D01*
X123867606Y-91861320D01*
X123769109Y-91713909D01*
X123701266Y-91550121D01*
X123666680Y-91376244D01*
X123666680Y-91198956D01*
X123701266Y-91025079D01*
X123769109Y-90861291D01*
X123867606Y-90713880D01*
X123992960Y-90588526D01*
X124140371Y-90490029D01*
X124304159Y-90422186D01*
X124478036Y-90387600D01*
X124655324Y-90387600D01*
X124829201Y-90422186D01*
X124829201Y-90422186D01*
G37*
G36*
X127369201Y-87882186D02*
X127532989Y-87950029D01*
X127680400Y-88048526D01*
X127805754Y-88173880D01*
X127904251Y-88321291D01*
X127972094Y-88485079D01*
X128006680Y-88658956D01*
X128006680Y-88836244D01*
X127972094Y-89010121D01*
X127904251Y-89173909D01*
X127805754Y-89321320D01*
X127680400Y-89446674D01*
X127532989Y-89545171D01*
X127369201Y-89613014D01*
X127195324Y-89647600D01*
X127018036Y-89647600D01*
X126844159Y-89613014D01*
X126680371Y-89545171D01*
X126532960Y-89446674D01*
X126407606Y-89321320D01*
X126309109Y-89173909D01*
X126241266Y-89010121D01*
X126206680Y-88836244D01*
X126206680Y-88658956D01*
X126241266Y-88485079D01*
X126309109Y-88321291D01*
X126407606Y-88173880D01*
X126532960Y-88048526D01*
X126680371Y-87950029D01*
X126844159Y-87882186D01*
X127018036Y-87847600D01*
X127195324Y-87847600D01*
X127369201Y-87882186D01*
X127369201Y-87882186D01*
G37*
G36*
X124829201Y-87882186D02*
X124992989Y-87950029D01*
X125140400Y-88048526D01*
X125265754Y-88173880D01*
X125364251Y-88321291D01*
X125432094Y-88485079D01*
X125466680Y-88658956D01*
X125466680Y-88836244D01*
X125432094Y-89010121D01*
X125364251Y-89173909D01*
X125265754Y-89321320D01*
X125140400Y-89446674D01*
X124992989Y-89545171D01*
X124829201Y-89613014D01*
X124655324Y-89647600D01*
X124478036Y-89647600D01*
X124304159Y-89613014D01*
X124140371Y-89545171D01*
X123992960Y-89446674D01*
X123867606Y-89321320D01*
X123769109Y-89173909D01*
X123701266Y-89010121D01*
X123666680Y-88836244D01*
X123666680Y-88658956D01*
X123701266Y-88485079D01*
X123769109Y-88321291D01*
X123867606Y-88173880D01*
X123992960Y-88048526D01*
X124140371Y-87950029D01*
X124304159Y-87882186D01*
X124478036Y-87847600D01*
X124655324Y-87847600D01*
X124829201Y-87882186D01*
X124829201Y-87882186D01*
G37*
G36*
X124829201Y-85342186D02*
X124992989Y-85410029D01*
X125140400Y-85508526D01*
X125265754Y-85633880D01*
X125364251Y-85781291D01*
X125432094Y-85945079D01*
X125466680Y-86118956D01*
X125466680Y-86296244D01*
X125432094Y-86470121D01*
X125364251Y-86633909D01*
X125265754Y-86781320D01*
X125140400Y-86906674D01*
X124992989Y-87005171D01*
X124829201Y-87073014D01*
X124655324Y-87107600D01*
X124478036Y-87107600D01*
X124304159Y-87073014D01*
X124140371Y-87005171D01*
X123992960Y-86906674D01*
X123867606Y-86781320D01*
X123769109Y-86633909D01*
X123701266Y-86470121D01*
X123666680Y-86296244D01*
X123666680Y-86118956D01*
X123701266Y-85945079D01*
X123769109Y-85781291D01*
X123867606Y-85633880D01*
X123992960Y-85508526D01*
X124140371Y-85410029D01*
X124304159Y-85342186D01*
X124478036Y-85307600D01*
X124655324Y-85307600D01*
X124829201Y-85342186D01*
X124829201Y-85342186D01*
G37*
G36*
X127369201Y-85342186D02*
X127532989Y-85410029D01*
X127680400Y-85508526D01*
X127805754Y-85633880D01*
X127904251Y-85781291D01*
X127972094Y-85945079D01*
X128006680Y-86118956D01*
X128006680Y-86296244D01*
X127972094Y-86470121D01*
X127904251Y-86633909D01*
X127805754Y-86781320D01*
X127680400Y-86906674D01*
X127532989Y-87005171D01*
X127369201Y-87073014D01*
X127195324Y-87107600D01*
X127018036Y-87107600D01*
X126844159Y-87073014D01*
X126680371Y-87005171D01*
X126532960Y-86906674D01*
X126407606Y-86781320D01*
X126309109Y-86633909D01*
X126241266Y-86470121D01*
X126206680Y-86296244D01*
X126206680Y-86118956D01*
X126241266Y-85945079D01*
X126309109Y-85781291D01*
X126407606Y-85633880D01*
X126532960Y-85508526D01*
X126680371Y-85410029D01*
X126844159Y-85342186D01*
X127018036Y-85307600D01*
X127195324Y-85307600D01*
X127369201Y-85342186D01*
X127369201Y-85342186D01*
G37*
G36*
X120736250Y-72572899D02*
X120736252Y-72572900D01*
X120736253Y-72572900D01*
X121195610Y-72763172D01*
X121609023Y-73039406D01*
X121960594Y-73390977D01*
X122236828Y-73804390D01*
X122427101Y-74263750D01*
X122524100Y-74751396D01*
X122524100Y-75248604D01*
X122427101Y-75736250D01*
X122236828Y-76195610D01*
X121960594Y-76609023D01*
X121609023Y-76960594D01*
X121609020Y-76960596D01*
X121195610Y-77236828D01*
X120736253Y-77427100D01*
X120736252Y-77427100D01*
X120736250Y-77427101D01*
X120248604Y-77524100D01*
X119751396Y-77524100D01*
X119263750Y-77427101D01*
X119263748Y-77427100D01*
X119263747Y-77427100D01*
X118804390Y-77236828D01*
X118390980Y-76960596D01*
X118390977Y-76960594D01*
X118039406Y-76609023D01*
X117763172Y-76195610D01*
X117572899Y-75736250D01*
X117475900Y-75248604D01*
X117475900Y-74751396D01*
X117572899Y-74263750D01*
X117763172Y-73804390D01*
X118039406Y-73390977D01*
X118390977Y-73039406D01*
X118804390Y-72763172D01*
X119263747Y-72572900D01*
X119263748Y-72572900D01*
X119263750Y-72572899D01*
X119751396Y-72475900D01*
X120248604Y-72475900D01*
X120736250Y-72572899D01*
X120736250Y-72572899D01*
G37*
G36*
X162736250Y-72572899D02*
X162736252Y-72572900D01*
X162736253Y-72572900D01*
X163195610Y-72763172D01*
X163609023Y-73039406D01*
X163960594Y-73390977D01*
X164236828Y-73804390D01*
X164427101Y-74263750D01*
X164524100Y-74751396D01*
X164524100Y-75248604D01*
X164427101Y-75736250D01*
X164236828Y-76195610D01*
X163960594Y-76609023D01*
X163609023Y-76960594D01*
X163609020Y-76960596D01*
X163195610Y-77236828D01*
X162736253Y-77427100D01*
X162736252Y-77427100D01*
X162736250Y-77427101D01*
X162248604Y-77524100D01*
X161751396Y-77524100D01*
X161263750Y-77427101D01*
X161263748Y-77427100D01*
X161263747Y-77427100D01*
X160804390Y-77236828D01*
X160390980Y-76960596D01*
X160390977Y-76960594D01*
X160039406Y-76609023D01*
X159763172Y-76195610D01*
X159572899Y-75736250D01*
X159475900Y-75248604D01*
X159475900Y-74751396D01*
X159572899Y-74263750D01*
X159763172Y-73804390D01*
X160039406Y-73390977D01*
X160390977Y-73039406D01*
X160804390Y-72763172D01*
X161263747Y-72572900D01*
X161263748Y-72572900D01*
X161263750Y-72572899D01*
X161751396Y-72475900D01*
X162248604Y-72475900D01*
X162736250Y-72572899D01*
X162736250Y-72572899D01*
G37*
M02*
