M48
INCH,TZ
T1C0.0120
T2C0.0400
T3C0.0402
T4C0.1201
T5C0.1285
%
G90
G05
T1
X46056Y-41118
X46056Y-46990
X46078Y-31196
X46080Y-44506
X46100Y-34322
X46130Y-37680
X47820Y-40282
X48282Y-47386
X48446Y-30802
X48492Y-49646
X48744Y-28276
X50248Y-39039
X50776Y-49672
X51256Y-29064
X51602Y-39047
X51674Y-39602
X51748Y-28298
X52040Y-29070
X52316Y-37036
X52846Y-28996
X53246Y-49658
X54950Y-28316
X55024Y-35744
X55173Y-33985
X55322Y-35438
X55440Y-39856
X55461Y-42374
X55622Y-49618
X56452Y-46283
X56452Y-46983
X57352Y-46283
X57352Y-46983
X57400Y-29058
X57408Y-31096
X57578Y-28298
X57662Y-37660
X57760Y-35504
X57790Y-49592
X58386Y-38494
X58386Y-38984
X58736Y-33466
X58954Y-31510
X59352Y-48183
X59752Y-47483
X60050Y-49602
X60150Y-28334
X60240Y-33070
X60595Y-31511
X60717Y-30067
X60740Y-29461
X60894Y-30350
X60933Y-29780
X61367Y-45045
X61387Y-46065
X61552Y-39690
X61752Y-44983
X62162Y-49570
X62464Y-28314
X62562Y-46312
X62954Y-31048
X63060Y-47380
X63122Y-42746
X63222Y-43146
X63222Y-43846
X63222Y-44646
X63622Y-42746
X63622Y-43446
X63622Y-44246
X63836Y-32516
X63844Y-34762
X65038Y-41800
X65038Y-44484
X65046Y-47396
X65104Y-34344
X65104Y-36630
X65104Y-39082
X65162Y-31136
T2
X49042Y-33940
X49042Y-34940
X49042Y-35940
X50042Y-33940
X50042Y-34940
X50042Y-35940
T3
X49794Y-42987
X49794Y-44169
X51172Y-42987
X51172Y-44169
X52550Y-42987
X52550Y-44169
X53928Y-42987
X53928Y-44169
T4
X50546Y-47283
X53302Y-47283
T5
X63780Y-29528
X47244Y-48425
X63780Y-48425
X47244Y-29528
T0
M30
